<?xml version="1.0" encoding="UTF-8"?>
<!DOCTYPE svg PUBLIC "-//W3C//DTD SVG 1.1//EN" "http://www.w3.org/Graphics/SVG/1.1/DTD/svg11.dtd">
<!-- Creator: CorelDRAW X5 -->
<svg xmlns="http://www.w3.org/2000/svg" xml:space="preserve" style="shape-rendering:geometricPrecision; text-rendering:geometricPrecision; image-rendering:optimizeQuality; fill-rule:evenodd; clip-rule:evenodd"
viewBox="0 0 15745 9841" preserveAspectRatio="xMaxYMax meet"
 xmlns:xlink="http://www.w3.org/1999/xlink">
 <defs>
  <style type="text/css">
   <![CDATA[
    .fil10 {fill:#2B2A29}
    .fil6 {fill:#A7BCC0}
    .fil8 {fill:#EF7F1A}
    .fil9 {fill:#FEFEFE}
    .fil2 {fill:#F6FCFC}
    .fil3 {fill:#6A7273}
    .fil7 {fill:#9DB9BB}
    .fil4 {fill:#A9BABB}
    .fil5 {fill:#B8CDCE}
    .fil1 {fill:#D9E4E7}
    .fil0 {fill:url(#id2)}
   ]]>
  </style>
     <mask id="id0">
  <linearGradient id="id1" gradientUnits="userSpaceOnUse" x1="7848.83" y1="3736.92" x2="7848.83" y2="1381.5">
   <stop offset="0" style="stop-opacity:1; stop-color:white"/>
   <stop offset="1" style="stop-opacity:0; stop-color:white"/>
  </linearGradient>
      <rect style="fill:url(#id1)" x="783" y="1009" width="14131" height="3100"/>
     </mask>
  <linearGradient id="id2" gradientUnits="userSpaceOnUse" x1="7847.84" y1="8863.5" x2="7847.84" y2="876.611">
   <stop offset="0" style="stop-color:#7F9191"/>
   <stop offset="0.501961" style="stop-color:#D2E5E7"/>
   <stop offset="1" style="stop-color:#7F9191"/>
  </linearGradient>
 </defs>
 <g id="Слой_x0020_1">
  <metadata id="CorelCorpID_0Corel-Layer"/>
  <g id="_300438600">
   <g>
    <path class="fil0" d="M14458 658c78,16 143,64 214,88l-8 -24 36 -71c70,29 221,119 252,179 59,74 108,116 162,204 50,82 89,179 113,272 48,190 27,533 27,740l0 6101c0,257 13,412 -109,648 -183,352 -551,573 -953,572 -4066,-6 -8136,0 -12202,0 -460,0 -849,57 -1217,-318 -109,-112 -267,-345 -268,-499 47,126 183,234 222,266 -135,-174 -144,-874 -144,-1132l0 -5944c0,-75 -2,-151 -1,-226 1,-79 15,-156 34,-230 -23,-4 -41,-13 -99,-7 19,-106 78,-228 140,-317l164 -175c14,-13 46,-43 66,-59 195,-163 458,-218 709,-217 1841,10 3707,1 5550,1l6475 0c188,0 739,-27 875,60 -14,46 -33,42 -36,87zm-14458 8254l0 -410 0 -7262 0 -293c5,-70 15,-134 39,-177 75,99 25,173 67,244 44,-34 47,-124 68,-181 63,-169 153,-325 289,-437 200,-165 440,-262 706,-267 646,-12 1302,-1 1949,-1l11199 0c78,0 441,15 483,-4 -5,-31 3,-1 -6,-23 -1,-2 -3,-9 -10,-18 -16,-19 -77,-50 -116,-85l6 0 6 0 6 0 6 0 6 0c115,0 150,2 266,41 79,26 153,64 226,109 79,49 321,240 352,333 152,230 125,355 95,524 2,66 -39,118 -39,185l0 7203c0,268 22,456 -103,704 -90,178 -185,341 -372,431 -72,34 -126,88 -264,138 -202,74 -903,46 -1153,46l-11199 0c-308,0 -1354,19 -1583,-21 -577,-50 -765,-502 -906,-684 -10,-23 -16,-56 -20,-94z"/>
    <path class="fil1" d="M3043 975c69,-20 521,-7 628,-7l8925 0c89,0 177,0 208,102 25,80 -11,179 -96,201 -75,19 -521,4 -633,4l-8925 0c-92,0 -180,3 -209,-102 -25,-88 15,-173 103,-198zm-2439 326c-3,69 -23,134 -24,215 -1,75 1,151 1,226l0 5944c0,258 -24,647 30,886 9,50 79,208 113,244 85,-1 231,114 324,140 65,18 83,9 189,40 72,21 120,35 199,36 310,6 625,2 935,2l11159 0c263,0 646,33 888,-47 131,-43 174,-84 277,-166 70,-56 56,-47 100,-118 24,-39 28,-3 51,-67 34,-97 16,37 66,-161l23 -4c-1,-48 30,-287 30,-431l0 -6052c0,-143 -10,-325 1,-463 14,-192 50,-316 59,-416 -15,-75 -106,-143 -146,-201 -12,-5 -196,-149 -205,-161 -72,-24 -137,-72 -214,-88 -42,-1 -149,-27 -201,-35 -62,-10 -159,-5 -225,-5 -4096,-5 -8195,7 -12291,0 -295,-1 -497,-9 -750,166 -341,236 -334,473 -388,517z"/>
    <path class="fil2" style="mask:url(#id0)" d="M14894 3832c41,-135 6,-2639 4,-2822l-14074 1c69,436 -247,2953 221,3088 65,19 2308,7 2487,7l10657 0c104,0 384,15 466,-16 105,-40 235,-135 238,-257z"/>
    <path class="fil3" d="M20 9007c28,167 173,392 293,512 227,225 432,300 663,322l648 0 13073 0c228,-1 411,-73 596,-216 154,-119 283,-278 358,-459 70,-168 89,-291 94,-428l0 -294 0 -6534 0 -13c0,-268 -3,-537 0,-804 2,-149 -90,-520 -210,-610 42,47 86,306 61,512 2,66 4,131 4,197l0 7203c0,268 22,456 -103,704 -90,178 -185,341 -372,431 -72,34 -126,88 -264,138 -202,74 -903,46 -1153,46l-11199 0c-308,0 -1354,19 -1583,-21 -622,-106 -871,-686 -906,-684z"/>
    <path class="fil3" d="M3043 975c-88,25 -127,110 -103,198 29,105 117,102 209,102l8925 0c112,0 558,15 633,-4 85,-21 121,-121 96,-201 -32,-103 -119,-103 -208,-102l-8925 0c-107,0 -559,-13 -628,7z"/>
    <path class="fil4" d="M898 9008c57,106 347,214 464,237 165,33 502,14 685,14l11897 0c246,0 387,19 622,-76 317,-128 575,-471 579,-819 5,-468 0,-939 0,-1407l0 -4901c0,-121 24,-640 -20,-716l-25 57c-25,229 -22,181 -23,422 -6,2108 5,4219 0,6328 -1,281 -1,133 -65,387l-10 -27c-24,189 -249,422 -417,498 -270,122 -537,101 -828,101l-12025 0c-104,0 -467,5 -546,-29l-184 -51c-40,-13 -64,-10 -104,-19z"/>
    <path class="fil3" d="M14661 748c569,390 484,642 484,1309l0 4901c0,468 5,939 0,1407 -4,347 -261,691 -579,819 -235,95 -376,76 -622,76l-11897 0c-183,0 -520,19 -685,-14 -118,-24 -408,-131 -464,-237 -41,-19 -151,-142 -174,-192 -69,-71 -172,-184 -221,-265 1,154 159,387 268,499 368,375 757,318 1217,318 4067,0 8136,-6 12202,0 402,1 770,-220 953,-572 123,-236 109,-391 109,-648l0 -6101c0,-207 21,-550 -27,-740 -24,-93 -63,-190 -113,-272 -76,-180 -371,-397 -411,-395 -56,2 -24,61 -42,108z"/>
    <path class="fil5" d="M39 770c75,99 25,173 67,244 44,-34 47,-124 68,-181 63,-169 153,-325 289,-437 200,-165 440,-262 706,-267 646,-12 1302,-1 1949,-1l11199 0c78,0 441,15 483,-4 -5,-31 3,-1 -6,-23 -1,-2 -3,-9 -10,-18 -16,-19 -77,-50 -116,-85l-13468 0 -234 0c-64,4 -128,14 -207,41 -310,102 -656,428 -720,730z"/>
    <path class="fil5" d="M724 8816c22,50 132,173 174,192 40,9 64,6 104,19l184 51c79,34 441,29 546,29l12025 0c291,0 558,21 828,-101 168,-76 393,-309 417,-498l10 27c64,-254 65,-106 65,-387 5,-2108 -5,-4220 0,-6328 1,-241 -2,-194 23,-422l25 -50c6,-54 -74,-240 -114,-276 -9,100 -32,260 -46,453 -10,138 -1,320 -1,463l0 6052c0,145 -31,383 -30,431l-23 4c-50,198 -32,64 -66,161 -23,64 -27,28 -51,67 -43,71 -30,62 -100,118 -103,83 -146,123 -277,166 -242,80 -624,47 -888,47l-11159 0c-311,0 -625,4 -935,-2 -79,-1 -126,-15 -199,-36 -106,-31 -124,-22 -189,-40 -94,-26 -239,-142 -324,-140z"/>
    <path class="fil5" d="M610 1303c9,-34 41,-283 382,-519 253,-175 455,-167 750,-166 4096,8 8195,-4 12291,0 66,0 162,0 225,9 265,23 374,107 404,121 10,-41 29,-56 40,-104 -309,-212 -894,-134 -1082,-134l-6475 0c-1843,0 -3709,10 -5550,-1 -251,-1 -514,54 -709,217 -99,82 -144,136 -229,235 -62,89 -121,211 -140,317 47,7 69,8 95,25z"/>
    <ellipse class="fil6" cx="7809" cy="8765" rx="6224" ry="185"/>
   </g>
   <g>
    <path class="fil7" d="M9632 1839c-70,90 -193,349 -236,462 -202,530 669,539 476,3 -28,-78 -191,-417 -239,-465z"/>
    <path class="fil7" d="M4274 1840c-47,45 -207,380 -236,457 -38,102 -54,177 4,277 157,272 611,104 472,-265 -37,-98 -176,-395 -240,-469z"/>
    <path class="fil7" d="M6045 1839c-58,59 -202,364 -238,456 -39,102 -55,182 4,281 162,270 606,100 471,-265 -53,-145 -155,-339 -238,-472z"/>
    <path class="fil7" d="M7865 1840c-66,86 -194,345 -236,457 -204,543 665,535 475,13 -42,-114 -167,-374 -239,-470z"/>
    <path class="fil7" d="M8602 1657c-5,46 -66,154 -86,208 -128,337 184,473 372,372 305,-165 -7,-603 -116,-809l-17 -21c-68,64 -82,194 -153,251z"/>
    <path class="fil7" d="M10491 1433c-9,64 -248,414 -241,581 7,173 178,298 352,244 45,-14 116,-76 129,-77 72,-169 97,-166 -17,-415 -50,-110 -125,-262 -192,-360l-31 28z"/>
    <path class="fil7" d="M5010 1659c-10,99 -134,228 -117,376 36,308 489,317 536,10 24,-156 -105,-282 -116,-385 -62,-51 -91,-189 -152,-251 -63,64 -86,198 -152,251z"/>
    <path class="fil7" d="M6782 1652c-5,81 -132,230 -122,370 9,138 125,246 264,249 138,3 261,-101 276,-238 17,-153 -116,-294 -123,-388 -39,-30 -114,-187 -142,-242 -65,52 -89,198 -153,248z"/>
    <path class="fil7" d="M11171 2179c-2,45 -55,143 -69,203 -62,265 282,430 452,246 214,-233 -87,-560 -182,-788 -61,37 -144,291 -200,339z"/>
    <path class="fil7" d="M3097 1999c7,239 289,362 446,206 81,-80 116,-159 82,-278 -20,-71 -107,-238 -111,-281 -51,-39 -100,-179 -144,-241l-21 24 -134 250c-47,97 -106,211 -118,319z"/>
    <path class="fil7" d="M12018 1840c0,47 -109,239 67,376 123,96 272,65 373,-40 204,-211 -165,-624 -176,-743l-30 -27c-51,78 -207,408 -234,435z"/>
   </g>
  </g>
  <path id="cvet" fill="#EF7F1A" d="M5570 7601c-37,-18 -7,-39 -4,-48 -10,-11 -23,-20 -29,-35 36,-24 288,-4 371,-10 94,-7 24,45 21,47 14,7 12,4 23,13 -1,25 -5,24 -22,35 12,9 17,2 21,16 4,15 -3,14 -6,25 -7,30 -3,-1 3,28 6,29 -5,27 -11,29 -3,1 -10,2 -13,3l-203 0c-38,0 -76,0 -114,0 -78,0 -54,-26 -37,-47 -10,-15 -18,-12 -16,-29 1,-10 2,-6 6,-13 12,-20 -1,10 9,-14zm6202 -2065l71 -3 9 -192c-7,6 -3,0 -9,9 -8,12 -10,23 -14,36l-56 150zm-920 -245l-4 270c54,-6 229,2 277,-9l13 -5c14,-16 32,-259 1,-270 -7,-3 -109,11 -136,11 -29,0 -131,-2 -150,4zm-347 277l267 -6 -4 -266c-78,-7 -147,50 -181,85 -29,30 -77,144 -82,187zm1636 -46c18,2 86,-8 115,-8 52,-1 350,-5 359,-13 9,-8 5,-40 5,-49l-4 -163c-63,-1 -286,-1 -339,16 -55,17 -116,163 -136,218zm1487 -256c5,4 3,6 25,8 10,1 24,0 36,0 -85,41 -498,11 -583,63 -23,14 -63,112 -62,151 123,1 257,-12 383,-13 59,0 300,-22 380,-25 61,-3 134,-4 193,-9 64,-6 122,-9 182,-11 201,-4 160,-84 154,-233 -126,4 -265,2 -391,-2 -43,-1 -160,-7 -196,0 -63,12 -82,68 -120,70zm-4479 336l445 -5 0 -312c-13,-4 -163,-11 -184,-10 -58,2 -93,47 -118,78 -31,38 -51,71 -77,121l-66 129zm-1017 -350c-137,67 -103,-35 -187,234 -5,17 -11,36 -17,53 -7,22 -14,34 -12,53 0,1 0,3 1,4 22,8 200,7 225,0 11,-88 4,-291 16,-358l-11 20c-23,-1 -7,0 -15,-6zm-2073 346c71,3 235,-5 275,-1l-3 -304c-28,0 -94,13 -121,21 -48,13 -57,23 -73,70 -23,64 -61,150 -77,214zm-2098 -64l301 11c19,-113 50,-256 10,-362 -159,-21 -173,37 -206,125 -25,65 -85,175 -105,226zm-201 -7c23,1 46,1 72,2l55 2c9,-1 14,0 18,-5 33,-57 7,-288 -11,-357 -20,-76 -63,-174 -95,-251 -10,-23 -11,-13 -19,-30 -6,24 -26,614 -21,637zm8495 1832c383,-3 766,-14 1151,-16 193,-1 385,-2 577,-3 133,0 304,3 434,-1 49,-2 108,-12 80,45 -33,9 -489,3 -563,3 -563,-2 -1120,-16 -1678,-18l0 -10zm-8151 -18c1129,0 2285,0 3435,0l385 0 109 -4c367,0 739,0 1110,0 350,0 702,-2 1051,3 9,0 25,-1 34,0 21,3 15,1 23,13 -12,39 -71,13 -101,13 -94,0 -107,5 -212,0l-696 -1c-91,4 -241,9 -326,4 -150,-8 -627,-8 -780,0 -63,3 -119,-6 -173,-4 -98,5 -341,9 -429,4 -147,-8 -740,-9 -883,-1 -30,2 -56,-5 -94,-4 -78,3 -9,5 -94,0 -78,-4 -317,3 -415,3l-1377 3c-226,0 -535,6 -760,-3l-96 -4c-71,2 -38,-6 -77,-8 -14,-1 -40,8 -52,0 6,-17 20,-10 37,-9 17,0 33,-2 50,-2 97,-5 233,-6 331,-6zm-2778 30c-36,0 -72,-1 -109,-1 -29,0 -75,4 -73,-30 2,-31 47,-26 78,-26 182,0 227,-4 429,14 26,2 78,4 96,17 -151,11 -262,27 -422,27zm7260 -438c-8,26 -33,36 -59,21 -16,-9 -3,-12 -31,-14 -17,-2 -24,2 -34,2 -8,0 -21,-5 -34,-3 -14,1 -17,6 -31,6 -20,0 -46,-6 -74,-6 -37,0 -329,-6 -338,3 -1,1 -2,2 -3,3l-15 11c-10,5 -17,4 -28,4 -20,-2 -37,-5 -41,-25 -2,-27 -15,-55 6,-82 19,-25 39,-21 59,-3 27,24 131,12 173,12 122,0 260,6 380,-1 11,-14 9,-22 30,-24 68,-8 44,82 41,98zm-4553 -467c0,-36 1,-41 36,-41 47,0 171,-2 203,7 6,22 21,166 -2,175 -1,0 -3,1 -4,2 0,0 4,2 -23,5 -37,3 -178,5 -207,-1l-2 -146zm-1032 20c56,-8 216,-17 253,11 22,17 37,80 15,111 -34,48 -325,19 -361,3 -32,-14 -32,-67 -14,-96 17,-27 73,-25 107,-29zm-1393 -1631c-9,42 -133,256 -161,306 -25,45 -51,110 -73,158l-79 156c46,-14 44,1 46,2 15,7 26,11 34,26 17,30 -4,33 27,42 11,-26 14,-53 27,-81 10,-23 23,-52 31,-78 30,-97 147,-349 193,-444l74 -143c12,-19 27,-54 41,-68 45,-41 47,-64 89,-123 69,-97 111,-145 233,-191 36,-14 248,-28 291,-29 233,-5 617,-15 840,3 80,6 99,30 104,111 2,38 1,268 -2,310 -2,29 -5,73 -6,105 -1,96 -14,206 -16,301 -1,37 -7,64 -9,95 -5,71 -2,135 -11,202 -16,121 -13,251 -46,385 -11,46 -42,103 -89,123 -29,12 -153,22 -192,22 -72,-1 -145,-1 -217,-1l-632 -5c-73,0 -144,4 -212,4 -107,0 -301,-6 -409,-12 -61,-4 -47,-8 -91,16 -24,13 -50,21 -81,24 2,25 10,33 24,48 111,7 219,-29 227,98 8,130 -48,131 -203,119 -62,-5 -83,-9 -93,-70 -15,-92 25,-104 12,-135 -9,-20 -21,-35 -27,-58 -9,-33 5,-36 -21,-57 -46,-38 -34,-77 -53,-105 -43,68 -82,340 -92,440 -5,51 -7,120 -7,173 -14,-26 -11,-268 -10,-287 6,-121 39,-251 85,-360 25,-60 14,-66 16,-134 1,-41 6,-95 10,-138 4,-49 15,-65 48,-89 33,-27 23,3 57,-90 20,-55 111,-254 135,-294l157 -272c22,-39 28,-61 60,-87 13,-11 103,-223 212,-332 72,-72 107,-90 212,-113 162,-35 228,-38 395,-38l874 0c68,0 141,3 212,3l10619 -3c50,0 166,-9 197,19 52,46 32,24 40,67 3,13 9,29 12,42 4,18 3,31 7,49 75,302 109,863 126,1182 3,66 7,141 -1,207 -20,155 -60,173 -275,155 -67,-5 -146,-2 -214,-2 -873,0 -1738,-8 -2610,-6 -290,1 -570,-3 -859,3 -40,1 -716,3 -759,-1 -22,-2 -76,-8 -93,-5 -53,9 -141,6 -203,6l-2600 0c-71,-3 -144,3 -212,3 -38,0 -64,-7 -104,-5 -36,2 -72,2 -109,2l-1086 1c-182,0 -1692,13 -1734,-1 -40,-14 -22,-134 -22,-183 0,-208 7,-433 9,-641 1,-86 28,-831 8,-849 -16,-15 -231,2 -239,0 -14,-3 -17,-7 -32,-8 -12,-1 -24,-1 -37,-2 -71,-7 -888,-4 -983,2 -209,12 -248,7 -419,78 -91,38 -183,174 -237,256 -22,34 -112,170 -123,199zm-680 1171c-6,40 0,27 7,56 8,32 -1,139 2,187 4,79 6,162 7,242 1,79 24,391 42,457 43,13 106,-10 106,32 0,26 -16,15 -25,48 -10,37 -8,258 7,282 13,21 34,20 18,52 -21,24 -33,10 -58,8 -18,-1 -42,5 -64,5 -41,0 -91,-12 -128,-2l-2 26c38,8 71,-5 95,0 34,8 32,34 48,63 16,28 87,144 107,159 12,9 8,3 15,10 10,10 12,33 66,72 29,21 9,2 81,4l79 -1c12,1 20,3 29,9 12,8 14,7 19,19 39,19 53,37 127,53 159,34 319,60 480,52 4,-20 -1,-37 11,-52 -2,-30 18,-132 30,-160l53 -138c22,-44 40,-84 68,-124 43,-61 108,-131 175,-166 14,-8 15,-7 27,-17 35,-28 80,-44 127,-66 79,-37 217,-59 312,-70 109,-12 243,-2 344,25 37,10 49,7 86,12 65,9 242,137 289,185 60,62 43,50 87,106 21,27 19,37 35,63 21,35 81,147 93,183l5 9c0,0 5,12 6,12l21 67c12,37 15,19 31,87 374,-7 760,-6 1127,-12 -1,-32 13,-208 26,-235 15,-30 16,-64 21,-97 5,38 0,122 1,165 0,54 3,113 9,166 26,3 155,6 169,-3 -2,-31 -6,-12 -24,-9 0,0 -101,2 -117,-16 22,-24 106,-8 141,-16l1 -23c-46,12 -40,-6 -67,0 -25,5 -61,10 -72,-10 8,-8 -7,-2 13,-8 61,-19 132,34 127,-32 -37,-1 -107,13 -137,-4 7,-29 60,-8 136,-17 11,-55 -22,-33 -34,-34 -11,-1 -6,0 -13,-4 1,-1 2,-4 3,-3 1,1 2,-2 3,-3 11,-7 9,-5 26,-10 22,-7 20,-2 20,-28l-113 0c-20,-1 -19,1 -28,-10 23,-14 110,-9 139,-7l9 -39c0,-30 97,-11 165,-15 38,-2 149,-14 177,7 -2,17 -9,23 -22,32 8,29 11,11 5,45 -5,31 2,13 2,37 0,28 -11,4 0,40 5,18 8,8 -2,28l-4 15c13,12 16,21 0,36l1 15 11 5 1 25c-15,18 -5,0 -10,21l14 6c0,30 -3,13 -15,35l19 15c-3,29 -9,5 -10,27 3,1 61,0 71,0l-3 -25 20 -15c-9,-10 -18,-22 -21,-38l26 -8 -6 -5c-1,-1 -5,-4 -6,-5 -9,-9 -9,-10 -14,-30 11,-13 11,-8 26,-15 -1,-1 -2,-2 -3,-2l-18 -13c-8,-11 -5,-8 -4,-23 39,-24 141,-12 196,-12l153 -2c18,0 22,-1 37,4 22,7 17,86 15,112 -1,26 -10,11 -3,45 4,18 7,1 0,21 -6,18 -12,1 -4,7 19,18 21,2 46,4 35,3 14,9 47,-5 -9,0 -13,-5 -21,-11 2,-28 8,-12 9,-31 0,-18 -5,-7 -9,-29 8,-10 5,-3 21,-15 -21,-8 -20,-13 -21,-41l23 -10c-25,-12 -43,-34 -4,-49l0 -7c-11,-5 -23,-13 -22,-26 1,-18 18,-14 20,-23 0,-2 2,-2 3,-3 -39,-17 -18,-26 -16,-45 3,-25 2,2 -4,-18 -12,-38 4,-4 0,-39 -2,-20 -11,-14 -15,-35 30,-14 125,-5 177,-5 85,0 186,-22 160,28 -2,22 -4,24 23,26l99 -1c39,-1 34,7 38,15 -66,16 -122,-16 -156,16 5,12 16,22 27,21 29,-2 -20,-5 37,-1 22,2 74,-11 88,14 -36,16 -120,-12 -145,8 -2,21 0,18 12,31 22,-2 10,-8 32,-5l66 1c22,1 26,0 33,15 -35,19 -94,-7 -140,5 -1,47 31,12 144,26 -3,46 -97,14 -140,19l0 32c46,5 114,-9 152,2 -10,46 -109,7 -148,24l-2 22 183 1c2,-23 -2,-51 -2,-71l22 -229c21,73 26,255 38,301 94,4 616,6 683,-4 1,-20 0,-40 9,-55 36,-59 59,-33 150,-31 173,4 175,-6 179,81 77,7 484,1 596,1l1747 -3c11,0 19,3 35,3 35,-92 88,-176 141,-234 41,-45 146,-150 201,-183 14,-10 36,-37 55,-54 35,-33 92,-70 138,-89 32,-13 57,-15 87,-28 194,-79 478,-77 690,-19 120,33 134,44 242,95 48,23 86,61 124,96 30,19 24,26 42,49 10,13 30,28 43,41 53,55 111,127 154,192l63 103c124,-3 248,-12 375,-13 126,-1 253,-3 380,-3 194,0 584,1 763,-10l232 -2c157,20 430,-41 546,-107 113,-64 186,-139 236,-253 9,-20 14,-38 22,-57 19,-46 10,-49 21,-66 36,-155 -6,-269 80,-439l27 -62c40,-64 56,-7 56,-200 0,-172 -12,-335 -16,-503 -5,-218 -28,-437 -38,-656 -7,-167 -11,-330 -22,-497 -3,-51 -6,-108 -13,-159 -6,-7 -8,-7 -10,-20 -2,-12 0,-19 3,-29 -2,-72 -81,-307 -108,-374 -92,-230 -194,-420 -428,-530 -88,-41 -229,-86 -331,-82 -25,1 -31,-4 -54,-5 -157,-5 -321,-1 -479,-2l-8428 -36c-157,0 -113,-72 -281,-73 -330,-2 -816,17 -1134,62 -136,19 -272,46 -408,69 -138,23 -265,46 -398,77 -239,55 -527,151 -665,287 -52,51 -157,181 -172,246 -8,32 -55,137 -69,169 -8,17 -14,22 -23,36 -14,25 -27,58 -39,79 -12,20 -11,8 -23,36 -13,29 -19,26 -9,38 7,-18 8,-43 37,-35 24,8 17,33 9,48l-102 194c-9,19 -11,41 -29,46 -32,10 -33,-12 -36,-36 -1,19 -26,49 -35,67 -14,26 -20,46 -32,71 -13,26 -27,47 -38,71 -12,27 -19,48 -31,74 -11,24 -25,49 -36,72 -6,14 -8,27 -14,40l-82 180c-15,25 -84,189 -96,224 -17,50 -18,42 -30,73 -21,52 -31,110 -60,154 -37,58 -115,11 -131,76l37 -3c16,-23 1,-17 22,-29l3 8c0,2 6,-10 -2,19 -3,10 -4,6 -5,23z"/>
  <path id="belyi" class="fil9" d="M841 7392c38,-10 87,3 128,2 22,0 46,-6 64,-5 25,2 37,16 58,-8 16,-32 -5,-31 -18,-52 -15,-24 -16,-245 -7,-282 9,-33 25,-22 25,-48 0,-41 -63,-19 -106,-32 -19,-66 -41,-377 -42,-457 -1,-80 -3,-163 -7,-242 -3,-48 6,-155 -2,-187 -7,-29 -14,-16 -7,-56l-10 28c-2,17 1,10 -5,24 -35,98 -45,296 -48,398 -2,80 -1,417 14,479 24,12 28,6 51,8 20,2 25,9 45,12 32,5 74,2 102,11 8,42 -19,0 -21,97 -2,64 -1,155 4,218 2,33 0,22 17,41 12,14 16,21 8,38 -24,15 -32,3 -60,3 -21,0 -40,5 -64,4 -21,0 -77,-7 -94,-5 -20,2 -17,-4 -24,10zm886 -2153c11,-10 4,0 11,-15 65,-32 118,-38 198,-21 30,15 56,21 60,60 4,39 -5,81 2,120 -19,28 -4,103 0,140 3,29 1,36 23,50 16,9 30,21 52,19 14,-17 49,-103 58,-132 36,-48 151,-385 205,-503 13,-28 69,-141 69,-162 -24,-13 -63,-10 -99,-9 -43,1 -44,20 -54,53 -21,2 -42,-3 -59,-3 -28,-1 -19,3 -44,-6 -17,-52 -90,-40 -148,-44 -29,0 -122,16 -137,27 -14,10 -51,82 -65,103 -43,68 -80,143 -122,213 -39,66 -212,413 -199,469 63,36 124,-23 127,-33 29,-13 26,-26 63,-36 29,-8 51,5 82,-3 17,-64 -39,-223 -24,-287zm722 207c22,-70 64,-160 75,-231 4,-27 31,-268 31,-268 -5,-2 -8,-4 -19,3 -16,12 -77,81 -95,98 -38,36 -70,77 -110,112 -66,58 -47,65 -64,104 -16,38 -74,166 -87,183 25,-7 18,-11 56,-10 60,2 158,11 212,8zm10826 -479l-17 285c198,-8 186,7 359,17 -7,-92 -20,-186 -29,-281 -9,-93 -7,-195 -18,-288 -18,17 -53,72 -133,147 -29,27 -79,66 -114,93 -36,28 -31,13 -48,27zm-469 -7l-1 130 -2 143 -4 263 58 1 -3 -96 -9 -424 1 -33 -38 17zm-153 540l57 -4 -6 -475c-49,9 -42,62 -42,89 -1,124 -11,271 -10,390zm-4485 90l-9 140 40 1 -6 -177c-2,-18 2,-12 -5,-25l-13 -382c-8,-147 -8,-299 -8,-447 0,-186 13,-154 -72,-154l-681 1c-76,1 -151,-1 -227,0 -77,1 -133,-5 -206,0l-1 609 2 366c-9,14 -10,189 -2,204 13,15 567,6 631,6 57,0 163,4 215,-3l44 -136c25,-77 51,-155 78,-231 15,-42 29,-72 59,-94 22,-16 101,-42 123,-17 8,6 -8,5 15,6l11 -20c9,5 7,10 11,32 2,16 5,27 7,43 6,63 -6,205 -6,278zm-1402 -397l-7 390c76,1 83,1 168,9 -2,-150 -3,-189 0,-320l0 -312c-18,7 -77,74 -99,95 -58,56 -61,27 -61,138zm-1531 368l339 8c0,-141 -11,-703 -20,-736 -20,2 -1,-11 -33,31 -9,12 -20,24 -29,35 -24,29 -37,43 -64,69 -45,42 -103,122 -150,176 -14,17 -15,19 -16,49 -2,80 -30,349 -27,368zm6658 -29l165 -7c17,-75 6,-244 2,-323 -6,-107 6,-224 8,-331 -28,5 -83,28 -115,40 -23,9 -21,5 -23,31 -4,65 -6,133 -9,198 -6,134 -16,259 -28,393zm718 -419l-1 -590c-41,-6 -452,-6 -475,2l-31 595c1,55 -1,104 -5,163 -3,45 9,38 25,67 15,28 12,44 16,77 3,-14 47,-79 58,-95 20,-28 71,-59 97,-60 104,-5 216,5 320,0l-4 -160zm294 -5l-10 388c43,2 60,3 98,-9 5,-63 29,-146 61,-181 38,-41 128,-47 196,-52l-9 -147c-9,-195 -22,-392 -13,-589l-326 6c0,95 5,190 5,286 0,97 -5,204 -1,299zm725 -5l-3 162c38,-2 57,-58 120,-70 36,-7 153,-1 196,0 126,4 264,6 391,2l0 -14c-1,-104 2,-82 -62,-166 -35,-47 -61,-85 -97,-130l-71 -97c-11,-13 -22,-14 -29,-30 -14,-34 5,-173 -5,-221l-226 0c-21,105 3,111 -42,224 -20,51 -67,144 -107,162 -15,-5 -33,-17 -37,-30l-1 -180c0,-7 -8,-241 -17,-247 -19,-14 -20,26 -21,34 -7,48 -1,48 2,95 5,99 13,440 7,507zm-5383 39l-16 426c-8,14 -12,139 -10,162l838 2 79 -157c11,-11 63,-129 75,-153 13,-27 26,-47 44,-70 14,-18 44,-50 52,-65 8,-51 9,-89 5,-140l2 -3c-11,-104 -8,-579 -14,-596 -21,-9 -677,-5 -795,-4l-185 0c-20,1 -41,9 -66,9l-7 589zm1130 103c37,1 59,-5 104,0 31,3 76,6 106,2 9,-7 8,10 9,-18 1,-118 -2,-237 1,-355l7 -262c0,-34 -2,-60 -27,-70 -1,66 0,132 0,199 0,53 3,147 -5,197 -4,27 -75,87 -96,105 -19,17 -30,29 -50,48 -9,9 -17,15 -26,23 -22,18 -20,13 -25,29l-7 100 12 2zm1384 6c12,-9 4,2 8,-14 5,-20 6,-650 -9,-685 -32,-11 -589,-6 -651,-6 -51,0 -177,-6 -219,4 -7,90 -2,192 -1,283 2,99 -1,199 1,298l0 350c-11,31 -5,214 4,252 33,11 288,-1 347,-1 126,-2 118,7 138,-40 18,-43 37,-83 52,-129 31,-70 61,-157 100,-218 21,-33 44,-66 83,-79 48,-16 98,-7 145,-14zm390 281c-1,1 -2,2 -2,4 0,2 -2,3 -2,4l-10 34c-10,39 -25,119 -17,154 24,7 500,9 538,2 14,-18 80,-173 88,-200 6,-6 63,-131 73,-150 14,-26 32,-48 34,-77 2,-33 5,-88 0,-119 14,-22 6,-120 8,-155l20 -317c0,-40 13,-130 -2,-158 -11,-12 -203,-9 -236,-9 -51,0 -298,-6 -333,0 -23,5 -351,3 -427,6 -43,1 -20,2 -24,2 -35,8 -14,140 -13,173 2,161 7,322 4,484 -1,36 -3,33 7,43 61,12 243,0 304,5 13,40 12,93 11,144 -1,55 -17,87 -23,132zm-8765 198c9,12 1,8 23,13 50,11 47,-11 50,-34l42 -315c-20,23 -26,63 -35,85 -16,44 -91,223 -80,251zm3643 -157c16,-61 61,-166 89,-222 9,-18 16,-35 31,-43 17,-8 -14,6 7,-3 60,-25 116,-45 184,-24 27,52 0,165 11,222 -16,26 -4,135 9,147 13,13 87,6 118,5 22,-1 23,3 33,-11 8,-12 7,-152 -1,-165 7,-40 -12,-455 -11,-559 0,-49 -5,-33 -9,-51 -8,-37 22,-131 8,-271 -62,-6 -696,-1 -826,-1 -114,0 -70,17 -62,264 7,208 20,503 3,699l-3 95c70,8 178,1 249,0 145,-2 127,19 169,-83zm-2783 -132c-2,-72 21,-628 17,-652 -105,-8 -234,-3 -339,-4 -77,-1 -193,-15 -215,41 -11,29 -16,36 -28,60 -157,318 -115,468 -147,556 -1,1 -1,3 -2,4l-3 8c-1,3 -1,6 -2,9 -1,6 -1,16 -2,23l-14 124c-2,20 -25,140 -9,156 23,14 463,10 534,11 29,0 113,7 133,-4 12,-7 53,-64 56,-83l20 -250zm554 -633c8,5 -5,-1 9,3l42 12c27,-13 24,-35 49,-38 37,13 47,121 -5,130 -25,-2 -20,-42 -56,-31l-25 13c32,81 74,142 104,233 39,119 32,173 35,301 12,-12 16,-27 23,-43 7,-16 14,-28 21,-43 15,-28 28,-56 41,-87 29,-67 67,-96 152,-104 173,-17 116,131 109,246 -3,39 -14,78 -13,113 -12,14 -8,20 -10,40 -21,172 -96,229 33,229 132,0 263,1 395,2 132,1 263,1 395,1 145,0 90,-1 102,-193 2,-26 22,-53 4,-77l2 -608c0,-50 7,-166 -2,-208 16,-26 8,-181 -4,-205 -24,-2 -16,9 -45,2 -18,-4 -24,-9 -47,-10 -74,-3 -246,1 -326,1l-878 2c-127,0 -120,5 -120,98 0,72 -6,144 -5,217 11,7 -12,4 20,5zm-988 -141c32,4 247,2 272,-1 40,-5 79,3 112,-29 27,-25 35,-69 15,-108 -18,-36 -39,-25 -116,-18 -44,4 -83,6 -126,18 -63,18 -69,32 -112,66 -15,12 -8,9 -17,23 -13,18 -25,19 -29,50zm-1507 1387c37,-10 76,-40 95,-66 26,-35 21,-96 18,-144 -3,-51 -8,-96 -16,-146l-21 -103c-6,-20 -5,-18 -19,-23 -9,30 13,172 9,259 -13,242 -27,171 -74,201l8 23zm-79 -542c30,-3 33,-4 52,-21 18,-16 34,-15 61,-14 -2,-1 0,-16 -46,-2l79 -156c23,-48 48,-114 73,-158 28,-50 151,-264 161,-306l-15 13c9,-35 35,-64 44,-99 -32,25 -38,48 -60,87l-157 272c-24,40 -115,239 -135,294 -34,94 -24,63 -57,90zm5130 2120c-10,5 -19,11 -31,19l29 11c-1,17 -4,21 -9,33 -47,12 -241,7 -302,5l0 7c52,1 279,-7 310,6 0,29 -16,35 -46,37 -50,4 -184,1 -242,1l8 4c33,10 234,-9 283,9 1,21 -13,33 -24,43 17,10 19,1 28,15 -9,17 -13,8 -22,26 12,13 6,5 19,14l-7 29c286,6 593,9 880,10 68,0 109,12 127,-21 27,-46 4,-88 12,-137 14,-24 159,-11 159,-11 46,15 9,98 33,144 13,26 25,29 64,29l2107 24c62,1 126,-5 183,-3 33,1 55,6 89,5l68 0c0,0 12,2 13,2 17,-71 46,-124 53,-148 31,-102 42,-122 87,-219 11,-23 59,-102 78,-125 14,-18 33,-38 42,-60 -55,33 -160,137 -201,183 -52,58 -106,142 -141,234 -16,0 -24,-3 -35,-3l-1747 3c-112,0 -519,6 -596,-1 -4,-86 -6,-76 -179,-81 -91,-2 -114,-28 -150,31 -9,15 -9,35 -9,55 -67,10 -589,8 -683,4 -12,-46 -17,-228 -38,-301l-22 229c0,20 4,48 2,71l-183 -1 2 -22c40,-17 138,21 148,-24 -39,-10 -107,4 -152,-2l0 -32c42,-6 137,27 140,-19 -114,-13 -146,21 -144,-26 46,-13 105,13 140,-5 -7,-15 -11,-14 -33,-15l-66 -1c-23,-2 -11,4 -32,5 -12,-13 -14,-10 -12,-31 25,-20 109,9 145,-8 -14,-25 -66,-12 -88,-14 -56,-5 -7,-2 -37,1 -12,1 -23,-9 -27,-21 34,-32 90,0 156,-16 -4,-8 1,-16 -38,-15l-99 1c-27,-2 -25,-4 -23,-26 -10,6 -13,11 -20,18 16,7 19,4 29,18 -7,15 -8,15 -23,22 9,17 8,11 22,21l2 19zm7378 106c30,28 13,80 10,133 116,0 242,-2 357,-8 91,-5 319,3 351,-103l102 -347c15,-53 -4,-37 -1,-71 2,-29 5,-53 7,-85 -12,17 -2,21 -21,66 -8,19 -13,37 -22,57 -50,113 -123,188 -236,253 -116,66 -390,127 -546,107zm-232 2c-179,11 -569,10 -763,10 -127,0 -254,2 -380,3 -127,1 -251,10 -375,13l-63 -103c-43,-65 -101,-137 -154,-192 -12,-13 -32,-28 -43,-41 -18,-23 -12,-31 -42,-49 4,7 61,85 79,120 21,41 101,221 110,275 10,54 23,116 38,145 0,1 2,4 2,3 0,-1 1,2 2,3 120,0 264,-13 385,-21 127,-8 252,-14 380,-19 84,-4 770,-11 782,-18 9,-8 2,7 9,-17 1,-2 3,-14 3,-17 2,-12 5,-21 7,-32 15,-72 11,-31 22,-63zm1031 -39c12,1 25,-12 32,-21 27,-34 52,-69 66,-111 19,-58 32,-144 25,-209 -21,-3 -42,-1 -57,7 -3,3 -74,301 -66,334zm-6637 -769c4,21 21,24 41,25 11,1 18,1 28,-4l15 -11c1,-1 2,-2 3,-3 9,-9 301,-3 338,-3 28,0 54,6 74,6 15,0 17,-4 31,-6 13,-1 25,3 34,3 10,0 17,-3 34,-2 28,3 15,5 31,14 26,15 51,5 59,-21 -25,17 -29,34 -61,8 -30,-24 -36,-9 -60,-19 3,-12 5,0 10,-23 -33,-3 -385,-9 -433,-1 -34,6 -21,4 -53,2 -9,21 -9,37 -28,46 -17,8 -31,4 -47,-5l-15 -8zm-4173 708c2,28 60,195 77,245 5,15 5,20 12,34l1365 -20c-5,-13 -9,-5 -11,-14 0,-2 -2,-2 -3,-3 3,-12 8,-18 7,-29l-3 -7c-6,-16 -3,8 -6,-14 -3,-26 -3,-4 4,-14 11,-6 288,-8 313,-1 5,-21 -5,-3 10,-21 -44,20 -127,12 -181,12 -90,0 -142,13 -153,-34 26,-18 280,-15 321,-8l-1 -15c-48,8 -124,1 -177,3 -98,3 -142,12 -138,-38 28,-7 278,-7 315,-1l4 -15c-47,9 -124,2 -175,3 -40,1 -111,9 -143,-8 -6,-20 2,-28 15,-39 -7,-7 -16,-13 -22,-25 8,-19 0,0 8,-13 3,-5 2,2 9,-12 -8,-13 -14,-17 -15,-35 22,-22 124,-14 160,-14l0 -6c-33,0 -58,-6 -91,-7 -67,-1 -31,3 -72,-20l-9 39c-30,-2 -117,-7 -139,7 9,11 8,9 28,10l113 0c0,26 2,21 -20,28 -17,5 -15,3 -26,10 -1,1 -2,4 -3,3 -1,-1 -2,2 -3,3 7,4 2,3 13,4 12,1 45,-21 34,34 -76,8 -129,-13 -136,17 30,17 100,2 137,4 4,67 -66,13 -127,32 -21,7 -5,1 -13,8 12,20 48,15 72,10 27,-5 21,12 67,0l-1 23c-36,7 -119,-8 -141,16 16,17 117,16 117,16 18,-3 22,-22 24,9 -14,10 -143,6 -169,3 -6,-53 -9,-112 -9,-166 0,-43 5,-127 -1,-165 -4,33 -6,67 -21,97 -13,26 -27,203 -26,235 -367,6 -753,6 -1127,12 -16,-68 -19,-50 -31,-87l-21 -67c0,0 -5,-12 -6,-12l-5 -9zm380 -299c-97,0 -233,1 -331,6 -17,1 -33,3 -50,2 -17,0 -31,-8 -37,9 12,9 37,0 52,0 38,1 5,9 77,8l96 4c225,9 534,3 760,3l1377 -3c98,0 336,-7 415,-3 85,4 16,3 94,0 38,-2 64,6 94,4 143,-9 736,-7 883,1 88,5 332,1 429,-4 54,-3 109,7 173,4 153,-8 629,-8 780,0 85,5 235,0 326,-4l696 1c105,5 118,0 212,0 30,0 90,25 101,-13 -8,-12 -2,-10 -23,-13 -9,-1 -24,0 -34,0 -349,-5 -701,-3 -1051,-3 -371,0 -743,0 -1110,0l-109 4 -385 0c-1150,0 -2305,0 -3435,0zm6826 501c119,-26 215,58 234,155 24,123 -61,217 -156,236 -120,23 -216,-61 -235,-156 -25,-125 59,-213 157,-234zm517 242c35,-281 -172,-499 -414,-533 -284,-39 -505,172 -537,412 -38,284 170,509 414,539 288,36 506,-175 537,-418zm-8595 -257c115,-17 206,70 222,167 18,118 -68,212 -165,227 -122,19 -216,-68 -230,-167 -17,-124 68,-212 173,-228zm511 243c40,-285 -168,-506 -406,-540 -287,-41 -511,169 -544,408 -38,286 167,509 413,542 284,38 503,-171 537,-409zm-1945 -5c51,0 488,7 515,-5 58,-24 33,2 67,-16l65 -23 0 -25c34,3 5,14 44,15 0,16 0,28 -1,43 -1,17 0,16 1,41 0,8 0,16 1,24 0,1 1,3 1,4 5,19 11,7 13,56 1,33 4,17 8,36 8,36 0,39 24,99 4,11 4,11 8,22 21,-27 -1,-62 -14,-117 -11,-45 -15,-71 -22,-117 -15,-96 8,-180 -54,-147 -22,12 -6,27 -22,41 -6,8 -32,16 -39,20 -16,8 -18,15 -37,0 -7,-20 5,-18 10,-41l12 -170c-12,16 -8,33 -11,52 -162,8 -321,-18 -480,-52 -74,-16 -88,-34 -127,-53l11 172c-62,1 -124,9 -187,1 -6,-19 -18,-151 -12,-170 8,-28 43,-25 71,-24 34,1 64,-1 98,2 -9,-6 -17,-8 -29,-9l-79 1c-71,-1 -52,18 -81,-4 -54,-39 -56,-62 -66,-72 -7,-7 -3,-1 -15,-10 -20,-16 -92,-131 -107,-159 -15,-28 -13,-55 -48,-63 -24,-5 -57,7 -95,0 8,168 33,304 168,393 33,22 84,47 130,53l-2 71c-17,2 -115,9 -121,18l-11 15c-13,14 -5,-6 -14,15 14,30 71,20 113,19 21,0 42,0 63,-1 44,-4 492,3 573,4 49,0 166,-5 210,15l17 10c1,-1 2,2 3,2 -117,53 -486,9 -552,35z"/>
  <path id="kontur" class="fil10" d="M11446 8086c-30,244 -249,454 -537,418 -244,-31 -452,-255 -414,-539 32,-240 253,-451 537,-412 242,34 449,252 414,533zm-3550 -1152l15 8c16,9 30,13 47,5 19,-9 19,-25 28,-46 33,2 20,4 53,-2 48,-9 400,-3 433,1 -5,23 -7,11 -10,23 24,9 30,-6 60,19 32,26 36,9 61,-8 3,-17 28,-107 -41,-98 -21,3 -18,10 -30,24 -120,7 -258,1 -380,1 -43,0 -146,12 -173,-12 -20,-18 -41,-21 -59,3 -21,27 -7,55 -6,82zm4358 427l0 10c558,2 1116,17 1678,18 74,0 530,6 563,-3 28,-58 -30,-47 -80,-45 -131,4 -301,1 -434,1 -192,0 -385,2 -577,3 -385,2 -768,13 -1151,16zm-6716 158c5,14 18,23 29,35 -3,9 -33,30 4,48 -11,24 2,-6 -9,14 -4,7 -5,3 -6,13 -2,16 6,14 16,29 -17,22 -41,48 37,47 38,0 76,0 114,0l203 0c3,0 11,-2 13,-3 6,-2 17,1 11,-29 -6,-29 -10,2 -3,-28 3,-11 10,-10 6,-25 -4,-15 -9,-8 -21,-16 18,-11 21,-10 22,-35 -10,-8 -9,-6 -23,-13 4,-2 74,-53 -21,-47 -83,6 -335,-13 -371,10zm505 184c62,2 255,7 302,-5 5,-12 8,-16 9,-33l-29 -11c12,-7 21,-14 31,-19l-2 -19c-15,-10 -13,-4 -22,-21 16,-8 16,-7 23,-22 -9,-15 -13,-11 -29,-18 7,-7 10,-11 20,-18 27,-50 -75,-28 -160,-28 -53,0 -148,-9 -177,5 3,22 12,15 15,35 4,35 -12,1 0,39 7,20 7,-7 4,18 -2,18 -23,28 16,45 -1,1 -2,1 -3,3 -2,9 -19,5 -20,23 -1,13 11,21 22,26zm-891 -176c40,23 5,19 72,20 33,0 58,7 91,7l0 6c-35,0 -137,-8 -160,14 1,18 7,22 15,35 -6,13 -5,7 -9,12 -9,13 -1,-6 -8,13 6,12 14,18 22,25 -13,11 -21,19 -15,39 32,16 104,9 143,8 51,-2 128,5 175,-3 10,-21 7,-10 2,-28 -11,-36 0,-13 0,-40 0,-24 -7,-6 -2,-37 5,-33 3,-15 -5,-45 13,-9 19,-14 22,-32 -29,-21 -139,-9 -177,-7 -68,4 -165,-15 -165,15zm323 224c16,-15 13,-24 0,-36 -36,-6 -287,-6 -315,1 -4,50 40,41 138,38 53,-2 128,5 177,-3zm14 46l-1 -25 -11 -5c-41,-6 -295,-9 -321,8 11,47 63,33 153,34 54,0 137,8 181,-12zm-4126 -2224c14,6 13,3 19,23l21 103c8,50 13,95 16,146 3,48 7,109 -18,144 -19,26 -58,57 -95,66l-8 -23c47,-30 61,41 74,-201 5,-87 -18,-229 -9,-259zm1023 159c-11,-28 63,-207 80,-251 9,-23 15,-62 35,-85l-42 315c-3,23 0,45 -50,34 -22,-5 -14,-1 -23,-13zm64 -286c-54,3 -151,-6 -212,-8 -38,-1 -31,2 -56,10 13,-17 70,-145 87,-183 17,-39 -2,-45 64,-104 39,-35 72,-76 110,-112 18,-17 78,-87 95,-98 11,-8 14,-5 19,-3 0,1 -26,242 -31,268 -11,71 -54,161 -75,231zm796 -4l-20 250c-3,19 -44,77 -56,83 -20,11 -104,4 -133,4 -71,-1 -511,3 -534,-11 -16,-15 7,-135 9,-156l14 -124c1,-7 1,-17 2,-23 0,-4 1,-6 2,-9l3 -8c0,-1 1,-3 2,-4 33,-88 -10,-238 147,-556 12,-25 17,-31 28,-60 22,-56 138,-42 215,-41 105,2 234,-4 339,4 5,24 -19,580 -17,652zm-1115 18c-9,29 -44,115 -58,132 -21,2 -36,-9 -52,-19 -23,-13 -21,-20 -23,-50 -4,-37 -19,-112 0,-140 -7,-39 2,-80 -2,-120 -4,-38 -30,-45 -60,-60 -80,-17 -133,-11 -198,21 -7,15 0,5 -11,15 -16,64 41,223 24,287 -31,7 -52,-5 -82,3 -37,10 -34,23 -63,36 -2,10 -64,68 -127,33 -13,-56 160,-402 199,-469 42,-70 80,-146 122,-213 13,-21 51,-93 65,-103 15,-11 108,-27 137,-27 58,4 131,-8 148,44 25,9 16,5 44,6 16,1 38,5 59,3 10,-33 11,-53 54,-53 36,-1 74,-4 99,9 0,21 -56,133 -69,162 -54,119 -169,455 -205,503zm682 -791c4,-32 16,-32 29,-50 9,-13 2,-11 17,-23 43,-34 49,-47 112,-66 42,-12 82,-14 126,-18 77,-6 97,-17 116,18 20,39 12,83 -15,108 -33,32 -72,24 -112,29 -25,3 -240,4 -272,1zm-1473 810c-27,0 -43,-1 -61,14 -19,17 -22,18 -52,21 -32,25 -44,41 -48,89 -4,43 -8,97 -10,138 -2,67 9,74 -16,134 -46,109 -79,238 -85,360 -1,20 -4,261 10,287 0,-53 2,-123 7,-173 11,-100 50,-371 92,-440 19,28 7,67 53,105 26,21 12,24 21,57 6,22 19,38 27,58 14,31 -27,43 -12,135 10,61 31,66 93,70 155,12 211,11 203,-119 -8,-126 -116,-91 -227,-98 -14,-15 -22,-23 -24,-48 31,-2 57,-10 81,-24 44,-24 30,-20 91,-16 108,6 302,12 409,12 68,0 139,-4 212,-4l632 5c73,0 145,0 217,1 39,1 163,-10 192,-22 47,-19 78,-77 89,-123 33,-134 30,-264 46,-385 9,-67 6,-131 11,-202 2,-30 9,-57 9,-95 2,-95 14,-204 16,-301 0,-32 3,-76 6,-105 3,-42 4,-272 2,-310 -5,-80 -23,-104 -104,-111 -223,-18 -607,-8 -840,-3 -43,1 -255,15 -291,29 -122,47 -164,95 -233,191 -43,59 -45,82 -89,123 -14,13 -29,49 -41,68l-74 143c-46,95 -162,347 -193,444 -8,26 -20,55 -31,78 -12,28 -16,55 -27,81 -32,-8 -10,-11 -27,-42 -9,-15 -19,-19 -34,-26zm-15 1893c160,0 271,-16 422,-27 -18,-13 -70,-14 -96,-17 -203,-17 -248,-14 -429,-14 -31,0 -76,-5 -78,26 -2,34 43,29 73,30 36,1 72,1 109,1zm53 381c-5,-12 -7,-10 -19,-19 -34,-3 -64,-1 -98,-2 -28,0 -64,-4 -71,24 -6,19 7,152 12,170 63,8 125,-1 187,-1l-11 -172zm1621 -1267c-34,5 -89,2 -107,29 -19,29 -19,82 14,96 36,16 327,45 361,-3 22,-31 7,-94 -15,-111 -37,-28 -197,-19 -253,-11zm1032 -20l2 146c29,6 171,4 207,1 27,-2 23,-5 23,-5 1,-1 3,-2 4,-2 23,-9 9,-153 2,-175 -32,-8 -156,-7 -203,-7 -35,0 -36,5 -36,41zm5181 -994c26,-50 46,-83 77,-121 25,-31 60,-76 118,-78 21,-1 172,6 184,10l0 312 -445 5 66 -129zm98 -326c5,50 4,89 -5,140 -8,15 -37,46 -52,65 -17,22 -30,43 -44,70 -12,24 -64,142 -75,153l-79 157 -838 -2c-1,-23 3,-148 10,-162l16 -426 7 -589c25,0 45,-7 66,-9l185 0c118,-1 774,-5 795,4 6,17 3,492 14,596l-2 3zm65 98l-12 -2 7 -100c5,-17 4,-12 25,-29 10,-8 17,-14 26,-23 20,-19 31,-31 50,-48 21,-18 92,-78 96,-105 8,-49 5,-144 5,-197 0,-66 -1,-132 0,-199 25,10 28,37 27,70l-7 262c-2,119 0,237 -1,355 -1,29 0,11 -9,18 -30,4 -75,1 -106,-2 -45,-5 -66,1 -104,0zm-3318 353c15,-64 54,-150 77,-214 16,-46 25,-56 73,-70 28,-8 93,-21 121,-21l3 304c-39,-4 -204,4 -275,1zm709 -405c0,-110 4,-82 61,-138 22,-21 81,-87 99,-95l0 312c-4,131 -3,170 0,320 -85,-8 -92,-8 -168,-9l7 -390zm-1531 368c-3,-18 25,-287 27,-368 1,-30 1,-32 16,-49 47,-54 105,-134 150,-176 27,-26 40,-40 64,-69 9,-11 19,-23 29,-35 32,-42 14,-29 33,-31 10,33 21,595 20,736l-339 -8zm5269 6c5,-43 53,-157 82,-187 33,-34 102,-92 181,-85l4 266 -267 6zm1636 -46c20,-55 81,-201 136,-218 53,-16 276,-17 339,-16l4 163c1,10 5,42 -5,49 -10,8 -308,12 -359,13 -30,1 -97,11 -115,8zm705 -578l-1 33 9 424 3 96 -58 -1 4 -263 2 -143 1 -130 38 -17zm-191 556c-2,-119 9,-266 10,-390 0,-27 -7,-80 42,-89l6 475 -57 4zm-1802 -210c20,-6 121,-3 150,-4 27,0 130,-14 136,-11 31,12 13,254 -1,270l-13 5c-48,11 -223,4 -277,9l4 -270zm-7092 238c-5,-23 14,-613 21,-637 8,17 10,7 19,30 32,77 74,174 95,251 18,68 45,300 11,357 -4,4 -9,4 -18,5l-55 -2c-26,-1 -50,-1 -72,-2zm8069 -144c5,-13 6,-24 14,-36 6,-9 2,-4 9,-9l-9 192 -71 3 56 -150zm-7869 150c20,-51 80,-161 105,-226 33,-88 48,-146 206,-125 40,105 9,249 -10,362l-301 -11zm9316 -568c17,-14 12,1 48,-27 35,-27 85,-66 114,-93 81,-75 115,-130 133,-147 11,93 9,195 18,288 9,94 22,189 29,281 -173,-10 -161,-25 -359,-17l17 -285zm-5145 285c-23,-25 -101,1 -123,17 -30,22 -44,52 -59,94 -27,76 -53,154 -78,231l-44 136c-52,7 -158,3 -215,3 -64,0 -618,9 -631,-6 -8,-15 -7,-190 2,-204l-2 -366 1 -609c73,-6 129,0 206,0 76,-1 151,1 227,0l681 -1c84,-1 72,-32 72,154 0,148 0,300 8,447l13 382c7,13 4,7 5,25l6 177 -40 -1 9 -140c0,-73 11,-215 6,-278 -1,-15 -4,-27 -7,-43 -3,-22 -2,-27 -11,-32 -11,67 -5,270 -16,358 -25,7 -203,8 -225,0 -1,-1 -1,-3 -1,-4 -2,-18 5,-31 12,-53 6,-17 11,-35 17,-53 84,-269 50,-167 187,-234zm3972 -132l31 -595c23,-8 434,-8 475,-2l1 590 4 160c-105,5 -217,-6 -320,0 -26,1 -77,32 -97,60 -11,16 -55,80 -58,95 -4,-33 -1,-49 -16,-77 -16,-30 -28,-22 -25,-67 4,-60 7,-108 5,-163zm-211 412c13,-134 23,-259 28,-393 3,-65 5,-133 9,-198 1,-26 -1,-22 23,-31 32,-12 87,-35 115,-40 -1,107 -13,224 -8,331 4,79 15,247 -2,323l-165 7zm-1133 -280c-48,7 -97,-2 -145,14 -40,13 -62,46 -83,79 -39,61 -68,148 -100,218 -15,46 -34,86 -52,129 -20,47 -12,39 -138,40 -59,1 -314,12 -347,1 -9,-38 -15,-220 -4,-252l0 -350c-2,-99 0,-199 -1,-298 -2,-91 -7,-193 1,-283 42,-10 168,-4 219,-4 61,0 619,-5 651,6 15,35 14,665 9,685 -4,16 3,5 -8,14zm-5554 264c18,24 -2,51 -4,77 -12,192 43,193 -102,193 -132,0 -263,0 -395,-1 -132,-1 -263,-2 -395,-2 -130,0 -55,-57 -33,-229 3,-20 -1,-25 10,-40 0,-36 11,-75 13,-113 8,-115 65,-263 -109,-246 -85,8 -123,38 -152,104 -13,31 -26,59 -41,87 -7,14 -14,27 -21,43 -7,16 -11,31 -23,43 -4,-127 3,-182 -35,-301 -29,-91 -71,-153 -104,-233l25 -13c36,-10 30,29 56,31 52,-9 42,-117 5,-130 -26,3 -23,25 -49,38l-42 -12c-14,-3 -2,2 -9,-3 -32,-1 -8,2 -20,-5 -1,-73 5,-145 5,-217 0,-93 -7,-98 120,-98l878 -2c80,0 252,-4 326,-1 23,1 29,6 47,10 29,7 21,-3 45,-2 12,24 20,178 4,205 9,42 2,158 2,208l-2 608zm8034 -410l9 147c-68,5 -159,11 -196,52 -32,35 -56,118 -61,181 -38,12 -54,12 -98,9l10 -388c-4,-95 1,-202 1,-299 0,-96 -5,-191 -5,-286l326 -6c-8,197 4,394 13,589zm-1387 77c5,31 2,86 0,119 -2,29 -21,51 -34,77 -10,20 -67,145 -73,150 -9,28 -74,183 -88,200 -38,7 -513,6 -538,-2 -8,-35 6,-114 17,-154l10 -34c0,-1 2,-2 2,-4 0,-2 1,-3 2,-4 6,-45 22,-77 23,-132 1,-50 2,-104 -11,-144 -62,-6 -244,6 -304,-5 -9,-10 -7,-7 -7,-43 3,-161 -2,-323 -4,-484 0,-33 -22,-165 13,-173 3,-1 -19,-1 24,-2 76,-2 404,-1 427,-6 35,-7 282,0 333,0 33,0 225,-4 236,9 15,28 2,118 2,158l-20 317c-2,35 6,133 -8,155zm-5344 299c8,12 10,153 1,165 -10,14 -11,10 -33,11 -31,1 -105,8 -118,-5 -13,-12 -25,-121 -9,-147 -11,-57 16,-170 -11,-222 -68,-21 -124,-1 -184,24 -21,9 10,-6 -7,3 -15,8 -22,25 -31,43 -27,55 -72,161 -89,222 -42,102 -24,81 -169,83 -71,1 -180,8 -249,0l3 -95c17,-196 4,-491 -3,-699 -8,-247 -53,-264 62,-264 130,0 764,-5 826,1 14,139 -16,234 -8,271 4,18 9,3 9,51 -1,103 18,519 11,559zm7825 -298l0 14c7,149 47,229 -154,233 -60,1 -118,5 -182,11 -59,5 -132,6 -193,9 -80,4 -321,25 -380,25 -126,0 -261,14 -383,13 -1,-39 39,-137 62,-151 85,-52 498,-23 583,-63 -11,0 -25,0 -36,0 -22,-2 -19,-3 -25,-8l3 -162c6,-67 -2,-408 -7,-507 -2,-47 -9,-47 -2,-95 1,-8 2,-48 21,-34 8,6 16,241 17,247l1 180c4,12 21,24 37,30 40,-18 87,-111 107,-162 44,-112 21,-119 42,-224l226 0c10,48 -8,187 5,221 6,16 18,18 29,30l71 97c35,45 62,83 97,130 63,84 61,62 62,166zm-12699 -413c-9,35 -34,64 -44,99l15 -13c11,-30 101,-166 123,-199 54,-83 146,-218 237,-256 171,-71 211,-66 419,-78 95,-5 912,-9 983,-2 13,1 25,1 37,2 15,1 18,5 32,8 8,2 223,-15 239,0 20,18 -7,763 -8,849 -2,208 -9,433 -9,641 0,50 -18,170 22,183 42,14 1552,1 1734,1l1086 -1c36,0 72,1 109,-2 40,-3 66,4 104,5 68,1 142,-6 212,-3l2600 0c63,0 151,3 203,-6 17,-3 71,3 93,5 44,4 719,2 759,1 289,-5 568,-2 859,-3 872,-2 1738,6 2610,6 68,0 148,-4 214,2 215,18 255,0 275,-155 9,-66 5,-141 1,-207 -17,-319 -51,-881 -126,-1182 -4,-18 -3,-31 -7,-49 -3,-13 -9,-29 -12,-42 -8,-43 11,-22 -40,-67 -31,-28 -147,-19 -197,-19l-10619 3c-71,0 -144,-3 -212,-3l-874 0c-167,0 -234,3 -395,38 -105,23 -140,41 -212,113 -109,109 -200,320 -212,332zm9294 3073c-98,21 -182,109 -157,234 19,96 115,180 235,156 96,-19 181,-113 156,-236 -19,-97 -115,-181 -234,-155zm-8078 -15c-105,15 -191,103 -173,228 14,99 109,186 230,167 97,-15 183,-109 165,-227 -15,-97 -107,-184 -222,-167zm5668 489c14,13 31,13 54,15 49,5 123,25 196,3 33,-10 117,-48 147,-65 38,-22 44,-30 110,-11 30,8 4,-4 54,15 9,3 18,4 27,7 31,9 114,43 138,23 15,-13 46,-65 54,-90 5,-17 7,-48 -1,-65 -5,-5 -119,-13 -138,-20 -15,-5 -11,-7 -30,-9 -16,-1 -21,0 -37,-3 -42,-8 -41,-33 -18,-36 13,-2 12,3 33,2l146 11c33,0 2,-20 57,2 31,12 667,9 692,-1 16,-18 37,2 44,9l74 65c16,10 30,18 34,36 9,39 -9,26 -34,26 10,12 3,11 20,22 13,-3 18,-9 30,-15 22,33 47,108 82,170 37,65 56,95 107,150l24 25c43,49 54,58 101,97 1,1 4,4 5,4 33,25 123,76 163,94 6,3 8,3 14,6l31 13c87,33 87,19 164,23 59,3 25,25 152,9 76,-9 74,-7 145,-23l160 -52c50,-20 144,-82 184,-117 10,-9 11,-10 22,-18 4,-3 7,-5 11,-9l5 -5c4,-4 3,-3 7,-7l20 -19c8,-8 11,-14 21,-24 17,-17 26,-30 39,-50 15,-26 37,-52 48,-81l19 -50c0,-1 1,-2 1,-3 0,-1 1,-2 2,-3l12 -33c0,-1 1,-2 1,-4 15,-41 7,-52 20,-64 -16,-2 -9,0 -17,-4 1,-37 10,-57 11,-89 1,-31 0,-52 33,-50 22,31 0,77 16,115 18,10 25,5 41,20l104 100c24,-32 -14,-173 -16,-234 -1,-32 5,-19 7,-44 3,-34 -10,-66 -5,-93 45,-1 10,-1 24,10l2270 0c54,0 109,0 163,0 73,1 33,-11 64,-14 11,-1 62,12 71,-1l13 -6c86,-38 143,-155 181,-238 28,-60 56,-234 53,-294l-14 -81c-9,-39 -23,-35 -1,-75 61,-109 15,-309 17,-342 3,-35 15,-40 20,-80 4,-27 -7,-68 4,-91l6 -114c4,-35 4,-72 4,-114 0,-83 -5,-155 -5,-232 0,-83 -10,-148 -10,-227 0,-35 -2,-77 -6,-113 -8,-75 -8,-148 -14,-222 -12,-145 -30,-295 -34,-440 -1,-31 -7,-79 -10,-109 -9,-112 -7,-223 -21,-334 -9,-67 -13,-145 -25,-211 -6,-33 -18,-119 -29,-149 -16,-43 -25,-91 -40,-138 -29,-88 -60,-172 -103,-252 -74,-137 -180,-261 -319,-332 -7,-4 -13,-6 -19,-10 -8,-5 -9,-7 -18,-12l-21 -9c-12,-6 -25,-17 -38,-21 -15,-5 -7,0 -27,2 -6,-11 -8,-15 -15,-25 -33,0 -55,-5 -94,-5 -4,-12 -4,7 2,-4 5,-10 6,5 3,-6 -29,0 -43,-2 -69,-5 -19,-2 -45,-4 -67,-8 -53,-8 -73,20 -143,0 -30,-8 -68,8 -96,-8 -12,-7 2,-6 -20,-9 -5,-1 -28,0 -35,0 -26,0 -36,17 -61,14 -52,-8 -108,-13 -169,-6 -20,2 -18,-4 -41,-6 -5,-1 -14,0 -20,0 -35,0 -35,-4 -65,-1 -63,7 -796,1 -898,1 -55,0 -300,5 -335,0 -36,-5 6,-4 -30,-9 -9,-1 -700,-7 -739,-4 -36,3 -312,-1 -366,-1l-444 -5c-25,0 -50,0 -74,0 -28,0 -37,-5 -69,-5 -98,0 -207,3 -296,-5 -88,-7 -209,0 -301,0 -245,0 -491,-10 -735,-10 -25,0 -49,0 -74,0 -31,0 -41,-5 -74,-5 -203,1 -394,-5 -592,-5 -55,0 -92,-5 -143,-5l-296 0c-56,0 -94,-5 -148,-5 -201,0 -392,-6 -597,-5 -50,0 -89,-5 -143,-5 -49,0 -99,0 -148,0l-143 -5 -597 -5c-55,0 -92,-5 -148,-5 -74,0 -691,-1 -737,-8 -27,-4 -197,5 -289,-2 -23,-2 -38,-5 -69,-5 -32,0 -51,-4 -74,-5 -2,28 -18,6 -69,5 -18,0 -30,2 -47,-2 -25,-6 -15,-6 -32,-17 -23,22 -47,15 -79,15 -37,0 -59,-4 -89,-5 -42,-1 -95,0 -135,5 -26,3 -29,3 -33,-15 -34,3 -5,13 -44,15 -63,4 -233,8 -281,15 -31,5 -153,17 -191,16 -11,0 -13,-2 -25,0 -45,9 -30,5 -79,10l-35 4c-44,13 -98,7 -143,10 -33,2 -13,10 -54,10 -35,0 -87,-7 -114,5 -37,17 -60,8 -104,9 -34,1 -23,7 -46,13 -33,9 -71,6 -104,14 -36,9 -73,11 -111,12 -38,1 -19,8 -45,14 -28,6 -32,1 -63,11 -25,8 -115,25 -139,28 -32,4 -23,-2 -50,10 -32,15 -58,-15 -62,21 -39,0 -55,-4 -73,20l-169 64c-33,2 -32,7 -41,13 -27,18 -124,67 -176,100 -61,39 -129,103 -170,166 -19,28 -72,116 -78,150 -10,124 -14,70 -75,205 -16,35 -84,152 -100,186 -16,34 -28,61 -47,91 -23,38 -74,147 -95,192l-37 66c-7,17 -7,17 -15,26l1 4 -95 198c-18,32 -24,70 -44,104 -22,37 -31,60 -45,103 -8,24 -36,70 -47,101 -15,42 1,4 -21,54l-34 74c-9,25 -17,56 -31,82 -15,28 -29,81 -54,92 -23,8 -22,8 -40,20l-89 49c-14,6 -25,11 -36,28 -6,10 -1,-3 -4,9 -4,14 -7,33 -5,41 4,18 6,6 11,24 10,39 -3,58 66,58 0,27 -21,74 -22,86 -2,44 -11,36 -18,92 -3,26 -8,17 -10,45 -3,56 -15,118 -15,158 0,69 -13,154 -4,221 9,64 4,150 4,222 18,1 10,35 6,46 -30,75 -38,271 -28,347 3,19 9,36 7,56 -3,25 -12,26 -19,40 -8,15 -9,37 -10,55 -15,154 2,201 22,350 7,41 16,68 34,99 17,30 34,57 60,81 23,15 47,46 55,67 45,25 186,15 246,15 46,0 74,10 120,2 34,-6 74,-1 120,-1 65,-26 435,18 552,-35 -1,-1 -3,-3 -3,-2l-17 -10c-44,-21 -161,-15 -210,-15 -81,0 -529,-7 -573,-4 -21,2 -42,1 -63,1 -42,0 -100,11 -113,-19 9,-22 2,-1 14,-15l11 -15c6,-8 104,-16 121,-18l2 -71c-45,-6 -97,-31 -130,-53 -135,-88 -160,-225 -168,-393l2 -26c8,-14 4,-8 24,-10 17,-2 73,5 94,5 24,0 43,-4 64,-4 28,0 36,12 60,-3 9,-17 5,-24 -8,-38 -17,-19 -15,-8 -17,-41 -4,-63 -5,-153 -4,-218 2,-96 29,-55 21,-97 -28,-9 -70,-6 -102,-11 -20,-3 -25,-10 -45,-12 -23,-2 -27,4 -51,-8 -15,-62 -16,-399 -14,-479 3,-102 13,-299 48,-398 5,-15 2,-7 5,-24l10 -28c0,-17 2,-13 5,-23 8,-29 2,-17 2,-19l-3 -8c-22,11 -6,6 -22,29l-37 3c16,-66 94,-19 131,-76 28,-44 39,-102 60,-154 12,-31 13,-24 30,-73 12,-36 80,-199 96,-224l82 -180c6,-13 8,-26 14,-40 11,-23 25,-48 36,-72 12,-26 19,-47 31,-74 11,-24 25,-45 38,-71 12,-25 18,-46 32,-71 9,-17 35,-48 35,-67 3,25 3,46 36,36 19,-6 20,-27 29,-46l102 -194c8,-15 15,-41 -9,-48 -28,-9 -30,17 -37,35 -10,-12 -4,-9 9,-38 12,-27 11,-15 23,-36 12,-21 25,-54 39,-79 9,-14 15,-19 23,-36 14,-32 62,-136 69,-169 15,-66 121,-195 172,-246 138,-136 426,-232 665,-287 133,-31 261,-54 398,-77 137,-23 272,-50 408,-69 318,-45 804,-64 1134,-62 168,1 124,73 281,73l8428 36c158,1 322,-4 479,2 23,1 29,6 54,5 103,-4 243,41 331,82 233,109 335,300 428,530 27,67 106,302 108,374 2,7 7,40 7,49 6,51 9,108 13,159 11,167 15,330 22,497 10,218 32,438 38,656 4,168 16,331 16,503 0,194 -16,136 -56,200l-27 62c-86,170 -44,284 -80,439 -2,33 -4,57 -7,85 -3,34 16,18 1,71l-102 347c-32,107 -260,99 -351,103 -115,6 -241,8 -357,8 3,-53 20,-105 -10,-133l-232 2c-11,32 -7,-9 -22,63 -2,12 -5,20 -7,32 -1,3 -3,15 -3,17 -7,24 0,9 -9,17 -11,8 -698,15 -782,18 -127,5 -253,11 -380,19 -121,8 -266,22 -385,21 -1,-1 -2,-4 -2,-3 0,1 -2,-3 -2,-3 -15,-29 -29,-91 -38,-145 -10,-54 -89,-235 -110,-275 -18,-36 -76,-114 -79,-120 -38,-35 -76,-73 -124,-96 -107,-51 -122,-62 -242,-95 -213,-58 -497,-60 -690,19 -30,12 -54,14 -87,28 -46,19 -103,57 -138,89 -19,18 -41,44 -55,54 -9,22 -28,42 -42,60 -19,23 -67,101 -78,125 -46,97 -57,117 -87,219 -7,25 -36,77 -53,148 -1,0 -12,-2 -13,-2l-68 0c-34,1 -55,-4 -89,-5 -57,-2 -121,4 -183,3l-2107 -24c-39,0 -50,-3 -64,-29 -24,-46 14,-129 -33,-144 0,0 -145,-12 -159,11 -8,49 14,91 -12,137 -19,32 -60,21 -127,21 -287,-1 -595,-4 -880,-10l7 -29c-14,-9 -8,-1 -19,-14 8,-18 13,-9 22,-26 -8,-14 -11,-5 -28,-15 11,-9 24,-22 24,-43 -49,-18 -250,1 -283,-9l-8 -4c58,-1 192,3 242,-1 30,-3 46,-8 46,-37 -30,-13 -257,-5 -310,-6 -39,15 -21,37 4,49l-23 10c0,28 0,33 21,41 -16,12 -12,5 -21,15 3,22 9,11 9,29 0,19 -6,3 -9,31 7,6 12,11 21,11 -33,14 -12,7 -47,5 -26,-2 -27,14 -46,-4 -8,-6 -2,11 4,-7 7,-20 4,-2 0,-21 -8,-34 1,-19 3,-45 1,-27 6,-105 -15,-112 -16,-5 -19,-4 -37,-4l-153 2c-54,0 -156,-12 -196,12 -1,15 -4,12 4,23l18 13c1,0 2,1 3,2 -15,7 -14,2 -26,15 5,20 5,21 14,30 1,1 5,4 6,5l6 5 -26 8c4,16 12,28 21,38l-20 15 3 25c-10,0 -68,1 -71,0 1,-22 7,2 10,-27l-19 -15c11,-22 14,-5 15,-35l-14 -6c-25,-7 -302,-6 -313,1 -7,10 -7,-12 -4,14 2,22 0,-2 6,14l3 7c2,10 -4,17 -7,29 1,1 2,1 3,3 2,9 6,1 11,14l-1365 20c-7,-14 -7,-19 -12,-34 -17,-50 -75,-216 -77,-245 -12,-36 -72,-148 -93,-183 -16,-27 -14,-36 -35,-63 -44,-56 -27,-44 -87,-106 -47,-48 -224,-176 -289,-185 -37,-5 -48,-2 -86,-12 -102,-27 -235,-37 -344,-25 -94,10 -233,33 -312,70 -47,22 -92,38 -127,66 -12,10 -13,9 -27,17 -67,35 -132,106 -175,166 -28,40 -46,80 -68,124l-53 138c-11,28 -32,130 -30,160l-12 170c-5,23 -16,21 -10,41 19,15 21,8 37,0 8,-4 33,-12 39,-20 16,-14 0,-29 22,-41 62,-33 38,51 54,147 7,46 11,72 22,117 13,55 35,90 14,117 1,16 1,9 4,16l20 40c4,8 5,12 9,21l43 76c55,94 129,163 211,234 5,4 10,9 16,14 29,22 63,39 96,52 33,14 77,23 112,31 30,7 135,15 164,9 51,-10 111,-2 165,-3l130 -10c14,-3 4,-2 23,-5 22,-3 32,-3 54,-6 21,-2 26,-6 50,-10 19,-3 26,-9 44,-15l40 -19c1,-1 2,-1 3,-2l94 -54c1,-1 2,-1 3,-2 37,-24 74,-56 105,-87 1,-1 2,-2 2,-2l15 -15c1,-1 2,-2 2,-2l29 -30c50,-57 103,-116 127,-189 2,-7 5,-13 8,-22 14,-33 17,-78 43,-105 18,-18 12,-14 20,-39l13 -37c32,-89 -10,-99 152,-95 43,1 56,13 108,10 22,-1 31,-7 50,-9 70,-8 323,0 409,4 22,1 27,5 54,5l173 0c43,0 68,-5 113,-5 19,0 41,-1 59,0 22,1 27,5 54,5l113 -5c58,-2 120,-3 178,0 22,1 27,5 54,5 40,0 79,0 119,0 43,0 68,-5 113,-5l168 5c25,2 29,-4 54,-5 156,-5 313,5 469,5 42,0 79,0 114,-4 36,-4 81,-3 115,2 45,7 65,-5 106,-3 34,2 71,8 113,5 152,-13 539,-5 706,-5 158,0 316,0 474,0 161,0 307,-5 469,-5l0 34c24,-2 14,24 38,61l31 44c1,1 4,4 5,6l8 9c-10,10 12,4 -17,8 17,14 33,26 50,40 17,14 31,34 59,35zm-5157 -246c-34,239 -253,447 -537,409 -246,-33 -451,-256 -413,-542 32,-239 257,-449 544,-408 238,34 446,255 406,540zm8454 -154c-25,-1 -41,-19 -55,-28 0,0 -52,-26 -29,-50 15,-15 51,4 58,17l27 61zm2717 -214c-8,-33 63,-331 66,-334 15,-8 36,-9 57,-7 7,64 -5,151 -25,209 -14,42 -39,78 -66,111 -7,9 -20,22 -32,21z"/>
 </g>
</svg>
