<?xml version="1.0" encoding="UTF-8"?>
<!DOCTYPE svg PUBLIC "-//W3C//DTD SVG 1.1//EN" "http://www.w3.org/Graphics/SVG/1.1/DTD/svg11.dtd">
<!-- Creator: CorelDRAW X5 -->
<svg xmlns="http://www.w3.org/2000/svg" xml:space="preserve" width="90.6643mm" height="33.9214mm" style="shape-rendering:geometricPrecision; text-rendering:geometricPrecision; image-rendering:optimizeQuality; fill-rule:evenodd; clip-rule:evenodd"
viewBox="0 0 9455 3538"
 xmlns:xlink="http://www.w3.org/1999/xlink">
 <defs>
  <style type="text/css">
   <![CDATA[
    .fil2 {fill:#2B2A29}
    .fil0 {fill:#EF7F1A}
    .fil1 {fill:#FDFDFE}
   ]]>
  </style>
 </defs>
 <g id="Слой_x0020_1">
  <metadata id="CorelCorpID_0Corel-Layer"/>
  <path id="cvet" fill="#EF7F1A" d="M80 2573l-19 -300c0,0 82,-60 125,-104 43,-43 168,-207 168,-207l122 -147 22 -24 19 -32 22 -18c0,0 146,-139 257,-204 111,-64 227,-142 501,-207 274,-65 543,-141 976,-156 0,0 713,-798 1920,-1069 0,0 818,-193 1871,-11 0,0 868,98 2000,958l43 17 62 2 43 8 953 732c0,0 55,136 165,136l41 11 26 30 35 488 -26 25 -126 22 9 169 -121 88 -241 9 -130 -51c0,0 -16,-909 -925,-912 0,0 -953,-89 -918,1137l-4093 58 -150 14c0,0 -11,-1087 -950,-1155 0,0 -915,-3 -921,1048l-248 6 -222 43 -159 -26 -69 -95 -14 -196 -48 -87zm2933 -1722c0,0 687,-635 1752,-667 0,0 901,-75 1677,266 0,0 727,375 730,566l-2976 17 -918 29 -23 -43 -21 -102 -35 -51 -69 -4 -102 7 -15 -18z"/>
  <path id="belyi" class="fil1" d="M7603 3104c3,-26 81,-99 104,-119 21,-18 42,-33 63,-51 23,-20 29,-35 74,-34 33,42 91,261 87,297 -29,0 -4,-8 -41,-4 -33,4 -108,-10 -138,-20l-148 -69zm-4590 -2253c0,0 687,-635 1752,-667 0,0 901,-75 1677,266 0,0 727,375 730,566l-2976 17 -918 29 -23 -43 -21 -102 -35 -51 -69 -4 -102 7 -15 -18zm-2149 944l52 -94c10,-19 12,-14 17,-36 -21,15 -17,20 -32,33 -141,-16 -235,111 -311,200 -26,31 -56,66 -50,123 58,5 116,-61 177,-105 31,-23 45,-40 71,-67 25,-26 46,-43 55,-71 12,-37 -8,10 3,-12 20,21 14,-1 17,29zm572 1291c65,-31 193,-143 235,-118 26,16 16,14 21,68 4,44 29,174 13,228 -96,5 -243,-98 -251,-100l-18 -18c-26,5 -14,7 -39,-3 -3,-32 12,-46 39,-57zm437 159c-13,-40 -11,-133 -17,-180 -8,-58 -8,-139 56,-118 41,14 96,44 135,64 61,30 112,43 110,81 -69,38 -35,37 -125,96 -37,24 -102,65 -158,57zm-55 -408c83,15 64,86 20,91 -28,3 -45,-18 -46,-42 -2,-31 14,-33 26,-50zm-96 5c11,22 18,44 -6,66 -14,13 -38,19 -57,4 -41,-33 -7,-93 63,-70zm232 -75c10,-36 31,-43 54,-60 57,-39 165,-130 213,-124 51,74 55,277 25,308 -21,22 -57,8 -83,-3 -45,-19 -192,-94 -209,-121zm-133 -130c15,13 9,1 12,28 31,-26 40,11 11,28 8,11 -13,13 16,7 29,-21 73,16 69,54 -8,70 -81,35 -83,34 -17,34 6,22 -31,44 -60,35 -93,16 -125,-53 -30,3 -49,17 -77,-8 -21,-19 -21,-38 -8,-59 19,-30 82,-54 108,33l24 -5c18,-1 10,2 18,-17l9 -17 -47 -9c-2,-9 -2,-50 -1,-54 14,-62 95,-44 105,-6zm-464 -159c21,-55 198,-199 283,-179 23,40 10,91 19,144l14 150c-13,10 -17,19 -42,18 -33,-1 -22,-9 -42,-20 -15,-9 -24,-5 -45,-16l-186 -98zm690 10c-61,40 -88,55 -143,97 -34,26 -60,15 -86,-6 -2,-71 -16,-252 -3,-294 96,-12 281,93 299,145 -11,16 -51,48 -67,58zm-776 177l1 -21c36,-13 58,6 83,19l142 74c57,28 65,24 63,76 -20,13 -39,28 -66,41 -85,38 -45,48 -123,82 -54,24 -16,17 -78,11l-10 -19c-14,-23 -16,-7 -11,-36 -8,-7 -8,-12 -12,-31l-8 -76c0,-15 0,-26 -7,-37 -23,35 10,186 28,226 80,179 222,322 441,336 125,8 164,-7 261,-41 84,-30 176,-116 228,-193l22 -38c25,-52 57,-126 61,-198 9,-146 -30,-294 -119,-405 -207,-257 -657,-265 -848,64 -16,27 -33,56 -45,88 -9,25 -26,63 -21,90l18 -11zm6764 185c24,-17 244,48 278,61 16,7 6,2 13,6 -6,18 -28,66 -38,84 -29,56 -129,137 -199,146 -11,-22 -14,-50 -18,-79 -4,-30 -68,-195 -36,-218zm-82 -56l16 6 -1 44c-20,14 3,6 -20,10 -5,7 10,14 -25,12 -2,0 -18,-8 -18,-8 -45,-31 -2,-99 39,-79 15,14 4,6 10,16zm-15 -98l8 6c12,-15 32,-38 47,-45 37,-17 86,23 58,70 -28,46 -65,9 -87,-3 -20,2 -34,-4 -30,9l3 19c-17,5 -23,2 -36,7 -13,5 -3,7 -32,12l-7 -9c-22,-24 14,-12 -13,-10 -15,1 -8,20 -21,35 -6,20 -16,26 -32,37 -20,-4 -30,-10 -41,-21 -4,-4 -8,3 -13,-23 -1,-6 0,-18 1,-25 15,-13 7,-11 30,-23 27,-7 42,18 47,-2l-4 -40c16,1 22,3 34,9 22,5 18,6 27,-1l16 -13 1 -6 54 -13c0,27 6,-14 -3,16l-6 15zm-272 21c63,26 14,66 -13,88 -32,27 -131,132 -164,143 -29,-4 -33,-9 -43,-35 -18,-45 -57,-105 -60,-176 -7,-127 -23,-119 164,-61 40,12 76,24 116,41zm417 -55c0,-45 41,-68 93,-121 118,-119 131,-130 175,-52 19,33 44,123 50,162 4,29 5,61 3,98 -79,-2 -107,-6 -171,-34 -50,-22 -31,-11 -79,-23 -39,-10 -42,-9 -70,-30zm-349 -48c18,-15 11,-11 25,-31 104,-8 95,101 3,96 -20,-25 -27,-25 -29,-65zm169 -77c65,-26 104,75 35,97 -62,19 -111,-67 -35,-97zm-462 -75c6,-40 64,-103 95,-134 38,-37 94,-82 148,-80 12,18 9,6 18,30 14,41 63,229 60,259 -33,24 -43,27 -85,11 -94,-36 -142,-32 -237,-86zm739 -157l-116 111c-47,47 -89,108 -132,84 -24,-15 -20,-37 -25,-67 -3,-20 -12,-49 -16,-68 -19,-77 -34,-82 -32,-161 83,-29 301,43 321,100zm240 427c7,-22 5,-36 -1,-59 -6,-26 -3,-33 -6,-60 -11,-86 -80,-201 -131,-265 -123,-152 -395,-227 -592,-150 -192,75 -332,260 -331,467 1,157 43,281 142,392 32,36 103,91 153,118 106,56 216,67 334,54 131,-14 254,-103 330,-204 100,-133 85,-233 103,-293z"/>
  <path id="kontur" class="fil2" d="M580 2064c119,-67 213,-156 284,-269 -3,-30 3,-8 -17,-29 -12,21 9,-25 -3,12 -9,28 -30,45 -55,71 -26,27 -40,45 -71,67 -61,44 -119,110 -177,105 -6,-57 24,-92 50,-123 76,-89 169,-216 311,-200 15,-13 11,-17 32,-33l-2 -5c1,-28 2,-55 -8,-76 -95,-37 -294,129 -338,170 -50,45 -87,79 -127,138 -13,20 -81,158 -74,184 42,72 142,5 195,-12zm7367 790c24,-5 1,4 20,-10l1 -44 -16 -6c-24,-8 -16,-9 -44,-8 -24,35 -24,82 38,68zm5 -141c2,0 3,2 11,11 22,12 59,49 87,3 28,-47 -20,-87 -58,-70 -13,6 -30,25 -43,40l2 16zm-49 -175c-76,30 -27,116 35,97 69,-21 31,-123 -35,-97zm-169 77c2,40 9,40 29,65 92,6 101,-104 -3,-96 -14,20 -8,16 -25,31zm20 188c11,11 22,17 41,21 16,-11 26,-17 32,-37 2,-29 -2,-27 -17,-45l-46 0c-16,24 -18,22 -9,60zm-265 146c33,-12 131,-117 164,-143 27,-22 77,-62 13,-88 -40,-16 -76,-28 -116,-41 -187,-57 -171,-65 -164,61 4,71 42,131 60,176 11,26 14,31 43,35zm-48 -487c95,54 143,50 237,86 42,16 52,13 85,-11 2,-30 -46,-218 -60,-259 -9,-24 -6,-12 -18,-30 -54,-2 -111,44 -148,80 -32,31 -90,93 -95,134zm417 -257c-1,79 13,84 32,161 5,19 13,48 16,68 4,30 1,52 25,67 43,23 85,-37 132,-84l116 -111c-20,-58 -238,-129 -321,-100zm225 458c29,20 32,20 70,30 49,12 29,1 79,23 64,28 92,32 171,34 2,-36 1,-68 -3,-98 -6,-39 -31,-129 -50,-162 -44,-78 -57,-67 -175,52 -52,53 -94,76 -93,121zm6 485c70,-9 170,-89 199,-146 9,-18 32,-66 38,-84 -7,-4 4,1 -13,-6 -34,-14 -254,-79 -278,-61 -32,23 32,188 36,218 4,28 8,57 18,79zm-486 -43l148 69c30,10 105,24 138,20 38,-4 13,4 41,4 4,-36 -54,-255 -87,-297 -45,-2 -52,14 -74,34 -21,19 -42,33 -63,51 -22,19 -101,92 -104,119zm-5743 -404c-11,14 16,7 -15,13l-13 7c4,16 4,26 2,33l0 0 0 0 2 0c-1,2 -8,17 10,36 2,0 75,36 83,-34 4,-38 -39,-75 -69,-54zm-26 52c-1,3 -2,5 -3,6l3 -6zm-122 -7l-1 0c-26,-86 -89,-62 -108,-33 -13,21 -13,40 8,59 28,25 47,11 77,8 1,3 20,-33 23,-34 0,0 0,0 1,0l0 0zm105 92c-12,17 -28,19 -26,50 2,24 19,45 46,42 44,-5 63,-76 -20,-91zm-96 5c-71,-24 -105,37 -63,70 19,16 43,9 57,-4 24,-22 17,-44 6,-66zm41 -135l31 0 12 -5c1,-2 2,-4 3,-5 1,-1 2,-3 3,-5 1,-2 2,-3 2,-5 1,-2 1,-3 2,-5 1,-2 3,-12 4,-13 2,-11 1,-21 1,-31 -10,-38 -91,-56 -105,6 -1,4 -1,45 1,54l47 9zm54 -128c26,20 52,32 86,6 55,-42 82,-58 143,-97 15,-10 56,-41 67,-58 -18,-52 -204,-157 -299,-145 -13,42 1,223 3,294zm-461 -101l186 98c21,11 29,7 45,16 20,11 8,19 42,20 25,0 30,-9 42,-18l-14 -150c-8,-54 4,-104 -19,-144 -85,-21 -261,124 -283,179zm-86 187c15,78 -34,172 21,282 62,6 24,13 78,-11 78,-35 38,-44 123,-82 28,-12 47,-27 66,-41 2,-52 -6,-47 -63,-76l-142 -74c-27,-13 -82,-50 -83,3zm165 421c-7,9 -3,5 -10,13 -28,26 0,15 28,66 9,2 155,105 251,100 16,-53 -9,-184 -13,-228 -5,-54 5,-53 -21,-68 -42,-25 -170,87 -235,118zm437 159c56,8 122,-33 158,-57 89,-59 56,-59 125,-96 2,-37 -48,-50 -110,-81 -39,-19 -94,-50 -135,-64 -63,-21 -64,60 -56,118 7,47 5,140 17,180zm81 -478c17,27 165,101 209,121 26,11 62,25 83,3 30,-31 26,-233 -25,-308 -49,-6 -156,85 -213,124 -24,16 -45,24 -54,60zm3631 -1256c-105,-43 -234,-24 -346,-16 -35,2 -98,0 -81,47 17,49 168,33 220,29 41,-3 73,-6 113,-14 18,-4 36,-8 53,-14 25,-9 31,-8 42,-32zm929 974c3,-23 11,-31 15,-56 20,-123 80,-276 129,-386 34,-75 175,-339 218,-366 17,-46 81,-92 86,-141 -35,1 -47,26 -66,47 -129,138 -220,292 -300,470 -59,132 -131,360 -143,515 -3,37 -13,171 -5,198 4,15 0,6 7,15 7,-12 4,-21 5,-32 1,-28 26,-161 33,-192 3,-12 4,-19 7,-33 4,-22 5,-24 15,-39zm-4273 -1361l-28 0 -39 36c-138,0 -438,39 -577,70 -213,47 -379,101 -580,178 -22,8 -52,21 -76,32 -20,9 -109,56 -121,66 -12,11 -8,5 -8,16 -34,6 -65,36 -94,57 -16,12 -25,19 -41,31l-136 116c-32,27 -49,38 -54,67 -17,-3 -15,5 -49,47l-138 169c-8,11 -13,15 -22,27 -9,13 -13,20 -22,32l-69 82c-59,70 -61,41 -87,76 -54,46 -49,30 -76,67l-9 11c-1,1 -3,2 -4,3 -2,16 -9,51 -11,65l11 239c28,2 17,9 42,9 40,8 21,24 24,50 2,18 7,7 11,31 2,13 2,27 5,42 -7,29 3,45 11,69 5,15 5,21 9,33 9,32 23,64 42,90 8,11 10,12 19,23 11,12 10,15 21,27 26,29 158,45 205,54l444 79c32,6 34,13 72,18l144 24c25,7 16,10 36,30l44 52c72,88 162,149 260,204l49 23c35,16 81,30 116,40 50,15 146,27 202,27 60,0 96,-1 144,-12 30,-7 63,-11 89,-20 84,-29 166,-60 240,-109 89,-59 118,-56 207,-100 72,-35 221,-140 265,-205 89,21 311,0 415,0 148,0 277,-6 421,-6 289,0 562,-7 854,-6 70,0 129,-6 205,-6 72,0 144,0 217,0 77,0 133,-6 211,-6l638 -6c78,0 134,-6 211,-6 69,0 149,4 217,0 99,-5 212,-7 313,-6 44,0 60,-6 102,-6 66,0 388,-8 421,0 39,9 45,5 78,24l208 117c44,24 75,69 118,99l97 66c33,19 68,38 105,52 141,54 217,58 375,59 129,1 298,-67 400,-135 53,-36 107,-75 148,-123l5 -7c23,-28 47,-53 67,-83 29,-44 65,-87 77,-140l132 0 0 -48c34,-9 13,-19 72,-18 172,1 235,-22 384,-86 129,-55 93,-40 157,-119 29,-36 55,-77 60,-126 7,-66 8,-31 28,-68 19,-36 1,-301 -6,-354 -6,-44 -3,-138 -20,-167 -4,-8 -35,-37 -44,-46 -20,-20 -33,-23 -61,-35 -26,-11 -38,-15 -60,-30 -54,-35 16,-12 -91,-95 -105,-82 -210,-165 -319,-241 -93,-64 -182,-136 -272,-203l-314 -246c-65,-51 -57,-3 -122,-52 -37,-28 -71,-50 -108,-78l-166 -117c-168,-126 -235,-155 -406,-250 -22,-12 -37,-21 -58,-32 -22,-11 -37,-24 -59,-37 -39,-25 -84,-40 -127,-60 -42,-19 -85,-41 -128,-59 -15,-6 -16,-7 -28,-14l-99 -45c-65,-26 -127,-66 -194,-89 -70,-24 -143,-44 -218,-65l-293 -80c-115,-29 -274,-58 -393,-71 -25,-3 -58,-6 -84,-12 -42,-10 -477,-29 -537,-29 -96,0 -271,-2 -367,6 -21,2 -57,4 -83,7 -55,7 -115,4 -174,13 -55,8 -109,10 -170,16 -24,2 -53,11 -81,15l-126 18c-66,12 -136,20 -199,36 -123,31 -285,63 -397,114l-165 69c-107,47 -213,98 -312,157 -22,13 -38,24 -61,35 -23,11 -35,19 -57,34l-114 73c-23,14 -36,25 -58,38l-111 76c-77,47 -144,109 -217,162 -36,26 -79,47 -110,76l-96 90c-19,15 -93,65 -100,89zm-1704 631l134 -116c43,-39 138,-92 141,-102 1,-2 2,-3 3,-4 26,-8 79,-45 115,-62 88,-43 177,-72 273,-100 44,-13 102,-33 150,-43 33,1 164,-40 208,-50 232,-50 505,-78 745,-73 -10,24 -13,21 -32,45 -13,15 -19,22 -33,39 -20,21 -47,52 -62,82l-190 -40c-58,-9 -152,-21 -212,-17 -87,6 -135,-7 -263,13 -65,10 -183,30 -204,79 16,9 0,7 25,4 118,-22 117,-36 271,-38 214,-3 635,23 794,125 39,4 12,4 22,-10 -29,-13 -55,-36 -92,-53 -20,-9 -85,-35 -101,-46 -14,-3 -11,-1 -23,-13 17,-25 41,-45 61,-67 21,-24 40,-45 62,-71 48,-57 128,-148 190,-195l283 -234c106,-83 196,-144 300,-217 45,-32 205,-132 244,-153 123,-65 230,-107 361,-156 63,-24 124,-47 190,-68 535,-174 1058,-207 1626,-169 156,10 318,22 461,57 211,52 406,101 609,169 274,91 460,183 709,330 202,119 437,272 615,425 124,106 85,64 186,64 86,2 67,-24 153,48 51,43 328,268 338,288 -24,0 -22,-8 -57,-2 -30,52 74,154 114,192 25,24 46,41 56,65 16,3 103,71 126,90 37,31 84,62 136,83 33,6 45,22 80,7 32,-71 -54,-116 -61,-150 26,8 40,21 62,35 67,41 19,4 53,48 12,16 56,39 96,114 12,3 53,43 101,57 37,5 89,-19 86,63 -6,176 28,291 30,440 -44,-1 -74,7 -114,10 -42,3 -89,-3 -102,32 15,33 28,13 52,32 19,26 15,88 14,126 -48,30 -79,78 -193,87 -83,6 -188,0 -219,-61 -11,-22 -16,-90 -22,-117 -8,-43 -18,-76 -29,-116l-14 -58c-16,-54 -63,-138 -92,-189 -52,-92 -59,-89 -125,-163 -15,-17 -15,-23 -33,-39 -25,-22 -57,-47 -81,-63 -252,-171 -491,-216 -797,-150 -324,69 -582,307 -669,620 -70,251 -32,227 -55,370 -7,42 2,104 -8,137 -172,9 -346,5 -521,8l-1582 24c-526,5 -1054,21 -1582,23l-458 5c-41,0 -22,7 -52,13 -11,-177 -25,-386 -94,-538 -61,-134 -26,-93 -139,-246 -75,-102 -191,-192 -315,-257 -19,-10 -24,-15 -44,-23 -145,-57 -134,-53 -304,-80 -214,-33 -444,41 -608,149 -85,56 -210,164 -259,252l-23 38c-9,12 -18,26 -26,40 -15,28 -28,63 -40,92 -45,108 -37,138 -54,200 -21,78 -3,160 -13,245 -20,-3 -31,-35 -40,-55 -116,-6 -228,17 -304,66 -66,43 -46,44 -146,44 -75,0 -122,11 -141,-60 45,-1 149,12 183,-10 60,-38 23,-159 -17,-212 -9,-12 -13,-13 -24,-23 -29,-25 -55,-39 -103,-40 -19,0 -88,6 -99,-7 -19,-40 -25,-178 -19,-232 39,0 92,-15 124,5 41,-3 84,1 126,0 41,-1 72,-16 107,-18l87 -33c35,-18 15,4 23,-23l-55 -3c-2,0 -4,-1 -6,-1l4 14 -230 -2c-35,1 -162,-8 -187,-19 20,-29 63,-44 125,-108 11,-11 150,-201 209,-266 26,-28 29,-35 54,-66 8,-10 18,-24 27,-33 14,-16 20,-13 24,-33zm7883 975c-18,60 -2,160 -103,293 -76,102 -199,190 -330,204 -118,13 -228,2 -334,-54 -50,-27 -121,-82 -153,-118 -99,-111 -141,-234 -142,-392 -1,-207 139,-392 331,-467 197,-77 469,-3 592,150 51,63 120,179 131,265 3,27 0,35 6,60 6,23 8,37 1,59zm-7168 -55c-5,-27 12,-65 21,-90 11,-32 29,-60 45,-88 191,-329 641,-321 848,-64 89,111 127,259 119,405 -4,72 -36,146 -61,198l-22 38c-52,76 -143,162 -228,193 -97,35 -136,49 -261,41 -219,-14 -362,-157 -441,-336 -18,-40 -51,-191 -28,-226l8 -72zm1588 -1641c5,-28 14,-33 30,-53 11,-13 30,-26 44,-32 57,-44 72,-49 123,-49 43,0 114,-19 157,-9 37,38 49,130 43,196 -6,66 -11,77 -137,104 -34,7 -189,26 -217,18 -50,-14 -64,-123 -43,-176zm240 -192c6,-20 33,-36 48,-48 73,-56 86,-63 163,-114 73,-48 273,-158 363,-197 45,-20 88,-40 130,-57 44,-18 96,-39 137,-51 97,-28 177,-61 289,-83l162 -26c292,-50 378,-64 686,-57l345 20c4,27 0,53 3,80 12,101 16,338 6,439 -4,41 0,57 -17,63 -360,1 -756,19 -1110,50 -246,21 -651,59 -898,113 -173,38 -99,13 -130,-60l-29 -56c-25,-43 -105,-16 -149,-19zm2701 -517c108,0 418,94 532,134l160 64c111,44 508,317 523,365l-594 -47c-178,-17 -493,-14 -607,-30l-13 -486zm-3226 883c-2,29 3,36 13,58 57,19 199,4 272,3l-2 42c-10,178 13,354 22,526 -28,-15 -82,-76 -103,-97 -30,-30 -46,-43 -80,-64 -12,-7 -22,-14 -29,-24 -22,-5 -12,-12 -32,-5 12,33 63,57 89,85 55,59 106,118 152,185 23,34 47,64 68,100 51,87 170,389 177,494 9,11 -2,-13 7,12 15,41 42,304 48,309 58,26 228,-24 275,9 68,-8 360,3 479,-4 79,-5 159,-2 238,-6 45,-2 202,-13 235,-5 9,-9 -8,-10 54,-11l187 -3c77,0 158,-5 241,-5 49,0 477,-7 483,-11 -34,-8 -206,-3 -254,-3 -88,-1 -469,-7 -528,4 -48,9 -693,-5 -790,-5 -63,0 -485,-14 -513,-25l-35 -194c-17,-62 -35,-118 -57,-178 -37,-104 -101,-227 -153,-316 -31,-53 -57,-96 -89,-139 -19,-25 -38,-38 -39,-77l4 -355c0,-82 -8,-152 -11,-227 7,-22 2,-17 32,-18l133 -3c166,-9 356,-10 512,-20 228,-14 463,-16 691,-26 230,-9 464,-20 692,-26 118,-3 234,-11 349,-12 91,-2 268,-19 349,-6l2 60c-2,141 60,1530 70,1545 22,-10 10,-54 9,-77 -8,-217 -10,-469 -14,-685 -2,-131 -6,-260 -8,-391 -2,-121 0,-272 -10,-392l0 -66 1194 -33 14 -7c77,1 166,5 241,1 39,-2 68,-6 114,-6 44,0 91,8 112,-16 1,-2 1,-6 2,-5 0,1 1,-4 1,-5 5,-49 -23,-43 -37,-80 -21,-17 -86,-84 -105,-103 -94,-94 -241,-201 -355,-277 -308,-206 -544,-288 -881,-382 -55,-15 -446,-91 -536,-93 -68,-2 -126,-13 -199,-13 -119,1 -292,-21 -412,-3 -34,5 -70,0 -104,4 -24,3 -61,8 -87,11 -313,35 -652,95 -939,224 -287,129 -467,223 -726,429 -26,20 -37,31 -60,48l-113 98c-11,10 -21,20 -28,26 -41,35 -214,195 -233,225z"/>
 </g>
</svg>
