<?xml version="1.0" encoding="UTF-8"?>
<!DOCTYPE svg PUBLIC "-//W3C//DTD SVG 1.1//EN" "http://www.w3.org/Graphics/SVG/1.1/DTD/svg11.dtd">
<!-- Creator: CorelDRAW X5 -->
<svg xmlns="http://www.w3.org/2000/svg" xml:space="preserve" style="shape-rendering:geometricPrecision; text-rendering:geometricPrecision; image-rendering:optimizeQuality; fill-rule:evenodd; clip-rule:evenodd"
viewBox="0 0 13618 8511" preserveAspectRatio="xMaxYMax meet"
 xmlns:xlink="http://www.w3.org/1999/xlink">
 <defs>
  <style type="text/css">
   <![CDATA[
    .fil10 {fill:#2B2A29}
    .fil6 {fill:#A7BCC0}
    .fil8 {fill:#EF7F1A}
    .fil9 {fill:#FEFEFE}
    .fil2 {fill:#F6FCFC}
    .fil3 {fill:#6A7273}
    .fil7 {fill:#9DB9BB}
    .fil4 {fill:#A9BABB}
    .fil5 {fill:#B8CDCE}
    .fil1 {fill:#D9E4E7}
    .fil0 {fill:url(#id2)}
   ]]>
  </style>
     <mask id="id0">
  <linearGradient id="id1" gradientUnits="userSpaceOnUse" x1="6788.59" y1="3232.13" x2="6788.59" y2="1194.89">
   <stop offset="0" style="stop-opacity:1; stop-color:white"/>
   <stop offset="1" style="stop-opacity:0; stop-color:white"/>
  </linearGradient>
      <rect style="fill:url(#id1)" x="677" y="873" width="12222" height="2681"/>
     </mask>
  <linearGradient id="id2" gradientUnits="userSpaceOnUse" x1="6787.74" y1="7666.2" x2="6787.74" y2="758.196">
   <stop offset="0" style="stop-color:#7F9191"/>
   <stop offset="0.501961" style="stop-color:#D2E5E7"/>
   <stop offset="1" style="stop-color:#7F9191"/>
  </linearGradient>
 </defs>
 <g id="Слой_x0020_1">
  <metadata id="CorelCorpID_0Corel-Layer"/>
  <g id="_205426112">
   <g>
    <path class="fil0" d="M12505 569c67,14 123,56 185,76l-7 -21 31 -61c61,25 191,103 218,155 51,64 94,100 140,177 43,71 77,155 97,235 41,164 23,461 23,640l0 5277c0,222 12,356 -95,561 -158,305 -476,495 -824,495 -3517,-6 -7037,0 -10554,0 -398,0 -734,49 -1052,-275 -95,-97 -231,-298 -232,-432 40,109 158,203 192,230 -117,-151 -125,-756 -125,-979l0 -5141c0,-65 -1,-131 -1,-196 1,-69 13,-135 30,-199 -20,-3 -35,-11 -86,-6 16,-91 67,-197 121,-274l142 -151c12,-12 40,-37 57,-51 169,-141 396,-189 613,-188 1593,9 3206,1 4800,1l5600 0c162,0 640,-23 756,52 -12,40 -29,36 -31,76zm-12505 7139l0 -355 0 -6281 0 -254c4,-60 13,-116 34,-153 65,86 22,149 58,211 38,-29 41,-108 59,-156 55,-146 133,-281 250,-378 173,-143 380,-226 611,-231 558,-10 1126,0 1686,0l9686 0c67,0 381,13 417,-3 -4,-27 3,-1 -5,-20 -1,-2 -2,-8 -9,-15 -14,-16 -66,-44 -100,-73l6 0 5 0 5 0 5 0 5 0c99,0 130,2 230,35 68,23 133,56 195,94 68,42 277,208 305,288 131,199 108,307 82,453 2,57 -34,102 -34,160l0 6230c0,232 19,395 -89,609 -78,154 -160,295 -322,372 -62,30 -109,76 -228,119 -175,64 -781,39 -997,39l-9686 0c-267,0 -1171,17 -1370,-19 -499,-43 -661,-435 -784,-592 -8,-20 -14,-49 -17,-81z"/>
    <path class="fil1" d="M2632 843c59,-17 450,-6 543,-6l7720 0c77,0 153,0 180,89 21,69 -10,155 -83,173 -65,16 -451,4 -548,4l-7720 0c-79,0 -156,2 -181,-88 -21,-76 13,-150 89,-172zm-2109 282c-3,59 -20,116 -21,186 -1,65 1,131 1,196l0 5141c0,223 -20,559 26,767 8,44 68,180 98,211 74,-1 199,99 281,121 56,15 72,8 164,35 63,18 104,30 172,31 268,5 540,1 809,1l9652 0c228,0 559,28 768,-41 113,-37 150,-72 240,-144 60,-48 49,-41 86,-102 21,-34 24,-2 44,-58 29,-84 14,32 57,-139l20 -3c-1,-42 26,-248 26,-373l0 -5234c0,-124 -8,-281 0,-400 12,-166 43,-273 51,-360 -13,-65 -92,-124 -127,-174 -11,-5 -169,-129 -178,-139 -62,-21 -118,-63 -185,-76 -37,-1 -129,-24 -173,-31 -54,-8 -137,-4 -194,-4 -3543,-4 -7088,6 -10631,0 -255,0 -430,-8 -649,144 -295,204 -289,409 -336,447z"/>
    <path class="fil2" style="mask:url(#id0)" d="M12882 3314c36,-117 5,-2282 3,-2441l-12173 1c60,377 -214,2554 191,2671 56,16 1996,6 2151,6l9218 0c90,0 332,13 403,-14 91,-35 203,-117 206,-223z"/>
    <path class="fil3" d="M17 7790c24,145 150,339 253,443 196,195 374,260 573,279l561 0 11307 0c197,-1 356,-63 516,-187 133,-103 245,-240 310,-397 60,-145 77,-252 82,-370l0 -255 0 -5652 0 -11c0,-231 -2,-464 0,-695 1,-129 -78,-449 -182,-528 36,41 74,264 53,442 2,57 4,113 4,170l0 6230c0,232 19,395 -89,609 -78,154 -160,295 -322,372 -62,30 -109,76 -228,119 -175,64 -781,39 -997,39l-9686 0c-267,0 -1171,17 -1370,-19 -538,-92 -753,-594 -784,-592z"/>
    <path class="fil3" d="M2632 843c-76,22 -110,95 -89,172 25,91 102,88 181,88l7720 0c97,0 483,13 548,-4 74,-19 104,-104 83,-173 -27,-89 -103,-89 -180,-89l-7720 0c-93,0 -484,-11 -543,6z"/>
    <path class="fil4" d="M776 7791c49,92 300,185 402,205 143,29 434,12 592,12l10290 0c213,0 335,16 538,-66 274,-111 497,-408 500,-708 4,-405 0,-812 0,-1217l0 -4239c0,-104 21,-554 -17,-619l-22 49c-22,198 -19,157 -20,365 -5,1823 5,3650 0,5473 -1,243 -1,115 -57,335l-9 -23c-21,163 -215,365 -361,431 -233,106 -464,88 -716,88l-10401 0c-90,0 -403,4 -472,-25l-160 -45c-35,-12 -55,-9 -90,-16z"/>
    <path class="fil3" d="M12680 647c492,338 419,555 419,1132l0 4239c0,405 4,812 0,1217 -3,301 -226,598 -500,708 -203,82 -325,66 -538,66l-10290 0c-158,0 -450,17 -592,-12 -102,-20 -353,-114 -402,-205 -36,-16 -131,-123 -150,-166 -60,-62 -149,-159 -191,-229 1,134 137,335 232,432 318,325 654,275 1052,275 3517,0 7037,-5 10554,0 348,1 666,-190 824,-495 106,-204 95,-338 95,-561l0 -5277c0,-179 18,-476 -23,-640 -20,-81 -54,-164 -97,-235 -66,-155 -321,-344 -355,-342 -48,2 -21,53 -36,94z"/>
    <path class="fil5" d="M34 666c65,86 22,149 58,211 38,-29 41,-108 59,-156 55,-146 133,-281 250,-378 173,-143 380,-226 611,-231 558,-10 1126,0 1686,0l9686 0c67,0 381,13 417,-3 -4,-27 3,-1 -5,-20 -1,-2 -2,-8 -9,-15 -14,-16 -66,-44 -100,-73l-11649 0 -203 0c-55,3 -111,12 -179,35 -268,89 -568,371 -622,631z"/>
    <path class="fil5" d="M626 7625c19,43 114,149 150,166 35,8 56,5 90,16l160 45c68,30 382,25 472,25l10401 0c252,0 483,18 716,-88 145,-66 340,-267 361,-431l9 23c56,-220 56,-92 57,-335 5,-1823 -5,-3650 0,-5473 1,-209 -2,-168 20,-365l22 -43c5,-47 -64,-208 -99,-238 -7,87 -28,225 -40,391 -9,119 0,277 0,400l0 5234c0,125 -27,331 -26,373l-20 3c-43,171 -28,56 -57,139 -20,56 -23,24 -44,58 -38,61 -26,54 -86,102 -89,72 -126,107 -240,144 -209,69 -540,41 -768,41l-9652 0c-269,0 -541,4 -809,-1 -68,-1 -109,-13 -172,-31 -92,-27 -108,-19 -164,-35 -81,-22 -207,-123 -281,-121z"/>
    <path class="fil5" d="M528 1127c8,-30 35,-245 330,-449 219,-152 393,-144 649,-144 3542,7 7088,-4 10631,0 57,0 141,0 194,8 230,20 324,92 349,105 8,-35 25,-49 35,-90 -267,-183 -773,-116 -936,-116l-5600 0c-1594,0 -3208,8 -4800,-1 -217,-1 -444,47 -613,188 -85,71 -124,118 -198,203 -54,77 -105,183 -121,274 41,6 59,7 82,21z"/>
    <ellipse class="fil6" cx="6754" cy="7581" rx="5383" ry="160"/>
   </g>
   <g>
    <path class="fil7" d="M8331 1591c-61,78 -167,302 -204,399 -175,458 579,466 411,3 -24,-68 -165,-361 -207,-402z"/>
    <path class="fil7" d="M3697 1591c-41,39 -179,329 -204,395 -33,88 -47,153 3,239 136,236 529,90 408,-229 -32,-85 -152,-342 -207,-405z"/>
    <path class="fil7" d="M5228 1591c-50,51 -175,314 -206,394 -34,88 -48,157 3,243 140,234 524,87 408,-229 -46,-126 -134,-293 -205,-408z"/>
    <path class="fil7" d="M6803 1591c-57,75 -168,298 -204,395 -177,469 575,463 411,12 -36,-99 -145,-323 -207,-407z"/>
    <path class="fil7" d="M7440 1433c-4,40 -57,134 -74,180 -110,291 159,409 322,321 264,-143 -6,-521 -101,-699l-15 -18c-59,56 -71,168 -132,217z"/>
    <path class="fil7" d="M9074 1240c-8,55 -214,358 -209,502 6,150 154,258 305,211 39,-12 101,-65 111,-67 63,-146 84,-144 -14,-359 -43,-95 -108,-226 -166,-312l-27 24z"/>
    <path class="fil7" d="M4333 1435c-9,85 -116,197 -101,325 31,266 423,274 464,8 21,-135 -91,-244 -100,-333 -54,-44 -79,-164 -131,-217 -54,55 -75,171 -132,217z"/>
    <path class="fil7" d="M5866 1429c-5,70 -114,199 -106,320 8,120 108,212 228,216 119,3 226,-87 239,-206 14,-132 -100,-254 -106,-336 -34,-26 -99,-162 -123,-209 -56,45 -77,171 -132,215z"/>
    <path class="fil7" d="M9662 1885c-2,39 -48,123 -60,176 -53,230 244,372 391,213 185,-201 -75,-484 -158,-682 -53,32 -124,251 -173,293z"/>
    <path class="fil7" d="M2678 1729c6,207 250,313 386,178 70,-69 100,-138 71,-240 -17,-61 -92,-206 -96,-243 -44,-34 -87,-155 -125,-208l-18 21 -116 216c-41,84 -91,182 -102,276z"/>
    <path class="fil7" d="M10394 1591c0,41 -94,207 58,325 107,83 235,56 323,-35 177,-182 -143,-539 -153,-643l-26 -24c-44,67 -179,353 -202,376z"/>
   </g>
  </g>
  <path id="cvet" fill="#EF7F1A" d="M8872 6923c-102,-20 -782,-65 -826,-40 -22,13 -1850,-13 -2104,-6 -253,7 -335,28 -591,8 -124,-10 -503,20 -618,-20 -26,-9 -211,-235 -250,-66 -39,14 -208,-20 -253,-128 -14,-35 -8,-98 -5,-87 0,-199 -1,-339 -95,-514 -89,-165 -459,-408 -651,-377 -230,38 -487,-131 -796,155 -24,22 -43,41 -67,65l-19 18c-140,136 -316,390 -411,557 -28,49 -91,248 -108,228 -172,78 -298,-170 -418,-85 -105,18 -193,-12 -251,-83 -26,-32 -109,-72 -124,-124 -11,-38 -27,-100 -7,-151 13,-34 65,-61 63,-82 -25,-203 38,-135 32,-304 -1,-30 88,-271 108,-295 22,-57 108,-194 158,-207 98,-59 184,-113 302,-148 32,-20 134,-57 137,-60 55,1 296,-133 317,-234 4,-20 16,-61 19,-75 -5,-2 -28,-2 -39,-4 133,-78 619,-127 794,-139 103,-7 505,-46 585,-70 90,-27 256,-27 351,-46 129,30 571,-232 682,-330 191,-169 953,-640 1166,-694 140,-35 331,-91 549,-108 541,-42 1185,-88 1574,-66 205,12 978,-38 1253,-38 292,0 613,39 930,39 224,0 731,-2 831,2 40,2 56,-8 94,-15 94,-18 156,17 265,26 56,4 205,64 226,117 40,101 -93,129 -135,157 -73,50 24,121 73,210 18,33 204,318 204,328 3,3 -19,24 -14,35 -101,41 -243,-91 -217,117 16,134 30,127 12,278 -17,139 -117,309 -117,409 87,0 19,-35 137,-21 44,5 31,8 68,20 16,5 365,12 411,12 0,148 -28,251 -11,395 25,203 198,100 181,417 -9,160 22,484 -112,566 -215,132 -415,151 -631,197 -46,10 -397,-29 -455,-76 -172,-139 -296,-673 -471,-854 -245,-253 -780,-137 -1072,-44 -200,63 -344,93 -378,325 -15,103 -105,413 -149,510 -22,48 -118,402 -126,401zm-3609 -2769c0,0 462,-605 1960,-563l1970 -49 95 -17 1263 21c0,0 151,-26 288,155 0,0 188,143 107,251 -82,107 -36,108 -391,452l-63 55 -52 37 -105 26 -440 21 -378 11 -68 -13 -99 13 -959 44 -918 37 -5 -42 -2 -87 -194 -21 -110 26 -99 95 -6 34 -356 26c0,0 -1234,49 -1442,49l-31 -16 23 -40 71 -82 24 -37 11 -116 2 -128 -21 -86 -50 -26 -24 -29z"/>
  <path id="belyi" class="fil9" d="M5263 4154c0,0 462,-605 1960,-563l1970 -49 95 -17 1263 21c0,0 151,-26 288,155 0,0 188,143 107,251 -82,107 -36,108 -391,452l-63 55 -52 37 -105 26 -440 21 -378 11 -68 -13 -99 13 -959 44 -918 37 -5 -42 -2 -87 -194 -21 -110 26 -99 95 -6 34 -356 26c0,0 -1234,49 -1442,49l-31 -16 23 -40 71 -82 24 -37 11 -116 2 -128 -21 -86 -50 -26 -24 -29zm6689 1222l-935 34c0,0 44,93 118,127 73,34 534,-20 857,323 0,0 64,93 44,-73 0,0 37,-54 47,-2l12 294c0,0 10,255 -360,377 0,0 448,-24 433,-362l-27 -335c0,0 -196,-122 -189,-340l-1 -29 1 -12zm-7232 874c0,0 -162,-55 592,-102l2455 -36c0,0 206,-29 347,99 0,0 -438,39 -990,34l-2317 8 -86 -3zm4110 -429c89,-846 1939,-904 2236,-99 0,0 115,297 78,469 -196,-871 -937,-1016 -1725,-824 0,0 -330,43 -545,409l-27 40 -17 4zm-7348 78c0,0 182,-21 255,-162 73,-141 235,-474 813,-589 579,-115 1439,-188 1996,-188 0,0 235,-136 652,-146 417,-10 5129,-208 5129,-208 0,0 344,-36 756,146 0,0 -266,-94 -1564,-57 -1298,36 -4331,203 -4331,203 0,0 -573,99 -683,266 0,0 -271,-120 -1939,78 0,0 -552,104 -787,516 0,0 -93,119 -235,139l-47 1 -16 1zm531 -22c0,0 151,-589 1225,-599 0,0 1100,-109 1204,771 0,0 -63,-797 -1225,-698 0,0 -813,10 -1089,516l-83 12 -31 -1zm7931 -40c481,0 872,390 872,872 0,481 -390,872 -872,872 -481,0 -872,-390 -872,-872 0,-481 390,-872 872,-872zm-6740 -13c481,0 872,390 872,872 0,481 -390,872 -872,872 -481,0 -872,-390 -872,-872 0,-481 390,-872 872,-872zm8663 -1287l12 5 82 -5 -5 -41c-1,-23 -10,-64 -22,-83 -18,-28 -44,-21 -82,-23 -14,12 4,2 -21,9 -4,1 -14,3 -19,4 -32,8 -61,26 -56,67 9,75 68,35 111,68zm-10071 685c12,-44 15,-52 45,-82 23,-23 39,-37 72,-49 38,-14 154,-37 198,-45 -37,56 -260,160 -314,175zm-77 54c74,0 121,-44 184,-67 100,-36 198,-51 252,-111 34,-37 35,-20 86,-36 42,-13 122,-69 127,-114 -92,-8 -149,10 -235,13 -205,7 -175,-25 -301,63 -33,23 -36,26 -54,67 -15,35 -59,149 -59,184zm-147 68c4,-25 14,-43 24,-64 13,-26 15,-44 25,-67 16,-38 53,-82 63,-115 -88,8 -120,93 -149,187 -14,46 -66,223 -50,259 14,-29 23,-51 39,-79 21,-37 29,-40 55,-66 64,-64 133,-87 113,-112 -8,-7 6,-21 -36,-4 -7,3 -27,17 -31,20 -23,18 -28,29 -53,42zm10287 -364c36,5 59,0 87,16 36,19 101,6 146,0 5,-46 6,-99 -8,-140 -47,-11 -173,-21 -219,-5 -57,21 -69,100 -6,129z"/>
  <path id="kontur" class="fil10" d="M9225 6636l12 24 5 126c2,45 9,98 23,140 60,182 114,269 275,388 79,59 119,87 209,122 -19,8 -113,-8 -138,-15 -47,-13 -88,-30 -124,-54 -148,-98 -243,-235 -280,-418 -16,-80 -19,-198 -1,-279 8,-35 -1,-19 19,-33zm-379 -1682c-21,15 -25,4 -48,22 4,27 27,41 27,40 1,-1 3,2 4,4 41,9 94,23 146,21 24,-54 45,-71 114,-72 66,-1 112,-4 133,52l94 -5 80 -9c1,-24 -3,-30 -12,-44 -46,-47 -444,-6 -539,-10zm-1931 -36l-42 -3c-54,0 -154,8 -175,51l274 -2c-16,-35 -30,-19 -57,-46zm-256 106c-17,12 -32,10 -64,9l-41 1c-2,0 -4,2 -6,2l-11 6c-24,33 88,58 102,64 10,4 9,4 14,9l3 -3c85,15 45,-21 88,-41 19,-9 95,-5 122,-7 78,-4 47,20 100,30 32,6 95,-2 131,-2 26,-5 21,-5 32,-20 -4,-50 -16,-40 -64,-42 -19,-1 -39,-2 -58,-4 -25,-2 -25,2 -40,-9l-309 8zm3802 1802c4,-43 29,-104 19,-131 -4,-12 12,-31 -85,-14 -66,12 -166,9 -227,25 -30,8 -52,36 -33,76 30,64 324,45 325,45zm-144 273c59,11 93,-110 105,-126 18,-25 37,-6 40,-14 1,-2 3,0 5,-1 -33,-54 -53,-47 -123,-64 -35,-9 -113,-30 -148,-25l-34 68c18,30 123,156 154,162zm-91 27c-23,-35 -171,-216 -186,-220 -37,-11 -59,36 -52,80 6,38 25,63 41,95 29,54 69,126 94,177 28,-5 57,-26 81,-41 51,-31 36,-19 86,-7 -14,-31 -41,-50 -64,-85zm-303 179c50,0 88,-6 118,-28 -2,-30 -31,-104 -43,-138 -19,-57 -18,-106 -90,-96 -43,6 -54,85 -65,121 -47,146 -47,140 79,140zm-207 -50c33,-36 136,-228 134,-302 -25,-17 -66,-49 -102,-12 -13,14 -46,61 -60,82 -38,53 -75,120 -115,171 12,8 26,3 46,12 15,6 53,41 98,49zm-221 -155c57,3 52,1 81,-31 19,-20 33,-36 53,-61 36,-45 86,-81 15,-136 -44,-1 -106,16 -149,25 -75,17 -67,11 -108,55l9 6c1,1 3,2 4,3 16,12 12,8 20,22 25,43 36,75 73,118zm-121 -369l6 99c70,7 134,-3 200,-8 48,-3 153,-6 122,-78 -18,-42 -96,-50 -150,-54 -74,-6 -121,-23 -199,-20 14,30 9,8 16,23 7,15 6,18 6,37zm279 -92l37 -64c-16,-28 -87,-105 -111,-128 -54,-54 -71,-85 -125,9 -24,43 -78,120 -3,147 32,11 164,39 202,37zm-81 -351c17,41 132,236 168,276 40,45 63,15 99,-1 -3,-42 -118,-315 -138,-343 -54,10 -85,50 -129,68zm264 -106c-26,71 -23,65 0,143 13,45 25,104 53,140 92,6 77,9 137,-199 14,-48 9,-45 -11,-82 -67,-10 -112,-8 -179,-1zm444 118c-24,-33 -99,-75 -138,-81 -31,49 -66,124 -93,183 -25,54 -99,157 -29,181 52,18 83,-54 139,-129 21,-28 104,-144 122,-154zm-89 339c53,3 219,-35 250,-57 5,-61 -75,-166 -106,-187 -40,14 -89,80 -117,112 -63,72 -79,36 -27,132zm-111 242c50,-49 24,-108 -36,-93 -45,12 -55,100 36,93zm-42 -255c-21,11 -43,26 -22,66 10,20 41,32 67,17 47,-27 15,-116 -45,-83zm-144 -88c-23,9 -40,25 -28,62 7,23 33,38 64,26 54,-21 28,-112 -36,-88zm-152 83c-55,27 -23,113 41,87 57,-23 19,-117 -41,-87zm74 248c14,-96 -70,-91 -88,-47 -10,25 2,52 21,62 29,15 48,-3 67,-15zm142 31c-17,-14 -34,-33 -65,-20 -20,8 -36,31 -25,62 16,45 104,51 90,-41zm-8162 -1677c54,-15 277,-119 314,-175 -43,7 -160,31 -198,45 -33,12 -48,26 -72,49 -29,29 -32,37 -45,82zm-234 1037c-16,78 -107,34 -118,-36 -19,-22 -20,-56 -14,-89l142 2c2,39 7,93 -10,123zm-160 -78c7,73 70,178 144,140 52,-26 72,-150 62,-230 -31,-263 -230,-163 -206,89zm1909 621c-18,10 -39,24 -24,60 9,22 39,27 60,13 48,-31 13,-101 -36,-74zm-171 245c-18,22 -82,181 -73,214 11,43 56,42 105,41 90,-2 77,-7 109,-38 -9,-57 -49,-189 -76,-218l-65 1zm-174 205c16,-21 233,-362 94,-345 -39,5 -46,42 -69,68 -32,36 -165,205 -172,226 48,-15 34,-35 118,27 13,10 14,14 29,23zm-221 -155c46,3 47,-1 71,-25l97 -103c17,-19 28,-32 13,-62 -29,-61 -86,-30 -151,-17 -60,12 -107,15 -139,61 2,1 4,1 6,2l21 10c8,6 9,9 13,17 27,48 20,56 70,118zm-85 -270l318 -33 0 -83c-52,-14 -186,-19 -247,-25 -138,-13 -79,5 -78,79 0,27 1,36 8,62zm87 -397c-28,38 -71,103 -73,164 59,13 167,47 228,42 55,-95 39,-57 -91,-202 -20,-23 -47,-41 -89,-43 9,23 15,23 25,39zm107 -93c55,82 125,175 190,253l63 -30c-10,-60 -119,-239 -131,-291 -48,7 -97,41 -122,68zm280 123l75 0c15,-31 51,-142 60,-185 19,-87 -93,-84 -169,-74 -38,49 -32,65 -13,127 14,47 32,89 46,131zm126 91c19,27 29,32 61,33 37,-47 175,-236 178,-268 -15,-19 -81,-57 -107,-65 -41,65 -43,63 -69,147 -15,49 -47,111 -63,154zm353 -161c-54,4 -55,19 -80,52 -19,24 -40,44 -60,68 -17,20 -85,63 -26,114 34,29 93,-2 153,-15 172,-35 13,-128 14,-206l-1 -13zm-222 329c-20,95 21,101 108,101 65,0 155,14 211,6 5,-33 5,-52 6,-84 2,-67 17,-20 16,-62 -35,-6 -316,29 -342,39zm125 157c-52,-12 -65,-26 -92,19 -26,45 -9,52 18,82 51,56 121,185 184,84 7,-12 17,-27 24,-40 37,-65 7,-56 49,-65l9 -1c-31,-61 -112,-62 -193,-80zm-209 23c-135,41 -60,104 17,262 13,26 32,69 55,91 32,-4 48,-15 73,-30l62 -37c-17,-26 -38,-45 -56,-72 -24,-38 -134,-201 -151,-213zm-83 -3c-56,-30 -116,5 -80,51 22,28 98,27 80,-51zm-232 -30c7,0 31,31 66,6 21,-15 20,-44 5,-63 -28,-34 -91,-13 -71,58zm16 -232c-51,33 1,99 52,69 42,-25 0,-103 -52,-69zm148 -80c-47,29 5,98 53,61 35,-27 4,-97 -53,-61zm129 140c16,12 33,25 64,12 78,-68 -82,-143 -64,-12zm1461 103c76,-19 864,-12 1006,-12 168,0 339,1 506,-3 170,-4 342,2 513,2l1005 4c146,0 935,-13 1011,6 10,84 -36,70 -184,71 -263,1 -531,-7 -791,-1 -662,17 -1423,0 -2095,-2 -169,-1 -349,5 -514,-4 -82,-5 -302,-7 -391,-3 -58,2 -79,3 -65,-58zm5770 45c-54,335 -373,559 -684,500 -309,-58 -541,-310 -500,-686 32,-298 355,-552 685,-494 198,35 280,109 375,216 88,100 154,282 125,463zm-6753 -14c-85,534 -716,696 -1057,301 -88,-101 -157,-280 -130,-463 73,-494 697,-711 1058,-294 86,100 156,283 129,456zm5064 -296c3,35 -15,164 -40,182 -24,-65 5,-114 -149,-149 -58,-13 -805,-3 -898,-3 -903,6 -1817,0 -2722,-1 -72,0 -240,-22 -276,34 -44,70 -48,96 -183,116 -165,25 -204,-10 -253,-200 -19,-75 -15,-69 62,-69 272,-2 167,2 263,45 114,51 418,40 563,39l3029 0c100,0 200,0 299,-1 52,0 97,8 150,6 46,-2 109,-6 154,1zm-7512 -279c-5,97 25,166 54,244 -65,-19 -130,-216 -54,-244zm1856 1159c41,0 193,-4 226,-16 22,-8 46,-21 64,-12 -89,52 -252,101 -375,84 -133,-18 -261,-51 -350,-119 -239,-183 -404,-551 -252,-880 24,-51 94,-168 142,-157 -1,36 -92,122 -125,345 -25,173 -6,255 62,394 117,242 333,360 608,361zm7331 -1263c55,16 117,114 147,172 35,67 65,154 86,235 39,154 8,413 -66,537 -1,-1 -2,-6 -2,-5l-4 -21c1,-29 20,-137 22,-232 2,-97 -2,-177 -17,-270 -20,-124 -108,-308 -166,-416zm-1205 71c27,-70 144,-178 199,-215 91,-61 161,-98 293,-121 170,-29 361,-14 510,67 42,23 97,50 126,78 -106,-41 -152,-67 -291,-77 -265,-20 -530,-5 -737,175 -45,39 -75,81 -100,93zm-6625 -132c0,-39 23,-46 75,-82 120,-82 188,-115 338,-140 217,-37 356,10 519,94 198,103 378,319 405,553 8,71 37,230 3,288 -1,-2 -2,-6 -2,-5 0,1 -1,-4 -2,-6 -11,-63 4,-117 -32,-247 -59,-217 -182,-389 -378,-499 -439,-246 -872,35 -927,43zm4570 87c-3,-34 4,-72 5,-109 1,-38 -7,-64 -10,-100 -18,-218 -46,-432 -34,-656 12,-91 23,-181 33,-268 10,-90 25,-182 28,-273 -1,-37 0,-70 12,-101l549 -25c458,-15 926,-44 1382,-61 257,-10 267,-44 311,47l17 74 6 11c4,11 2,3 6,17 2,6 4,20 6,27 5,22 8,36 14,59 11,45 23,80 29,126 18,124 -6,284 11,389l-12 175c-43,25 -181,32 -315,118 -363,232 -358,524 -449,876 -36,10 -160,4 -204,2 2,-2 5,-6 6,-4 1,2 4,-3 6,-4 31,-11 26,-5 59,-9 23,-3 49,-5 62,-21 -51,-36 -949,-59 -1119,-61 -94,-1 -314,7 -390,-12 -10,-56 -46,-161 -7,-218zm-5673 -831c24,-14 30,-24 53,-42 4,-3 24,-17 31,-20 42,-17 29,-4 36,4 20,25 -50,48 -113,112 -26,26 -34,29 -55,66 -16,28 -25,50 -39,79 -15,-36 36,-212 50,-259 29,-94 61,-179 149,-187 -10,32 -47,77 -63,115 -10,24 -13,41 -25,67 -10,21 -20,39 -24,64zm147 -68c0,-35 43,-149 59,-184 18,-41 21,-44 54,-67 126,-88 97,-56 301,-63 86,-3 143,-21 235,-13 -4,45 -85,101 -127,114 -52,16 -53,-1 -86,36 -55,60 -152,75 -252,111 -62,22 -110,67 -184,67zm2844 -513c-12,68 -35,103 -48,199 -1,10 -3,28 -6,37 -8,30 -9,26 -17,35 9,39 -27,160 -31,206 -6,77 -22,161 -18,238 -3,231 34,784 119,953l-263 4c-18,-33 -34,-160 -49,-212 -20,-69 -110,-310 -143,-370 -98,-184 -234,-292 -447,-323 -246,-35 -705,-20 -944,46 -73,20 -124,41 -189,68 -281,117 -430,455 -467,752 -4,31 2,45 -14,63l-3 35 -13 142c-37,6 -179,-7 -211,-21 -100,-42 -102,-90 -158,-75l-8 44c-41,5 -102,10 -130,-8 -24,-16 -52,-51 -66,-76 -110,-193 -101,-581 -24,-718 21,-37 43,-36 61,-81 15,-39 14,-76 22,-120 41,-227 297,-222 416,-297 72,-46 55,-45 92,-24 -7,-17 -8,-10 -5,-31l110 -54c303,-155 153,-96 299,-212 15,-47 46,-30 12,-89 347,-62 708,-101 1060,-145 230,-28 694,-57 906,-149 44,-19 65,-39 99,-59 30,14 104,66 125,93 -20,43 -57,98 -69,150zm2720 -144c0,-44 4,-32 24,-34 23,-2 101,-6 122,-15 26,-11 14,-16 28,-43l-3 82 -171 9zm-30 2c-26,0 -128,7 -145,2 -17,-5 -5,-1 -16,-10 28,-7 65,-14 94,-21 52,-13 43,-15 69,-50l-3 79zm1752 -1018c38,-10 102,-8 142,-3 28,51 100,377 121,462 17,65 123,438 106,473 -37,13 -276,15 -335,18 -103,4 -90,42 -73,-264 6,-104 13,-648 39,-688zm2848 785c38,2 64,-4 82,23 12,19 21,61 22,83 37,33 1,58 6,93 4,25 25,68 33,97 7,26 14,90 24,105l61 62c1,1 3,3 4,4 14,42 12,94 8,140 -9,33 -23,31 -57,39 -28,6 -58,6 -86,4l-3 -42c-29,-17 -51,-12 -87,-16 -17,12 -37,8 -69,9l-246 5 45 -110c41,-22 119,-6 172,-50 90,-74 74,-26 148,-49 2,-1 4,-2 6,-2 2,-1 4,-2 5,-3 44,-18 -33,-215 -42,-239l-12 -5c-74,-12 -159,10 -205,3 -27,-32 -41,-90 -62,-132 44,-17 196,-20 252,-19zm-6920 -116c21,-2 52,-17 77,-25 28,-9 61,-15 93,-22 64,-15 131,-27 204,-19 30,45 30,87 25,157 6,12 7,171 -55,229 -36,34 -165,70 -226,68 59,-21 203,-62 227,-112 -2,-1 -4,-4 -5,-2l-18 -5c-64,-9 -416,36 -460,71l37 24c2,1 8,5 10,6l10 7c-56,-1 -81,-19 -83,-73 -5,-125 90,-269 165,-306zm3970 283c-53,22 -597,23 -711,28 -107,4 -660,40 -713,31 -9,-64 6,-188 10,-257 4,-80 13,-163 16,-242 2,-62 23,-470 40,-490 17,-21 36,-14 70,-15 29,-1 57,-1 86,-2l869 -11c89,0 271,-10 350,3 11,53 -4,904 -16,955zm-1659 259c6,151 -52,342 -54,497 3,69 -8,146 -4,221 9,183 10,238 33,423 5,37 7,66 10,104 6,68 -2,97 -3,98 -1,2 -2,4 -2,6 0,1 -1,4 -2,6l2 8c-6,38 -17,69 -14,109 3,35 15,84 11,114 -19,-6 -1198,0 -1317,2 -140,3 -1273,29 -1310,15 -30,-13 -39,-63 -50,-102 -12,-43 -20,-89 -26,-133 -19,-137 -87,-733 -41,-867 1,-1 1,-4 2,-6 -7,-59 41,-250 51,-325 6,-49 36,-158 58,-196 59,-8 134,-2 197,-6 61,-4 125,-10 187,-14 195,-13 1026,-39 1151,-84 -23,-18 -365,2 -424,5 -75,4 -380,22 -435,8 28,-64 89,3 115,-246 6,-54 7,-112 1,-166 -9,-81 -5,-97 -74,-112 16,-64 308,-227 354,-252 370,-205 547,-212 966,-259 88,-10 509,-43 571,-35 16,47 -105,727 -128,876 -25,158 19,119 -267,139 -23,2 -147,8 -168,14 -39,11 32,-16 -14,6 -1,0 -3,2 -4,3 91,39 503,-5 634,7 6,44 9,111 -7,145zm2039 -1249c1,-40 70,-25 142,-25 388,3 766,4 1155,17 89,3 160,59 218,118 33,34 137,126 154,180 36,116 -267,405 -342,480 -23,23 -60,63 -84,80 -115,80 -69,72 -244,92 -99,11 -581,29 -714,33 -64,2 -49,-8 -87,-168l-196 -807zm2322 -68c81,41 63,94 4,108 -60,14 -107,29 -160,48 -25,-16 -67,-77 -107,-117l-114 -112 -48 -20c138,-11 323,37 425,93zm-4722 -54c17,9 1260,-22 1401,-19 236,4 475,-7 713,-9 470,-3 954,9 1425,10 243,1 450,-11 674,50 256,69 287,134 409,311 49,71 92,138 142,214 24,36 48,71 71,107 24,37 57,78 73,117 -62,-3 -117,-2 -179,-1 -216,3 -33,203 -20,354 16,191 -164,456 -185,549l590 -18 57 10c15,332 -74,381 155,564 66,53 40,205 38,305 -2,87 -1,258 -39,325 -102,176 -470,244 -689,303 -46,12 -35,6 -69,-8 -97,-41 -244,-9 -336,-27 -26,-17 -111,-445 -137,-527 -20,-62 -20,-20 -52,-110 -172,-480 -547,-507 -1009,-470l-296 36c-4,-35 2,-194 5,-240 5,-86 0,-170 0,-256l2 -52c-2,-3 -69,-269 -74,-295l0 -24c-12,-10 -16,-18 -24,-35 -7,-17 -9,-15 -9,-34 72,3 770,-33 860,-43 88,-9 134,-80 188,-113l130 -135c69,-75 192,-211 243,-299 54,-93 43,-123 -11,-198 -49,-69 -193,-225 -298,-245 -70,-13 -426,-13 -530,-18 -352,-17 -727,-8 -1083,-8 -685,0 -1460,9 -2138,46 -325,17 -653,38 -951,137 -137,45 -247,113 -366,175 -78,41 -329,211 -409,275 -166,131 -159,56 -281,126 -114,65 -117,197 -160,246 -23,27 -45,52 -64,77 -17,-6 -115,-76 -128,-92 91,-51 233,-182 327,-256 253,-201 560,-369 837,-539 186,-114 366,-150 594,-191l323 -50c-88,-20 -330,30 -436,45 -89,12 -187,58 -235,62 -26,2 -9,-6 -46,5 -61,19 -113,46 -169,74l-163 80c-28,14 -51,30 -77,44 -102,55 -206,117 -304,181l-291 194c-27,18 -45,36 -68,53 -12,8 -21,13 -34,24l-106 79c-46,33 -92,74 -145,98 -88,40 -148,87 -248,116 -67,19 -125,31 -198,44 -40,7 -65,12 -103,18 -219,37 -439,48 -659,75 -40,5 -73,6 -111,10 -74,7 -372,41 -431,53 -66,14 -144,23 -212,31 -87,9 -325,54 -410,75 -61,15 -138,68 -213,86 -60,15 -85,7 -139,46 -52,38 -65,68 -135,108 -66,38 -83,51 -126,116 -49,75 -81,166 -107,257 -20,72 -30,127 -41,202 -16,113 10,80 -38,205 -14,36 -24,59 -24,104 -66,35 -44,94 -42,228 1,105 -63,56 -32,217 8,40 5,41 25,68 17,23 27,27 49,43 50,35 158,134 212,151 40,12 131,-15 137,48 4,37 2,48 9,84 12,65 10,95 105,45 0,-55 -9,-103 0,-143 34,3 10,-6 30,13 2,2 17,22 22,28 15,19 25,33 38,55 19,33 10,31 48,44 24,8 58,15 76,24 10,21 -6,43 16,62 22,20 54,2 84,2 8,-35 7,-50 7,-93 16,12 31,37 52,55 24,20 44,25 68,46 46,40 42,69 75,146 22,51 39,105 67,154 75,135 194,260 335,327 105,50 217,102 337,112 255,20 512,-4 711,-164 21,-17 40,-28 60,-47 82,-80 46,-41 141,-79 82,-33 221,-110 275,-174 19,-22 30,-47 52,-62 34,9 7,13 43,15 40,2 17,-6 49,-15 0,-25 8,-113 12,-130 10,-39 28,-65 40,-103 21,-66 70,-19 144,-70 28,-19 9,-18 53,-18l0 143c71,0 49,-32 71,-78l185 7c116,10 258,-4 377,9 35,4 51,-9 61,16 17,40 -5,28 26,74 85,0 191,10 264,-7 23,-98 -59,-86 321,-86l1226 0c74,0 341,-21 388,4 70,36 -20,39 167,39 171,0 464,15 608,-5 74,-10 353,-9 397,12 15,31 16,47 38,76 54,75 83,128 165,191 26,20 35,31 64,50 67,44 155,103 237,120 87,18 74,51 138,97 66,47 254,117 331,140 181,54 335,45 515,0 116,-29 226,-75 311,-159 23,-23 40,-33 64,-57 41,-41 73,-80 110,-125 34,-41 59,-101 76,-159 18,-60 30,-122 57,-178 16,-35 18,-52 61,-60 34,-6 69,-14 107,-14 13,56 -6,215 21,242 80,38 79,16 78,-64 -1,-103 -9,-188 60,-204 26,-6 47,-9 72,-14l294 -55c92,-18 182,-51 271,-78 57,-17 90,25 144,21 31,-2 134,-80 144,-111 12,-35 -19,-27 31,-47 87,-35 136,-97 160,-190 34,-135 13,-351 3,-502 -9,-137 26,-107 -83,-253 -14,-18 -23,-30 -36,-49 -74,-108 -48,-78 -48,-201l7 -257c8,-106 49,-3 9,-216 -6,-33 -9,-38 -21,-65 -18,-40 -42,-83 -49,-122 -9,-50 -33,-91 -38,-141 -19,-187 -64,-166 -106,-244 -36,-67 -46,-54 -79,-92 -13,-15 -21,-43 -30,-63 -32,-65 -70,-129 -110,-189 -41,-61 -85,-125 -131,-182 -20,-25 -28,-19 -37,-56 37,-19 73,-42 100,-71 51,-57 150,-110 37,-194 -26,-19 -90,-44 -123,-55 -46,-15 -94,-21 -144,-27 -52,-7 -107,-5 -159,-12 -72,-11 -56,22 -139,-3 -51,-16 -774,-15 -855,-15 -65,0 -100,-7 -164,-7l-520 0c-221,0 -475,-12 -691,0l-164 7c-57,0 -114,0 -171,0 -56,0 -100,7 -164,7 -291,0 -563,18 -848,21 -38,0 -42,7 -78,8 -28,1 -58,-1 -86,0l-160 11c-93,14 -229,7 -315,32z"/>
 </g>
</svg>
