<?xml version="1.0" encoding="UTF-8"?>
<!DOCTYPE svg PUBLIC "-//W3C//DTD SVG 1.1//EN" "http://www.w3.org/Graphics/SVG/1.1/DTD/svg11.dtd">
<!-- Creator: CorelDRAW X5 -->
<svg xmlns="http://www.w3.org/2000/svg" xml:space="preserve" style="shape-rendering:geometricPrecision; text-rendering:geometricPrecision; image-rendering:optimizeQuality; fill-rule:evenodd; clip-rule:evenodd"
viewBox="0 0 12623 7890" preserveAspectRatio="xMaxYMax meet"
 xmlns:xlink="http://www.w3.org/1999/xlink">
 <defs>
  <style type="text/css">
   <![CDATA[
    .fil0 {fill:#FEFEFE; fill-opacity:0; stroke-opacity:0;}
    .fil3 {fill:#F6FCFC}
    .fil4 {fill:#6A7273}
    .fil5 {fill:#A9BABB}
    .fil6 {fill:#B8CDCE}
    .fil2 {fill:#D9E4E7}
    .fil1 {fill:url(#id2)}
   ]]>
  </style>
   <mask id="id0">
  <linearGradient id="id1" gradientUnits="userSpaceOnUse" x1="6292.7" y1="2996.02" x2="6292.7" y2="1107.59">
   <stop offset="0" style="stop-opacity:1; stop-color:white"/>
   <stop offset="1" style="stop-opacity:0; stop-color:white"/>
  </linearGradient>
    <rect style="fill:url(#id1)" x="628" y="809" width="11330" height="2485"/>
   </mask>
  <linearGradient id="id2" gradientUnits="userSpaceOnUse" x1="6291.9" y1="7106.19" x2="6291.9" y2="702.81">
   <stop offset="0" style="stop-color:#7F9191"/>
   <stop offset="0.501961" style="stop-color:#D2E5E7"/>
   <stop offset="1" style="stop-color:#7F9191"/>
  </linearGradient>
 </defs>
 <g id="Слой_x0020_2">
  <metadata id="CorelCorpID_0Corel-Layer"/>
  <path class="fil1" d="M11591 528c62,13 114,52 172,71l-6 -19 28 -57c56,23 177,96 202,143 47,60 87,93 130,164 40,66 71,144 90,218 38,152 21,427 21,593l0 4892c0,206 11,330 -88,520 -147,282 -442,459 -764,459 -3260,-5 -6523,0 -9783,0 -369,0 -681,46 -976,-255 -88,-90 -214,-276 -215,-400 37,101 147,188 178,214 -108,-140 -116,-701 -116,-907l0 -4765c0,-60 -1,-121 -1,-182 1,-64 12,-125 28,-184 -18,-3 -33,-10 -80,-6 15,-85 62,-183 112,-254l131 -140c11,-11 37,-35 53,-48 157,-131 367,-175 569,-174 1476,8 2972,1 4450,1l5191 0c151,0 593,-22 701,48 -11,37 -27,33 -29,70zm-11591 6618l0 -329 0 -5823 0 -235c4,-56 12,-107 32,-142 60,79 20,138 54,196 35,-27 38,-100 55,-145 51,-135 123,-261 232,-351 161,-133 352,-210 566,-214 518,-9 1044,0 1562,0l8978 0c63,0 353,12 387,-3 -4,-25 3,-1 -5,-18 -1,-2 -2,-7 -8,-14 -13,-15 -62,-40 -93,-68l5 0 5 0 5 0 5 0 5 0c92,0 121,2 214,33 63,21 123,52 181,87 63,39 257,192 282,267 122,184 100,284 76,420 2,53 -31,95 -31,148l0 5775c0,215 18,366 -83,564 -72,143 -148,273 -298,345 -58,28 -101,70 -212,110 -162,59 -724,37 -924,37l-8978 0c-247,0 -1085,15 -1270,-17 -462,-40 -613,-403 -727,-548 -8,-19 -13,-45 -16,-75z"/>
  <path class="fil2" d="M2440 781c55,-16 417,-5 503,-5l7156 0c71,0 142,0 167,82 20,64 -9,144 -77,161 -60,15 -418,3 -508,3l-7156 0c-73,0 -144,2 -168,-82 -20,-71 12,-139 83,-159zm-1955 261c-2,55 -18,108 -19,172 -1,60 1,121 1,182l0 4765c0,207 -19,518 24,711 8,40 63,167 91,196 68,-1 185,92 260,112 52,14 66,7 152,32 58,17 96,28 159,29 249,5 501,1 750,1l8947 0c211,0 518,26 712,-38 105,-34 139,-67 222,-133 56,-45 45,-38 80,-95 19,-32 22,-2 41,-54 27,-78 13,29 53,-129l18 -3c-1,-39 24,-230 24,-346l0 -4852c0,-115 -8,-260 0,-371 12,-154 40,-253 47,-334 -12,-60 -85,-115 -117,-161 -10,-4 -157,-119 -165,-129 -57,-19 -110,-58 -172,-71 -34,-1 -119,-22 -161,-28 -50,-8 -127,-4 -180,-4 -3284,-4 -6570,6 -9854,0 -237,0 -398,-7 -601,133 -273,189 -268,379 -311,414z"/>
  <path class="fil3" style="mask:url(#id0)" d="M11941 3072c33,-108 5,-2116 3,-2263l-11283 1c55,350 -198,2367 177,2476 52,15 1850,6 1994,6l8544 0c84,0 308,12 374,-13 84,-32 188,-109 191,-206z"/>
  <path class="fil4" d="M16 7221c22,134 139,315 235,410 182,181 346,241 532,258l520 0 10481 0c183,-1 330,-59 478,-173 124,-96 227,-223 287,-368 56,-134 72,-234 76,-343l0 -236 0 -5239 0 -10c0,-215 -2,-430 0,-645 1,-119 -72,-417 -169,-489 33,38 69,245 49,410 2,53 3,105 3,158l0 5775c0,215 18,366 -83,564 -72,143 -148,273 -298,345 -58,28 -101,70 -212,110 -162,59 -724,37 -924,37l-8978 0c-247,0 -1085,15 -1270,-17 -499,-85 -698,-550 -727,-548z"/>
  <path class="fil4" d="M2440 781c-71,20 -102,88 -83,159 23,84 94,82 168,82l7156 0c90,0 447,12 508,-3 68,-17 97,-97 77,-161 -25,-82 -95,-82 -167,-82l-7156 0c-86,0 -448,-11 -503,5z"/>
  <path class="fil5" d="M720 7222c45,85 278,171 372,190 132,26 402,11 549,11l9538 0c197,0 311,15 499,-61 254,-102 461,-378 464,-656 4,-375 0,-753 0,-1128l0 -3929c0,-97 20,-513 -16,-574l-20 46c-20,183 -18,145 -18,339 -4,1690 4,3383 0,5073 -1,226 -1,107 -52,311l-8 -22c-19,151 -200,338 -334,399 -216,98 -430,81 -664,81l-9641 0c-84,0 -374,4 -437,-24l-148 -41c-32,-11 -51,-8 -84,-15z"/>
  <path class="fil4" d="M11754 600c456,313 388,515 388,1049l0 3929c0,376 4,753 0,1128 -3,279 -209,554 -464,656 -188,76 -302,61 -499,61l-9538 0c-147,0 -417,15 -549,-11 -94,-19 -327,-105 -372,-190 -33,-15 -121,-114 -139,-154 -55,-57 -138,-147 -177,-213 1,124 127,311 215,400 295,301 607,255 976,255 3260,0 6523,-5 9783,0 323,1 617,-176 764,-459 98,-189 88,-314 88,-520l0 -4892c0,-166 17,-441 -21,-593 -19,-75 -50,-152 -90,-218 -61,-144 -297,-319 -330,-317 -45,2 -20,49 -33,87z"/>
  <path class="fil6" d="M32 617c60,79 20,138 54,196 35,-27 38,-100 55,-145 51,-135 123,-261 232,-351 161,-133 352,-210 566,-214 518,-9 1044,0 1562,0l8978 0c63,0 353,12 387,-3 -4,-25 3,-1 -5,-18 -1,-2 -2,-7 -8,-14 -13,-15 -62,-40 -93,-68l-10798 0 -188 0c-51,3 -102,11 -166,33 -248,82 -526,344 -577,585z"/>
  <path class="fil6" d="M581 7068c18,40 106,139 139,154 32,7 51,5 84,15l148 41c63,28 354,24 437,24l9641 0c233,0 447,17 664,-81 134,-61 315,-248 334,-399l8 22c52,-203 52,-85 52,-311 4,-1690 -4,-3383 0,-5073 1,-194 -2,-155 18,-339l20 -40c5,-44 -59,-193 -91,-221 -7,80 -26,209 -37,363 -8,111 0,257 0,371l0 4852c0,116 -25,307 -24,346l-18 3c-40,159 -26,52 -53,129 -18,52 -21,22 -41,54 -35,57 -24,50 -80,95 -83,66 -117,99 -222,133 -194,64 -501,38 -712,38l-8947 0c-249,0 -501,3 -750,-1 -63,-1 -101,-12 -159,-29 -85,-25 -100,-18 -152,-32 -75,-21 -192,-114 -260,-112z"/>
  <path class="fil6" d="M489 1044c7,-28 33,-227 306,-416 203,-140 365,-134 601,-133 3284,6 6570,-4 9854,0 53,0 130,0 180,8 213,19 300,86 324,97 8,-33 23,-45 32,-84 -248,-170 -717,-107 -867,-107l-5191 0c-1478,0 -2973,8 -4450,-1 -201,-1 -412,43 -569,174 -79,66 -115,109 -184,188 -50,71 -97,169 -112,254 38,5 55,6 76,20z"/>
  <rect id="klic" class="fil0" x="10" y="1" width="12609" height="7888" rx="895" ry="895" /> 
 </g>
</svg>
