<?xml version="1.0" encoding="UTF-8"?>
<!DOCTYPE svg PUBLIC "-//W3C//DTD SVG 1.1//EN" "http://www.w3.org/Graphics/SVG/1.1/DTD/svg11.dtd">
<!-- Creator: CorelDRAW X5 -->
<svg xmlns="http://www.w3.org/2000/svg" xml:space="preserve" style="shape-rendering:geometricPrecision; text-rendering:geometricPrecision; image-rendering:optimizeQuality; fill-rule:evenodd; clip-rule:evenodd"
viewBox="0 0 13661 8538" preserveAspectRatio="xMaxYMax meet"
 xmlns:xlink="http://www.w3.org/1999/xlink">
 <defs>
  <style type="text/css">
   <![CDATA[
    .fil10 {fill:#2B2A29}
    .fil6 {fill:#A7BCC0}
    .fil8 {fill:#EF7F1A}
    .fil9 {fill:#FEFEFE}
    .fil2 {fill:#F6FCFC}
    .fil3 {fill:#6A7273}
    .fil7 {fill:#9DB9BB}
    .fil4 {fill:#A9BABB}
    .fil5 {fill:#B8CDCE}
    .fil1 {fill:#D9E4E7}
    .fil0 {fill:url(#id2)}
   ]]>
  </style>
     <mask id="id0">
  <linearGradient id="id1" gradientUnits="userSpaceOnUse" x1="6809.98" y1="3242.31" x2="6809.98" y2="1198.65">
   <stop offset="0" style="stop-opacity:1; stop-color:white"/>
   <stop offset="1" style="stop-opacity:0; stop-color:white"/>
  </linearGradient>
      <rect style="fill:url(#id1)" x="679" y="876" width="12261" height="2690"/>
     </mask>
  <linearGradient id="id2" gradientUnits="userSpaceOnUse" x1="6809.12" y1="7690.35" x2="6809.12" y2="760.585">
   <stop offset="0" style="stop-color:#7F9191"/>
   <stop offset="0.501961" style="stop-color:#D2E5E7"/>
   <stop offset="1" style="stop-color:#7F9191"/>
  </linearGradient>
 </defs>
 <g id="Слой_x0020_2">
  <metadata id="CorelCorpID_0Corel-Layer"/>
  <g id="_205880336">
   <g>
    <path class="fil0" d="M12544 571c68,14 124,56 186,77l-7 -21 31 -62c61,25 192,104 218,155 51,65 94,101 140,177 43,71 77,155 98,236 42,165 23,463 23,642l0 5294c0,223 12,358 -95,562 -159,305 -478,497 -827,496 -3528,-6 -7059,0 -10587,0 -399,0 -736,49 -1056,-276 -95,-97 -232,-299 -233,-433 40,109 159,203 193,231 -117,-151 -125,-758 -125,-982l0 -5157c0,-65 -2,-131 -1,-196 1,-69 13,-136 30,-200 -20,-3 -36,-11 -86,-6 16,-92 68,-198 122,-275l142 -152c12,-12 40,-38 57,-52 170,-141 397,-189 615,-188 1598,9 3216,1 4816,1l5618 0c163,0 642,-23 759,52 -12,40 -29,36 -31,76zm-12544 7162l0 -356 0 -6301 0 -254c4,-61 13,-116 34,-153 65,86 22,150 58,212 38,-30 41,-108 59,-157 55,-146 133,-282 251,-379 174,-144 381,-227 613,-231 560,-10 1130,0 1691,0l9716 0c68,0 382,13 419,-3 -4,-27 3,-1 -5,-20 -1,-2 -2,-8 -9,-15 -14,-16 -67,-44 -100,-74l6 0 5 0 5 0 5 0 5 0c100,0 131,2 231,35 69,23 133,56 196,95 69,42 278,208 305,289 132,199 108,308 83,454 2,57 -34,103 -34,160l0 6250c0,232 19,396 -90,611 -78,154 -160,296 -323,374 -63,30 -109,76 -229,120 -176,64 -783,40 -1000,40l-9716 0c-267,0 -1174,17 -1374,-19 -500,-43 -664,-436 -786,-593 -8,-20 -14,-49 -17,-82z"/>
    <path class="fil1" d="M2640 846c60,-17 452,-6 545,-6l7744 0c77,0 153,0 181,89 21,69 -10,155 -83,174 -65,16 -452,4 -550,4l-7744 0c-80,0 -156,2 -181,-89 -21,-77 13,-150 89,-172zm-2116 283c-3,60 -20,117 -21,186 -1,65 1,131 1,196l0 5157c0,224 -21,561 26,769 8,44 68,181 98,212 74,-1 200,99 281,122 56,16 72,8 164,35 63,18 104,30 172,32 269,5 542,1 812,1l9682 0c229,0 560,28 770,-41 113,-37 151,-73 240,-144 60,-48 49,-41 87,-102 21,-34 24,-2 44,-58 30,-84 14,32 57,-140l20 -3c-1,-42 26,-249 26,-374l0 -5251c0,-124 -9,-282 0,-402 12,-167 43,-274 51,-361 -13,-65 -92,-124 -127,-174 -11,-5 -170,-129 -178,-140 -62,-21 -119,-63 -186,-77 -37,-1 -129,-24 -174,-31 -54,-8 -138,-4 -195,-4 -3554,-4 -7110,6 -10664,0 -256,0 -431,-8 -651,144 -295,205 -290,410 -337,448z"/>
    <path class="fil2" style="mask:url(#id0)" d="M12923 3325c36,-117 5,-2290 3,-2449l-12211 1c60,379 -214,2562 192,2679 56,16 2002,6 2158,6l9247 0c90,0 333,13 404,-14 91,-35 204,-118 207,-223z"/>
    <path class="fil3" d="M17 7815c24,145 150,340 254,444 197,196 375,261 575,280l562 0 11342 0c198,-1 357,-63 517,-188 134,-104 246,-241 311,-398 60,-145 78,-253 82,-371l0 -255 0 -5669 0 -11c0,-232 -2,-466 0,-698 1,-129 -78,-451 -182,-529 36,41 74,265 53,444 2,57 4,113 4,171l0 6250c0,232 19,396 -90,611 -78,154 -160,296 -323,374 -63,30 -109,76 -229,120 -176,64 -783,40 -1000,40l-9716 0c-267,0 -1174,17 -1374,-19 -540,-92 -756,-596 -786,-593z"/>
    <path class="fil3" d="M2640 846c-76,22 -111,96 -89,172 25,91 102,89 181,89l7744 0c98,0 484,13 550,-4 74,-19 105,-105 83,-174 -27,-89 -103,-89 -181,-89l-7744 0c-93,0 -485,-11 -545,6z"/>
    <path class="fil4" d="M779 7815c49,92 301,186 403,206 143,29 435,12 594,12l10323 0c214,0 336,16 540,-66 275,-111 499,-409 502,-710 4,-406 0,-815 0,-1221l0 -4252c0,-105 21,-555 -17,-621l-22 49c-22,198 -19,157 -20,366 -5,1829 5,3661 0,5490 -1,244 -1,116 -57,336l-9 -23c-21,164 -216,366 -362,432 -234,106 -466,88 -718,88l-10434 0c-91,0 -405,4 -473,-25l-160 -45c-35,-12 -56,-9 -90,-17z"/>
    <path class="fil3" d="M12720 649c493,339 420,557 420,1135l0 4252c0,406 4,815 0,1221 -3,301 -227,599 -502,710 -204,82 -326,66 -540,66l-10323 0c-159,0 -451,17 -594,-12 -102,-20 -354,-114 -403,-206 -36,-16 -131,-123 -151,-166 -60,-62 -149,-160 -192,-230 1,134 138,336 233,433 319,326 657,276 1056,276 3528,0 7059,-6 10587,0 349,1 668,-191 827,-496 107,-205 95,-339 95,-562l0 -5294c0,-179 18,-477 -23,-642 -20,-81 -54,-165 -98,-236 -66,-156 -322,-345 -357,-343 -48,2 -21,53 -36,94z"/>
    <path class="fil5" d="M34 668c65,86 22,150 58,212 38,-30 41,-108 59,-157 55,-146 133,-282 251,-379 174,-144 381,-227 613,-231 560,-10 1130,0 1691,0l9716 0c68,0 382,13 419,-3 -4,-27 3,-1 -5,-20 -1,-2 -2,-8 -9,-15 -14,-16 -67,-44 -100,-74l-11686 0 -203 0c-55,3 -111,12 -180,35 -269,89 -569,372 -624,633z"/>
    <path class="fil5" d="M628 7649c19,43 115,150 151,166 35,8 56,5 90,17l160 45c69,30 383,25 473,25l10434 0c253,0 484,18 718,-88 146,-66 341,-268 362,-432l9 23c56,-220 56,-92 57,-336 5,-1829 -5,-3661 0,-5490 1,-209 -2,-168 20,-366l22 -43c5,-47 -64,-209 -99,-239 -8,87 -28,226 -40,393 -9,120 0,278 0,402l0 5251c0,126 -27,332 -26,374l-20 3c-43,172 -28,56 -57,140 -20,56 -23,24 -44,58 -38,62 -26,54 -87,102 -90,72 -127,107 -240,144 -210,69 -542,41 -770,41l-9682 0c-270,0 -542,4 -812,-1 -68,-1 -110,-13 -172,-32 -92,-27 -108,-19 -164,-35 -81,-23 -207,-123 -281,-122z"/>
    <path class="fil5" d="M530 1130c8,-30 36,-245 331,-450 220,-152 395,-145 651,-144 3554,7 7110,-4 10664,0 57,0 141,0 195,8 230,20 325,93 350,105 8,-35 25,-49 35,-91 -268,-184 -776,-116 -939,-116l-5618 0c-1599,0 -3218,9 -4816,-1 -218,-1 -446,47 -615,188 -86,71 -125,118 -199,203 -54,77 -105,183 -122,275 41,6 60,7 82,22z"/>
    <ellipse class="fil6" cx="6775" cy="7605" rx="5400" ry="160"/>
   </g>
   <g>
    <path class="fil7" d="M8357 1596c-61,78 -168,302 -205,401 -175,460 581,467 413,3 -24,-68 -165,-362 -208,-403z"/>
    <path class="fil7" d="M3708 1596c-41,39 -180,330 -205,397 -33,88 -47,154 3,240 137,236 530,91 409,-230 -32,-85 -153,-343 -208,-407z"/>
    <path class="fil7" d="M5245 1596c-50,51 -176,315 -206,396 -34,88 -48,158 3,244 141,235 526,87 409,-230 -46,-126 -134,-294 -206,-410z"/>
    <path class="fil7" d="M6824 1596c-58,75 -169,299 -205,396 -177,471 577,465 412,12 -36,-99 -145,-324 -207,-408z"/>
    <path class="fil7" d="M7463 1438c-4,40 -57,134 -74,180 -111,292 160,410 323,322 265,-143 -6,-523 -101,-702l-15 -18c-59,56 -71,169 -132,217z"/>
    <path class="fil7" d="M9103 1244c-8,55 -215,359 -209,504 6,150 155,259 306,212 39,-12 101,-66 112,-67 63,-146 84,-144 -14,-360 -43,-95 -108,-227 -166,-313l-27 24z"/>
    <path class="fil7" d="M4347 1439c-9,86 -116,197 -101,326 31,267 425,275 465,8 21,-135 -92,-244 -100,-334 -54,-44 -79,-164 -132,-218 -54,55 -75,172 -132,218z"/>
    <path class="fil7" d="M5885 1434c-5,70 -114,199 -106,321 8,120 109,213 229,216 120,3 227,-88 239,-206 14,-133 -100,-255 -107,-337 -34,-26 -99,-163 -123,-210 -56,45 -78,172 -132,216z"/>
    <path class="fil7" d="M9692 1891c-2,39 -48,124 -60,177 -53,230 245,373 392,213 186,-202 -76,-486 -158,-684 -53,32 -125,252 -174,294z"/>
    <path class="fil7" d="M2687 1735c6,207 250,314 387,179 70,-70 101,-138 71,-241 -18,-61 -93,-206 -97,-244 -44,-34 -87,-155 -125,-209l-18 21 -117 217c-41,84 -92,183 -102,277z"/>
    <path class="fil7" d="M10427 1596c0,41 -95,207 58,326 107,83 236,56 324,-35 177,-183 -143,-541 -153,-645l-26 -24c-44,68 -180,354 -203,377z"/>
   </g>
  </g>
  <g id="_205427960">
   <path id="cvet" fill="#EF7F1A" d="M6490 6597c-61,-8 -210,-5 -276,-2 -73,4 -156,8 -250,8 -53,0 -83,8 -129,8 -57,0 -90,-17 -80,46 14,84 2,179 6,267l734 4 -6 -331zm-4533 -1899l-2 -14c-45,-317 18,-500 123,-794 26,-72 143,-415 201,-437 265,-98 433,-94 710,-84 216,7 435,-6 649,3l7 0c103,4 218,-15 341,-20l7 0c79,-3 65,123 95,194 42,101 -49,473 -43,607 2,35 -7,84 -7,106 -1,0 -88,64 -126,81 -124,53 -256,98 -388,132 -128,32 -203,44 -332,91 -162,59 -330,81 -510,147 -75,27 -349,137 -415,143 -54,4 -196,-4 -219,-71 -18,-51 -85,-47 -90,-82zm6497 1988c94,1 119,-73 192,-141l221 -249c28,-32 107,-118 117,-153l-246 0c-13,9 -10,8 -18,15 -27,21 -21,11 -35,39 -46,88 -236,442 -231,488zm1806 -542c33,42 88,102 125,135 24,22 42,39 66,63 22,23 40,48 61,68 120,111 171,214 286,218 -14,-47 -257,-431 -299,-484l-239 0zm-5417 -3598c-15,23 -36,50 -54,74 -54,73 -43,26 -48,76 -11,111 2,277 0,364 -10,426 4,926 5,1357 0,134 2,1137 13,1228l9 484c0,55 -1,189 9,231 74,5 438,-13 550,-15 35,-44 -13,1 76,-95 59,-64 210,-247 239,-269 38,-28 262,-14 329,-14l6139 0c93,0 247,16 313,-26 76,-48 74,-157 74,-267l-3 -2387c-1,-217 8,-455 -2,-670 -57,-61 -93,-51 -192,-51l-5540 -16c-153,0 -1818,-15 -1917,-5zm-235 2777l54 -101c23,-45 13,-370 13,-434l7 -1182c0,-154 16,-156 -30,-264 -4,-9 27,-205 -111,-296 -103,-68 -347,-40 -517,-34l-2121 64c-44,1 -69,55 -103,85 -230,208 -303,1003 -465,1376 -35,81 -126,30 -156,120 -28,84 4,228 -20,310 -11,39 95,0 84,38 -77,287 -11,406 -58,665 -71,390 81,916 81,956 3,183 792,88 792,273 72,304 875,-330 1506,-965 151,-152 388,284 535,181 326,-231 734,-192 508,-791z"/>
   <path class="fil9" d="M1829 6362l242 -9c0,0 124,-735 1025,-908 0,0 654,-129 1124,263l-30 18c0,0 -590,-415 -1297,-104 0,0 -551,194 -698,873 0,0 -256,35 -295,18 0,0 -134,-92 -97,-127l15 -15 10 -10zm356 -1628c-34,-50 -71,-109 -111,-149l-6 -6c-76,-76 -90,-221 -82,-325 14,-169 139,-441 214,-598 43,-91 68,-213 188,-228 126,-16 180,-28 316,-23 140,5 346,24 508,24 128,0 211,-5 344,-4 2,0 308,-23 313,-24 6,5 94,8 116,17 26,3 82,37 91,63 47,77 6,412 10,532 2,62 17,155 -7,212 -9,120 -229,152 -324,168 -105,17 -161,48 -286,55 -269,15 -337,-8 -586,126 -112,60 -196,125 -316,188 -87,46 -175,120 -274,132 -73,9 -62,-82 -109,-160zm7427 2597c-51,22 -138,-8 -182,-36 -1,-35 2,-46 29,-57 34,-14 171,-19 153,93zm-4164 -1044l48 -82 102 -89 487 -7 65 41 -82 112 -75 75 -316 10 -230 -61zm1942 -185l948 3 17 95 -17 58 -249 78 -542 -3 -164 -27 7 -205zm-4012 1243c-1,-62 29,-77 92,-77 36,0 104,0 101,52 -10,36 -37,46 -85,48 -14,0 -56,1 -68,-1 -28,-5 -18,-7 -39,-22zm-292 -268c70,-28 158,120 97,152 -47,25 -79,-27 -95,-50 -35,-48 -48,-84 -2,-102zm714 -37c41,-24 74,13 59,61 -9,28 -43,85 -59,94 -84,48 -108,-92 1,-155zm-388 -236c224,-55 282,253 92,300 -226,56 -307,-248 -92,-300zm-305 -93c89,-51 93,104 6,152 -45,25 -79,-12 -65,-64 10,-38 36,-75 59,-88zm728 108c-98,35 -155,-102 -116,-139 38,-36 78,15 92,34 28,36 46,57 24,105zm-409 -182c-103,0 -136,-99 15,-102 42,-1 96,6 80,60 -10,33 -59,42 -95,42zm532 379c0,-26 9,-78 6,-122 -6,-90 -60,-199 -117,-262 -313,-344 -854,-136 -902,248 -67,528 654,779 952,310 20,-32 28,-54 42,-86 30,-67 20,-51 19,-89zm5851 227c-16,-80 39,-149 136,-138 39,62 19,58 -23,109 -31,38 -67,56 -113,29zm-595 -281c88,-7 125,133 55,170 -43,-18 -58,-127 -55,-170zm566 16c-14,40 -37,71 -74,96 -57,38 -50,36 -122,22 -41,-8 -90,-18 -112,-55 -88,-151 58,-301 173,-258 38,14 83,35 103,64 19,27 43,98 31,131zm201 -234c24,45 46,90 49,147 -20,14 -37,35 -69,27 -45,-12 -77,-100 -58,-144 14,-33 36,-32 77,-29zm-716 18c-5,-28 10,-40 44,-78 21,-24 44,-49 75,-62 62,66 -57,179 -119,140zm437 -121c-119,0 -211,-157 78,-65 -6,59 -15,65 -78,65zm442 375c28,-145 -40,-301 -110,-378 -315,-350 -853,-159 -897,235 -22,198 12,270 108,388 72,88 183,153 328,171 280,35 518,-137 571,-416z"/>
   <path id="kontur" class="fil10" d="M10143 7018c-54,279 -291,451 -571,416 -144,-18 -256,-83 -328,-171 -96,-118 -129,-189 -108,-388 43,-394 581,-585 897,-235 70,77 137,233 110,378zm-879 -253c62,39 181,-74 119,-140 -31,13 -54,38 -75,62 -34,38 -48,51 -44,78zm437 -121c62,0 71,-6 78,-65 -288,-92 -196,65 -78,65zm280 103c-41,-3 -63,-4 -77,29 -19,45 13,133 58,144 32,8 49,-13 69,-27 -3,-57 -25,-102 -49,-147zm-172 499c46,27 81,10 113,-29 42,-51 62,-47 23,-109 -96,-11 -151,58 -136,138zm-196 87c18,-112 -119,-107 -153,-93 -27,11 -30,22 -29,57 44,28 132,57 182,36zm-399 -368c-3,43 12,152 55,170 70,-37 33,-177 -55,-170zm566 16c12,-34 -12,-104 -31,-131 -20,-29 -65,-50 -103,-64 -116,-43 -261,107 -173,258 22,37 71,47 112,55 71,14 64,16 122,-22 37,-24 60,-56 74,-96zm-5776 -2736c-29,26 -196,79 -243,100 -38,17 -262,22 -320,22 -282,-1 -341,13 -562,119 -93,44 -41,61 -222,-40 -22,-12 -263,-146 -278,-147 -23,-1 -41,19 -37,44 5,29 111,75 158,101l169 97c-1,1 -3,2 -4,4 -2,6 -34,22 -37,24 -65,36 -98,49 -105,109 -69,3 -99,34 -147,78 -42,38 -13,24 -43,37 -30,-127 -23,-61 -45,-114 -32,-75 -64,-96 -113,-161 -70,-92 -91,-8 -40,-345 32,-208 88,-408 152,-605 30,-92 156,-78 244,-78 204,-1 428,-19 637,-24 144,-3 289,-2 432,-9 126,-6 302,-18 423,-14 30,57 24,94 16,180 -12,131 -43,527 -35,623zm-646 -985l-412 12c-109,12 -237,9 -347,15 -112,6 -220,15 -330,25 -237,23 -247,-10 -352,369 -15,52 -26,91 -38,145 -51,221 -114,458 -128,684 -11,168 -43,366 166,458 117,52 245,10 378,-31 233,-72 471,-159 693,-239 102,-36 1098,-392 1175,-447 60,-42 52,-115 52,-204l3 -485c-1,-205 69,-316 -183,-313 -271,3 -412,-1 -674,10zm826 2213c183,0 191,-9 177,-251 -4,-75 0,-127 -67,-141 -56,-12 -140,-1 -193,4 -220,21 -274,388 83,388zm-771 1334c-214,52 -133,356 92,300 189,-47 132,-355 -92,-300zm-305 -93c-24,14 -49,51 -59,88 -14,53 20,89 65,64 87,-48 83,-203 -6,-152zm319 -74c36,0 86,-9 95,-42 16,-55 -38,-61 -80,-60 -150,3 -118,102 -15,102zm409 182c22,-49 4,-70 -24,-105 -14,-18 -54,-69 -92,-34 -39,37 17,174 116,139zm-34 221c-108,63 -85,203 -1,155 17,-9 50,-66 59,-94 16,-48 -17,-85 -59,-61zm-422 304c21,14 11,16 39,22 12,2 54,2 68,1 48,-2 75,-11 85,-48 3,-52 -65,-52 -101,-52 -64,0 -93,15 -92,77zm-292 -268c-46,19 -33,54 2,102 17,23 49,75 95,50 61,-32 -27,-181 -97,-152zm871 -61c0,38 11,22 -19,89 -15,32 -22,54 -42,86 -298,469 -1019,218 -952,-310 49,-385 589,-592 902,-248 57,63 111,172 117,262 3,43 -6,96 -6,122zm2532 -420l6 331 -734 -4c-4,-88 7,-183 -6,-267 -10,-63 22,-46 80,-46 45,0 75,-8 129,-8 94,0 177,-4 250,-8 65,-3 215,-6 276,2zm-480 -315l-523 -23c24,-36 46,-39 91,-106 68,0 105,-8 174,-8l333 0c-1,41 -53,102 -76,136zm4250 -137l239 0c43,53 286,437 299,484 -115,-5 -166,-107 -286,-218 -21,-20 -39,-45 -61,-68 -23,-24 -41,-41 -66,-63 -37,-33 -93,-93 -125,-135zm-1806 542c-4,-47 185,-401 231,-488 15,-28 9,-17 35,-39 8,-6 5,-6 18,-15l246 0c-10,35 -89,121 -117,153l-221 249c-73,68 -98,142 -192,141zm-132 -473c-32,29 -33,25 -122,27 -22,0 -12,-5 -43,-3 -21,1 -18,5 -47,6 -69,4 -152,-6 -219,1 -65,7 -138,7 -213,6 -79,0 -131,8 -212,8 -19,-41 9,36 -2,-16 -7,-29 -45,-97 2,-97l834 0c28,0 23,24 23,68zm-6764 -523c-47,-621 84,-1586 304,-2171 64,-170 50,-202 152,-264 68,-41 270,-43 366,-48 313,-16 464,-31 796,-34 275,-2 550,-5 826,-8 68,-1 136,-1 205,-2 205,-4 177,19 184,443 9,542 30,1071 42,1614 3,131 4,270 11,402 10,192 40,172 -146,255 -95,42 -181,94 -276,136 -30,13 -34,1 -61,-14 -295,-167 -627,-181 -932,-47 -87,39 -185,115 -242,168 -160,149 -228,360 -255,578 -5,41 -3,47 -52,48l-311 -8c-485,0 -537,35 -557,-274 -4,-65 -14,-123 -16,-189 -5,-160 -25,-424 -37,-583zm39 -1305l-43 284c7,69 -17,135 -21,198l-6 82c-23,190 -32,431 -27,627 5,215 32,412 42,624l-183 20c-28,14 -97,25 -133,19 -12,-219 -26,-433 -4,-652 9,-88 55,-589 38,-631 -14,-22 -25,-1 -64,-49 -4,-30 7,-98 3,-164 -4,-68 -16,-12 4,-57 28,-7 75,0 110,-2 67,-4 60,-21 83,-24 2,-68 39,-123 36,-165l-58 -5 102 -327c31,-108 70,-220 104,-326 49,-151 141,-562 247,-625 5,-27 55,-75 85,-90 122,-64 380,-50 514,-53 493,-9 993,-18 1485,-20 122,0 243,-2 364,-3 114,-2 279,-28 298,79 22,19 52,153 80,218 45,107 30,110 30,264l-7 1182c0,64 10,389 -13,434l-54 101c-15,157 0,73 -1,193 0,49 9,178 4,208l-114 51c-11,-276 -20,-558 -23,-827 -3,-273 -7,-565 -21,-838 -10,-175 -20,-665 -18,-837 2,-165 -118,-160 -266,-159 -539,3 -1136,-6 -1667,37 -71,6 -136,8 -205,11 -49,3 -158,5 -202,14 -127,26 -181,76 -230,195 -45,108 -70,207 -108,324 -38,114 -66,208 -95,329 -17,70 -66,292 -63,362zm3246 -1839c99,-10 1764,4 1917,5l5540 16c98,0 135,-10 192,51 10,215 2,452 2,670l3 2387c0,111 2,219 -74,267 -66,42 -220,26 -313,26l-6139 0c-67,0 -291,-14 -329,14 -30,22 -180,205 -239,269 -89,96 -41,51 -76,95 -112,2 -476,20 -550,15 -10,-42 -9,-176 -9,-231l-9 -484c-11,-91 -13,-1095 -13,-1228 -2,-430 -16,-930 -5,-1357 2,-87 -11,-253 0,-364 5,-50 -6,-3 48,-76 18,-24 39,-51 54,-74zm-174 567c0,22 -4,48 1,67 1,5 3,1 6,24 1,9 0,21 0,30 -4,-6 -4,-4 -8,-15 -44,-106 -44,-243 -166,-243l-576 8c-207,0 -414,1 -621,0 -60,0 -89,8 -144,8 -65,0 -77,7 -136,8 -103,2 -208,0 -311,0 -106,0 -192,8 -303,8 -149,0 -300,-11 -447,15 -126,22 -199,106 -252,217 -33,69 -53,158 -78,233 -27,80 -51,157 -71,240 -41,167 -96,318 -133,488 -20,91 -40,160 -66,244 -19,61 -28,51 -89,62 -90,17 -41,53 -105,54 0,-65 15,-637 -68,-637 -138,0 -145,40 -163,163 -12,82 -14,202 -25,279 -6,43 -42,59 -74,85 -63,52 -72,154 -27,216 38,53 99,67 159,53 0,49 13,61 15,106 2,41 -2,78 22,100 25,23 62,10 82,-11 19,-19 32,-59 32,-97l15 0c0,39 2,87 4,106 4,38 28,49 57,68 -1,25 -54,289 -61,394 -17,253 -45,440 -10,700 7,49 49,208 42,234 -34,126 -63,38 -41,235l9 287 70 89c77,78 239,135 355,108 0,45 -11,120 0,144 35,17 657,-31 743,-38 9,-38 8,-81 8,-121 125,0 271,-45 333,-45 0,59 17,117 33,172 37,127 109,239 200,330 15,15 26,28 42,41l78 59c205,135 304,133 549,133 47,0 132,-27 170,-42 82,-33 139,-68 211,-115 14,-10 18,-12 30,-23 57,-48 92,-65 145,-136l83 -129c17,-23 -3,-12 32,-21 80,-20 169,10 251,-22 120,-47 35,-58 276,-58l1501 0 0 -106 296 -8c34,0 51,76 76,76 108,0 952,-108 1079,-126 65,-9 117,-20 179,-25 221,-18 171,-28 398,48l205 68c55,16 158,41 202,70 25,16 80,113 112,146 1,1 3,3 4,4 1,1 3,3 4,4 1,1 3,3 4,4 38,35 62,72 107,98 27,16 18,13 38,30 13,11 27,17 43,25 51,23 95,40 139,73 101,75 258,166 388,166 218,0 289,14 493,-91 98,-51 173,-130 239,-215 15,-20 24,-33 39,-52 47,-62 69,-147 108,-210 22,-35 19,-112 19,-154 0,-35 11,-9 11,-43 0,-60 -21,-31 18,-80 20,-25 34,-39 35,-79l15 0 44 290c7,67 6,46 76,61 61,13 56,17 66,-21 31,-111 -4,-304 -49,-390 76,0 97,23 114,83 12,42 28,125 30,174l-1 144c-2,26 -9,24 4,35 8,7 150,32 171,32 18,-85 -21,-185 -23,-265l152 8c243,0 509,5 743,-15 96,-8 176,1 268,-12 69,-10 104,-19 157,-55 11,-8 22,-16 26,-27 4,-11 3,-7 3,-20 102,0 263,60 272,60 10,0 33,-4 47,-6 57,-9 37,-28 37,-145 0,-48 -12,-66 -15,-106 -44,-10 -149,-30 -197,-30 0,-126 5,-71 28,-162 5,-20 9,-20 9,-36 -1,-33 -5,-5 -12,-39 -4,-19 -2,-74 -2,-97 194,0 260,-81 152,-243 9,-38 30,-58 42,-102 56,-193 24,-62 27,-201 2,-83 -17,-183 -8,-265 6,-52 -1,-1692 -1,-1880 0,-161 -20,-733 -5,-839 3,-23 9,-57 6,-93 -8,-87 -116,-166 -193,-186 -43,-12 -126,5 -179,4l-1516 0c-259,0 -494,-8 -750,-8 -505,0 -1010,0 -1516,0 -510,0 -997,-8 -1508,-8 -505,0 -1010,0 -1516,0l-561 -8c-147,0 -109,7 -184,97 -15,18 -30,37 -43,56 -18,27 -17,31 -16,74 1,79 10,330 -2,385 -3,16 -8,19 -10,33 -2,18 4,15 4,45z"/>
  </g>
 </g>
</svg>
