<?xml version="1.0" encoding="UTF-8"?>
<!DOCTYPE svg PUBLIC "-//W3C//DTD SVG 1.1//EN" "http://www.w3.org/Graphics/SVG/1.1/DTD/svg11.dtd">
<!-- Creator: CorelDRAW X5 -->
<svg xmlns="http://www.w3.org/2000/svg" xml:space="preserve" style="shape-rendering:geometricPrecision; text-rendering:geometricPrecision; image-rendering:optimizeQuality; fill-rule:evenodd; clip-rule:evenodd"
viewBox="0 0 13732 8582" preserveAspectRatio="xMaxYMax meet"
 xmlns:xlink="http://www.w3.org/1999/xlink">
 <defs>
  <style type="text/css">
   <![CDATA[
    .fil10 {fill:#2B2A29}
    .fil6 {fill:#A7BCC0}
    .fil8 {fill:#EF7F1A}
    .fil9 {fill:#FEFEFE}
    .fil2 {fill:#F6FCFC}
    .fil3 {fill:#6A7273}
    .fil7 {fill:#9DB9BB}
    .fil4 {fill:#A9BABB}
    .fil5 {fill:#B8CDCE}
    .fil1 {fill:#D9E4E7}
    .fil0 {fill:url(#id2)}
   ]]>
  </style>
     <mask id="id0">
  <linearGradient id="id1" gradientUnits="userSpaceOnUse" x1="6845.31" y1="3259.13" x2="6845.31" y2="1204.87">
   <stop offset="0" style="stop-opacity:1; stop-color:white"/>
   <stop offset="1" style="stop-opacity:0; stop-color:white"/>
  </linearGradient>
      <rect style="fill:url(#id1)" x="683" y="880" width="12325" height="2703"/>
     </mask>
  <linearGradient id="id2" gradientUnits="userSpaceOnUse" x1="6844.45" y1="7730.26" x2="6844.45" y2="764.531">
   <stop offset="0" style="stop-color:#7F9191"/>
   <stop offset="0.501961" style="stop-color:#D2E5E7"/>
   <stop offset="1" style="stop-color:#7F9191"/>
  </linearGradient>
 </defs>
 <g id="Слой_x0020_1">
  <metadata id="CorelCorpID_0Corel-Layer"/>
  <g id="_205876160">
   <g>
    <path class="fil0" d="M12609 574c68,14 124,56 187,77l-7 -21 31 -62c61,25 193,104 219,156 51,65 94,101 141,178 44,72 78,156 98,237 42,165 23,465 23,645l0 5321c0,224 12,359 -95,565 -160,307 -480,499 -831,499 -3546,-6 -7095,0 -10642,0 -401,0 -740,50 -1061,-278 -95,-97 -233,-301 -234,-435 41,110 159,204 194,232 -118,-152 -126,-762 -126,-987l0 -5184c0,-66 -2,-132 -1,-197 1,-69 13,-136 30,-201 -20,-3 -36,-11 -87,-6 16,-92 68,-199 122,-276l143 -153c12,-12 40,-38 57,-52 170,-142 399,-190 618,-189 1606,9 3233,1 4840,1l5647 0c164,0 645,-24 763,53 -12,40 -29,36 -32,76zm-12609 7199l0 -358 0 -6334 0 -256c4,-61 13,-117 34,-154 65,86 22,151 59,213 38,-30 41,-108 59,-157 55,-147 134,-283 252,-381 175,-144 383,-228 616,-232 563,-10 1136,0 1700,0l9767 0c68,0 384,13 421,-3 -4,-27 3,-1 -5,-20 -1,-2 -2,-8 -9,-16 -14,-16 -67,-44 -101,-74l6 0 6 0 5 0 5 0 5 0c100,0 131,2 232,35 69,23 134,56 197,95 69,43 280,209 307,290 132,200 109,309 83,457 2,58 -34,103 -34,161l0 6282c0,234 19,398 -90,614 -78,155 -161,297 -325,375 -63,30 -110,76 -230,120 -176,64 -787,40 -1005,40l-9767 0c-269,0 -1181,17 -1381,-19 -503,-43 -667,-438 -790,-596 -8,-20 -14,-49 -17,-82z"/>
    <path class="fil1" d="M2654 850c60,-17 454,-6 547,-6l7784 0c78,0 154,0 181,89 21,70 -10,156 -84,175 -66,17 -454,4 -552,4l-7784 0c-80,0 -157,2 -182,-89 -21,-77 13,-151 90,-173zm-2127 284c-3,60 -20,117 -21,187 -1,66 1,132 1,197l0 5184c0,225 -21,564 26,773 8,44 69,182 99,213 74,-1 201,100 283,122 56,16 72,8 165,35 63,19 104,30 173,32 271,5 545,1 816,1l9732 0c230,0 563,28 774,-41 114,-38 151,-73 242,-145 61,-49 49,-41 87,-103 21,-34 24,-2 44,-59 30,-84 14,32 58,-140l20 -3c-1,-42 26,-250 26,-376l0 -5278c0,-125 -9,-283 0,-404 13,-168 44,-276 51,-363 -13,-66 -92,-125 -128,-175 -11,-5 -171,-130 -179,-141 -63,-21 -119,-63 -187,-77 -37,-1 -130,-24 -175,-31 -54,-8 -138,-4 -196,-4 -3573,-4 -7147,6 -10719,0 -257,0 -433,-8 -654,145 -297,206 -291,412 -338,450z"/>
    <path class="fil2" style="mask:url(#id0)" d="M12990 3342c36,-118 5,-2302 3,-2461l-12274 1c60,381 -215,2575 193,2693 56,16 2013,6 2169,6l9295 0c91,0 335,13 406,-14 92,-35 205,-118 208,-224z"/>
    <path class="fil3" d="M17 7855c24,146 151,342 255,446 198,197 377,262 578,281l565 0 11401 0c199,-1 359,-64 520,-189 134,-104 247,-242 312,-400 61,-146 78,-254 82,-373l0 -257 0 -5699 0 -11c0,-233 -2,-468 0,-701 1,-130 -79,-453 -183,-532 36,41 75,266 53,446 2,58 4,114 4,172l0 6282c0,234 19,398 -90,614 -78,155 -161,297 -325,375 -63,30 -110,76 -230,120 -176,64 -787,40 -1005,40l-9767 0c-269,0 -1181,17 -1381,-19 -542,-93 -760,-599 -790,-596z"/>
    <path class="fil3" d="M2654 850c-77,22 -111,96 -90,173 25,91 102,89 182,89l7784 0c98,0 487,13 552,-4 74,-19 105,-105 84,-175 -27,-90 -104,-89 -181,-89l-7784 0c-93,0 -488,-11 -547,6z"/>
    <path class="fil4" d="M783 7856c49,93 302,187 405,207 144,29 438,12 597,12l10376 0c215,0 338,16 543,-66 277,-111 501,-411 505,-714 4,-408 0,-819 0,-1227l0 -4274c0,-105 21,-558 -17,-624l-22 50c-22,199 -19,158 -20,368 -5,1838 5,3680 0,5518 -1,245 -1,116 -57,338l-9 -24c-21,165 -217,368 -364,434 -235,107 -468,88 -722,88l-10488 0c-91,0 -407,4 -476,-26l-161 -45c-35,-12 -56,-9 -91,-17z"/>
    <path class="fil3" d="M12786 652c496,340 422,560 422,1141l0 4274c0,408 4,819 0,1227 -3,303 -228,603 -505,714 -205,82 -328,66 -543,66l-10376 0c-160,0 -453,17 -597,-12 -103,-21 -356,-115 -405,-207 -36,-16 -132,-124 -151,-167 -60,-62 -150,-160 -193,-231 1,135 138,338 234,435 321,327 660,278 1061,278 3547,0 7096,-6 10642,0 351,1 672,-192 831,-499 107,-206 95,-341 95,-565l0 -5321c0,-180 19,-480 -23,-645 -20,-81 -55,-166 -98,-237 -66,-157 -324,-347 -358,-344 -48,2 -21,53 -36,94z"/>
    <path class="fil5" d="M34 672c65,86 22,151 59,213 38,-30 41,-108 59,-157 55,-147 134,-283 252,-381 175,-144 383,-228 616,-232 563,-10 1136,0 1700,0l9767 0c68,0 384,13 421,-3 -4,-27 3,-1 -5,-20 -1,-2 -2,-8 -9,-16 -14,-16 -67,-44 -101,-74l-11746 0 -204 0c-56,3 -111,12 -181,35 -270,89 -572,374 -628,636z"/>
    <path class="fil5" d="M632 7689c19,44 115,151 151,167 35,8 56,5 91,17l161 45c69,30 385,26 476,26l10488 0c254,0 487,18 722,-88 146,-66 343,-270 364,-434l9 24c56,-221 56,-92 57,-338 5,-1838 -5,-3680 0,-5518 1,-211 -2,-169 20,-368l22 -44c5,-48 -64,-210 -99,-240 -8,87 -28,227 -40,395 -9,120 0,279 0,404l0 5278c0,126 -27,334 -26,376l-20 3c-43,172 -28,56 -58,140 -20,56 -23,24 -44,59 -38,62 -26,54 -87,103 -90,72 -128,108 -242,145 -211,69 -544,41 -774,41l-9732 0c-271,0 -545,4 -816,-1 -69,-1 -110,-13 -173,-32 -93,-27 -109,-20 -165,-35 -82,-23 -208,-124 -283,-122z"/>
    <path class="fil5" d="M532 1136c8,-30 36,-247 333,-452 221,-153 397,-145 654,-145 3572,7 7147,-4 10719,0 57,0 142,0 196,8 232,20 326,93 352,106 8,-36 26,-49 35,-91 -269,-185 -780,-117 -943,-117l-5647 0c-1608,0 -3235,9 -4840,-1 -219,-1 -448,47 -618,189 -86,72 -125,119 -200,205 -54,78 -106,184 -122,276 41,6 60,7 83,22z"/>
    <ellipse class="fil6" cx="6810" cy="7644" rx="5428" ry="161"/>
   </g>
   <g>
    <path class="fil7" d="M8400 1604c-61,78 -169,304 -206,403 -176,462 584,470 415,3 -25,-68 -166,-364 -209,-405z"/>
    <path class="fil7" d="M3728 1605c-41,39 -181,332 -206,399 -33,89 -47,155 3,241 137,238 533,91 412,-231 -32,-85 -154,-345 -209,-409z"/>
    <path class="fil7" d="M5272 1604c-50,52 -176,317 -207,398 -34,89 -48,159 3,245 142,236 528,87 411,-231 -47,-127 -135,-296 -207,-412z"/>
    <path class="fil7" d="M6860 1604c-58,75 -169,301 -206,398 -178,473 580,467 415,12 -36,-100 -146,-326 -208,-410z"/>
    <path class="fil7" d="M7502 1445c-4,40 -57,135 -75,181 -111,294 160,413 324,324 266,-144 -6,-526 -102,-705l-15 -19c-59,56 -72,169 -133,219z"/>
    <path class="fil7" d="M9150 1250c-8,55 -216,361 -210,507 6,151 155,260 307,213 40,-12 102,-66 112,-67 63,-147 84,-145 -14,-362 -43,-96 -109,-228 -167,-314l-27 24z"/>
    <path class="fil7" d="M4370 1447c-9,86 -117,198 -102,328 31,268 427,276 468,8 21,-136 -92,-246 -101,-336 -54,-44 -79,-165 -133,-219 -55,56 -75,173 -133,219z"/>
    <path class="fil7" d="M5915 1441c-5,71 -115,200 -107,323 8,121 109,214 230,217 120,3 228,-88 241,-208 14,-133 -101,-256 -107,-339 -34,-26 -100,-163 -124,-211 -57,46 -78,172 -133,217z"/>
    <path class="fil7" d="M9742 1901c-2,39 -48,124 -60,177 -54,231 246,375 394,214 187,-203 -76,-488 -159,-687 -54,32 -125,253 -175,296z"/>
    <path class="fil7" d="M2701 1744c6,209 252,316 389,180 71,-70 101,-139 71,-242 -18,-62 -93,-207 -97,-245 -45,-34 -87,-156 -126,-210l-18 21 -117 218c-41,85 -92,184 -103,278z"/>
    <path class="fil7" d="M10481 1604c0,41 -95,208 59,328 107,83 237,56 325,-35 178,-184 -144,-544 -154,-648l-26 -24c-44,68 -180,356 -204,379z"/>
   </g>
  </g>
  <path id="cvet" fill="#EF7F1A" d="M1400 7164l-26 -53 3 -40 26 -83c0,0 51,-663 206,-706l122 -69 162 -43c0,0 244,-49 587,-353 0,0 83,-121 -156,-87 0,0 -460,145 -581,274l41 -79 226 -142c0,0 386,-238 1069,-310 683,-73 871,-172 871,-172l59 23c0,0 129,-10 614,-264 485,-254 1023,-581 1858,-696 835,-116 1805,-109 2706,-13 0,0 927,241 1838,680l66 3 463 49 157 20 82 3 86 15 51 54 12 56 -178 31 -424 3 -249 31c0,0 120,201 340,304l51 49 -26 64 41 45 125 25 307 -12 78 25c0,0 120,360 233,508l13 96 -432 152 -667 -102 83 485 -20 129 -158 56 -7 -211c0,0 -63,-917 -1056,-891 0,0 -782,53 -832,1073l-109 7 -3581 73 -1155 36c0,0 92,-789 -650,-1125 0,0 -571,-300 -1102,340 0,0 -185,172 -188,749l-168 26 -813 -31zm6354 -2384l-28 397 842 -17 635 -28 -63 -91c0,0 -832,-434 -1360,-272l-27 12zm-2444 361c0,0 8,-97 5,-149 -3,-51 665,-310 665,-310l1218 35 -3 482c0,0 -1315,79 -1546,94 -231,15 -267,-66 -267,-66l-71 -86z"/>
  <path id="belyi" class="fil9" d="M7754 4780l-28 397 842 -17 635 -28 -63 -91c0,0 -832,-434 -1360,-272l-27 12zm-2869 405c0,0 44,-216 232,-256 0,0 82,-11 117,-1 0,0 -251,-44 -316,315l-44 -35 12 -23zm303 270c0,0 3031,-236 5745,-161 0,0 70,145 204,225 0,0 -1518,-80 -3422,5 -1904,86 -2130,91 -2130,91 0,0 11,-27 -338,-134l-34 -15 -25 -12zm-3538 798c0,0 139,-5 198,5 59,11 48,-59 300,-43 252,16 279,48 381,-59 102,-107 681,-526 1421,-80 0,0 341,408 308,113 81,-84 -928,-953 -2156,-102l-217 75 -236 91zm7776 271c0,0 129,-356 624,-422 495,-66 726,294 624,271 -102,-23 -112,7 -112,7 0,0 -56,-244 -667,-145 0,0 -79,-7 -439,330l-11 -25 -19 -15zm-6806 249c0,0 -83,-323 181,-515 264,-191 591,-221 469,-102 -57,56 -170,116 -286,199 104,-66 227,-104 359,-104 372,0 673,301 673,673 0,372 -301,673 -673,673 -372,0 -673,-301 -673,-673 0,-190 78,-361 205,-483 -90,80 -172,177 -216,303l-20 46 -20 -17zm-974 -532c64,-31 114,-96 203,-116 137,-31 61,14 245,-74 144,-70 168,-78 296,-178 31,-24 70,-38 71,-91 -74,-50 -178,-19 -266,13 -119,43 -199,55 -291,123 -96,71 -219,215 -258,324zm8447 1215l21 -322c68,-12 70,106 76,178 13,168 24,154 -97,144zm-69 -18c-21,-2 -35,-7 -58,-14 -26,-8 -30,-7 -46,-22 7,-31 39,-83 54,-112l41 -82c16,-25 0,-12 24,-19 19,41 9,203 -15,250zm204 -246c49,6 65,60 86,93 25,40 47,78 58,127 -40,16 -54,27 -101,34 -3,-94 -42,-171 -43,-254zm-376 182c-25,-6 -51,-30 -74,-47 6,-22 32,-38 48,-61l92 -135c14,-19 31,-61 62,-50 73,26 -112,268 -128,293zm-202 -194c60,-18 163,-103 223,-102 -1,37 -51,84 -70,104 -17,18 -69,73 -90,84 -21,-11 -56,-55 -64,-86zm940 46c-29,41 -8,42 -16,56 -61,-109 -172,-148 -181,-211 56,-2 195,70 237,98 -9,22 -26,36 -41,57zm-392 -263c52,-24 95,73 31,90 -57,15 -103,-57 -31,-90zm-201 19c40,-36 91,-25 91,47 -38,39 -43,39 -93,10l3 -56zm-418 52c25,-14 333,-132 318,-54 -9,46 -262,129 -294,128l-24 -74zm1103 -8c1,23 -10,53 -25,69 -61,-19 -299,-83 -301,-127 -2,-59 233,12 257,22l68 35zm-586 -200c82,-44 137,89 59,130 -76,40 -158,-76 -59,-130zm-530 22c30,-7 216,13 239,46 -18,28 -82,31 -118,37 -32,5 -92,19 -121,15 -7,-19 -7,-30 -7,-51l7 -46zm884 39c11,-20 -6,-8 24,-20 22,-9 192,-40 224,-34l1 96c-47,5 -222,-15 -249,-43zm-460 14c-26,-3 -47,-14 -52,-41 -6,-36 10,-40 27,-57 86,-2 82,76 25,98zm316 -33c-17,16 -33,34 -65,24 -22,-7 -38,-33 -28,-63 13,-39 100,-56 93,40zm-211 -159c56,-38 98,46 50,79 -47,32 -115,-35 -50,-79zm-213 119c-25,29 -280,-56 -289,-60 -22,-10 -29,-21 5,-85 44,3 349,96 284,145zm468 -16c15,-63 218,-114 294,-144 19,21 25,47 31,75 -1,1 -4,3 -5,4l-158 56c-39,11 -129,49 -162,9zm-711 -206c6,-27 32,-64 55,-79 20,6 167,140 164,180 -36,0 -196,-83 -219,-102zm746 93c0,-38 132,-163 156,-182 27,10 57,53 63,83 -47,21 -173,103 -219,99zm-282 -49c-31,-74 -32,-236 -31,-326l88 0c4,61 4,131 2,192 -4,81 -5,129 -59,134zm-348 -191c23,-11 42,-36 71,-46 31,60 199,234 149,281 -35,26 -102,-76 -120,-98 -25,-31 -87,-106 -100,-137zm725 2c-23,36 -170,263 -218,232 -44,-28 132,-254 148,-287l56 40c13,12 7,6 13,15zm-585 -83c24,-22 62,-31 99,-36 13,48 44,201 30,242 -36,-6 -112,-164 -128,-205zm320 202c-11,-38 16,-197 24,-242 34,7 73,16 99,33 -11,37 -86,210 -123,209zm250 821c24,-9 36,-24 55,-40 27,-23 12,-20 46,-43 50,-34 88,-109 124,-158 19,-26 65,-172 67,-198 22,-238 -84,-414 -203,-529 -113,-109 -332,-202 -560,-154 -474,101 -586,642 -397,911 38,55 126,165 178,194 173,98 398,147 588,68 53,-22 95,-23 64,-102 -9,-23 -59,-92 -72,-106 -158,-184 -73,-190 -11,-133 42,39 139,145 158,209 -21,37 -69,39 -37,80zm1074 -1656c58,48 257,-6 371,7 22,3 32,11 53,-4 -53,-16 -155,-51 -211,-56 -46,-4 -81,-3 -126,0 -48,4 -93,-8 -87,52zm-404 -432c-4,52 158,194 240,212 -20,-29 -136,-105 -154,-146 35,-15 151,-22 177,3 21,20 56,78 105,99 -14,-42 -89,-125 -98,-140 -26,-42 5,-35 -32,-44 -22,-5 -207,-1 -238,15zm-5823 -171c0,0 8,-97 5,-149 -3,-51 665,-310 665,-310l1218 35 -3 482c0,0 -1315,79 -1546,94 -231,15 -267,-66 -267,-66l-71 -86z"/>
  <path id="kontur" class="fil10" d="M1872 6977c-63,100 -324,40 -434,113 -15,10 -31,36 -45,22 -53,-50 81,-108 178,-116 101,-8 200,-11 301,-18zm8244 -1695c57,-7 136,-9 196,-6 70,3 126,-2 158,47 24,39 32,129 28,179 -5,74 -30,90 -103,97 -245,23 -409,35 -385,-220 7,-75 34,-87 106,-97zm17 -18c-75,4 -121,13 -134,82 -10,54 -3,149 17,198 25,59 68,70 145,74 69,4 151,2 220,-2 66,-4 117,-17 131,-81 11,-52 1,-157 -17,-202 -24,-59 -69,-69 -147,-74 -71,-4 -145,0 -214,4zm-2570 -858l-129 2 -182 800c42,-5 147,2 178,-13l9 -22 12 -70c17,-96 112,-654 113,-697zm144 762c-14,-14 -8,-8 -7,-36l10 -146c4,-64 7,-133 12,-199 5,-77 32,-325 21,-386l-148 1c-10,125 -42,265 -64,391 -12,71 -64,331 -59,383 -5,8 -2,-2 -7,17 -1,6 -5,28 -6,34l97 -5c100,3 225,-11 327,-16 66,-3 968,-37 1001,-48 1,0 3,-1 5,-2 35,8 794,-21 809,-28 36,-17 71,-96 57,-147 -9,-34 -80,-82 -110,-104 -237,-169 -560,-358 -863,-412 -170,-30 -614,-63 -786,-56l-222 -3 -23 395c333,0 667,4 970,84 6,43 -5,206 -19,241l-77 1c-71,-2 -159,6 -233,8 -79,2 -151,7 -227,10 -147,5 -318,28 -459,23zm-821 360l-11 41 -72 12 3 18c102,-1 376,-56 452,0 -23,54 -160,45 -228,47 -75,2 -198,16 -270,10l-4 -22c-12,2 -31,-7 -9,26 9,14 22,15 42,17 59,7 38,1 83,26 96,54 167,43 255,-7 52,-29 130,-10 167,-53 22,-25 16,-63 -11,-77l-163 -16 -11 -25c-45,-58 -175,-30 -223,5zm2470 -6l-283 19 -13 -38 233 -37c72,-8 179,0 251,8 -15,66 -113,47 -188,47zm-306 -41c-79,101 96,94 96,94 41,9 86,127 233,47 29,-16 11,-5 28,-27 22,-28 -6,-10 36,-21 73,-20 126,-2 148,-41 1,-2 4,-9 5,-11l6 -12c-3,-50 -46,-53 -94,-58 -117,-12 -75,9 -123,-34 -29,-25 -205,-56 -224,47l-111 16zm-3933 -572c-21,27 -7,7 -2,16 16,-3 24,-6 36,-10 392,-191 633,-347 1100,-437 678,-130 1472,-154 2161,-113 633,38 730,123 1280,457 40,24 85,45 119,73 75,63 129,178 83,278 -2,15 -4,30 -6,42 -1,3 -3,14 -4,17 -4,14 0,6 -6,15 -7,68 -75,241 -101,317 -15,43 -35,112 -53,154 -16,38 -72,89 -107,105 -22,31 -197,135 -243,171 -64,51 -129,119 -174,185 -21,31 -13,25 -8,30 42,-69 147,-146 218,-200 43,-32 90,-52 128,-78 29,-20 165,-111 182,-135 35,-48 76,-161 99,-218 31,-78 88,-235 100,-317 4,-24 10,-42 13,-67 3,-33 -6,-42 8,-70 -7,-80 11,-88 -28,-160 -58,-106 -204,-186 -320,-258 -150,-93 -334,-202 -515,-262 -204,-68 -444,-83 -675,-98 -595,-39 -1597,-11 -2178,114 -231,50 -386,108 -586,191 -86,36 -184,83 -262,123l-258 132zm3855 85c55,12 141,79 173,112 -43,9 -128,6 -176,4l3 -116zm-199 127c-1,-50 13,-166 31,-204 30,0 90,36 116,49 2,36 12,119 -6,142 -17,21 -109,17 -140,13zm-4237 1840c861,-117 4343,-217 4363,-233 -208,-100 -3700,110 -4310,177 -39,9 -50,14 -54,56zm799 -1803c43,-40 592,-323 656,-319 -12,31 -45,35 -78,50 -98,45 -142,56 -254,117 -55,30 -105,54 -164,85 -73,38 -128,86 -160,68zm-5 -131c42,-39 403,-200 496,-239 79,-34 98,-56 162,5 -15,36 -267,124 -340,161 -58,30 -300,156 -337,159 -2,19 -6,73 -13,90 -12,29 -1,7 -12,20l12 -214c26,4 5,12 33,19zm-84 -100l-13 2c39,29 44,64 41,132 -2,43 -4,116 -13,153 -11,44 -52,56 -100,66 -73,15 -61,10 -94,71 -11,-11 -9,-9 -8,-39 -35,8 -40,1 -69,-11 2,31 6,38 -12,53 -21,-57 -2,-66 -51,-103 -40,-30 -56,-40 -33,-106 -6,-7 11,-11 -12,-3 -29,12 -119,71 -141,75 24,-76 136,-159 220,-195 1,-1 3,-3 4,-4l39 -35 -14 0c-326,165 -184,199 -350,300 -22,13 -45,27 -67,43 -28,20 -38,33 -28,74 57,30 83,3 145,14 24,-22 226,-22 250,-18 -12,29 -21,12 -34,49 83,31 238,69 330,83 -7,-47 -8,-59 -58,-65 -36,-4 -77,-2 -114,-4 -7,-114 27,-85 349,-105l343 -25c42,3 354,-21 420,-26 276,-22 574,-29 840,-54 132,-12 282,-6 414,-22 -11,-20 13,-13 -34,-16l-237 14c-89,9 -184,11 -273,16 -230,12 -1599,111 -1625,98 26,-15 392,-31 458,-36 338,-29 823,-60 1167,-74 36,-1 76,-5 115,-8 22,-2 35,-2 57,-2 54,-1 45,-7 52,-13 -120,-2 -245,11 -362,17 -80,4 -1011,68 -1039,56 -17,-13 -32,-33 -36,-59 304,-198 657,-298 1027,-355 61,-9 375,-48 412,-28 13,11 7,28 5,55 -6,76 11,178 37,247l23 56c0,1 1,3 1,4 0,1 1,3 1,4l2 8c39,-2 24,6 47,-86l174 -712 -99 5c-98,-5 -205,12 -301,18 -237,14 -631,69 -850,124 -169,42 -326,99 -479,167 -81,37 -143,70 -217,106 -36,17 -72,35 -105,52 -26,13 -79,49 -103,45zm4749 1895c11,17 16,20 9,45 -30,11 -29,2 -46,-12 8,-20 6,-36 37,-33zm-7 77c58,-22 61,-100 -25,-98 -17,17 -33,21 -27,57 5,28 26,39 52,41zm117 -177c34,3 38,2 34,45 -42,11 -61,-11 -34,-45zm-12 -16c-65,44 3,111 50,79 48,-32 6,-117 -50,-79zm-38 277c-1,27 26,14 -15,18 10,11 14,7 15,26 -32,3 -46,-17 -28,-46l28 2zm-60 -3l-3 56c50,29 55,29 93,-10 1,-71 -51,-83 -91,-47zm276 -117c-46,0 -58,-48 -6,-43 4,12 0,9 -1,16 -2,19 3,-10 7,27zm32 1c7,-96 -80,-79 -93,-40 -10,31 6,56 28,63 32,10 48,-8 65,-24zm-79 160c-27,-4 -7,6 -26,-8 -1,-1 -3,-2 -4,-4 -26,-26 8,-34 32,-36 -7,22 3,14 -19,24 12,9 10,6 17,24zm-28 -64c-72,33 -26,105 31,90 65,-17 22,-114 -31,-90zm-103 -137c-99,54 -17,169 59,130 79,-41 23,-174 -59,-130zm-457 -222c24,19 183,101 219,102 3,-40 -144,-174 -164,-180 -22,15 -49,52 -55,79zm746 93c45,4 172,-78 219,-99 -6,-31 -36,-73 -63,-83 -24,19 -155,145 -156,182zm-170 -118c37,1 113,-172 123,-209 -26,-17 -64,-27 -99,-33 -8,45 -35,205 -24,242zm-320 -202c16,42 92,199 128,205 15,-41 -17,-194 -30,-242 -37,6 -75,14 -99,36zm555 509c27,28 201,48 249,43l-1 -96c-33,-5 -202,26 -224,34 -30,11 -13,0 -24,20zm-884 -39l-7 46c0,21 0,32 7,51 29,4 89,-10 121,-15 36,-6 100,-9 118,-37 -23,-33 -209,-52 -239,-46zm85 333c8,32 43,75 64,86 21,-11 72,-65 90,-84 19,-20 69,-67 70,-104 -60,-1 -163,84 -223,102zm924 102c8,-15 -13,-15 16,-56 15,-22 32,-35 41,-57 -42,-27 -181,-100 -237,-98 8,63 119,102 181,211zm-203 130c-11,-49 -33,-87 -58,-127 -21,-33 -36,-87 -86,-93 1,83 40,160 43,254 47,-7 61,-18 101,-34zm-348 26c24,-46 34,-209 15,-250 -24,7 -9,-6 -24,19l-41 82c-15,29 -47,82 -54,112 17,15 20,14 46,22 23,7 37,12 58,14zm-172 -64c15,-25 200,-267 128,-293 -31,-11 -48,31 -62,50l-92 135c-16,23 -42,39 -48,61 23,17 49,41 74,47zm627 -915c-7,-9 -1,-4 -13,-15l-56 -40c-17,33 -193,259 -148,287 48,31 195,-196 218,-232zm-725 -2c14,32 76,106 100,137 18,22 85,124 120,98 50,-47 -118,-222 -149,-281 -28,10 -48,35 -71,46zm595 353c33,40 123,2 162,-9l158 -56c1,-1 3,-2 5,-4 -6,-28 -11,-53 -31,-75 -75,29 -279,80 -294,144zm-770 223l24 74c32,1 285,-82 294,-128 15,-78 -293,40 -318,54zm302 -207c65,-50 -240,-142 -284,-145 -35,64 -27,75 -5,85 9,4 264,89 289,60zm776 268c15,-17 25,-46 25,-69l-68 -35c-24,-10 -259,-81 -257,-22 1,44 240,107 301,127zm-555 -446c54,-5 55,-53 59,-134 3,-61 2,-131 -2,-192l-88 0c-1,89 0,252 31,326zm-9 808c121,10 110,25 97,-144 -6,-72 -8,-190 -76,-178l-21 322zm-6789 10l21 -265c9,-38 11,-53 51,-53 25,40 32,243 26,309 -36,16 -53,15 -97,9zm-64 -5c-26,-4 -58,-16 -80,-19 -45,-6 -39,26 -70,8 51,-28 17,32 87,-115 13,-27 23,-41 38,-66 18,-33 17,-50 51,-53 10,65 -22,176 -26,245zm208 -255c40,-2 58,61 74,90 16,30 52,89 60,121 -31,13 -74,35 -114,30 -8,-42 -25,-202 -20,-241zm270 113c-16,21 -39,43 -68,54 -13,-19 -209,-251 -141,-283 37,-17 203,218 209,229zm-650 77l-74 -42c7,-25 156,-269 227,-247l4 19c0,2 0,4 0,6 -2,29 -53,101 -69,125 -27,40 -69,98 -88,139zm-194 -187c44,-24 179,-111 223,-106 2,26 -59,86 -72,99 -27,27 -67,70 -90,87l-52 -55c-9,-14 -7,-8 -9,-25zm965 -38c-8,34 -38,75 -64,87 -32,-21 -61,-55 -90,-82 -21,-19 -70,-61 -74,-95 54,-8 175,70 228,91zm-417 -106c-17,-22 -32,-32 -16,-65 10,-21 33,-35 64,-23 36,14 45,101 -47,88zm-191 -12c-4,-31 0,-50 21,-63 70,-44 123,84 8,85 -8,-7 -22,-16 -29,-22zm-429 12c28,-20 327,-128 329,-69 1,33 -105,71 -135,83 -39,15 -127,54 -167,58 -9,-27 -26,-40 -28,-72zm941 -91c54,14 103,28 156,42 1,30 -7,53 -21,77 -45,5 -284,-69 -290,-112 -8,-56 122,-15 156,-7zm-407 -141c84,-25 147,121 40,152 -116,34 -119,-129 -40,-152zm-305 79c-9,28 -10,23 -69,36 -178,41 -207,54 -179,-69 36,-5 218,21 248,33zm635 -19c15,-29 210,-70 242,-58 9,24 7,63 7,95 -56,4 -216,-6 -248,-37zm-420 21c-41,5 -75,1 -73,-48 2,-42 34,-46 73,-41 38,40 32,52 0,90zm293 -78c5,103 -72,62 -80,54 -36,-36 7,-98 49,-81l30 27zm-722 -122c34,2 134,36 171,48 52,16 136,38 139,82 -40,37 -132,4 -179,-8 -44,-11 -128,-31 -158,-47l27 -76zm584 27c12,93 -73,80 -91,43 -24,-52 37,-97 91,-43zm490 0c0,0 -314,150 -309,70 3,-41 230,-136 282,-142 16,19 25,50 27,73zm-1033 -103c4,-33 34,-71 56,-86 25,10 68,61 92,83 26,24 73,55 83,95 -49,1 -192,-65 -231,-93zm745 69c4,-44 79,-113 105,-141 12,-14 39,-60 65,-43 2,1 46,46 48,75 -42,28 -181,114 -218,110zm-223 -375c4,56 8,293 -17,334 -40,-2 -44,-16 -53,-50 -25,-85 -17,-184 -15,-276l86 -8zm-290 173c19,25 32,40 51,66 15,20 75,96 76,124 0,2 0,4 0,6l-5 16c-23,23 -61,-14 -80,-33 -36,-35 -147,-160 -159,-196 15,-20 43,-42 65,-50 17,17 37,47 52,67zm398 200c-25,-66 112,-269 142,-293 25,5 49,24 68,41 -5,25 -71,113 -91,142 -23,34 -68,126 -119,109zm-376 -314c24,-7 75,-32 101,-30 9,47 51,213 32,244 -43,-9 -123,-176 -133,-215zm326 206c-19,-50 7,-185 7,-253 40,6 83,12 111,34 -6,24 -61,143 -78,178 -14,29 -12,38 -40,41zm514 386c-12,42 -18,80 -31,120 -23,74 -63,130 -112,190 -44,53 -24,5 -59,57 -32,47 -163,116 -216,136 -39,15 -91,16 -122,29 -24,10 8,3 -24,10 -6,1 -33,2 -40,2 -27,0 -56,1 -83,-2 -317,-30 -591,-336 -534,-698 83,-530 742,-738 1092,-322 82,97 174,317 129,476zm6513 418c-32,-41 15,-43 37,-80 -18,-64 -116,-171 -158,-209 -61,-57 -147,-51 11,133 12,14 63,84 72,106 31,79 -11,80 -64,102 -190,79 -416,30 -588,-68 -52,-29 -140,-139 -178,-194 -189,-270 -77,-811 397,-911 228,-48 447,44 560,154 119,115 225,291 203,529 -2,26 -48,172 -67,198 -36,49 -74,124 -124,158 -34,23 -19,20 -46,43 -19,16 -31,31 -55,40zm817 -967c1,-1 3,-5 4,-4l18 -12c91,-46 333,-110 423,-127 95,-17 486,-66 507,38 -27,15 -80,-3 -113,-6 -175,-16 -433,39 -610,65 -62,9 -170,43 -230,45zm-1813 87c-6,-21 8,-41 18,-59 101,-171 323,-304 510,-319 174,-14 203,-25 382,32 74,23 256,113 275,185 -73,-24 -40,-70 -287,-152 -350,-117 -616,5 -836,268 -22,26 -32,52 -61,45zm-6830 205c-27,-34 27,-199 45,-233 98,-184 414,-410 539,-356 2,33 -3,29 -27,42 -127,68 -193,91 -318,198 -78,67 -203,210 -240,349zm7815 -687c-56,-20 -169,-34 -181,-59 49,-19 338,76 381,99 102,54 302,201 349,271 41,61 113,174 136,237 56,155 65,236 77,412 -19,17 -87,81 -114,79 -6,-88 7,-135 -8,-228 -32,-209 -76,-349 -205,-517 -117,-153 -252,-229 -435,-294zm-8808 204c40,-108 163,-253 258,-324 92,-68 172,-79 291,-123 88,-32 192,-63 266,-13 -1,53 -40,67 -71,91 -128,100 -152,109 -296,178 -183,88 -107,43 -245,74 -89,20 -139,85 -203,116zm9893 -497c-6,-60 39,-49 87,-52 45,-3 80,-5 126,0 56,5 158,40 211,56 -21,15 -31,7 -53,4 -114,-13 -313,41 -371,-7zm-166 -448c37,9 6,2 32,44 9,15 84,98 98,140 -48,-21 -84,-79 -105,-99 -26,-25 -142,-18 -177,-3 18,41 134,116 154,146 -82,-18 -245,-160 -240,-212 32,-16 216,-21 238,-15zm-165 -205l213 41c41,6 91,12 130,20 41,9 96,15 103,47 -32,23 -241,-3 -295,-5 -168,-7 -859,-27 -936,-1 44,26 671,41 828,50 51,3 45,10 51,16 -67,1 -199,-4 -252,21 -28,34 49,94 68,112 30,28 66,60 103,87l164 121c15,10 41,19 48,38 -178,244 591,123 554,182 -46,73 103,240 124,379 3,22 -11,-5 -35,-3 -57,4 -177,5 -297,21 -255,34 -552,154 -601,182 -94,-82 -236,-250 -275,-283 -31,-26 -86,-61 -111,-94 -14,-3 -144,-86 -174,-101 -216,-100 -476,-133 -717,-85 -174,34 -264,87 -404,152 -82,38 -175,119 -244,176 -40,33 -42,53 -61,73 -20,40 -65,53 -111,50 -58,-70 -11,-239 4,-326 33,-196 -39,-159 -210,-158 -530,2 -974,32 -1487,45 -245,6 -492,14 -737,25 -246,11 -495,9 -737,35 -119,13 -240,18 -357,29 -345,33 -687,61 -1031,112 -126,19 -96,12 -125,68 -21,41 -73,67 -131,61 -67,-7 -166,-74 -220,-117l-22 -25c-7,-2 -160,-92 -259,-127 -265,-95 -561,-91 -822,8 -32,12 -107,54 -130,55l10 8c1,0 4,2 5,3 1,0 4,1 5,1l76 -11c43,-1 82,3 124,3 79,0 153,-18 234,-21 152,-6 307,10 437,55 290,99 315,197 441,295 47,37 282,112 331,-73 545,-216 3567,-395 4366,-364 419,16 -108,376 39,554 39,48 59,61 119,68 59,7 -2,1 39,17 38,-83 178,-236 242,-288 87,-71 202,-165 338,-202 68,-15 285,-79 367,-38 -45,39 -237,-3 -512,233 -119,102 -227,252 -293,452 -11,66 -26,90 -40,192 -8,59 -14,90 -16,149 0,4 -1,26 -1,28 -4,37 -10,48 -114,-17 -39,-25 -59,-62 -93,-76 -44,5 -43,26 -85,42 -92,36 -560,18 -714,26 -36,2 -59,20 -113,25 -187,12 -170,54 -520,58l-1149 4c-119,0 -493,26 -564,19 -33,19 -670,31 -695,31 -84,1 -662,40 -691,15 -29,-25 -18,-110 -23,-153 -6,-47 -16,-107 -26,-157 -64,-325 -171,-495 -415,-678 -359,-267 -876,-253 -1209,39 -18,16 -32,24 -47,42 -81,99 -120,119 -194,267 -41,81 -72,171 -95,270 -29,130 -10,217 -21,344 -23,-38 15,-180 -91,-203 -145,-32 -281,1 -402,-2 -317,-8 -448,60 -443,60 -9,-124 78,-549 132,-638 35,-56 82,-69 143,-105 64,-37 124,-37 211,-40 72,-13 117,-39 173,-71 40,-24 123,-87 150,-96l26 -27c56,-35 120,-80 161,-118 38,-35 125,-85 121,-155l-21 -16c-65,-38 -117,-32 -198,-16 -47,9 -282,109 -323,130 -43,22 -103,66 -153,74 28,-57 372,-202 457,-231 150,-51 366,-132 529,-152 289,-35 749,-96 1035,-169 125,-32 18,-31 132,-11 111,4 620,-263 770,-339l359 -192c432,-224 1086,-396 1566,-457 333,-43 1075,-82 1403,-59 115,8 245,10 364,13 106,2 238,22 342,16 127,6 392,37 510,77 604,204 671,241 1234,514 203,98 288,148 511,171 77,8 84,18 81,-17l-30 -22c61,5 145,27 215,36 146,18 313,25 461,34 47,3 63,6 93,30 19,16 48,37 52,68 -40,-5 -90,-65 -145,-69 -36,-3 -68,3 -107,-2 -106,-14 -408,-51 -471,-53zm-7003 2524c1,-1 4,-6 4,-4l14 -10c5,-3 19,-8 24,-10 18,-7 29,-12 45,-16 55,-14 220,-133 234,-186 90,0 447,13 518,-12 54,-19 116,2 167,-12 52,-14 107,-10 162,-10l160 -5c54,-7 638,-8 700,-9l172 -7c60,0 125,-2 174,5 97,13 298,4 420,14l246 9 0 -21 689 6c59,0 54,29 110,22 21,-2 47,-9 61,-7 46,6 -1,19 117,4 33,-4 40,0 43,-33 67,0 53,28 193,28 99,0 118,13 198,-23 81,-36 208,-19 298,-19 46,0 63,-7 103,-7 69,103 157,198 268,255 21,11 37,21 58,32 22,12 45,13 71,18 44,9 190,25 214,33 201,73 305,98 524,82 43,-3 43,-5 76,-1 29,3 53,-2 80,-8 146,-30 283,-124 386,-227 32,-31 57,-60 82,-97 32,-49 87,-115 92,-176 71,0 142,0 213,0 77,0 128,-7 206,-7 71,0 142,0 213,0 82,0 135,7 151,-62l190 11c72,8 0,24 116,-8 33,-9 40,-8 64,-25 18,-13 41,-27 55,-41 31,-31 53,-85 66,-127 9,-28 37,-128 45,-141 30,-46 39,-75 51,-142 20,-123 22,-227 19,-347 -1,-56 -52,-108 -81,-153 -101,-160 -98,-131 -141,-382 -21,-121 -66,-246 -108,-360 -42,-114 -14,-60 -15,-164 0,-102 28,-73 -46,-147 -48,-47 -128,-26 -191,-36 -213,-36 -611,-43 -784,-132 -29,-15 -54,-23 -80,-37 -26,-13 -48,-22 -76,-35 -27,-12 -50,-26 -78,-39l-119 -53c-17,-7 -30,-11 -44,-18 -208,-94 -437,-188 -655,-261 -29,-9 -55,-18 -82,-28 -155,-62 -485,-142 -641,-164 -598,-83 -1156,-64 -1768,-63 -69,0 -145,11 -213,14 -149,7 -480,46 -624,64 -129,16 -269,36 -397,64 -38,8 -57,13 -87,23l-267 84c-168,46 -336,115 -493,188l-778 372c-101,51 -373,184 -470,211 -36,10 -80,0 -108,9 -23,6 -21,15 -87,30l-131 34c-85,19 -168,32 -253,43 -150,18 -254,20 -410,51l-381 73c-281,56 -543,146 -785,295 -77,48 -174,112 -208,198 -32,79 -208,383 -236,452 -56,137 -32,153 -51,293 -11,79 -12,221 -23,266 -14,53 -27,95 -3,142 37,73 59,69 145,89 0,39 16,57 76,62 130,12 297,-7 427,-7 11,16 8,7 14,28 61,0 112,13 170,5 30,-4 42,-4 77,2 35,6 45,8 49,48 21,0 47,-3 65,4 24,9 11,15 52,17 285,14 167,-58 329,105 26,26 47,47 76,68l88 56c135,81 344,82 498,74 30,-2 29,-6 62,-7 139,-4 180,-3 318,-47 77,-25 350,-27 381,-49z"/>
 </g>
</svg>
