<?xml version="1.0" encoding="UTF-8"?>
<!DOCTYPE svg PUBLIC "-//W3C//DTD SVG 1.1//EN" "http://www.w3.org/Graphics/SVG/1.1/DTD/svg11.dtd">
<!-- Creator: CorelDRAW X5 -->
<svg xmlns="http://www.w3.org/2000/svg" xml:space="preserve" style="shape-rendering:geometricPrecision; text-rendering:geometricPrecision; image-rendering:optimizeQuality; fill-rule:evenodd; clip-rule:evenodd"
viewBox="0 0 13546 8466" preserveAspectRatio="xMaxYMax meet"
 xmlns:xlink="http://www.w3.org/1999/xlink">
 <defs>
  <style type="text/css">
   <![CDATA[
    .fil10 {fill:#2B2A29}
    .fil6 {fill:#A7BCC0}
    .fil8 {fill:#EF7F1A}
    .fil9 {fill:#FEFEFE}
    .fil2 {fill:#F6FCFC}
    .fil3 {fill:#6A7273}
    .fil7 {fill:#9DB9BB}
    .fil4 {fill:#A9BABB}
    .fil5 {fill:#B8CDCE}
    .fil1 {fill:#D9E4E7}
    .fil0 {fill:url(#id2)}
   ]]>
  </style>
     <mask id="id0">
  <linearGradient id="id1" gradientUnits="userSpaceOnUse" x1="6752.69" y1="3215.03" x2="6752.69" y2="1188.57">
   <stop offset="0" style="stop-opacity:1; stop-color:white"/>
   <stop offset="1" style="stop-opacity:0; stop-color:white"/>
  </linearGradient>
      <rect style="fill:url(#id1)" x="674" y="868" width="12158" height="2667"/>
     </mask>
  <linearGradient id="id2" gradientUnits="userSpaceOnUse" x1="6751.83" y1="7625.65" x2="6751.83" y2="754.185">
   <stop offset="0" style="stop-color:#7F9191"/>
   <stop offset="0.501961" style="stop-color:#D2E5E7"/>
   <stop offset="1" style="stop-color:#7F9191"/>
  </linearGradient>
 </defs>
 <g id="Слой_x0020_1">
  <metadata id="CorelCorpID_0Corel-Layer"/>
  <g id="_205415216">
   <g>
    <path class="fil0" d="M12439 566c67,14 123,55 184,76l-7 -21 31 -61c61,25 190,103 216,154 51,64 93,100 139,176 43,71 77,154 97,234 41,163 23,459 23,637l0 5249c0,221 12,355 -94,558 -158,303 -474,493 -820,492 -3498,-5 -6999,0 -10498,0 -396,0 -730,49 -1047,-274 -94,-96 -230,-297 -231,-429 40,108 157,202 191,229 -116,-150 -124,-752 -124,-974l0 -5114c0,-65 -1,-130 -1,-195 1,-68 13,-134 30,-198 -19,-3 -35,-11 -85,-6 16,-91 67,-196 121,-272l141 -151c12,-11 40,-37 56,-51 168,-140 394,-188 610,-187 1584,9 3189,1 4775,1l5571 0c162,0 636,-23 752,52 -12,40 -29,36 -31,75zm-12439 7101l0 -353 0 -6248 0 -252c4,-60 13,-115 34,-152 64,85 22,149 58,210 38,-29 40,-107 59,-155 54,-145 132,-280 249,-376 172,-142 378,-225 608,-229 555,-10 1120,0 1677,0l9635 0c67,0 379,13 415,-3 -4,-26 3,-1 -5,-20 -1,-2 -2,-8 -9,-15 -14,-16 -66,-43 -100,-73l6 0 5 0 5 0 5 0 5 0c99,0 129,2 229,35 68,23 132,55 194,94 68,42 276,206 303,286 131,198 107,305 82,451 2,57 -34,102 -33,159l0 6197c0,230 19,393 -89,606 -77,153 -159,293 -320,370 -62,30 -109,75 -227,119 -174,63 -777,39 -992,39l-9635 0c-265,0 -1165,16 -1362,-18 -496,-43 -658,-432 -780,-588 -8,-20 -14,-48 -17,-81z"/>
    <path class="fil1" d="M2618 839c59,-17 448,-6 540,-6l7679 0c77,0 152,0 179,88 21,69 -10,154 -83,173 -65,16 -448,4 -545,4l-7679 0c-79,0 -155,2 -180,-88 -21,-76 13,-149 89,-171zm-2098 280c-3,59 -20,116 -20,185 -1,65 1,130 1,195l0 5114c0,222 -20,556 26,763 8,43 68,179 98,210 73,-1 198,98 279,121 56,15 71,8 163,35 62,18 103,30 171,31 267,5 537,1 805,1l9601 0c227,0 556,28 764,-40 112,-37 149,-72 238,-143 60,-48 48,-40 86,-101 21,-34 24,-2 44,-58 29,-83 14,32 57,-139l20 -3c-1,-42 26,-247 26,-371l0 -5207c0,-123 -8,-279 0,-398 12,-165 43,-272 50,-358 -13,-65 -91,-123 -126,-173 -11,-5 -168,-128 -177,-139 -62,-21 -118,-62 -184,-76 -36,-1 -128,-24 -173,-30 -53,-8 -137,-4 -193,-4 -3524,-4 -7051,6 -10574,0 -254,0 -427,-8 -645,143 -293,203 -287,407 -334,444z"/>
    <path class="fil2" style="mask:url(#id0)" d="M12814 3297c36,-116 5,-2270 3,-2428l-12108 1c59,375 -212,2540 190,2657 56,16 1986,6 2140,6l9169 0c90,0 330,13 401,-14 91,-34 202,-117 205,-221z"/>
    <path class="fil3" d="M17 7749c24,144 149,338 252,440 195,194 372,258 570,277l558 0 11247 0c196,-1 354,-63 513,-186 133,-103 244,-239 308,-395 60,-144 77,-251 81,-368l0 -253 0 -5622 0 -11c0,-230 -2,-462 0,-692 1,-128 -78,-447 -181,-525 36,40 74,263 53,440 2,57 3,112 4,169l0 6197c0,230 19,393 -89,606 -77,153 -159,293 -320,370 -62,30 -109,75 -227,119 -174,63 -777,39 -992,39l-9635 0c-265,0 -1165,16 -1362,-18 -535,-91 -749,-591 -780,-588z"/>
    <path class="fil3" d="M2618 839c-76,22 -110,95 -89,171 25,90 101,88 180,88l7679 0c97,0 480,13 545,-4 73,-18 104,-104 83,-173 -27,-88 -102,-88 -179,-88l-7679 0c-92,0 -481,-11 -540,6z"/>
    <path class="fil4" d="M772 7750c49,91 298,184 399,204 142,28 432,12 589,12l10236 0c212,0 333,16 535,-65 273,-110 495,-405 498,-704 4,-403 0,-808 0,-1211l0 -4216c0,-104 21,-551 -17,-616l-22 49c-22,197 -19,156 -20,363 -5,1814 5,3630 0,5444 -1,242 -1,115 -56,333l-9 -23c-21,162 -214,363 -359,428 -232,105 -462,87 -712,87l-10346 0c-90,0 -401,4 -469,-25l-159 -44c-34,-12 -55,-8 -90,-16z"/>
    <path class="fil3" d="M12613 644c489,336 417,552 417,1126l0 4216c0,403 4,808 0,1211 -3,299 -225,594 -498,704 -202,81 -324,65 -535,65l-10236 0c-157,0 -447,16 -589,-12 -101,-20 -351,-113 -399,-204 -36,-16 -130,-122 -149,-165 -60,-61 -148,-158 -190,-228 1,133 136,333 231,429 317,323 651,274 1047,274 3499,0 7000,-5 10498,0 346,1 663,-189 820,-492 106,-203 94,-337 94,-558l0 -5249c0,-178 18,-473 -23,-637 -20,-80 -54,-164 -97,-234 -65,-155 -319,-342 -354,-340 -48,2 -21,53 -36,93z"/>
    <path class="fil5" d="M34 663c64,85 22,149 58,210 38,-29 40,-107 59,-155 54,-145 132,-280 249,-376 172,-142 378,-225 608,-229 555,-10 1120,0 1677,0l9635 0c67,0 379,13 415,-3 -4,-26 3,-1 -5,-20 -1,-2 -2,-8 -9,-15 -14,-16 -66,-43 -100,-73l-11587 0 -202 0c-55,3 -110,12 -178,35 -266,88 -565,369 -619,628z"/>
    <path class="fil5" d="M623 7585c19,43 114,149 149,165 34,8 55,5 90,16l159 44c68,30 380,25 469,25l10346 0c250,0 480,18 712,-87 144,-65 338,-266 359,-428l9 23c55,-218 56,-91 56,-333 5,-1814 -5,-3630 0,-5444 1,-208 -2,-167 20,-363l22 -43c5,-47 -64,-207 -98,-237 -7,86 -27,224 -40,389 -9,119 0,275 0,398l0 5207c0,125 -27,330 -26,371l-20 3c-43,170 -27,55 -57,139 -20,55 -23,24 -44,58 -37,61 -26,54 -86,101 -89,71 -126,106 -238,143 -208,68 -537,40 -764,40l-9601 0c-267,0 -538,4 -805,-1 -68,-1 -109,-13 -171,-31 -92,-27 -107,-19 -163,-35 -81,-22 -206,-122 -279,-121z"/>
    <path class="fil5" d="M525 1121c8,-30 35,-243 328,-446 218,-151 391,-144 645,-143 3524,7 7050,-4 10574,0 57,0 140,0 193,8 228,20 322,92 347,104 8,-35 25,-49 35,-90 -266,-182 -769,-115 -931,-115l-5571 0c-1586,0 -3191,8 -4775,-1 -216,-1 -442,46 -610,187 -85,71 -124,117 -197,202 -53,77 -104,182 -121,272 40,6 59,7 82,21z"/>
    <ellipse class="fil6" cx="6718" cy="7541" rx="5355" ry="159"/>
   </g>
   <g>
    <path class="fil7" d="M8287 1583c-61,77 -166,300 -203,397 -174,456 576,463 409,3 -24,-67 -164,-359 -206,-400z"/>
    <path class="fil7" d="M3677 1583c-40,39 -178,327 -203,393 -33,88 -46,153 3,238 135,234 526,90 406,-228 -32,-84 -152,-340 -206,-403z"/>
    <path class="fil7" d="M5201 1582c-50,51 -174,313 -205,392 -34,88 -48,156 3,242 140,233 521,86 406,-228 -46,-125 -133,-292 -204,-406z"/>
    <path class="fil7" d="M6767 1583c-57,74 -167,297 -203,393 -176,467 572,461 409,12 -36,-98 -144,-321 -206,-404z"/>
    <path class="fil7" d="M7400 1425c-4,39 -56,133 -74,179 -110,290 158,407 320,320 262,-142 -6,-519 -100,-696l-15 -18c-58,55 -71,167 -131,216z"/>
    <path class="fil7" d="M9026 1233c-8,55 -213,356 -208,500 6,149 153,257 303,210 39,-12 100,-65 111,-66 62,-145 83,-143 -14,-357 -43,-94 -108,-225 -165,-310l-27 24z"/>
    <path class="fil7" d="M4310 1427c-9,85 -115,196 -100,323 31,265 421,272 461,8 21,-134 -91,-242 -100,-331 -53,-44 -78,-163 -131,-216 -54,55 -74,170 -131,216z"/>
    <path class="fil7" d="M5835 1422c-5,70 -114,198 -105,319 8,119 108,211 227,214 119,3 225,-87 237,-205 14,-132 -100,-253 -106,-334 -33,-26 -98,-161 -122,-208 -56,45 -77,170 -131,214z"/>
    <path class="fil7" d="M9610 1875c-2,38 -47,123 -59,175 -53,228 243,370 389,212 184,-200 -75,-481 -157,-678 -53,32 -124,250 -172,292z"/>
    <path class="fil7" d="M2664 1720c6,206 248,312 384,178 70,-69 100,-137 71,-239 -17,-61 -92,-205 -96,-241 -44,-33 -86,-154 -124,-207l-18 21 -116 215c-41,84 -91,181 -102,275z"/>
    <path class="fil7" d="M10339 1583c0,41 -94,206 58,323 106,82 234,56 321,-34 176,-181 -142,-536 -152,-639l-26 -23c-44,67 -178,351 -201,374z"/>
   </g>
  </g>
  <path id="cvet" fill="#EF7F1A" d="M1494 6085c0,0 16,-270 94,-511l-82 3c0,0 63,-166 467,-304 405,-138 610,-232 756,-290 0,0 143,-58 173,-14l67 -66c0,0 976,-1048 1431,-1409 0,0 458,-524 1318,-584l4003 -82c0,0 1569,-6 1613,-6 44,0 383,0 414,364 31,364 201,1848 201,1848l-235 22 -9 1067 -144 693 -781 157 -97 -104 -486 -687 -640 31 -376 430 -82 292 -82 28 -3351 66 -1882 28 -314 -725 -558 -226 -285 104 -154 188 -282 -135 -530 3 -141 -53 -24 -129z"/>
  <path id="belyi" class="fil9" d="M3690 4502l546 -571 624 -182 345 0 104 47 28 85 -113 731c0,0 -34,282 -364,292l-753 94 -314 -339 -104 -157zm291 1283c0,0 2959,-398 7700,-440l17 209c0,0 -3609,64 -4592,106 -983,43 -2392,89 -2945,149l-129 -1c0,0 -59,-21 -52,-22zm-1760 472c0,0 211,-381 677,-392 0,0 568,-85 864,413 0,0 211,357 209,587 0,0 -179,-706 -609,-813 -430,-106 -758,-62 -981,209l-119 -4 -40 0zm6931 -56c0,0 228,-362 781,-351 0,0 406,8 675,377l-179 -60c0,0 -502,-526 -1232,23l-22 7 -23 3zm-7668 -101c1,-28 -7,-88 11,-103 -15,-187 54,-297 74,-390l-58 11c-27,105 -58,186 -78,297 -14,77 -39,262 -30,339 2,0 70,-37 69,-37l11 -117zm8004 901c0,-99 63,-212 119,-262 122,-108 292,-138 436,-62 22,11 67,41 85,58l23 25c39,41 50,59 74,118 15,37 10,34 19,73 23,105 9,98 -3,159 -22,110 -79,167 -161,217 -56,35 -140,75 -210,69 -230,-19 -382,-192 -382,-396zm798 61c6,-28 13,-68 6,-102 -5,-25 -6,-12 -16,-40 -5,-13 -6,-22 -10,-38 -40,-147 -187,-273 -342,-278 -150,-5 -233,17 -325,92 -258,214 -169,668 224,725 139,20 224,-20 318,-94 103,-80 111,-114 143,-266zm-7256 -34c18,8 23,14 32,34 -11,28 -26,34 -56,24 -8,-32 -4,-43 24,-57zm-151 12c16,-11 26,-16 54,-11 7,29 12,28 -6,53 -38,8 -52,-3 -48,-42zm69 -156c37,-17 85,9 95,43 14,47 -13,85 -45,97 -76,28 -150,-94 -50,-140zm120 52c34,-25 70,0 45,53l-35 -2c-11,-17 -13,-24 -9,-50zm-245 3c13,-18 9,-15 29,-24 39,15 45,41 5,69l-33 -17 -2 -28zm228 -116c18,20 31,42 -8,60 -38,-7 -37,-23 -30,-56l38 -4zm-166 27c11,-45 53,-48 66,0 -20,37 -46,39 -66,0zm-278 115c-36,-53 36,-170 56,-215 55,-121 337,-284 569,-69 54,50 83,89 107,178 84,310 -254,544 -468,448 -94,-42 -47,-9 -134,-78 -62,-49 -118,-134 -117,-216 36,-12 160,-15 203,-5 30,37 13,48 -17,94 -19,30 -41,63 -62,87 23,31 76,69 115,69 27,-43 66,-130 102,-153 56,13 71,122 109,162 39,0 41,1 66,-19l46 -32c-1,-36 -47,-90 -72,-136 -56,-107 166,-33 217,-50 9,-27 15,-69 6,-104 -14,-54 -33,-26 -79,-26 -171,0 -178,-2 -98,-117 13,-19 20,-33 33,-49 8,-10 12,-12 21,-20l20 -23c-23,-27 -89,-55 -131,-60 -24,40 -83,153 -117,170 -42,-19 -76,-120 -91,-162 -26,1 -55,9 -77,20 -22,12 -29,17 -45,38 16,36 95,138 69,177 -44,19 -160,-5 -205,-11l-26 98zm-34 -47c8,58 2,104 18,159 15,49 46,99 71,134 27,37 67,68 111,93 117,66 212,53 334,25 373,-86 394,-719 -94,-785 -92,-13 -244,49 -305,101 -62,54 -87,104 -118,188 -6,15 -20,66 -17,86zm7329 218c-6,-64 44,-57 62,-14 -16,36 -35,43 -62,14zm-128 -20c10,-22 10,-20 27,-33 87,21 4,112 -27,33zm80 -173c82,-30 144,105 43,141 -83,30 -153,-101 -43,-141zm151 46c37,30 30,70 -27,59 -8,-16 -11,-27 -9,-52l36 -7zm-223 25c-29,45 -83,25 -52,-35 40,-4 49,-3 52,35zm129 -76c-13,-85 49,-56 53,-54 1,1 47,68 -53,54zm-122 -20c-4,-29 -5,-28 18,-45 55,-1 62,61 0,61l-18 -16zm443 32c-59,19 -170,26 -219,-6 -4,-45 20,-43 52,-103 8,-14 19,-31 30,-45l36 -42c-16,-18 -36,-31 -59,-46 -26,-17 -46,-31 -72,-27 -23,46 -68,160 -117,179 -37,-18 -79,-131 -98,-177l-15 -27c-20,16 -78,28 -111,56 5,15 -11,-16 8,28 -36,-13 -19,-13 -28,-7 41,33 70,94 95,144 22,45 16,44 6,53 -25,17 -92,6 -123,2 -102,-14 -64,4 -109,-4 1,49 -10,81 -4,140 64,-5 168,-20 230,7 12,60 -91,168 -121,184 19,8 -4,-1 17,1 26,3 24,9 49,28 15,11 56,30 77,32 28,-47 68,-130 109,-152 32,11 41,43 57,75 17,33 25,55 41,90 38,0 108,-32 134,-53 -29,-29 -95,-144 -87,-183 44,-21 164,1 217,7 19,-67 16,-83 9,-153zm-4358 -3133l4988 -82 195 1067 -100 94 -4825 75 -144 -188c0,0 -113,-960 -113,-966z"/>
  <path id="kontur" class="fil10" d="M10285 7062c-32,152 -41,185 -143,266 -95,74 -180,114 -318,94 -393,-56 -482,-511 -224,-725 91,-76 175,-98 325,-92 155,6 302,131 342,278 4,15 5,24 10,38 10,28 11,16 16,40 7,33 0,74 -6,102zm1716 -2044c23,-21 25,-59 30,-107 6,-60 -23,15 -23,-111 -26,-11 1,-1 -24,0 0,0 -2,0 -3,0 0,-57 -47,-438 -32,-460 22,-33 31,7 25,-105 -2,-40 -16,-44 -55,-47 7,-35 -31,-252 -38,-316 -5,-38 -2,-34 -14,-46 17,-70 -74,-610 -110,-744 -16,-61 -46,-147 -87,-193 -54,-61 -31,-58 -127,-91 -27,-9 -68,-17 -100,-23 -56,-11 -404,-34 -453,-30 -170,15 -765,4 -980,4l-743 0c-156,0 -310,14 -470,14l-736 7c-47,0 -66,7 -116,7 -41,0 -82,0 -123,0 -199,0 -400,15 -600,14 -51,0 -72,7 -122,7 -70,0 -179,-6 -244,1 -123,14 -347,9 -471,19 -37,3 -84,0 -122,0 -94,0 -245,14 -347,14 -120,-1 -345,15 -455,42 -62,15 -134,34 -194,58 -169,67 -347,134 -495,240l-111 73c-20,13 -22,17 -39,30 -45,33 -101,65 -141,104 -30,29 -72,53 -102,82 -56,57 -124,116 -186,169l-15 12c-1,1 -3,2 -4,3l-86 84c-62,63 -127,117 -190,177l-60 63c-83,76 -322,308 -373,370 -57,68 -213,220 -241,256 -58,73 -188,187 -241,256 -87,112 -96,30 -155,77 -27,22 -43,31 -87,35 -44,5 -64,11 -95,28l-85 38c-21,8 -25,10 -45,16 -74,22 -244,87 -319,117 -138,56 -310,112 -434,186 -51,30 -106,59 -152,93 -27,20 -39,38 -66,56 -43,29 -28,27 -51,72 -38,78 -90,318 -101,396 -6,40 -26,253 -32,274 -31,105 -1,262 28,374 9,35 6,56 19,90 19,51 22,46 18,98 78,52 57,116 100,139 27,14 64,17 92,23 98,22 191,52 290,71 8,2 33,5 45,9 31,10 16,11 38,23 46,24 48,-3 75,48 107,0 116,-13 116,-75 48,-13 56,-62 75,-102 30,0 40,4 61,-7 6,14 6,28 7,61 1,31 7,54 12,77 14,69 35,130 67,192 32,62 -18,33 110,156 29,28 64,50 96,74 38,29 67,42 112,65 148,75 418,72 588,-14 61,-30 101,-68 152,-107 19,-14 28,-25 46,-43 28,-28 53,-70 90,-80 46,-12 82,-30 125,-52 21,-11 41,-18 60,-28 50,-27 109,-81 135,-131l312 -9c76,-10 692,-19 792,-19 59,0 94,-7 157,-7 857,1 1710,-27 2568,-27 107,0 201,-7 313,-7 109,0 218,0 327,0 115,0 181,-7 307,-7 54,0 110,2 164,0 35,-1 119,-7 150,-14 16,70 127,222 184,248l49 24 4 21c9,26 72,100 96,124 37,37 42,59 118,107 111,71 104,52 158,81 83,44 296,58 384,32 22,-7 39,-8 60,-15 78,-23 151,-50 209,-91 28,-20 134,-118 154,-146 14,-20 16,-25 32,-43 20,-22 53,-126 64,-161 17,-51 17,-66 23,-126 13,-118 0,-71 -1,-137 45,0 90,5 122,5 70,1 17,15 43,61 31,55 162,28 217,17 73,-15 141,-28 216,-43 140,-28 303,-50 441,-77 82,-16 133,-25 203,-56 196,-88 230,-4 292,-158 10,-26 5,-25 21,-47l-14 -14c9,-18 7,-13 7,-40 -20,-5 -31,-12 -47,-20 4,-79 43,-221 33,-278 -6,-33 -9,-5 -13,-49 -4,-43 -7,-75 -7,-123l-41 -8c8,-36 31,-45 22,-110 -9,-71 4,-343 5,-428 0,-76 -27,-516 -41,-545zm-7042 323c48,-7 -1,11 86,10 39,0 59,6 95,7 -16,36 -54,47 -102,42 -59,-6 -53,-34 -80,-59zm-102 -44c-7,79 57,15 106,75 28,34 64,59 127,45 78,-17 58,-61 109,-73 56,-13 102,3 145,-32 5,-54 -34,-56 -88,-56 -116,0 -70,-4 -131,-45 -89,-60 -145,11 -179,48 -25,28 -54,10 -89,38zm1021 22c42,4 47,10 94,10 15,0 73,2 83,8 -31,55 -130,51 -162,11 -15,-18 -9,-20 -15,-30zm0 -66c15,-50 104,-105 141,-53 -62,-9 -76,-11 -112,32l111 6c-21,22 28,9 -32,18l-107 -3zm-191 42c27,47 120,34 178,34 27,54 80,79 159,56 37,-11 44,-31 62,-55 23,-33 3,-3 85,-34 28,-57 -33,-44 -68,-55 -25,-8 -47,-45 -70,-59 -74,-48 -144,8 -176,62 -56,1 -162,-6 -170,53zm3970 1418c34,-28 91,-40 111,-56l15 27c19,46 61,159 98,177 49,-19 94,-133 117,-179 26,-4 46,10 72,27 23,15 43,28 59,46l-36 42c-11,14 -22,31 -30,45 -32,60 -57,58 -52,103 49,32 160,25 219,6 7,70 10,86 -9,153 -53,-6 -173,-28 -217,-7 -8,38 58,153 87,183 -25,21 -95,53 -134,53 -15,-35 -24,-56 -41,-90 -16,-32 -25,-63 -57,-75 -41,22 -81,105 -109,152 -21,-1 -63,-20 -77,-32 -25,-19 -22,-25 -49,-28 -21,-2 2,7 -17,-1 30,-16 133,-124 121,-184 -62,-27 -166,-12 -230,-7 -6,-59 5,-91 4,-140 45,8 7,-10 109,4 30,4 98,15 123,-2 10,-9 16,-8 -6,-53 -25,-50 -53,-111 -95,-144 10,-6 -8,-6 28,7 -19,-44 -3,-14 -8,-28zm288 393c4,27 7,18 -9,35 -30,-7 -36,-35 9,-35zm-45 30c27,30 46,22 62,-14 -18,-44 -68,-50 -62,14zm-173 -128l17 -22c19,7 11,1 26,21 -10,9 -14,12 -24,19l-19 -17zm54 5c-2,-38 -12,-39 -52,-35 -32,60 23,80 52,35zm210 -13c16,10 20,10 18,34l-28 -2c-4,-20 0,-19 10,-31zm-23 -5c-2,24 1,36 9,52 57,11 63,-29 27,-59l-36 7zm-147 113c-4,25 3,9 -14,25 -2,-1 -26,-2 -17,-23 8,-21 21,-8 31,-2zm-48 7c31,80 114,-11 27,-33 -17,13 -17,11 -27,33zm24 -218c12,-19 29,-4 39,8l-22 19c-1,-1 -9,-11 -9,-12 -10,-16 -3,-4 -8,-15zm-8 20l18 16c62,0 55,-62 0,-61 -24,17 -22,16 -18,45zm122 20c100,14 53,-53 53,-54 -3,-3 -66,-31 -53,54zm-58 4c-110,40 -40,171 43,141 101,-36 39,-171 -43,-141zm-366 58c0,204 152,376 382,396 70,6 154,-35 210,-69 82,-50 138,-107 161,-217 12,-61 26,-54 3,-159 -8,-39 -4,-36 -19,-73 -24,-58 -35,-77 -74,-118l-23 -25c-18,-17 -63,-47 -85,-58 -145,-76 -315,-46 -436,62 -56,50 -119,163 -119,262zm-6473 68c2,-22 -8,-4 9,-25 24,6 20,-1 21,27 -24,8 -9,8 -30,-2zm14 -41c-28,14 -32,25 -24,57 30,10 46,4 56,-24 -9,-19 -14,-26 -32,-34zm24 -160c-24,1 -40,-3 -24,-31 27,2 27,4 24,31zm-41 -41c-7,33 -8,49 30,56 39,-18 26,-40 8,-60l-38 4zm-81 26c-6,11 -10,8 -23,13 -4,-14 -10,-18 -5,-28 11,-23 41,-7 29,15zm-47 -3c20,39 46,37 66,0 -13,-48 -55,-45 -66,0zm215 89c17,22 8,2 12,32l-33 -6c3,-30 0,-18 21,-26zm-32 -3c-4,26 -2,33 9,50l35 2c26,-53 -10,-78 -45,-53zm-195 17c-19,20 -40,13 -31,-16 5,-2 -11,-16 19,-1 8,4 7,8 12,17zm-50 -14l2 28 33 17c40,-28 34,-54 -5,-69 -21,9 -16,6 -29,24zm103 123c-20,12 -33,11 -28,-14 3,-2 -9,-16 18,-4 10,4 7,8 10,18zm1 20c18,-25 13,-23 6,-53 -29,-5 -38,0 -54,11 -4,39 10,50 48,42zm20 -197c-100,46 -26,167 50,140 32,-12 59,-50 45,-97 -10,-34 -58,-60 -95,-43zm-341 81l26 -98c45,6 161,30 205,11 26,-39 -52,-141 -69,-177 16,-21 23,-27 45,-38 22,-12 51,-19 77,-20 15,41 49,143 91,162 33,-16 93,-130 117,-170 42,5 108,33 131,60l-20 23c-9,8 -13,11 -21,20 -13,16 -19,30 -33,49 -79,115 -72,117 98,117 46,0 64,-28 79,26 9,35 4,77 -6,104 -51,17 -273,-57 -217,50 24,47 71,100 72,136l-46 32c-25,20 -27,18 -66,19 -38,-40 -53,-149 -109,-162 -36,22 -75,110 -102,153 -39,0 -92,-38 -115,-69 20,-24 42,-57 62,-87 30,-46 47,-57 17,-94 -42,-10 -166,-7 -203,5 0,82 55,167 117,216 87,69 40,35 134,78 213,96 552,-138 468,-448 -24,-90 -53,-128 -107,-178 -231,-215 -513,-52 -569,69 -20,45 -92,161 -56,215zm2724 -396l232 2c18,4 8,2 17,6 11,32 6,343 4,403l-303 2c34,-214 48,-142 50,-414zm-2758 349c-3,-19 12,-71 17,-86 32,-84 56,-135 118,-188 61,-52 213,-113 305,-101 488,67 467,700 94,785 -122,28 -217,41 -334,-25 -44,-25 -85,-56 -111,-93 -25,-34 -56,-84 -71,-134 -16,-55 -11,-101 -18,-159zm1456 -341c202,9 422,-5 628,-1l313 -7c107,-1 218,3 325,-1 -4,98 -19,211 -41,300 -39,159 -44,111 -211,121 -76,5 -613,19 -639,11 -19,18 -41,13 -89,14 -47,1 -238,19 -268,2 -39,-43 -49,-146 -60,-214 -13,-79 -41,-147 -56,-221l97 -5zm-184 409c-15,-66 -26,-133 -44,-199 -19,-67 -42,-128 -61,-190 -7,-8 -10,13 -6,-17 139,-11 142,-21 175,106 31,121 19,155 86,289 13,25 19,22 29,44 -20,4 -137,11 -168,5 -1,0 -4,-1 -6,-1l-5 -37zm4219 -41c-132,0 -270,8 -402,13 -140,5 -281,6 -422,6 -141,0 -282,-1 -422,2 -86,2 -360,19 -423,5 -21,16 -63,9 -88,9l-484 -1c-59,1 -143,11 -183,1l0 -411 84 -4c64,-14 252,-12 330,-12 115,0 224,8 341,8 99,0 649,-19 694,-4 8,-6 1,-7 35,-11 121,-12 470,8 636,-5 85,-7 613,-10 682,1 3,23 -4,67 -3,98l15 292c-4,14 6,7 -14,17l-374 -4zm948 -12c-90,-2 -178,2 -267,3 -86,1 -180,13 -258,11 -1,-90 19,-199 18,-307 0,-50 -12,-88 4,-101 21,-12 548,-15 615,-11 0,26 -94,188 -112,407zm1760 -416l743 -46c16,38 18,21 17,73 0,34 -7,49 -8,81 -7,223 51,145 -335,211 -88,15 -231,52 -313,53l-34 10c-153,22 -84,34 -150,-198 -25,-88 -72,-181 -72,-181l152 -3zm-1382 -363c-36,4 -114,-9 -152,-16 9,-20 91,-81 117,-100 184,-132 364,-201 609,-184 27,2 241,75 264,85 97,43 210,118 274,182 -1,1 -4,0 -4,2 -1,2 -4,2 -5,2 -26,10 -75,15 -104,16 -2,1 -5,0 -6,3 -3,6 -115,18 -125,16 -33,-7 -152,-89 -370,-88 -266,1 -368,103 -428,97 -18,-2 -56,-5 -71,-15zm-6944 88l-190 -25c16,-66 150,-174 217,-214 105,-63 192,-84 323,-113 96,-21 308,-26 409,-5 96,19 246,83 294,143 44,22 154,119 171,163 -34,12 -129,23 -171,29 -69,10 -28,8 -136,-51 -201,-110 -435,-131 -649,-55 -52,18 -89,36 -136,62 -91,51 -75,72 -131,67zm3184 -540l-1 -66c73,-17 572,-50 683,-57 237,-16 470,-24 702,-48 467,-48 952,-60 1432,-64l0 76c20,27 9,81 9,130l5 432c1,53 -4,38 -138,38 -59,0 -118,0 -177,0 -113,0 -235,7 -354,7 -709,0 -1443,27 -2146,22l-6 -49c0,-21 0,-41 -1,-62 -1,-39 -3,-79 -4,-117 -3,-80 0,-161 -3,-242zm-236 11c30,-60 39,-72 126,-67 2,-1 4,-4 5,-2 1,2 12,-8 50,-6 6,27 7,453 13,536l-226 3c0,-8 17,-182 18,-240 1,-40 2,-81 -2,-121 -5,-42 -15,-80 17,-104zm79 -982c-8,-74 25,-1092 38,-1133l40 -1c10,53 17,707 8,760l4 10c2,8 2,7 3,17 1,11 0,29 0,41 1,156 13,385 4,525 -6,93 4,199 4,293 0,100 2,200 2,300l-141 19c4,-252 27,-519 27,-782 0,-4 0,-23 1,-27 4,-20 -2,-9 9,-21zm-3991 1368l-11 117c0,1 -68,37 -69,37 -10,-77 15,-262 30,-339 21,-111 51,-192 78,-297l58 -11c-20,94 -89,203 -74,390l1 58c21,-7 36,-199 50,-266 14,-65 72,-201 69,-250l-71 16c19,-28 96,-98 124,-120 100,-77 890,-360 1046,-425 53,-22 105,-71 178,-19 -28,17 -179,59 -224,76 -244,93 -406,160 -651,268 -163,72 -271,126 -342,271 -21,42 -36,57 -53,97 -31,78 -96,309 -89,374l-41 -2c4,47 2,7 -10,24zm2198 -1240c104,-3 126,-43 106,98 -14,96 7,115 -79,147 -33,12 -49,-1 -74,-17 -69,-45 -5,-100 47,-228zm568 -34l18 -186c10,7 73,118 75,133 -44,20 -56,37 -93,53zm254 -17c-22,-13 -85,-115 -103,-139 -35,-48 -64,-93 -116,-121 -3,-16 1,-196 36,-236 18,-20 28,-33 45,-50l138 -141c18,-20 23,-39 59,-35 11,25 -54,634 -59,722zm2924 64c-7,-63 35,-167 0,-232 -19,-35 1,-173 -80,-185 -112,-18 -156,138 -153,230 1,51 16,64 55,79l-39 62c-34,52 19,63 -229,63 -101,0 -726,26 -768,4 -85,-46 -120,-146 -132,-263 -12,-114 -99,-639 -44,-712 29,-38 109,-33 167,-33l382 -12c58,-8 136,1 197,-2 34,-1 48,-8 88,-8 70,0 245,5 292,0 31,-3 44,-8 82,-8 104,1 192,0 294,-7 62,-4 134,1 197,0 68,-1 127,-8 191,-8 262,1 216,-12 216,571 0,208 17,176 -86,307 -151,191 -237,133 -443,149 -57,4 -125,13 -187,4zm1274 -1035l535 -9c90,0 485,-12 533,11 56,27 54,157 55,219 1,50 6,88 7,129 1,22 -2,46 -1,68 1,28 7,30 8,61 1,22 -2,46 0,68 5,53 15,136 14,192 -1,49 7,81 7,129 -1,62 7,79 -25,120l-863 15c-42,-124 -25,-8 -25,-135 0,-61 4,-123 -10,-176 -47,-176 -172,-33 -213,-18 -8,-89 -25,-621 -22,-674zm-4909 726c-1,-2 -2,-6 -2,-5l-14 -42c-20,-52 -2,-85 46,-135 42,-43 90,-97 133,-140 56,-56 110,-122 176,-165 33,-21 6,-28 62,-74 19,-16 22,-14 52,-9 4,22 -4,90 -12,105l-442 465zm6338 -733c-1,74 33,441 42,555 13,186 9,85 -20,160 -61,156 -23,154 28,181 -16,28 -19,26 -39,47 -22,23 -13,34 -51,44 -34,-82 -19,-161 -32,-253 -12,-90 -19,-313 -26,-411 -11,-169 -64,-327 97,-324zm-5139 1000c-18,31 -49,28 -86,34 -115,19 -220,43 -339,57 26,-227 59,-573 76,-808 9,-120 -17,-119 275,-169 132,-23 260,-33 395,-51l-37 289c-19,147 -60,524 -178,617 -15,12 -32,20 -53,30 -39,18 -22,12 -53,2zm5363 -1001c84,-7 187,-1 272,-1 74,0 176,31 180,91 -14,19 -38,25 -54,33 -5,45 -6,50 25,64 39,18 12,14 47,29 22,10 25,-4 36,65l28 218c46,364 33,282 -43,314 -14,46 -21,47 46,85 21,12 18,5 34,12 1,28 -7,48 -20,68 -23,5 -242,8 -245,8 -12,-29 2,-41 -20,-62 -10,-10 -32,-18 -48,-34 21,-67 29,-180 -3,-242 -16,-31 -35,-59 -72,-63 -74,-7 -63,17 -105,29l-57 -613zm-4929 488l-23 621c3,105 -6,212 -8,318l-14 292c-4,16 -1,8 -8,18 -39,9 -122,9 -169,13 -263,26 -590,58 -847,95 -59,8 -227,33 -285,49 -24,7 -20,3 -30,22 33,28 81,11 125,12l1183 -101c-6,42 -23,35 -30,66 -10,93 10,421 3,448 -57,4 -123,1 -181,1 -65,0 -126,7 -188,8 -122,2 -243,-6 -364,-4 -252,4 -502,0 -752,8 -171,-11 -63,20 -189,-90l-157 -124c-28,-28 -15,-153 -18,-193 -9,-110 -14,-504 -9,-591 117,-6 501,-107 649,-126 110,-14 222,-40 330,-60 113,-21 215,-35 330,-59 269,-55 387,-42 470,-308 59,-189 85,-450 110,-668 13,-119 47,-256 -84,-278 -84,-15 -276,15 -361,24 -218,23 -461,51 -631,148 -79,45 -302,294 -394,383l-186 202c-40,50 -130,123 -165,175 -14,21 -12,20 -29,30 24,-143 259,-344 335,-419l286 -273c113,-106 160,-193 328,-238 101,-27 196,-53 303,-72 181,-33 328,-47 507,-47 59,0 134,-9 190,-3l-17 539c-1,30 -3,58 -4,88 -1,26 4,67 -8,89zm6252 697c23,8 12,100 12,127l6 280c4,47 0,96 -2,143 -2,45 0,91 0,136l-18 336c-2,18 1,53 -7,68 -53,9 -484,4 -572,4l-429 7c-63,0 -86,9 -110,-35 -24,-10 -48,-38 -68,-53 -68,-53 -138,-97 -221,-133 -85,-37 -209,-53 -304,-52 -62,0 -105,-17 -222,3 -57,10 -132,15 -191,35 -31,10 -57,20 -92,31 -83,27 -163,74 -228,126 -22,18 -41,40 -69,59 -7,17 -18,29 -34,34 -20,12 -52,8 -77,8 -123,-1 -493,-1 -572,5 -22,-75 -6,-422 -9,-531l-3 -146c209,-5 571,-16 773,-29 256,-17 516,-14 772,-29 254,-15 518,-11 775,-30 246,-18 529,-19 774,-23 6,-8 -4,-12 45,-12 15,0 32,1 47,1 -9,-4 -433,-4 -494,-5 9,-7 3,-4 18,-8l42 -6c28,-6 -16,6 10,-3 1,0 4,-2 5,-2 1,0 3,-1 5,-2 -110,-40 -1203,17 -1418,17 -458,0 -954,39 -1410,49 -469,10 -940,40 -1404,64 -224,12 -457,38 -681,47 -124,5 -618,51 -693,39l-11 -721c5,-50 -10,-781 -10,-905 0,-81 -8,-237 2,-309l2785 -69 5 76c-141,5 -285,6 -423,6 -144,0 -278,7 -422,7 -131,0 -280,11 -408,12 -208,1 -424,10 -627,14 -64,1 -148,-3 -209,3 -117,13 -307,-2 -415,14 -153,23 -111,164 -106,308 7,222 54,547 82,770 16,123 33,243 119,311 95,75 216,56 366,55 133,-1 279,-14 415,-14 275,0 555,-21 831,-21 154,0 741,-25 834,-13l6 158c0,27 -8,31 11,40l5 -40 -3 -164c40,-7 77,-1 108,3l2740 -38c229,-25 292,82 256,-212 -34,-266 -61,-589 -117,-845 -80,-365 -80,-370 -597,-370 -162,0 -315,-7 -477,-3 -465,11 -963,2 -1437,10 -158,3 -321,12 -477,7 -1,-22 -5,-52 6,-72 61,-15 312,-9 396,-11 135,-4 273,-9 409,-11 274,-3 552,6 824,6 96,0 1601,2 1658,9 31,95 72,596 88,735 28,248 60,507 76,757 -48,-3 -197,4 -228,-17 -12,7 -3,-1 -11,16zm-6064 -1475c-1,-12 -7,-287 6,-298 19,-8 605,-23 680,-25 229,-7 461,-11 689,-20 231,-10 468,-1 697,-11 117,-5 235,-3 352,-5 114,-1 231,-8 347,-6l16 303c-151,11 -530,14 -697,16 -230,2 -465,11 -695,17 -233,6 -466,8 -695,17 -106,4 -640,23 -700,12zm2829 -366c533,-22 1090,-8 1624,-8 175,0 1585,-11 1624,7 9,18 53,267 50,297 -195,10 -590,-4 -815,-4 -276,-1 -548,-4 -824,-6 -274,-1 -559,-9 -831,-3 -112,3 -762,24 -815,14l-12 -297zm-4097 522c-10,8 -1,3 -16,7 -59,17 -24,-8 -97,66 -134,133 -567,546 -648,646 -46,57 -115,142 -136,231 -32,135 26,55 -130,238 -14,17 -27,32 -40,48l-42 47c-39,43 -236,291 -242,326 44,-5 62,-20 98,-34 34,-13 292,-67 321,-71 -4,31 5,45 6,75 5,207 -22,310 7,567 0,38 3,55 5,94 -72,-22 -99,-80 -353,-103 -300,-27 -647,75 -824,322 -8,12 -15,22 -24,31 -34,32 -109,24 -154,26l-250 6c-24,11 -66,7 -98,7 -18,0 -36,0 -55,0l-39 -3c-42,-12 -18,-109 -12,-137 10,-41 15,-98 22,-142 47,-319 83,-448 388,-580 158,-69 298,-126 459,-188 73,-28 394,-155 469,-176 9,-28 18,-23 48,-23 -2,-43 7,-11 9,-35 1,-21 -6,7 -9,-33 25,-17 361,-379 410,-428 44,-45 91,-96 135,-144 98,-108 304,-304 423,-415 79,-74 210,-212 285,-274 196,-161 141,-151 385,-309 88,-57 151,-108 255,-167 58,-33 129,-57 199,-80 102,-34 347,-104 458,-105l1 73 -1 126c-94,7 -475,22 -514,76 19,37 68,11 111,7 112,-11 301,-29 402,-27 4,44 7,270 -3,302 -101,6 -241,-5 -334,9 -230,34 -325,3 -613,67 -109,24 -190,58 -261,76zm1548 -524c-2,1 -4,0 -5,2 -1,2 -4,2 -6,2 -37,9 -247,11 -270,9 -7,-32 -4,-172 3,-205l1178 -46 1580 -33 11 215c-199,11 -423,10 -620,12 -417,6 -831,10 -1247,28 -82,4 -577,20 -624,16zm2536 -278c289,-11 588,-5 875,-9 287,-4 576,-12 865,-14 207,-1 1118,-29 1286,24 79,25 99,12 149,69 28,31 75,95 77,146 -118,10 -647,1 -810,1l-2030 -1c-128,0 -272,12 -400,6l-11 -222z"/>
 </g>
</svg>
