<?xml version="1.0" encoding="UTF-8"?>
<!DOCTYPE svg PUBLIC "-//W3C//DTD SVG 1.1//EN" "http://www.w3.org/Graphics/SVG/1.1/DTD/svg11.dtd">
<!-- Creator: CorelDRAW X5 -->
<svg xmlns="http://www.w3.org/2000/svg" xml:space="preserve" style="shape-rendering:geometricPrecision; text-rendering:geometricPrecision; image-rendering:optimizeQuality; fill-rule:evenodd; clip-rule:evenodd"
viewBox="0 0 13491 8432" preserveAspectRatio="xMaxYMax meet"
 xmlns:xlink="http://www.w3.org/1999/xlink">
 <defs>
  <style type="text/css">
   <![CDATA[
    .fil10 {fill:#2B2A29}
    .fil6 {fill:#A7BCC0}
    .fil8 {fill:#EF7F1A}
    .fil9 {fill:#FEFEFE}
    .fil2 {fill:#F6FCFC}
    .fil3 {fill:#6A7273}
    .fil7 {fill:#9DB9BB}
    .fil4 {fill:#A9BABB}
    .fil5 {fill:#B8CDCE}
    .fil1 {fill:#D9E4E7}
    .fil0 {fill:url(#id2)}
   ]]>
  </style>
     <mask id="id0">
  <linearGradient id="id1" gradientUnits="userSpaceOnUse" x1="6725.23" y1="3201.96" x2="6725.23" y2="1183.73">
   <stop offset="0" style="stop-opacity:1; stop-color:white"/>
   <stop offset="1" style="stop-opacity:0; stop-color:white"/>
  </linearGradient>
      <rect style="fill:url(#id1)" x="671" y="865" width="12108" height="2656"/>
     </mask>
  <linearGradient id="id2" gradientUnits="userSpaceOnUse" x1="6724.37" y1="7594.64" x2="6724.37" y2="751.118">
   <stop offset="0" style="stop-color:#7F9191"/>
   <stop offset="0.501961" style="stop-color:#D2E5E7"/>
   <stop offset="1" style="stop-color:#7F9191"/>
  </linearGradient>
 </defs>
 <g id="Слой_x0020_1">
  <metadata id="CorelCorpID_0Corel-Layer"/>
  <g id="_205880216">
   <g>
    <path class="fil0" d="M12388 564c67,14 122,55 184,76l-7 -21 30 -61c60,24 190,102 216,153 50,64 93,99 139,175 43,70 76,153 96,233 41,163 23,457 23,634l0 5228c0,220 12,353 -94,555 -157,302 -472,491 -817,490 -3484,-5 -6971,0 -10456,0 -394,0 -727,49 -1043,-273 -94,-96 -229,-295 -230,-428 40,108 157,201 190,228 -115,-149 -124,-749 -124,-970l0 -5093c0,-64 -1,-130 -1,-194 1,-68 13,-134 30,-197 -19,-3 -35,-11 -85,-6 16,-91 67,-195 120,-271l140 -150c12,-11 40,-37 56,-51 167,-140 392,-187 608,-186 1578,9 3176,1 4756,1l5548 0c161,0 634,-23 749,52 -12,39 -28,36 -31,75zm-12388 7073l0 -351 0 -6223 0 -251c4,-60 13,-115 34,-151 64,85 22,148 58,209 37,-29 40,-107 58,-155 54,-144 131,-278 248,-375 172,-142 377,-224 605,-228 553,-10 1116,0 1670,0l9595 0c67,0 378,13 414,-3 -4,-26 3,-1 -5,-20 -1,-2 -2,-8 -9,-15 -14,-16 -66,-43 -99,-73l6 0 5 0 5 0 5 0 5 0c98,0 129,2 228,35 68,22 131,55 193,93 68,42 275,206 302,285 130,197 107,304 82,449 2,57 -33,101 -33,158l0 6172c0,230 19,391 -88,603 -77,152 -158,292 -319,369 -62,30 -108,75 -226,118 -173,63 -773,39 -988,39l-9595 0c-264,0 -1160,16 -1357,-18 -494,-43 -655,-431 -776,-586 -8,-20 -14,-48 -17,-81z"/>
    <path class="fil1" d="M2607 835c59,-17 446,-6 538,-6l7648 0c76,0 151,0 178,88 21,68 -9,153 -82,172 -65,16 -446,4 -543,4l-7648 0c-79,0 -154,2 -179,-88 -21,-76 13,-148 88,-170zm-2090 279c-3,59 -19,115 -20,184 -1,64 1,130 1,194l0 5093c0,221 -20,554 25,759 8,43 67,179 97,209 73,-1 198,98 278,120 55,15 71,8 162,35 62,18 103,30 170,31 266,5 535,1 801,1l9562 0c226,0 553,28 761,-40 112,-37 149,-72 237,-143 60,-48 48,-40 85,-101 21,-34 24,-2 44,-58 29,-83 14,31 57,-138l20 -3c-1,-41 26,-246 26,-370l0 -5186c0,-122 -8,-278 0,-397 12,-165 43,-271 50,-357 -13,-65 -91,-123 -125,-172 -11,-5 -168,-127 -176,-138 -61,-21 -117,-62 -184,-76 -36,-1 -128,-24 -172,-30 -53,-8 -136,-4 -192,-4 -3510,-4 -7022,6 -10531,0 -253,0 -426,-8 -642,142 -292,202 -286,405 -332,443z"/>
    <path class="fil2" style="mask:url(#id0)" d="M12762 3283c36,-116 5,-2261 3,-2418l-12059 1c59,374 -212,2530 189,2646 55,16 1978,6 2131,6l9132 0c89,0 329,13 399,-14 90,-34 201,-116 204,-221z"/>
    <path class="fil3" d="M17 7717c24,143 148,336 251,438 194,193 370,257 568,276l555 0 11201 0c195,-1 352,-63 511,-185 132,-102 243,-238 307,-393 60,-144 77,-250 81,-367l0 -252 0 -5599 0 -11c0,-229 -2,-460 0,-689 1,-127 -77,-445 -180,-523 36,40 73,262 53,438 2,57 3,112 4,169l0 6172c0,230 19,391 -88,603 -77,152 -158,292 -319,369 -62,30 -108,75 -226,118 -173,63 -773,39 -988,39l-9595 0c-264,0 -1160,16 -1357,-18 -533,-91 -746,-588 -776,-586z"/>
    <path class="fil3" d="M2607 835c-75,22 -109,94 -88,170 25,90 101,87 179,88l7648 0c96,0 478,13 543,-4 73,-18 103,-103 82,-172 -27,-88 -102,-88 -178,-88l-7648 0c-92,0 -479,-11 -538,6z"/>
    <path class="fil4" d="M769 7718c48,91 297,183 398,203 141,28 430,12 587,12l10194 0c211,0 332,16 533,-65 272,-109 493,-404 496,-701 4,-401 0,-804 0,-1206l0 -4199c0,-103 21,-549 -17,-613l-22 49c-22,196 -19,155 -20,362 -5,1806 5,3615 0,5422 -1,241 -1,114 -56,332l-9 -23c-21,162 -213,361 -357,426 -231,105 -460,87 -709,87l-10304 0c-90,0 -400,4 -467,-25l-158 -44c-34,-12 -55,-8 -89,-16z"/>
    <path class="fil3" d="M12562 641c487,334 415,550 415,1121l0 4199c0,401 4,805 0,1206 -3,298 -224,592 -496,701 -201,81 -322,65 -533,65l-10194 0c-157,0 -445,16 -587,-12 -101,-20 -349,-112 -398,-203 -35,-16 -130,-121 -149,-164 -59,-61 -147,-158 -189,-227 1,132 136,332 230,428 315,322 648,273 1043,273 3485,0 6971,-5 10456,0 345,1 660,-188 817,-490 105,-202 94,-335 94,-555l0 -5228c0,-177 18,-471 -23,-634 -20,-80 -54,-163 -96,-233 -65,-154 -318,-341 -352,-338 -48,2 -21,52 -36,93z"/>
    <path class="fil5" d="M34 660c64,85 22,148 58,209 37,-29 40,-107 58,-155 54,-144 131,-278 248,-375 172,-142 377,-224 605,-228 553,-10 1116,0 1670,0l9595 0c67,0 378,13 414,-3 -4,-26 3,-1 -5,-20 -1,-2 -2,-8 -9,-15 -14,-16 -66,-43 -99,-73l-11540 0 -201 0c-55,3 -110,12 -178,35 -265,88 -562,367 -617,625z"/>
    <path class="fil5" d="M620 7554c19,43 113,148 149,164 34,8 55,5 89,16l158 44c68,30 378,25 467,25l10304 0c249,0 478,18 709,-87 144,-65 337,-265 357,-426l9 23c55,-217 55,-91 56,-332 5,-1806 -5,-3616 0,-5422 1,-207 -2,-166 20,-362l22 -43c5,-47 -63,-206 -98,-236 -7,86 -27,223 -40,388 -9,118 0,274 0,397l0 5186c0,124 -26,328 -26,370l-20 3c-43,169 -27,55 -57,138 -19,55 -23,24 -44,58 -37,61 -26,53 -85,101 -89,71 -125,106 -237,143 -207,68 -535,40 -761,40l-9562 0c-266,0 -535,4 -801,-1 -68,-1 -108,-13 -170,-31 -91,-27 -107,-19 -162,-35 -80,-22 -205,-121 -278,-120z"/>
    <path class="fil5" d="M523 1116c8,-29 35,-242 327,-444 217,-150 390,-143 642,-142 3509,6 7022,-4 10531,0 56,0 139,0 192,8 227,20 321,92 346,104 8,-35 25,-48 34,-89 -265,-182 -766,-115 -927,-115l-5548 0c-1579,0 -3178,8 -4756,-1 -215,-1 -440,46 -608,186 -85,70 -123,117 -197,201 -53,76 -104,181 -120,271 40,6 59,7 81,21z"/>
    <ellipse class="fil6" cx="6691" cy="7510" rx="5333" ry="158"/>
   </g>
   <g>
    <path class="fil7" d="M8253 1576c-60,77 -166,299 -203,396 -173,454 573,462 408,3 -24,-67 -163,-357 -205,-398z"/>
    <path class="fil7" d="M3662 1577c-40,38 -178,326 -202,392 -33,87 -46,152 3,237 135,233 524,89 404,-227 -32,-84 -151,-339 -205,-402z"/>
    <path class="fil7" d="M5179 1576c-50,51 -173,312 -204,391 -34,87 -47,156 3,241 139,232 519,86 404,-227 -46,-124 -132,-290 -204,-404z"/>
    <path class="fil7" d="M6739 1576c-57,74 -166,295 -202,391 -175,465 570,459 407,12 -36,-98 -143,-320 -205,-403z"/>
    <path class="fil7" d="M7370 1420c-4,39 -56,132 -73,178 -109,289 158,405 319,318 261,-141 -6,-517 -100,-693l-15 -18c-58,55 -70,166 -131,215z"/>
    <path class="fil7" d="M8989 1228c-8,55 -212,355 -207,498 6,148 153,256 302,209 39,-12 100,-65 110,-66 62,-145 83,-142 -14,-356 -43,-94 -107,-224 -164,-309l-27 24z"/>
    <path class="fil7" d="M4293 1421c-9,85 -115,195 -100,322 31,264 419,271 460,8 21,-134 -90,-241 -99,-330 -53,-44 -78,-162 -130,-215 -54,55 -74,170 -130,215z"/>
    <path class="fil7" d="M5811 1416c-5,69 -113,197 -105,317 8,118 107,210 226,213 118,3 224,-87 236,-204 14,-131 -99,-252 -105,-333 -33,-26 -98,-161 -121,-207 -56,45 -77,169 -131,213z"/>
    <path class="fil7" d="M9571 1867c-2,38 -47,122 -59,174 -53,227 242,369 387,211 183,-199 -75,-479 -156,-675 -53,32 -123,249 -172,290z"/>
    <path class="fil7" d="M2653 1713c6,205 247,310 383,177 70,-69 99,-136 70,-238 -17,-60 -91,-204 -95,-240 -44,-33 -86,-153 -124,-206l-18 21 -115 214c-41,83 -91,181 -101,273z"/>
    <path class="fil7" d="M10297 1576c0,41 -94,205 58,322 106,82 233,55 320,-34 175,-180 -141,-534 -151,-637l-26 -23c-44,67 -177,350 -200,372z"/>
   </g>
  </g>
  <path id="cvet" fill="#EF7F1A" d="M1978 5532c0,0 310,-123 931,-215 622,-92 996,-71 1356,-106l26 -16 54 -11 73 -37 35 -28 4 11c0,0 195,176 297,57 102,-119 790,-996 594,-948l-68 17 9 -9 37 -47 47 -28c0,0 116,-126 1434,-137 1317,-12 1578,36 1744,31l191 6 266 62c0,0 137,49 172,105 35,56 -36,33 -25,78 11,45 433,631 433,631l178 226c0,0 44,69 150,14l57 -37 57 23 175 57 436 40 940 116c0,0 181,65 153,374 -28,309 -59,408 -192,459l14 59 -340 20 -108 345 238 20 -20 31 -59 34 -91 11c0,0 -331,229 -682,8l-113 -8 -249 -8c0,0 -119,-665 -609,-637 -490,28 -736,-11 -869,374 -133,385 -136,410 -427,439l-243 -20 -340 0 -3371 48c0,0 -320,-928 -640,-928 -320,0 -770,-238 -1073,691l-40 40 -59 31 -76 14 -34 -20 0 -37 25 -42 25 -76 -99 -277 -159 -65 -40 -45 -6 -62 -51 -51 -68 -572zm5086 -339l-5 -260 1 -226 -4 -202 0 -35 1 -65 6 -75 200 -1 493 11c0,0 728,-55 830,259l340 611 -1715 6 -125 6c0,0 -25,-25 -22,-28zm-1799 -378l300 -410c0,0 65,-48 280,-57 215,-8 1011,-23 1011,-23l-31 880 -1353 6 -133 -224 -74 -173zm-760 256l60 -57 2 -2 -43 47 -18 12z"/>
  <path class="fil9" d="M2485 6406l-103 -131c0,0 99,-282 587,-508 0,0 -214,-4 -488,23l0 12 1 38 -15 8 -65 5 -65 -2 -25 -13 -5 -27c-85,11 -172,26 -257,44 0,0 40,-30 262,-66l5 -16 21 -6 65 -7 59 -2 15 7c143,-18 333,-37 585,-53 901,-60 4086,-103 4086,-103l2607 83c0,0 -1896,-8 -3091,12 -1194,20 -2670,135 -2698,151 -28,16 -56,20 40,79 0,0 262,210 381,516l-100 7c0,0 -38,6 -63,-56 0,0 -175,-547 -678,-565 0,0 -395,-34 -557,50 0,0 -339,115 -488,516l-4 7 -8 -2zm7838 58c0,0 103,47 161,55l-224 8c-10,0 4,-611 -996,-585l-372 42c542,-184 1320,-99 1431,480zm-6989 -73c270,0 488,219 488,488 0,270 -219,488 -488,488 -270,0 -488,-219 -488,-488 0,-270 219,-488 488,-488zm5866 -2090c0,0 575,563 773,832l-116 68 -79 -14 -626 -852 17 -45 31 11zm-2136 892l-5 -260 1 -226 -4 -202 0 -35 1 -65 6 -75 200 -1 493 11c0,0 728,-55 830,259l340 611 -1715 6 -125 6c0,0 -25,-25 -22,-28zm-1799 -378l300 -410c0,0 65,-48 280,-57 215,-8 1011,-23 1011,-23l-31 880 -1353 6 -133 -224 -74 -173zm-809 314c0,0 195,176 297,57 102,-119 790,-996 594,-948l-79 20c0,0 -281,298 -745,802l-47 30 -28 20 7 21zm4850 1317c270,0 488,219 488,488 0,270 -219,488 -488,488 -270,0 -488,-219 -488,-488 0,-270 219,-488 488,-488z"/>
  <path id="kontur" class="fil10" d="M9539 6550c42,19 135,99 152,148 50,27 165,370 -92,579 -82,66 -188,106 -304,104 -115,-2 -214,-56 -291,-123 -30,-26 -65,-77 -86,-117 -26,-49 -39,-94 -46,-156 -28,-228 114,-408 322,-480 88,-30 294,-17 346,44zm148 -1761c-7,-27 -117,-140 -143,-168 -66,-70 -69,-81 -144,-148 -32,-28 -157,-157 -188,-179l-1 -44 -13 -5 -17 -16c-29,-20 -33,1 -42,13 -5,7 -9,12 -13,18 -9,16 -6,34 -7,56 9,68 99,185 136,234l466 637c16,11 16,2 22,33 -102,2 -197,10 -298,12 -98,2 -197,-4 -296,-7l-27 -44c-1,-1 -3,-3 -4,-4 -1,-1 -3,-3 -4,-4l-23 -50 25 2 512 12 -14 -38c-16,-24 -31,-47 -50,-73 -20,-27 -29,-44 -50,-70l-195 -2 -324 -5c-38,-79 -56,-100 -102,-183 -55,-100 -207,-338 -295,-414 -46,-39 -65,-33 -82,-59 -39,-3 -106,-54 -357,-67 -122,-6 -298,-6 -400,-14 -129,-11 -283,1 -417,-4 -242,-9 -1450,9 -1643,37 -139,20 -213,57 -280,134 -10,19 -22,25 -49,57 -43,50 -90,108 -129,163 -94,131 -238,328 -324,462 -51,80 -103,155 -155,234l19 29c-14,6 -34,18 -43,27 -16,14 -13,23 -27,40l-18 238 -10 162c-10,35 -12,225 -12,275 0,49 0,97 0,146 0,46 6,86 3,132 13,21 6,179 20,247 17,80 76,105 159,97 98,-9 405,-10 519,-11 356,-3 703,-11 1058,-16 524,-7 1058,-22 1577,-26 89,-1 177,3 266,0 45,-2 71,-8 98,-34 33,-33 29,-59 54,-87 11,-64 77,-219 106,-272 119,-215 208,-254 426,-328 123,-42 125,-66 138,-230 1,-29 1,-54 5,-82 3,-18 2,-19 2,-36 1,-21 -5,-22 9,-30 -5,-46 8,-136 12,-183l-1 -83 31 -2c65,-1 619,3 675,-8 32,-6 136,-45 155,-66 14,-11 -18,-10 18,-9 12,37 50,32 85,59 -9,38 -48,43 -84,63 7,5 3,10 39,4 52,-9 58,-17 82,-46 6,-7 5,-6 10,-11 95,12 542,59 595,76 -82,4 -443,-10 -487,9 55,20 239,-8 277,15 62,-10 204,10 274,14 279,13 525,46 800,58 43,64 77,95 105,194 41,144 -38,340 -65,489 -11,57 -20,56 -67,79 -29,14 -68,35 -99,44l-26 20c30,18 42,-8 71,13 -8,16 17,16 -72,15 -313,-5 -260,-29 -298,99l-57 208c-50,162 16,104 205,108 -11,23 -13,18 -46,18l-444 4c-114,1 -412,24 -493,11l-2 -66c-40,-5 -49,45 -61,66 -79,5 -113,-77 -136,-138 -71,-187 -133,-367 -327,-452 -19,-8 -12,-2 -24,-16 -23,-2 -78,-20 -105,-26 -135,-34 -467,-38 -597,-14 -140,25 -139,41 -197,55 -5,6 -3,5 -11,12 -67,54 -79,40 -156,154 -42,62 -75,157 -101,228 -50,135 -49,250 -187,307 -36,15 -20,18 -57,26 -142,34 -245,13 -395,16 -109,2 -220,1 -329,0 -219,-1 -440,2 -659,3 -644,3 -1294,23 -1944,30 -216,2 -435,10 -652,7l-13 -27c-68,-18 -79,-4 -118,-117 -92,-262 -182,-597 -426,-745 -108,-66 -245,-82 -394,-81 -329,3 -525,45 -673,263 -122,180 -154,379 -223,481 -14,21 -41,51 -60,60 -19,8 -81,29 -95,14 -30,-31 59,-81 68,-103 8,-19 -92,-351 -114,-365 -35,-6 -72,-2 -103,-13 -107,-38 -70,-36 -94,-107 -11,-35 -9,-32 -34,-53l-25 -240 0 -12c-1,-1 -2,-3 -3,-4 -8,-17 -11,-44 -13,-72l-19 -161c131,-95 588,-139 781,-157 40,-4 842,-68 869,-66 -11,-12 14,-7 -26,-12 -40,-5 -387,11 -419,14 -69,6 -150,8 -221,13 -226,14 -393,37 -621,70 -83,12 -204,38 -283,67 -22,8 -63,29 -85,31l-1 -46c57,-43 410,-120 502,-134 92,-14 179,-30 272,-45 335,-54 519,-64 861,-87 102,-7 203,-14 304,-16 98,-2 196,-19 291,-21 25,37 11,49 59,80 23,14 77,33 106,20 -38,-29 -120,-50 -120,-126 53,-17 49,8 97,-23 17,-11 9,-7 29,-15 37,44 122,69 203,70 83,1 157,-38 187,-84 7,-15 1,-5 12,-18 39,-47 34,-34 78,-99 70,-105 178,-256 249,-352 58,-79 113,-154 173,-233 29,-38 137,-190 72,-240 -14,-11 -19,-8 -22,-19 -1,-3 -2,-3 -3,-5 139,-48 246,-80 414,-100 158,-18 311,-19 474,-31 246,-18 733,-12 1002,-14 336,-2 662,16 994,22 163,3 325,16 488,22 77,3 144,17 212,38 89,28 90,30 176,75l2 -9c-6,-41 -134,-84 -163,-94 -84,-28 -260,-50 -348,-51 -47,-1 -259,-26 -304,-26 -99,0 -97,1 -197,-6 -41,-3 -91,1 -133,0 -36,-1 -46,-7 -126,-7 -46,0 -75,-6 -127,-6 -178,0 -343,-7 -526,-7 -31,0 -53,7 -126,7l-393 6c-31,1 -29,6 -57,7 -59,2 -146,-6 -199,4 -41,7 -88,2 -131,2 -31,0 -53,7 -127,7 -77,0 -81,5 -126,7 -43,2 -90,-1 -133,0 -31,1 -29,6 -57,7 -23,1 -47,-1 -70,0 -26,1 -27,5 -57,7 -22,1 -37,5 -61,9 -95,17 -134,25 -220,46 -66,16 -121,59 -133,64 -28,11 -28,0 -42,27 -1,1 -3,1 -4,3 -2,8 -10,-10 -10,47l-39 37c-41,46 -31,18 -37,50 -20,-8 -4,-8 -20,6 -1,1 -2,3 -3,4l-12 13c-92,85 -221,220 -314,313l-133 146c-31,39 -24,27 -49,53 -18,19 -10,5 -10,24 -78,0 -31,40 -105,6 -41,-19 -30,-3 -32,7 -25,-2 -4,-12 -52,36 -15,15 -32,34 -48,47l-49 39c-46,35 -43,33 -45,54 -16,-8 -15,-5 -30,11 -12,13 -13,15 -17,34 13,25 18,24 32,44 -33,1 -59,12 -95,13 -96,1 -220,19 -311,19 -74,0 -66,5 -101,7l-209 13c-17,0 -40,-1 -57,0l-197 18c-63,7 -177,9 -257,22 -183,30 -378,44 -576,83 -138,27 -327,52 -450,101 -15,6 -23,11 -38,19 -42,21 -14,9 -60,47 -37,31 -16,150 -13,180 1,11 -11,61 8,150 20,92 7,54 14,94 3,16 10,23 11,46 2,36 -1,20 8,49 12,37 1,50 28,80 19,21 34,42 65,49 1,28 6,30 6,63 -19,2 -156,56 -175,85 -34,51 -25,31 -37,48 -28,5 -35,4 -36,38 -1,44 -2,185 4,213 12,54 54,47 94,30 35,-15 81,-2 131,-2l0 38 17 0c-1,9 -9,8 8,4l7 15c85,0 70,7 88,-15 21,5 9,3 7,-4 19,-8 4,7 20,-11l5 -14 44 0c-1,8 -17,7 45,6 98,-2 -6,50 31,121 34,64 135,-7 166,5l19 13 19 -6 84 11c-1,69 -1,123 6,185 6,50 21,119 38,162 42,106 62,118 114,190 16,23 33,33 49,53 12,19 25,25 46,43l55 33c74,38 28,23 121,56 157,56 312,46 481,27 105,-12 111,-11 202,-64 40,-23 121,-88 145,-127 13,-19 33,-35 66,-80 31,-44 32,-46 75,-77 75,-54 116,-132 142,-156 14,-30 28,-71 68,-77 35,-6 105,-2 144,-2l18 6c233,0 478,13 723,13 74,0 100,6 139,7 27,1 50,-6 64,-6 14,0 42,5 70,5 46,0 108,-3 152,0 70,5 56,7 139,6 85,0 48,-4 111,34 19,12 23,16 46,24 8,3 18,6 28,10 15,6 9,6 27,11 56,16 138,10 199,9 32,0 35,8 70,7l139 0c57,0 87,11 171,-38 70,-40 -2,-33 177,-32 51,0 118,-8 190,-7 73,1 0,10 126,0 122,-9 324,15 450,1 57,-6 60,-22 103,-37l111 -54c33,-16 48,-33 76,-30 64,5 171,42 229,19 53,-21 53,-13 110,-3 87,16 274,51 352,60 103,13 60,-5 124,116 48,92 110,129 130,162 8,13 15,25 23,40 45,78 127,158 199,212 151,114 319,109 506,109 76,0 167,-10 232,-40 51,-24 134,-61 168,-106 19,-5 9,-3 24,-14 41,-31 127,-135 134,-174 18,-11 24,-31 33,-52 13,-34 41,-85 48,-129 7,-42 -2,-52 33,-67 41,4 91,24 129,14l-45 -290 147 2c1,4 2,5 3,8 5,43 9,17 9,106 0,65 -1,324 11,360 22,-3 36,-19 52,-28 1,-47 -16,-402 -9,-426 4,-14 0,-5 8,-13 20,5 77,37 108,51 20,9 39,12 61,21 70,28 301,27 382,17 195,-23 242,-96 310,-101 36,-3 110,-1 142,-23l23 -15c11,-9 11,-13 13,-32l180 -10c140,-25 206,22 242,-62 7,-17 24,-58 33,-69 23,-27 38,-111 34,-144 -2,-18 0,-10 -7,-14 -1,-19 -7,-49 -12,-62 -10,-23 -20,-26 -32,-44l-186 -19c-4,-8 3,-3 -7,-10l-25 -13c-17,-10 -1,0 -11,-8 54,-5 76,-48 96,-100 55,-140 11,-97 69,-128 0,-48 9,-49 16,-91 22,-126 10,-160 17,-199 3,-21 12,-20 -2,-45 -14,-25 -25,-19 -38,-20 0,-116 -58,-236 -162,-287 -53,-26 -307,-47 -354,-58 -19,-4 -23,-8 -42,-9 -98,-7 -192,-21 -285,-31 -33,-4 -62,2 -129,-10 -35,-6 -49,-6 -85,-10 -51,-6 -110,-11 -165,-12 -24,0 -26,-3 -39,-5 -15,-2 -28,0 -42,-2 -88,-10 -184,-11 -260,-19 -22,-2 -53,-9 -77,-12 -65,-7 -77,-36 -112,-72 -23,-23 -23,-29 -53,-42 -41,-18 -60,-64 -89,-94 -35,-37 -153,-177 -176,-191zm-2699 -523l1 4c5,9 10,-13 9,56l-2 678c0,43 -11,186 -8,216 6,57 -4,10 13,31 14,-17 14,-11 13,-51 -2,-126 4,-268 -1,-391 -11,-34 -10,-514 0,-535 73,-15 436,-10 552,-9 63,1 133,1 196,3 88,-10 449,13 552,26 209,26 264,91 356,226 76,112 146,235 220,362 76,129 139,234 211,368 14,11 7,-8 11,19l-1 107c-3,12 -3,8 -7,14l-17 250c-1,10 -2,27 -3,35l-7 18c3,33 -5,98 -16,129 -36,105 -234,32 -450,272 -49,54 -71,106 -110,170 -9,22 -18,39 -26,61l-19 45c-6,10 -5,6 -9,10 2,26 -39,135 -50,165 -25,64 -67,70 -147,71 -136,1 -293,-5 -427,4 -133,9 -285,5 -422,6 -67,1 -148,-2 -213,4 -61,6 -143,7 -206,4l2 -259c3,-42 -5,-460 -5,-520 0,-82 4,-181 -2,-260l-1 -147c-17,-26 -10,-103 -14,-147l-5 -34c0,-2 -2,-2 -3,-5 0,-3 -2,-3 -3,-5 -10,13 -5,-14 -10,21l3 62 14 255 4 83 2 611 -4 341c-27,5 -567,12 -642,13 -425,3 -853,15 -1273,20 -354,4 -334,49 -341,-308 -8,-35 -11,-205 -11,-247 0,-86 3,-169 4,-254 2,-51 5,-94 8,-144 2,-26 -6,-114 16,-127 -6,-20 12,-194 24,-214 15,-22 19,-19 41,-32 33,-21 34,-36 56,-53 37,-28 121,-172 150,-216l207 -305c18,-21 5,-8 23,-17 17,-54 190,-274 225,-319 103,-129 187,-139 402,-139 182,-1 358,-3 538,-8 132,-3 416,-24 536,-7 10,107 -7,597 -15,727 -4,72 -10,168 -6,241 6,13 -3,8 14,9 7,-38 -2,-160 1,-175 3,-20 4,-13 7,-17 -5,-51 11,-321 15,-388 8,-129 -1,-270 9,-396l40 -6zm-1737 29c22,-12 9,-5 26,-22 11,-11 11,-12 27,-12 25,5 41,26 51,40l-18 27c-24,69 -126,176 -170,234 -16,21 -27,38 -41,60 -44,70 -230,319 -290,407 -35,51 -92,133 -159,146 -19,3 -57,2 -75,-3 -14,-4 -4,0 -13,-7 -39,1 -97,-26 -107,-54 16,-17 37,-32 53,-47 19,-18 32,-33 50,-52l286 -309c61,-68 132,-135 193,-206l187 -203zm-815 709l0 6 -7 -5 7 -1zm6 -6l-6 6 6 -6zm0 0l68 -71c8,15 10,17 14,33 -20,13 -53,36 -82,38zm0 32c22,0 46,-19 73,-35 23,-13 -5,-7 28,-10 4,5 5,15 6,19l-55 59c-30,30 -42,8 -61,34 -14,19 -9,0 -5,21 -20,-3 -13,-2 -30,-6 5,-18 0,-9 14,-24 17,-17 12,-4 18,-31 12,1 7,14 15,-6 10,-23 1,-10 -3,-22zm2343 670c-1,36 59,44 81,1 9,-91 -98,-80 -81,-1zm1494 -542c-11,-43 -2,-573 -3,-704 0,-45 -10,-62 30,-44 32,15 44,10 45,56 4,117 20,663 9,693l-80 -1zm393 -1c1,-18 36,-125 54,-142 25,47 23,24 -7,99 -15,36 -7,44 -47,43zm-253 -648c29,15 82,117 100,144 32,49 59,104 89,152 54,87 50,71 15,173 -20,58 -41,128 -63,179l-128 -1 -11 -647zm-1348 644c-14,-21 -6,-348 -6,-402 0,-105 -15,-312 1,-404 94,-5 193,5 291,4 145,-1 750,6 860,35l-1 771 -786 -5c-7,-29 -3,-61 -6,-91 -10,-102 -44,-305 -60,-414 -17,-116 -176,-65 -228,9 -32,46 -40,273 -42,334 -1,37 -1,145 -23,162zm1981 90l-274 -463c-75,-125 -191,-358 -325,-410 -199,-77 -1128,-62 -1398,-69 -7,40 1,905 2,941 83,14 1624,-8 1945,5 26,1 35,13 49,-3zm-450 165l0 91 334 -2 -4 -90c-51,-4 -112,-1 -163,0 -42,1 -121,-4 -151,-1l5 -16c72,-4 261,-6 323,6 7,36 14,80 -4,112 -9,8 -338,21 -356,-10 -8,-29 -9,-69 3,-97 20,-6 6,-2 12,6zm333 125c50,-23 28,-125 14,-156 -71,-14 -236,0 -318,0 -70,0 -60,18 -61,84 0,66 8,75 73,74 63,-1 245,12 292,-2zm-2109 -124c-107,4 -213,17 -323,10l2 94c60,-16 139,4 202,-8 2,1 4,0 5,3 1,2 4,2 5,2 18,4 -7,3 38,3 22,0 28,-2 46,4 -25,17 -51,9 -78,7 -64,-6 -194,2 -230,-13 -8,-26 -8,-70 -1,-95 13,-21 223,-22 275,-24 94,-3 78,2 80,34l-22 -17zm-330 130c53,6 140,1 197,1 42,0 156,3 170,-22 6,-42 8,-98 -6,-134 -37,-20 -216,-5 -278,-5 -45,0 -99,-10 -105,38 -2,17 -1,57 -1,76 1,33 4,32 23,47zm-1267 -360c-9,-16 -8,-230 13,-267 19,9 34,32 37,54 6,39 -37,190 -50,213zm61 -346c13,-34 176,-255 209,-299 132,-175 139,-147 344,-163 100,-8 933,-28 997,-21l-7 262c-4,49 -8,27 -22,63 5,28 17,29 16,57 0,15 -4,34 -5,57 -2,112 -5,261 -31,365l-48 1 -12 -36 -24 2c-8,14 -3,16 -3,35 -97,5 -193,6 -291,7 -85,1 -847,22 -855,18l-268 -347zm-203 172l-69 99c-26,38 -31,35 -67,97 -16,27 -38,51 -44,78l300 -3 1474 -21c5,-2 -7,-2 17,-5 7,-1 18,-1 26,-1l133 -4c2,-44 -4,-57 6,-81l29 -861c-107,-3 -208,7 -313,8 -216,2 -746,10 -907,30 -142,17 -177,99 -264,212 -117,151 -220,315 -319,451zm-735 1712c3,27 19,79 29,108 29,4 189,-4 245,-5 84,-1 169,-2 253,-3 163,-2 328,-8 494,-10 332,-3 669,-10 1000,-16 167,-3 336,-5 501,-8 168,-3 347,4 513,-4 155,-8 329,-8 488,-15l374 -7c45,6 75,9 125,5 12,-23 26,-71 31,-104 -42,0 -80,-9 -124,-3 -27,4 -14,9 -50,10l-830 12c-334,3 -670,21 -1007,24 -338,3 -674,12 -1013,15 -166,2 -341,11 -507,6 -86,-3 -173,-1 -260,0 -88,1 -174,-4 -262,-6zm4986 267c81,-83 -38,-145 -74,-73 -10,19 -4,39 11,58 16,20 37,17 64,15zm-111 -388l68 -9c14,20 6,13 25,19 22,8 15,8 32,11 7,-8 2,-1 7,-12 0,-1 1,-3 2,-4 0,-1 1,-3 2,-4 0,-1 1,-3 2,-4 12,2 24,3 35,6 35,10 14,18 43,37 18,11 8,1 23,21 11,-6 5,-3 11,-7l15 -12 40 35c-6,21 25,54 30,58 16,12 18,-1 34,17 2,3 12,21 19,29 -6,30 -24,-1 -1,54 2,5 5,12 9,16 1,1 3,2 4,3l14 7 7 53 -21 11c4,71 -9,39 17,65 -15,73 -19,55 -43,59 -9,54 -16,13 -7,68l-33 42c-23,-7 -8,-8 -39,-4 -12,23 -19,24 -18,56 -20,4 -36,11 -46,12 -29,4 -44,-17 -67,15l-15 25 -51 7c-10,-16 -11,-29 -38,-29 -27,1 -28,11 -38,25l-56 -11c0,-19 2,-56 -44,-48 -18,4 -8,5 -27,13l-46 -33c7,-16 6,-11 12,-26 -18,-38 -20,-38 -62,-29l-30 -53 24 -19c-1,-31 -4,-38 -27,-48 -23,-10 -16,22 -25,-54 1,-1 3,-5 4,-4l12 -9c33,-24 14,-53 -9,-70l14 -62c19,11 10,11 34,2 25,-46 12,-33 -1,-67l31 -46c15,3 13,5 25,2l29 -9c1,0 4,-1 5,-1l2 -46c20,-10 31,-12 43,-28l31 11c6,1 15,1 17,2 20,5 -15,4 14,4 11,-12 11,-22 5,-39zm-223 540c36,34 46,54 92,87 22,16 96,55 129,55 128,28 247,-5 337,-96 120,-121 148,-300 56,-450 -49,-79 -31,-42 -59,-75 -8,-9 -2,-2 -10,-14 -31,-7 -84,-63 -146,-72 -195,-26 -308,36 -387,146 -38,53 -67,119 -67,198 0,116 16,129 56,220zm-6686 -1299c-9,-63 0,-72 63,-63l7 53c-28,13 -36,19 -70,10zm153 -64l2 65c-27,4 -52,7 -56,-17 -7,-45 -11,-58 54,-48zm-161 -17c-15,35 -6,48 -5,89 8,27 52,17 85,16 30,-1 75,6 97,-8 8,-31 8,-72 2,-93l-28 -8c-28,-2 -131,-1 -152,4zm1003 1076c-64,22 -33,123 38,98 57,-21 34,-123 -38,-98zm-116 -266l60 -21c2,3 3,4 4,7l11 17c9,8 15,8 28,5 27,-6 25,-24 34,-39l54 0c0,42 11,49 54,46 0,0 6,-8 7,-10 1,-1 4,-6 5,-8l6 -8 57 27c-23,60 18,61 57,44 11,11 22,25 33,35 -6,29 -23,59 10,73 43,18 28,-16 46,50 -13,20 -18,14 -12,70l25 10c1,101 -49,26 -44,110 13,15 9,8 23,19l-27 49c-38,5 -32,4 -53,22l3 47c-37,13 -86,17 -100,40 -12,19 -3,12 -3,33l-53 17c-19,-25 -24,-25 -62,-16 -9,13 -7,16 -14,28l-51 -3c-21,-75 -82,-19 -82,-19l-46 -21c0,-39 -6,-39 -30,-55l-31 9c-20,-20 -23,-25 -38,-42 17,-24 9,-53 -15,-61 -25,-8 -22,26 -41,-59 20,-17 20,-8 17,-57 -13,-12 -16,-9 -28,-19l0 -61c20,3 31,12 39,-16 2,-9 3,-19 0,-28 -4,-12 -9,-13 -18,-21l28 -62c27,11 -8,9 30,10 30,-25 23,-35 12,-62l44 -41c45,41 73,-5 61,-39zm-163 512c30,35 108,122 174,134 123,43 245,30 338,-38 135,-99 192,-249 145,-409 -17,-58 -38,-79 -60,-122 -28,-23 -44,-49 -81,-74 -23,-15 -76,-42 -104,-50 -111,-1 -129,-27 -237,19 -126,53 -222,180 -227,315 -4,124 19,130 53,224zm360 -634c61,-6 180,52 209,86 64,30 142,150 164,245 82,345 -270,665 -623,518 -89,-37 -164,-110 -211,-195 -59,-106 -66,-225 -34,-337 33,-114 94,-180 171,-241 66,-52 183,-88 271,-87 22,0 37,1 53,12zm7205 316l529 -10c-34,50 -213,62 -262,61 -41,0 -241,-5 -267,-51zm1135 -783c-6,-13 -6,-10 0,-32 3,-10 6,-20 9,-31 5,-19 9,-47 16,-63 18,18 -8,106 -14,115 -7,12 -3,4 -12,11zm-1882 -971c16,19 25,34 41,53 13,16 35,36 44,53 -18,40 -108,72 -142,44 -33,-28 -71,-79 -95,-114 -58,-81 -124,-155 -179,-239 -54,-82 -203,-265 -269,-358 -43,-61 -78,-81 -65,-132 21,7 38,33 52,50 31,39 102,107 138,147 62,68 132,124 194,193 29,32 69,70 97,100 31,33 60,69 90,100 35,37 63,64 94,102z"/>
 </g>
</svg>
