<?xml version="1.0" encoding="UTF-8"?>
<!DOCTYPE svg PUBLIC "-//W3C//DTD SVG 1.1//EN" "http://www.w3.org/Graphics/SVG/1.1/DTD/svg11.dtd">
<!-- Creator: CorelDRAW X5 -->
<svg xmlns="http://www.w3.org/2000/svg" xml:space="preserve" width="100.899mm" height="36.2557mm" style="shape-rendering:geometricPrecision; text-rendering:geometricPrecision; image-rendering:optimizeQuality; fill-rule:evenodd; clip-rule:evenodd"
viewBox="0 0 10259 3686"
 xmlns:xlink="http://www.w3.org/1999/xlink">
 <defs>
  <style type="text/css">
   <![CDATA[
    .str0 {stroke:#2B2A29;stroke-width:20.3352}
    .fil2 {fill:#2B2A29}
    .fil0 {fill:#EF7F1A}
    .fil1 {fill:#FEFEFE}
   ]]>
  </style>
 </defs>
 <g id="Слой_x0020_1">
  <metadata id="CorelCorpID_0Corel-Layer"/>
  <path id="cvet" fill="#EF7F1A" d="M149 1562c0,0 316,-126 951,-220 635,-94 1017,-72 1384,-108l27 -16 55 -12 74 -38 35 -29 4 11c0,0 199,179 303,58 104,-121 806,-1017 607,-968l-70 17 9 -9 38 -48 48 -29c0,0 119,-128 1464,-140 1345,-12 1611,37 1780,32l195 7 272 64c0,0 140,50 176,107 35,57 -37,33 -25,79 12,46 442,644 442,644l182 231c0,0 45,71 153,14l58 -38 58 23 179 58 445 40 959 118c0,0 185,66 156,381 -29,315 -61,416 -197,468l14 61 -347 20 -110 353 243 20 -20 32 -61 35 -92 12c0,0 -338,234 -696,9l-116 -9 -254 -9c0,0 -121,-679 -621,-650 -500,29 -751,-12 -887,381 -136,393 -139,419 -436,448l-249 -20 -347 0 -3442 49c0,0 -327,-948 -653,-948 -327,0 -786,-243 -1095,705l-40 40 -61 32 -78 14 -35 -20 0 -38 26 -43 26 -78 -101 -283 -162 -66 -40 -46 -6 -64 -52 -52 -69 -584zm5193 -346l-5 -266 1 -231 -4 -207 0 -35 1 -66 6 -77 204 -1 504 11c0,0 743,-56 847,264l347 624 -1751 6 -127 6c0,0 -26,-26 -22,-28zm-1837 -386l306 -419c0,0 66,-49 286,-58 220,-9 1032,-23 1032,-23l-32 899 -1381 6 -136 -228 -75 -176zm-776 261l61 -58 2 -2 -44 48 -19 12z"/>
  <path id="belyi" class="fil1 str0" d="M1534 2438c275,0 499,223 499,499 0,275 -223,499 -499,499 -275,0 -499,-223 -499,-499 0,-275 223,-499 499,-499zm5989 -2133c0,0 587,575 789,850l-118 69 -81 -14 -639 -870 17 -46 32 12zm-2181 911l-5 -266 1 -231 -4 -207 0 -35 1 -66 6 -77 204 -1 504 11c0,0 743,-56 847,264l347 624 -1751 6 -127 6c0,0 -26,-26 -22,-28zm-1837 -386l306 -419c0,0 66,-49 286,-58 220,-9 1032,-23 1032,-23l-32 899 -1381 6 -136 -228 -75 -176zm-826 321c0,0 199,179 303,58 104,-121 806,-1017 607,-968l-81 20c0,0 -287,304 -761,819l-48 30 -28 20 7 21zm4952 1345c275,0 499,223 499,499 0,275 -223,499 -499,499 -275,0 -499,-223 -499,-499 0,-275 223,-499 499,-499z"/>
  <path id="kontur" class="fil2" d="M7869 2601c43,19 137,101 155,151 51,28 169,377 -94,592 -83,68 -192,108 -310,106 -118,-2 -218,-57 -297,-125 -30,-26 -66,-78 -88,-119 -27,-50 -40,-96 -47,-159 -28,-233 117,-417 329,-490 90,-31 300,-18 353,45zm151 -1798c-7,-27 -119,-143 -146,-172 -68,-71 -70,-82 -147,-151 -32,-29 -160,-160 -192,-183l-1 -45 -13 -5 -18 -17c-30,-21 -34,1 -43,13 -5,7 -10,12 -14,18 -10,16 -6,34 -7,57 10,70 101,189 139,239l476 650c16,11 16,2 23,34 -104,2 -201,10 -304,12 -100,2 -202,-5 -302,-7l-27 -45c-1,-1 -3,-3 -4,-4 -1,-1 -3,-3 -4,-4l-24 -52 25 2 522 12 -14 -39c-16,-25 -32,-48 -51,-74 -20,-28 -29,-45 -51,-71l-199 -3 -331 -5c-39,-81 -57,-102 -104,-187 -56,-102 -212,-345 -301,-423 -47,-40 -66,-33 -84,-60 -39,-3 -109,-55 -364,-68 -124,-6 -304,-6 -408,-14 -132,-11 -289,1 -426,-4 -247,-9 -1480,9 -1677,38 -142,20 -218,58 -286,137 -10,20 -23,26 -50,58 -43,51 -92,111 -131,166 -96,134 -243,335 -330,471 -52,81 -105,158 -159,239l20 30c-15,6 -34,18 -44,27 -17,15 -14,23 -28,41l-19 243 -11 165c-10,36 -12,229 -12,281 0,50 0,99 0,149 0,47 7,88 3,135 14,21 6,183 21,252 18,82 78,107 162,99 100,-9 413,-10 530,-11 363,-3 718,-11 1080,-16 535,-7 1080,-22 1610,-26 91,-1 181,3 272,0 46,-2 73,-8 100,-35 34,-34 30,-60 55,-89 12,-66 79,-224 108,-278 121,-219 213,-260 435,-335 126,-42 127,-68 141,-235 1,-30 1,-55 6,-84 3,-19 2,-20 3,-37 1,-22 -5,-23 9,-31 -5,-47 8,-139 13,-187l-1 -85 32 -2c66,-1 632,3 689,-8 33,-6 139,-46 159,-68 15,-11 -19,-10 18,-9 13,38 51,32 87,60 -9,39 -49,44 -86,65 7,5 3,11 40,4 53,-9 60,-17 83,-47 6,-7 5,-6 11,-11 97,13 554,60 607,77 -83,4 -452,-11 -497,9 56,21 244,-8 282,16 64,-10 208,11 280,14 285,14 536,47 817,59 43,66 78,97 107,198 42,147 -39,347 -67,499 -11,58 -21,57 -69,81 -29,14 -69,36 -101,45l-27 20c31,18 43,-9 73,13 -8,16 17,17 -73,15 -320,-5 -265,-30 -304,101l-58 212c-51,165 16,106 209,110 -12,23 -14,18 -47,18l-453 4c-117,1 -421,24 -504,12l-2 -67c-40,-5 -50,46 -62,67 -81,6 -115,-78 -138,-141 -72,-191 -136,-375 -334,-461 -20,-9 -12,-2 -24,-16 -24,-2 -80,-20 -107,-27 -138,-34 -477,-38 -610,-14 -143,26 -142,42 -201,56 -6,6 -3,5 -11,12 -69,55 -80,40 -160,157 -43,63 -77,160 -103,232 -51,138 -50,255 -191,313 -37,15 -20,18 -58,27 -145,34 -250,13 -403,17 -111,2 -224,1 -336,0 -224,-1 -449,2 -673,3 -658,3 -1321,24 -1985,31 -220,2 -444,10 -666,7l-13 -27c-69,-19 -80,-4 -121,-119 -94,-267 -186,-609 -435,-761 -110,-67 -250,-84 -402,-82 -335,3 -536,46 -687,269 -125,183 -157,387 -227,491 -15,22 -42,52 -61,61 -19,8 -83,29 -97,14 -31,-32 60,-83 69,-105 8,-19 -94,-359 -116,-373 -36,-6 -74,-2 -105,-13 -109,-39 -72,-37 -95,-109 -12,-35 -9,-33 -35,-54l-26 -245 0 -12c-1,-1 -2,-3 -3,-5 -8,-18 -11,-45 -14,-74l-19 -165c134,-97 600,-142 797,-160 40,-4 860,-70 887,-67 -11,-13 14,-7 -27,-12 -41,-5 -395,12 -428,14 -71,6 -153,9 -226,13 -231,15 -401,38 -634,71 -85,12 -209,39 -289,68 -23,8 -65,29 -87,32l-1 -47c58,-44 419,-122 512,-137 94,-14 182,-30 278,-46 342,-55 530,-65 879,-89 104,-7 208,-14 311,-16 100,-2 200,-19 297,-22 26,38 12,50 60,81 23,15 78,33 108,21 -39,-29 -123,-51 -122,-128 54,-17 50,8 99,-23 18,-11 9,-8 29,-15 37,45 125,70 207,72 84,1 161,-39 191,-86 8,-15 1,-5 12,-18 40,-48 35,-34 80,-101 72,-107 182,-261 254,-360 60,-80 116,-157 176,-238 30,-39 140,-194 74,-245 -14,-11 -19,-8 -22,-20 -1,-3 -2,-4 -3,-5 142,-49 251,-82 422,-102 161,-19 318,-20 484,-32 251,-19 749,-12 1023,-14 343,-2 676,17 1015,22 166,3 332,16 498,23 79,3 147,17 217,39 91,29 92,30 180,77l2 -10c-6,-42 -137,-86 -166,-96 -86,-29 -265,-51 -355,-52 -48,-1 -264,-26 -310,-26 -102,0 -99,1 -201,-6 -42,-3 -93,1 -136,0 -36,-1 -47,-7 -129,-7 -47,0 -76,-7 -129,-7 -181,0 -351,-7 -537,-7 -31,0 -54,7 -129,7l-401 6c-32,1 -29,6 -58,7 -61,3 -149,-6 -203,4 -42,7 -90,2 -133,2 -31,0 -54,7 -129,7 -78,0 -82,5 -129,7 -44,2 -92,-1 -136,0 -32,1 -29,6 -58,7 -23,1 -48,-1 -72,0 -26,1 -28,5 -58,7 -23,1 -38,5 -62,9 -97,17 -137,26 -224,47 -68,17 -124,60 -136,65 -29,11 -28,0 -42,27 -1,1 -3,1 -4,3 -2,9 -11,-11 -11,48l-39 38c-42,47 -32,19 -38,51 -20,-9 -4,-9 -21,6 -1,1 -2,3 -3,4l-13 14c-94,87 -226,224 -321,319l-135 149c-31,40 -25,28 -50,54 -18,20 -10,6 -11,25 -80,0 -32,41 -107,6 -42,-19 -31,-3 -32,7 -26,-2 -4,-12 -53,37 -16,16 -33,35 -49,48l-50 40c-47,35 -44,34 -46,56 -17,-8 -16,-5 -30,11 -12,14 -13,16 -17,35 14,26 19,25 32,45 -34,1 -60,13 -97,13 -98,1 -225,19 -317,19 -76,0 -67,5 -103,7l-214 13c-18,0 -41,-1 -58,0l-201 19c-64,7 -181,9 -262,23 -187,31 -386,45 -588,84 -141,27 -333,53 -459,103 -16,6 -24,12 -39,19 -43,21 -14,9 -62,48 -38,31 -16,153 -13,184 1,12 -12,62 8,153 20,94 7,55 14,96 3,16 10,23 12,47 3,36 -1,21 9,50 13,38 1,51 29,81 20,21 35,43 66,50 1,28 6,30 6,65 -20,2 -159,57 -179,87 -34,52 -26,32 -38,49 -29,5 -36,4 -37,38 -1,45 -2,189 4,217 12,55 55,48 95,31 35,-15 83,-2 134,-2l0 39 18 0c-1,10 -9,8 8,4l7 15c87,0 72,7 90,-16 21,6 9,3 7,-4 20,-9 4,7 20,-11l5 -15 45 0c-1,8 -17,7 46,6 100,-2 -6,51 32,124 34,66 137,-8 169,5l19 14 19 -6 86 11c-1,70 -1,126 7,189 6,51 21,121 39,166 43,108 64,120 117,194 17,23 34,34 50,55 12,19 25,26 47,44l56 34c76,38 29,23 124,57 161,58 319,47 491,27 107,-12 113,-11 206,-65 41,-24 124,-90 148,-129 14,-20 34,-35 67,-82 32,-45 32,-47 77,-79 77,-55 118,-135 145,-160 14,-31 29,-72 69,-79 36,-6 108,-2 147,-2l18 7c238,0 488,13 739,13 75,0 102,6 142,7 28,1 51,-6 65,-6 14,0 43,6 71,5 47,0 110,-3 155,0 71,5 57,7 142,6 87,0 49,-4 114,35 19,12 24,16 47,24 8,3 18,6 29,10 15,6 9,6 28,11 58,16 141,10 203,10 33,0 36,8 71,7l142 0c58,0 88,11 174,-39 71,-41 -2,-33 181,-32 52,0 121,-8 194,-7 75,1 0,10 129,0 124,-10 331,15 460,1 58,-6 61,-22 105,-37l113 -55c34,-17 49,-33 78,-31 66,5 174,43 234,19 54,-22 54,-13 112,-3 89,16 280,52 359,62 105,13 62,-5 127,119 49,94 112,132 132,165 8,14 15,25 24,41 46,79 129,161 204,217 154,116 325,111 516,111 78,0 171,-10 237,-41 52,-24 137,-63 171,-108 19,-5 9,-3 24,-14 42,-31 130,-138 137,-178 18,-12 25,-31 33,-53 13,-35 42,-87 49,-132 7,-43 -2,-53 34,-68 42,4 93,24 132,14l-46 -296 151 2c1,4 2,5 3,8 5,44 9,17 9,109 0,67 -1,331 11,367 23,-3 37,-20 54,-29 1,-48 -16,-411 -9,-435 4,-14 0,-5 8,-14 21,5 78,38 110,52 21,9 40,12 63,21 71,29 307,27 390,17 199,-24 247,-98 317,-104 37,-3 112,-1 145,-24l24 -15c12,-10 11,-13 13,-32l184 -10c143,-25 210,23 247,-63 7,-17 24,-59 33,-70 23,-28 38,-113 34,-147 -2,-18 0,-10 -7,-15 -1,-19 -7,-50 -13,-63 -10,-23 -20,-26 -33,-45l-190 -19c-4,-8 3,-3 -7,-10l-25 -13c-17,-10 -1,0 -11,-9 55,-5 77,-49 98,-103 56,-143 11,-99 70,-130 0,-49 9,-50 17,-93 23,-129 11,-163 17,-203 4,-22 12,-21 -2,-46 -14,-26 -25,-20 -38,-20 0,-119 -59,-241 -166,-293 -54,-26 -313,-48 -361,-59 -19,-4 -23,-8 -43,-9 -100,-7 -196,-21 -291,-32 -33,-4 -63,2 -132,-11 -36,-6 -50,-6 -87,-10 -52,-6 -112,-11 -169,-12 -24,0 -26,-3 -40,-5 -16,-2 -28,0 -43,-2 -90,-10 -188,-11 -265,-19 -22,-2 -55,-9 -78,-12 -66,-8 -78,-37 -114,-73 -23,-23 -24,-29 -54,-43 -42,-18 -61,-65 -91,-96 -36,-37 -156,-181 -180,-195zm-2755 -534l1 4c6,9 10,-13 9,57l-2 692c0,44 -12,190 -9,220 6,58 -4,11 14,32 14,-17 14,-12 13,-52 -3,-129 4,-274 -1,-399 -11,-35 -10,-524 0,-546 75,-15 446,-10 564,-9 64,1 136,1 200,3 90,-10 458,13 563,26 214,26 270,93 364,231 78,114 149,240 225,370 77,132 142,239 216,375 14,11 7,-8 11,20l-1 110c-3,12 -3,8 -7,14l-17 255c-1,10 -2,27 -3,35l-7 18c4,34 -6,100 -16,131 -37,107 -239,33 -460,277 -50,55 -72,109 -113,174 -9,22 -18,40 -27,62l-19 46c-6,10 -5,6 -9,10 2,26 -39,138 -51,168 -26,65 -68,72 -150,72 -139,1 -300,-5 -436,4 -136,9 -291,5 -431,6 -68,1 -151,-2 -217,4 -63,6 -146,7 -211,4l2 -265c3,-43 -5,-470 -5,-531 0,-83 4,-185 -2,-266l-1 -150c-18,-26 -10,-105 -15,-150l-5 -34c0,-2 -3,-2 -3,-5 0,-3 -2,-3 -3,-5 -10,13 -5,-14 -10,22l3 64 14 260 4 85 2 624 -5 348c-27,5 -579,13 -656,13 -433,3 -871,15 -1300,21 -361,5 -341,50 -348,-314 -8,-36 -11,-209 -11,-252 0,-87 3,-173 4,-260 2,-52 5,-96 8,-147 2,-27 -6,-116 16,-130 -6,-20 12,-198 24,-218 16,-22 20,-19 42,-33 34,-21 35,-37 57,-54 38,-29 123,-176 153,-221l212 -312c18,-22 6,-8 23,-17 17,-55 194,-280 230,-325 105,-132 191,-142 410,-142 186,-1 365,-3 550,-8 135,-3 425,-25 547,-7 11,110 -7,609 -15,742 -4,74 -10,172 -6,246 7,13 -4,8 15,10 7,-39 -2,-164 1,-179 3,-21 5,-13 7,-17 -5,-52 11,-328 16,-396 8,-132 -1,-275 9,-405l41 -6zm-1773 29c23,-12 9,-6 27,-22 11,-11 11,-12 27,-12 26,5 42,26 52,41l-19 28c-25,71 -129,180 -174,239 -16,21 -28,39 -42,61 -45,72 -235,326 -296,415 -36,52 -94,136 -163,149 -19,3 -59,2 -77,-3 -15,-4 -5,0 -13,-7 -40,1 -99,-26 -109,-55 16,-17 38,-32 54,-48 20,-18 32,-33 51,-53l292 -316c62,-69 135,-138 197,-210l191 -207zm-832 724l0 6 -8 -5 8 -1zm6 -6l-6 6 6 -6zm0 0l70 -73c9,15 11,17 14,34 -20,13 -54,36 -84,39zm0 32c23,0 47,-20 75,-35 23,-13 -6,-7 29,-10 4,5 5,16 6,19l-56 60c-31,31 -43,9 -63,35 -15,20 -9,0 -5,22 -20,-3 -14,-2 -31,-6 5,-19 0,-9 14,-24 17,-18 12,-5 18,-31 12,1 7,15 16,-7 10,-24 1,-10 -3,-22zm2392 684c-1,36 60,45 83,1 9,-93 -100,-81 -83,-1zm1525 -554c-11,-44 -2,-585 -3,-719 0,-46 -11,-63 30,-45 33,15 44,10 46,57 4,119 21,677 9,707l-82 -1zm401 -1c1,-19 37,-128 55,-145 26,48 24,25 -7,101 -15,37 -7,45 -48,44zm-258 -662c30,16 84,119 102,147 33,50 60,106 90,155 55,89 51,73 15,177 -21,59 -42,131 -65,183l-131 -1 -12 -661zm-1376 658c-14,-21 -7,-356 -6,-411 0,-107 -15,-318 1,-412 96,-5 197,5 297,4 148,-1 766,6 878,36l-1 787 -803 -5c-7,-30 -3,-62 -6,-93 -10,-104 -45,-311 -61,-422 -17,-118 -180,-66 -233,9 -33,47 -41,278 -43,341 -1,38 -1,148 -23,165zm2022 92l-279 -473c-76,-128 -195,-366 -331,-419 -204,-79 -1152,-63 -1427,-70 -8,41 1,924 2,961 85,14 1658,-9 1986,5 27,1 35,13 50,-3zm-460 168l0 93 341 -2 -4 -92c-52,-5 -115,-1 -166,0 -43,1 -123,-4 -154,-1l5 -16c73,-4 267,-6 330,6 7,36 14,81 -4,114 -9,8 -345,22 -364,-10 -8,-30 -9,-70 3,-99 21,-6 6,-2 12,6zm340 127c51,-23 29,-127 14,-159 -72,-14 -241,0 -325,0 -72,0 -62,19 -62,86 0,67 8,77 75,76 64,-1 251,12 298,-2zm-2153 -126c-109,4 -217,17 -330,10l2 96c62,-16 142,4 206,-8 2,1 4,0 5,3 1,2 4,2 6,2 18,4 -7,3 39,3 22,0 29,-2 47,5 -26,18 -52,9 -79,7 -65,-6 -198,2 -235,-13 -8,-26 -8,-71 -1,-97 13,-22 227,-23 281,-24 96,-3 80,2 81,35l-22 -18zm-337 133c54,6 143,1 201,1 42,0 159,3 173,-22 6,-43 9,-101 -6,-137 -38,-20 -220,-6 -284,-5 -46,0 -101,-10 -107,38 -2,17 -1,58 -1,77 1,34 4,33 24,48zm-1293 -368c-9,-16 -8,-235 13,-273 20,9 35,32 38,56 6,40 -38,194 -51,217zm63 -353c13,-34 180,-261 214,-306 135,-178 142,-150 351,-166 102,-8 952,-29 1018,-22l-7 268c-4,50 -8,28 -23,64 5,29 17,30 16,58 0,15 -5,35 -5,58 -2,114 -6,266 -32,372l-49 1 -13 -37 -24 3c-8,15 -3,16 -3,35 -99,5 -197,6 -297,7 -87,1 -864,22 -873,19l-274 -354zm-207 176l-70 101c-26,39 -32,35 -69,99 -16,27 -39,52 -45,80l307 -3 1504 -22c5,-2 -7,-2 17,-5 7,-1 19,-1 26,-1l136 -4c2,-45 -4,-58 6,-83l29 -879c-109,-3 -212,7 -319,8 -220,2 -762,10 -926,31 -145,18 -180,101 -270,217 -119,155 -225,322 -326,460zm-750 1748c3,27 19,81 30,110 29,4 193,-4 250,-5 86,-1 172,-2 259,-3 166,-2 334,-8 504,-10 339,-3 683,-10 1021,-16 171,-3 343,-5 511,-8 171,-3 355,4 524,-4 159,-8 336,-8 498,-15l382 -8c46,6 76,10 128,5 12,-23 27,-72 31,-106 -43,0 -82,-9 -127,-3 -28,4 -15,9 -51,10l-848 12c-341,4 -684,21 -1028,25 -345,3 -688,12 -1035,16 -170,2 -348,11 -517,6 -87,-3 -177,-1 -265,0 -90,1 -178,-4 -267,-6zm5090 273c83,-85 -39,-148 -76,-75 -10,19 -4,40 11,59 16,21 38,18 65,16zm-113 -397l69 -9c15,20 6,13 25,20 23,8 15,9 33,11 7,-8 2,-1 8,-12 1,-1 2,-3 2,-4 0,-1 1,-3 2,-4 0,-1 1,-3 2,-4 12,2 24,3 36,7 36,10 14,19 44,38 18,12 8,1 24,21 11,-6 6,-3 12,-8l15 -12 41 36c-7,21 26,55 31,59 16,13 18,-1 34,17 2,3 12,21 19,30 -6,31 -25,-1 -1,56 2,5 5,12 9,16 1,1 3,2 4,3l14 7 7 54 -22 11c4,72 -10,40 18,67 -16,74 -19,57 -44,60 -9,55 -16,14 -8,69l-33 43c-23,-7 -8,-8 -40,-4 -13,24 -19,24 -18,58 -20,4 -37,11 -47,13 -29,4 -45,-17 -68,15l-15 26 -52 7c-10,-16 -12,-30 -39,-29 -28,1 -29,12 -39,25l-58 -11c0,-20 2,-58 -45,-49 -19,4 -8,5 -27,13l-47 -33c7,-16 6,-11 12,-27 -18,-39 -20,-39 -64,-30l-31 -54 25 -19c-1,-32 -5,-39 -27,-49 -23,-10 -16,22 -25,-55 1,-1 4,-5 4,-4l12 -9c34,-24 15,-54 -9,-71l15 -64c19,11 10,11 34,2 25,-47 12,-34 -1,-68l31 -47c15,3 13,5 26,2l29 -9c1,0 4,-1 6,-1l2 -47c20,-10 31,-13 44,-28l32 11c6,1 16,1 17,2 21,5 -16,4 15,4 11,-13 11,-23 5,-40zm-228 552c36,35 47,55 94,89 23,16 98,56 132,56 130,28 252,-5 344,-98 123,-123 151,-306 57,-459 -50,-81 -32,-43 -60,-76 -8,-9 -3,-2 -10,-15 -32,-7 -86,-65 -150,-73 -199,-27 -314,36 -395,149 -39,54 -68,122 -68,202 -1,118 16,132 57,224zm-6826 -1327c-9,-65 0,-74 65,-64l7 55c-28,13 -37,19 -71,10zm156 -66l2 66c-28,4 -54,7 -57,-17 -7,-46 -12,-59 55,-49zm-164 -18c-16,35 -6,49 -5,91 8,28 53,17 87,16 30,-1 77,6 99,-8 8,-32 9,-73 2,-95l-28 -8c-29,-2 -134,-1 -155,4zm1024 1099c-65,23 -34,126 39,100 58,-21 34,-125 -39,-100zm-119 -272l62 -22c2,3 3,4 4,7l11 18c9,8 15,8 28,5 28,-6 25,-24 35,-39l56 0c0,43 11,50 55,47 0,0 6,-9 7,-10 1,-1 4,-6 5,-8l6 -8 58 27c-23,62 18,62 58,45 12,12 23,25 34,36 -6,30 -23,60 11,74 44,19 28,-17 46,51 -13,20 -18,14 -12,71l26 10c1,103 -50,27 -45,112 13,15 9,8 24,19l-27 50c-39,5 -33,4 -54,23l3 48c-38,13 -87,17 -103,41 -12,20 -3,12 -4,34l-54 17c-19,-26 -25,-25 -64,-16 -9,13 -7,16 -14,29l-52 -3c-21,-77 -84,-20 -84,-20l-47 -22c0,-40 -6,-39 -31,-56l-32 9c-21,-20 -23,-25 -38,-43 18,-25 10,-54 -16,-62 -25,-8 -22,26 -42,-61 21,-17 20,-8 18,-58 -13,-12 -16,-9 -28,-20l0 -62c21,3 32,13 40,-17 3,-9 3,-20 0,-29 -4,-12 -10,-13 -19,-21l29 -63c28,12 -8,9 30,10 30,-25 23,-36 12,-63l45 -42c46,42 74,-5 62,-39zm-167 523c30,36 110,124 177,136 126,44 250,31 345,-39 138,-101 196,-254 148,-417 -17,-59 -39,-81 -62,-124 -28,-24 -45,-50 -83,-75 -23,-16 -78,-43 -107,-51 -113,-1 -132,-27 -242,19 -128,54 -227,184 -232,322 -4,126 20,133 54,228zm367 -647c63,-6 184,53 214,88 65,31 145,153 168,250 84,353 -275,679 -636,528 -91,-38 -168,-112 -216,-199 -60,-108 -68,-230 -35,-344 34,-116 96,-184 174,-246 68,-54 187,-89 277,-89 22,0 38,1 54,12zm7356 322l540 -10c-35,51 -217,63 -267,63 -42,0 -246,-5 -273,-52zm1158 -799c-6,-13 -6,-10 0,-33 3,-10 6,-21 9,-31 5,-20 9,-48 17,-64 18,18 -8,108 -14,118 -7,12 -3,4 -12,11zm-1922 -991c16,20 26,34 42,55 13,16 35,37 45,54 -18,40 -110,74 -145,45 -34,-28 -72,-81 -97,-116 -59,-83 -126,-158 -183,-244 -55,-84 -208,-271 -274,-366 -44,-63 -80,-83 -67,-135 22,7 39,33 53,51 32,40 104,109 141,150 63,70 134,126 198,197 29,33 70,72 99,102 31,33 61,70 91,103 35,37 64,65 96,104z"/>
 </g>
</svg>
