<?xml version="1.0" encoding="UTF-8"?>
<!DOCTYPE svg PUBLIC "-//W3C//DTD SVG 1.1//EN" "http://www.w3.org/Graphics/SVG/1.1/DTD/svg11.dtd">
<!-- Creator: CorelDRAW X5 -->
<svg xmlns="http://www.w3.org/2000/svg" xml:space="preserve" style="shape-rendering:geometricPrecision; text-rendering:geometricPrecision; image-rendering:optimizeQuality; fill-rule:evenodd; clip-rule:evenodd"
viewBox="0 0 14060 8787" preserveAspectRatio="xMaxYMax meet"
 xmlns:xlink="http://www.w3.org/1999/xlink">
 <defs>
  <style type="text/css">
   <![CDATA[
    .fil11 {fill:#2B2A29}
    .fil6 {fill:#A7BCC0}
    .fil8 {fill:#EF7F1A}
    .fil10 {fill:#FEFEFE}
    .fil2 {fill:#F6FCFC}
    .fil9 {fill:#FDFDFE}
    .fil3 {fill:#6A7273}
    .fil7 {fill:#9DB9BB}
    .fil4 {fill:#A9BABB}
    .fil5 {fill:#B8CDCE}
    .fil1 {fill:#D9E4E7}
    .fil0 {fill:url(#id2)}
   ]]>
  </style>
     <mask id="id0">
  <linearGradient id="id1" gradientUnits="userSpaceOnUse" x1="7008.77" y1="3336.96" x2="7008.77" y2="1233.64">
   <stop offset="0" style="stop-opacity:1; stop-color:white"/>
   <stop offset="1" style="stop-opacity:0; stop-color:white"/>
  </linearGradient>
      <rect style="fill:url(#id1)" x="699" y="901" width="12619" height="2768"/>
     </mask>
  <linearGradient id="id2" gradientUnits="userSpaceOnUse" x1="7007.89" y1="7914.85" x2="7007.89" y2="782.787">
   <stop offset="0" style="stop-color:#7F9191"/>
   <stop offset="0.501961" style="stop-color:#D2E5E7"/>
   <stop offset="1" style="stop-color:#7F9191"/>
  </linearGradient>
 </defs>
 <g id="Слой_x0020_1">
  <metadata id="CorelCorpID_0Corel-Layer"/>
  <g id="_205744728">
   <g>
    <path class="fil0" d="M12910 588c69,14 127,58 191,79l-7 -22 32 -63c63,26 198,107 225,160 52,66 97,103 145,182 45,73 80,160 101,243 43,169 24,476 24,661l0 5448c0,229 12,368 -98,579 -163,314 -492,511 -851,511 -3631,-6 -7265,0 -10896,0 -411,0 -758,51 -1087,-284 -98,-100 -239,-308 -239,-446 42,112 163,209 198,238 -120,-156 -129,-780 -129,-1010l0 -5308c0,-67 -2,-135 -1,-202 1,-71 14,-140 31,-205 -20,-4 -37,-12 -89,-7 17,-94 70,-203 125,-283l146 -156c12,-12 41,-39 59,-53 175,-146 409,-195 633,-194 1644,9 3310,1 4956,1l5782 0c168,0 660,-24 781,54 -12,41 -30,37 -32,78zm-12910 7371l0 -366 0 -6485 0 -262c4,-62 14,-119 35,-158 67,89 23,154 60,218 39,-30 42,-111 61,-161 56,-151 137,-290 258,-391 179,-148 392,-234 631,-238 576,-10 1163,0 1740,0l10000 0c70,0 393,13 431,-3 -4,-28 3,-1 -5,-21 -1,-2 -2,-8 -9,-16 -14,-17 -69,-45 -103,-76l6 0 6 0 6 0 5 0 5 0c102,0 134,2 238,36 71,23 137,57 201,97 71,44 286,214 314,297 135,205 112,317 85,468 2,59 -35,106 -35,165l0 6432c0,239 20,407 -92,629 -80,159 -165,304 -332,384 -64,31 -113,78 -236,123 -181,66 -806,41 -1029,41l-10000 0c-275,0 -1209,17 -1414,-19 -515,-44 -683,-449 -809,-611 -9,-21 -14,-50 -18,-84z"/>
    <path class="fil1" d="M2717 870c61,-18 465,-6 561,-6l7970 0c80,0 158,0 186,91 22,71 -10,160 -86,179 -67,17 -465,4 -566,4l-7970 0c-82,0 -161,2 -187,-91 -22,-79 13,-155 92,-177zm-2178 291c-3,61 -20,120 -21,192 -1,67 1,135 1,202l0 5308c0,230 -21,577 26,791 8,45 70,186 101,218 76,-1 206,102 290,125 58,16 74,8 169,36 65,19 107,31 177,32 277,5 558,1 835,1l9965 0c235,0 577,29 793,-42 117,-38 155,-75 247,-149 62,-50 50,-42 89,-105 22,-35 25,-2 45,-60 30,-86 14,33 59,-144l20 -3c-1,-43 27,-256 27,-385l0 -5404c0,-128 -9,-290 0,-413 13,-172 45,-282 52,-372 -14,-67 -95,-128 -131,-179 -11,-5 -175,-133 -183,-144 -64,-21 -122,-65 -191,-79 -38,-1 -133,-25 -179,-32 -55,-9 -142,-4 -201,-4 -3658,-4 -7318,6 -10975,0 -263,0 -444,-8 -670,148 -304,211 -298,422 -347,461z"/>
    <path class="fil2" style="mask:url(#id0)" d="M13300 3422c37,-121 5,-2357 3,-2520l-12567 1c62,390 -220,2637 197,2757 58,17 2061,6 2221,6l9517 0c93,0 343,14 416,-14 94,-36 210,-121 213,-230z"/>
    <path class="fil3" d="M18 8043c25,149 154,350 261,457 202,201 386,268 592,288l579 0 11673 0c203,-1 367,-65 532,-193 138,-107 253,-248 320,-409 62,-150 80,-260 84,-382l0 -263 0 -5835 0 -11c0,-239 -3,-479 0,-718 1,-133 -81,-464 -188,-545 37,42 77,273 55,457 2,59 4,117 4,176l0 6432c0,239 20,407 -92,629 -80,159 -165,304 -332,384 -64,31 -113,78 -236,123 -181,66 -806,41 -1029,41l-10000 0c-275,0 -1209,17 -1414,-19 -555,-95 -778,-613 -809,-611z"/>
    <path class="fil3" d="M2717 870c-79,23 -114,98 -92,177 26,94 105,91 187,91l7970 0c100,0 498,13 566,-4 76,-19 108,-108 86,-179 -28,-92 -106,-92 -186,-91l-7970 0c-96,0 -499,-12 -561,6z"/>
    <path class="fil4" d="M802 8043c50,95 309,191 415,212 147,30 448,12 612,12l10624 0c220,0 346,17 556,-68 283,-114 513,-421 517,-731 4,-418 0,-838 0,-1257l0 -4376c0,-108 22,-572 -17,-639l-23 51c-23,204 -20,162 -20,377 -5,1882 5,3768 0,5650 -1,251 -1,119 -58,346l-9 -24c-21,168 -222,377 -372,444 -241,109 -479,91 -739,91l-10738 0c-93,0 -417,5 -487,-26l-165 -46c-36,-12 -57,-9 -93,-17z"/>
    <path class="fil3" d="M13092 668c508,349 433,573 433,1169l0 4376c0,418 4,839 0,1257 -3,310 -233,617 -517,731 -210,84 -336,68 -556,68l-10624 0c-163,0 -464,17 -612,-12 -105,-21 -364,-117 -415,-212 -37,-17 -135,-127 -155,-171 -62,-64 -154,-164 -197,-237 1,138 142,346 239,446 329,335 676,284 1087,284 3631,0 7265,-6 10896,0 359,1 688,-196 851,-511 110,-211 98,-349 98,-579l0 -5448c0,-185 19,-491 -24,-661 -21,-83 -56,-170 -101,-243 -68,-160 -331,-355 -367,-353 -50,2 -22,54 -37,97z"/>
    <path class="fil5" d="M35 688c67,89 23,154 60,218 39,-30 42,-111 61,-161 56,-151 137,-290 258,-391 179,-148 392,-234 631,-238 576,-10 1163,0 1740,0l10000 0c70,0 393,13 431,-3 -4,-28 3,-1 -5,-21 -1,-2 -2,-8 -9,-16 -14,-17 -69,-45 -103,-76l-12027 0 -209 0c-57,3 -114,13 -185,36 -276,92 -586,383 -643,652z"/>
    <path class="fil5" d="M647 7872c20,45 118,154 155,171 36,8 57,5 93,17l165 46c71,31 394,26 487,26l10738 0c260,0 498,19 739,-91 150,-68 351,-276 372,-444l9 24c57,-227 58,-95 58,-346 5,-1882 -5,-3768 0,-5650 1,-216 -2,-173 20,-377l23 -45c5,-49 -66,-215 -102,-246 -8,90 -28,232 -41,404 -9,123 0,286 0,413l0 5404c0,129 -28,342 -27,385l-20 3c-45,177 -29,57 -59,144 -20,58 -24,25 -45,60 -39,63 -27,56 -89,105 -92,74 -131,110 -247,149 -216,71 -557,42 -793,42l-9965 0c-278,0 -558,4 -835,-1 -70,-1 -113,-13 -177,-32 -95,-28 -111,-20 -169,-36 -84,-23 -213,-126 -290,-125z"/>
    <path class="fil5" d="M545 1163c8,-31 37,-253 341,-463 226,-156 406,-149 670,-148 3657,7 7318,-4 10975,0 59,0 145,0 201,8 237,21 334,95 361,108 9,-36 26,-50 36,-93 -276,-189 -798,-120 -966,-120l-5782 0c-1646,0 -3312,9 -4956,-1 -224,-1 -459,48 -633,194 -88,73 -128,122 -205,209 -56,79 -108,188 -125,283 42,6 61,7 85,22z"/>
    <ellipse class="fil6" cx="6973" cy="7827" rx="5558" ry="165"/>
   </g>
   <g>
    <path class="fil7" d="M8601 1643c-63,80 -173,311 -211,412 -181,473 598,481 425,3 -25,-70 -170,-372 -214,-415z"/>
    <path class="fil7" d="M3817 1643c-42,40 -185,340 -211,408 -34,91 -48,158 3,247 141,243 546,93 421,-237 -33,-87 -157,-353 -214,-418z"/>
    <path class="fil7" d="M5398 1642c-52,53 -181,325 -212,407 -35,91 -49,162 4,251 145,241 541,89 421,-236 -48,-130 -138,-303 -212,-422z"/>
    <path class="fil7" d="M7023 1643c-59,77 -173,308 -211,408 -182,485 594,478 424,12 -37,-102 -149,-334 -213,-420z"/>
    <path class="fil7" d="M7681 1480c-5,41 -59,138 -77,186 -114,301 164,422 332,332 272,-147 -6,-538 -104,-722l-15 -19c-61,57 -73,174 -136,224z"/>
    <path class="fil7" d="M9368 1280c-8,57 -221,370 -215,519 6,154 159,266 315,218 41,-13 104,-68 115,-69 65,-151 86,-148 -15,-371 -44,-98 -112,-234 -171,-322l-28 25z"/>
    <path class="fil7" d="M4474 1481c-9,88 -120,203 -104,335 32,275 437,283 479,9 21,-139 -94,-252 -103,-344 -55,-45 -81,-169 -136,-224 -56,57 -77,177 -136,224z"/>
    <path class="fil7" d="M6056 1476c-5,72 -118,205 -109,331 8,123 112,219 235,222 123,3 233,-90 246,-212 15,-137 -103,-262 -110,-347 -35,-27 -102,-167 -127,-216 -58,47 -80,177 -136,222z"/>
    <path class="fil7" d="M9975 1946c-2,40 -49,127 -62,182 -55,237 252,384 404,220 191,-208 -78,-500 -163,-704 -55,33 -128,259 -179,303z"/>
    <path class="fil7" d="M2765 1785c6,214 258,324 399,184 73,-72 104,-142 73,-248 -18,-63 -95,-212 -99,-251 -46,-35 -90,-160 -129,-215l-18 22 -120 223c-42,87 -94,188 -105,285z"/>
    <path class="fil7" d="M10731 1643c0,42 -97,213 60,336 110,85 243,58 333,-36 182,-188 -147,-557 -158,-664l-27 -24c-46,70 -185,365 -209,388z"/>
   </g>
  </g>
  <path id="cvet" fill="#EF7F1A" d="M2341 6996l-19 -298c0,0 81,-60 124,-103 43,-43 167,-206 167,-206l121 -147 22 -24 19 -32 22 -18c0,0 145,-139 256,-203 111,-64 226,-141 498,-206 273,-65 541,-141 972,-155 0,0 710,-794 1910,-1064 0,0 814,-192 1862,-11 0,0 863,97 1991,954l43 17 62 2 43 8 949 728c0,0 55,135 164,135l41 11 26 30 34 485 -26 24 -125 22 9 168 -121 88 -240 9 -129 -50c0,0 -16,-905 -921,-908 0,0 -948,-89 -914,1132l-4073 57 -149 14c0,0 -11,-1082 -945,-1149 0,0 -911,-3 -916,1043l-247 6 -221 43 -158 -26 -69 -95 -14 -195 -47 -86zm2919 -1714c0,0 684,-632 1744,-664 0,0 896,-75 1669,264 0,0 724,373 727,563l-2962 17 -914 29 -23 -43 -21 -101 -34 -50 -69 -4 -102 7 -15 -18z"/>
  <path id="belyi" class="fil9" d="M9828 7525c3,-26 81,-99 103,-118 21,-18 42,-33 63,-51 22,-20 29,-35 74,-34 33,42 90,259 86,295 -29,0 -3,-8 -41,-4 -33,4 -107,-10 -137,-20l-148 -69zm-4569 -2242c0,0 684,-632 1744,-664 0,0 896,-75 1669,264 0,0 724,373 727,563l-2962 17 -914 29 -23 -43 -21 -101 -34 -50 -69 -4 -102 7 -15 -18zm-2138 939l52 -94c10,-19 12,-14 17,-36 -21,15 -17,19 -32,32 -140,-16 -233,111 -309,199 -26,31 -56,65 -50,123 57,5 116,-60 176,-104 31,-23 45,-40 71,-67 25,-26 46,-43 55,-71 12,-37 -8,10 3,-11 20,21 14,-1 17,29zm569 1285c65,-30 192,-142 234,-117 26,16 16,14 21,68 4,44 29,173 13,227 -96,5 -241,-98 -250,-99l-18 -18c-26,5 -14,7 -39,-3 -3,-32 12,-46 39,-57zm435 158c-13,-40 -11,-132 -17,-179 -8,-58 -7,-138 55,-117 41,14 95,44 134,63 61,30 111,43 109,80 -68,38 -35,37 -124,96 -37,24 -102,64 -158,57zm-55 -406c83,15 64,86 20,91 -28,3 -44,-17 -46,-42 -2,-31 14,-32 26,-49zm-95 5c11,22 17,44 -6,66 -14,13 -38,19 -57,4 -41,-33 -7,-93 63,-69zm231 -75c10,-36 30,-43 54,-59 57,-38 164,-129 212,-123 51,74 54,275 25,306 -21,22 -57,8 -83,-3 -44,-19 -191,-93 -208,-120zm-133 -129c15,13 9,1 12,28 31,-26 40,11 11,28 8,11 -13,13 16,7 29,-21 73,16 68,54 -8,69 -80,34 -83,34 -17,34 6,22 -31,44 -59,35 -93,16 -125,-52 -30,3 -49,17 -77,-8 -21,-19 -21,-38 -8,-58 19,-29 81,-54 107,32l24 -5c17,-1 10,2 18,-17l9 -16 -47 -9c-2,-9 -2,-50 -1,-54 14,-62 95,-43 105,-6zm-462 -159c21,-55 197,-198 281,-178 22,40 10,91 18,144l13 149c-13,10 -17,19 -42,18 -33,-1 -22,-9 -41,-20 -15,-9 -24,-5 -45,-16l-185 -98zm687 9c-61,39 -87,55 -142,97 -34,26 -60,14 -86,-6 -2,-71 -16,-250 -3,-293 95,-11 280,93 298,144 -11,16 -51,47 -66,57zm-773 176l1 -21c36,-13 58,6 82,19l142 74c57,28 64,24 63,75 -20,13 -39,28 -66,41 -84,38 -45,47 -122,82 -54,24 -16,17 -78,11l-10 -19c-14,-23 -16,-7 -11,-36 -8,-7 -8,-12 -12,-31l-8 -75c0,-15 0,-26 -7,-37 -23,35 10,185 28,225 79,178 221,321 439,334 124,8 163,-7 259,-41 84,-30 175,-116 227,-192l22 -38c25,-52 56,-126 60,-197 9,-145 -29,-293 -118,-403 -206,-256 -654,-264 -844,63 -16,27 -33,56 -45,87 -9,25 -25,62 -21,90l18 -11zm6732 184c24,-17 243,47 277,61 16,7 6,2 13,6 -6,18 -28,65 -37,83 -29,56 -129,136 -198,145 -10,-22 -14,-50 -18,-78 -4,-30 -67,-194 -35,-217zm-82 -56l16 6 -1 44c-20,14 3,6 -20,10 -5,7 10,14 -24,12 -2,0 -18,-8 -18,-8 -45,-30 -2,-99 38,-79 15,14 4,5 10,16zm-15 -98l8 6c12,-15 32,-38 46,-44 37,-17 85,23 57,69 -28,46 -65,9 -87,-3 -20,2 -34,-4 -30,9l3 19c-17,5 -23,2 -35,7 -13,5 -3,7 -32,12l-7 -9c-21,-23 14,-12 -13,-10 -15,1 -8,20 -21,35 -6,19 -16,26 -32,37 -20,-4 -30,-10 -41,-21 -4,-4 -8,3 -13,-23 -1,-6 0,-18 1,-25 15,-13 7,-11 29,-23 27,-7 42,17 47,-2l-4 -40c16,1 22,3 33,9 22,5 18,6 27,-1l16 -13 1 -6 54 -13c0,27 6,-14 -3,16l-6 15zm-271 21c63,26 14,65 -13,88 -32,27 -130,131 -163,143 -29,-4 -32,-9 -43,-35 -18,-45 -56,-105 -60,-175 -7,-126 -23,-118 163,-61 40,12 76,24 116,40zm415 -55c0,-45 41,-68 93,-121 117,-119 130,-129 174,-52 19,33 44,122 49,161 4,29 5,61 3,97 -79,-2 -107,-6 -170,-34 -50,-22 -31,-11 -79,-23 -38,-10 -42,-9 -70,-30zm-347 -47c18,-15 11,-11 25,-31 104,-8 95,101 3,95 -20,-24 -27,-25 -29,-64zm168 -77c65,-26 103,75 35,96 -62,19 -110,-67 -35,-96zm-459 -75c6,-40 63,-102 95,-133 37,-37 94,-82 147,-80 12,18 9,6 18,30 14,40 63,228 60,258 -33,23 -43,27 -84,11 -94,-36 -141,-32 -236,-86zm735 -156l-116 111c-47,47 -89,107 -131,84 -24,-15 -20,-37 -25,-67 -3,-20 -12,-49 -16,-68 -19,-76 -33,-81 -32,-160 83,-29 300,43 320,100zm239 425c7,-22 4,-36 -1,-59 -6,-25 -3,-33 -6,-60 -11,-85 -80,-200 -130,-263 -122,-152 -393,-226 -589,-149 -191,75 -331,258 -330,465 1,156 43,279 141,390 32,36 102,91 152,117 105,56 215,67 332,54 130,-14 252,-102 328,-203 100,-133 85,-232 102,-292z"/>
  <path class="fil10" d="M2437 6808c0,0 269,153 666,-381 0,0 329,-561 1208,-389 0,0 621,93 1043,920 0,0 -90,-1055 -1133,-1144 0,0 -621,-82 -1036,194 0,0 123,116 -352,505 0,0 55,18 -100,89 0,0 -114,24 -170,-4l-127 183 1 27zm6266 229c0,0 310,-1055 1286,-1047 0,0 628,-41 1069,423 0,0 19,45 505,-7l-97 -34 -34 -30c0,0 -307,71 -692,-449 0,0 -524,-393 -1309,-30 0,0 -532,171 -709,1058 0,2 -20,113 -20,116zm-3279 228l3238 -71 56 52 -3334 58 39 -39z"/>
  <path id="kontur" class="fil11" d="M2839 6489c119,-67 211,-155 283,-267 -3,-30 3,-8 -17,-29 -12,21 8,-25 -3,11 -9,28 -30,45 -55,71 -26,27 -40,44 -71,67 -60,44 -119,109 -176,104 -6,-57 24,-92 50,-123 76,-89 169,-215 309,-199 15,-13 11,-17 32,-32l-2 -5c1,-28 2,-54 -8,-75 -95,-36 -292,129 -337,169 -50,45 -87,79 -126,138 -13,19 -80,157 -74,183 42,71 142,5 194,-12zm7332 786c24,-5 1,4 20,-10l1 -44 -16 -6c-24,-8 -16,-9 -44,-8 -24,35 -23,82 38,68zm5 -141c2,0 3,2 11,11 21,12 59,49 87,3 28,-47 -20,-86 -57,-69 -13,6 -30,25 -42,39l2 16zm-49 -175c-76,30 -27,116 35,96 68,-21 30,-122 -35,-96zm-168 77c2,40 9,40 29,64 92,6 100,-103 -3,-95 -14,19 -8,16 -25,31zm20 187c11,11 22,17 41,21 16,-11 26,-17 32,-37 2,-29 -2,-27 -17,-44l-46 0c-16,24 -18,22 -9,60zm-264 146c33,-12 130,-116 163,-143 27,-22 76,-62 13,-88 -40,-16 -76,-28 -116,-40 -186,-57 -170,-65 -163,61 4,70 42,130 60,175 11,26 14,31 43,35zm-48 -484c95,54 142,50 236,86 41,16 52,13 84,-11 2,-30 -46,-217 -60,-258 -9,-24 -6,-12 -18,-30 -54,-2 -110,43 -147,80 -32,31 -89,93 -95,133zm415 -256c-1,79 13,84 32,160 5,19 13,48 16,68 4,30 1,52 25,67 43,23 84,-37 131,-84l116 -111c-20,-57 -237,-129 -320,-100zm224 456c29,20 32,20 70,30 49,12 29,1 79,23 64,28 91,31 170,34 2,-36 1,-68 -3,-97 -6,-39 -30,-128 -49,-161 -44,-77 -57,-67 -174,52 -52,53 -93,76 -93,121zm6 483c69,-9 169,-89 198,-145 9,-18 32,-66 37,-83 -7,-4 4,1 -13,-6 -34,-14 -253,-78 -277,-61 -32,23 31,187 35,217 4,28 8,56 18,78zm-483 -42l148 69c30,10 104,24 137,20 38,-4 13,4 41,4 4,-36 -53,-254 -86,-295 -45,-2 -51,14 -74,34 -21,18 -42,33 -63,51 -22,19 -101,92 -103,118zm-5715 -402c-11,14 16,7 -15,13l-13 7c4,16 4,26 2,33l0 0 0 0 2 0c-1,2 -8,17 10,36 2,0 75,35 83,-34 4,-37 -39,-74 -68,-54zm-26 52c-1,3 -2,4 -3,6l3 -6zm-121 -7l-1 0c-26,-86 -89,-62 -107,-32 -13,21 -13,40 8,58 27,25 47,11 77,8 1,3 20,-33 23,-34 0,0 0,0 1,0l0 0zm105 91c-12,17 -28,19 -26,49 2,24 18,45 46,42 44,-5 63,-76 -20,-91zm-95 5c-70,-23 -104,37 -63,69 19,15 43,9 57,-4 23,-22 17,-43 6,-66zm41 -135l31 0 12 -5c1,-2 2,-4 3,-5 1,-1 2,-3 3,-5 1,-2 2,-3 2,-5 1,-2 1,-3 2,-5 1,-2 3,-12 4,-13 2,-11 1,-21 1,-31 -10,-37 -91,-56 -105,6 -1,4 -1,45 1,54l47 9zm54 -127c26,20 52,32 86,6 55,-42 82,-57 142,-97 15,-10 55,-41 66,-57 -18,-51 -203,-156 -298,-144 -13,42 1,222 3,293zm-459 -100l185 98c21,11 29,7 45,16 19,11 8,19 41,20 25,0 30,-9 42,-18l-13 -149c-8,-53 4,-104 -18,-144 -84,-20 -260,123 -281,178zm-86 186c14,78 -34,171 21,280 62,6 24,13 78,-11 78,-35 38,-44 122,-82 27,-12 47,-27 66,-41 2,-52 -6,-47 -63,-75l-142 -74c-27,-13 -82,-49 -83,3zm165 419c-7,9 -3,5 -10,13 -28,26 0,15 28,65 9,2 154,105 250,99 15,-53 -9,-183 -13,-227 -5,-54 5,-52 -21,-68 -42,-25 -169,87 -234,117zm435 158c56,8 121,-32 158,-57 89,-59 56,-58 124,-96 2,-37 -48,-50 -109,-80 -39,-19 -94,-50 -134,-63 -63,-21 -64,59 -55,117 7,46 5,139 17,179zm80 -476c17,27 164,101 208,120 26,11 62,25 83,3 30,-31 26,-232 -25,-306 -48,-6 -156,85 -212,123 -24,16 -44,24 -54,59zm3613 -1250c-105,-42 -233,-24 -344,-16 -35,2 -97,0 -81,47 17,49 167,33 219,29 41,-3 72,-6 112,-14 18,-4 36,-8 52,-14 25,-9 31,-8 41,-32zm924 969c3,-23 11,-31 15,-56 20,-122 80,-275 128,-384 33,-75 174,-338 217,-364 17,-46 81,-92 86,-140 -35,1 -47,26 -66,46 -128,137 -219,291 -299,468 -59,131 -131,358 -143,512 -3,37 -13,171 -5,197 4,15 0,6 7,15 7,-12 4,-21 5,-32 1,-28 25,-160 33,-192 3,-12 4,-19 7,-33 4,-22 5,-24 15,-38zm-4253 -1354l-28 0 -39 36c-137,0 -436,39 -575,69 -212,47 -377,101 -577,177 -22,8 -52,21 -76,32 -20,9 -109,55 -120,66 -12,11 -8,5 -8,15 -34,6 -65,35 -93,56 -16,12 -25,19 -41,31l-136 116c-32,27 -48,38 -53,66 -17,-3 -15,5 -49,47l-137 168c-8,11 -13,15 -22,26 -9,13 -13,20 -22,32l-68 81c-58,70 -61,41 -86,76 -54,45 -49,29 -76,67l-9 11c-1,1 -3,2 -4,3 -2,16 -9,50 -11,65l11 238c28,2 17,9 42,9 40,8 21,24 24,50 2,18 7,7 11,31 2,13 2,27 5,42 -7,29 3,45 11,69 5,15 5,20 9,33 9,32 23,64 42,90 8,11 10,12 19,23 11,12 10,15 21,27 26,29 158,45 204,54l442 79c32,6 34,13 72,18l144 24c25,7 16,10 36,30l44 52c72,87 161,148 258,203l49 23c35,16 80,29 116,40 50,15 145,27 201,27 59,0 96,-1 144,-12 30,-7 63,-11 88,-20 84,-29 165,-60 239,-109 89,-59 117,-56 206,-99 72,-35 220,-139 263,-204 88,21 309,0 413,0 147,0 276,-6 419,-6 288,0 560,-7 850,-6 69,0 128,-6 204,-6 72,0 144,0 216,0 77,0 132,-6 210,-6l635 -6c78,0 133,-6 210,-6 69,0 148,4 216,0 99,-5 210,-7 311,-6 43,0 60,-6 102,-6 66,0 386,-8 419,0 39,9 45,5 78,24l207 116c44,24 74,69 117,98l96 65c33,19 68,38 104,51 141,53 216,58 373,58 128,1 297,-66 398,-135 53,-35 106,-74 147,-123l5 -7c23,-27 47,-52 67,-83 29,-44 64,-86 77,-139l132 0 0 -48c34,-9 13,-19 72,-18 171,1 234,-22 382,-85 128,-55 92,-40 156,-119 29,-36 54,-77 60,-126 7,-66 8,-30 28,-68 19,-36 1,-300 -6,-353 -6,-44 -3,-137 -20,-166 -4,-8 -35,-37 -44,-46 -20,-20 -33,-23 -61,-35 -26,-11 -38,-15 -60,-30 -53,-35 16,-12 -91,-95 -104,-82 -208,-164 -317,-239 -92,-64 -181,-135 -271,-202l-312 -245c-65,-51 -57,-3 -121,-52 -37,-28 -70,-50 -108,-78l-165 -116c-167,-126 -234,-154 -404,-249 -22,-12 -36,-21 -58,-32 -22,-11 -37,-24 -59,-37 -39,-25 -83,-40 -126,-59 -42,-19 -85,-40 -127,-58 -15,-6 -16,-7 -28,-14l-99 -45c-65,-26 -126,-66 -193,-89 -69,-24 -143,-44 -217,-64l-292 -79c-115,-29 -273,-57 -391,-70 -25,-3 -58,-6 -84,-12 -41,-10 -475,-29 -534,-29 -96,0 -269,-2 -365,6 -21,2 -57,4 -82,7 -55,7 -114,4 -173,13 -55,8 -109,10 -169,16 -24,2 -52,11 -81,15l-126 18c-66,12 -135,20 -198,36 -123,31 -284,63 -396,113l-164 69c-106,46 -212,98 -310,157 -22,13 -38,24 -61,35 -23,11 -34,19 -56,34l-113 72c-23,14 -36,24 -58,38l-110 76c-76,47 -143,108 -216,161 -36,26 -78,47 -110,76l-96 90c-19,15 -93,65 -100,88zm-1696 628l133 -115c42,-38 138,-91 140,-101 1,-2 2,-3 3,-4 26,-8 78,-44 115,-62 87,-42 176,-72 271,-100 44,-13 101,-33 150,-43 32,1 163,-40 207,-50 231,-50 503,-78 742,-72 -10,24 -13,21 -32,44 -13,15 -18,22 -33,39 -19,21 -46,51 -62,82l-189 -40c-58,-9 -152,-20 -211,-17 -86,6 -134,-7 -261,13 -64,10 -182,30 -203,79 16,9 0,7 25,4 118,-22 116,-35 270,-37 213,-3 632,23 791,124 39,4 12,4 22,-10 -29,-12 -55,-36 -92,-53 -20,-9 -85,-35 -101,-45 -14,-3 -11,-1 -22,-13 17,-24 40,-45 60,-67 21,-24 40,-45 61,-70 48,-56 128,-147 189,-194l282 -233c105,-83 196,-143 299,-216 45,-32 204,-132 243,-152 123,-65 229,-106 359,-155 63,-23 124,-47 189,-68 533,-173 1053,-206 1618,-168 155,10 316,22 459,57 210,51 404,101 606,168 273,91 457,182 706,329 201,119 434,270 612,423 123,106 85,63 185,64 86,2 66,-24 152,48 51,43 327,267 336,286 -24,0 -22,-8 -56,-2 -29,51 74,153 113,191 25,24 46,41 56,65 16,3 103,70 125,90 37,31 84,62 135,83 33,6 44,22 80,7 32,-70 -53,-115 -60,-149 26,8 39,21 62,35 66,41 19,4 53,48 12,16 55,39 95,114 12,3 52,43 100,56 37,5 89,-19 86,63 -6,175 28,290 30,438 -43,-1 -73,7 -114,10 -42,3 -88,-3 -101,32 15,33 28,13 52,31 19,26 15,87 14,125 -47,30 -78,78 -192,86 -82,6 -187,0 -218,-61 -11,-22 -16,-89 -22,-117 -8,-43 -18,-76 -29,-116l-14 -58c-16,-53 -63,-138 -92,-188 -52,-91 -59,-88 -124,-163 -15,-17 -15,-23 -33,-39 -25,-22 -56,-47 -81,-63 -251,-170 -489,-215 -793,-150 -323,69 -579,305 -666,617 -70,250 -32,226 -55,368 -7,42 2,103 -8,136 -171,9 -344,5 -518,8l-1575 23c-523,5 -1049,21 -1575,23l-455 5c-41,0 -22,7 -52,13 -11,-176 -25,-385 -94,-535 -61,-133 -25,-93 -138,-244 -75,-101 -190,-191 -313,-256 -19,-10 -23,-15 -44,-23 -144,-56 -133,-53 -303,-79 -213,-33 -442,40 -605,148 -85,56 -209,163 -258,250l-23 38c-8,12 -17,26 -25,40 -15,28 -28,62 -40,92 -45,108 -37,138 -53,199 -21,78 -3,159 -13,244 -20,-3 -31,-35 -40,-55 -115,-6 -227,17 -302,66 -65,43 -46,43 -145,44 -74,0 -122,11 -140,-60 45,0 148,12 182,-10 59,-38 23,-158 -17,-211 -9,-12 -13,-13 -24,-23 -29,-25 -55,-39 -103,-40 -19,0 -87,6 -99,-7 -19,-40 -25,-177 -18,-231 39,0 91,-15 124,5 41,-3 84,1 125,0 41,-1 71,-16 106,-18l87 -33c34,-17 15,4 23,-22l-55 -3c-2,0 -4,-1 -6,-1l4 14 -229 -2c-35,1 -162,-7 -186,-19 20,-29 63,-44 124,-107 11,-11 149,-200 208,-265 26,-28 29,-35 54,-66 8,-10 18,-24 27,-33 14,-16 20,-13 24,-33zm7846 971c-18,60 -2,159 -102,292 -76,101 -198,189 -328,203 -117,13 -227,2 -332,-54 -50,-27 -120,-82 -152,-117 -98,-110 -141,-233 -141,-390 -1,-206 139,-390 330,-465 196,-77 467,-3 589,149 51,63 120,178 130,263 3,27 0,35 6,60 6,22 8,36 1,59zm-7133 -55c-5,-27 12,-64 21,-90 11,-31 29,-60 45,-87 190,-327 638,-319 844,-63 89,110 127,258 118,403 -4,72 -36,145 -60,197l-22 38c-52,76 -143,162 -227,192 -96,35 -135,49 -259,41 -218,-14 -360,-156 -439,-334 -18,-40 -51,-191 -28,-225l8 -71zm1580 -1633c5,-28 14,-33 30,-52 11,-13 30,-26 43,-32 57,-44 72,-49 122,-49 43,0 113,-19 156,-8 37,38 49,130 43,195 -6,66 -11,76 -136,104 -34,7 -188,26 -216,18 -49,-14 -63,-122 -43,-176zm239 -191c6,-20 33,-36 48,-47 73,-55 86,-63 162,-113 72,-48 272,-157 361,-196 45,-19 88,-40 130,-57 44,-18 96,-39 136,-50 97,-28 176,-61 288,-82l162 -25c290,-50 376,-63 683,-56l343 20c4,27 0,53 3,79 12,101 16,336 6,437 -4,41 0,57 -17,62 -359,1 -753,19 -1105,49 -245,21 -648,59 -893,113 -172,37 -99,13 -130,-60l-29 -55c-25,-43 -105,-16 -148,-19zm2688 -514c108,0 416,93 529,134l159 64c110,43 506,316 520,363l-591 -47c-177,-17 -491,-14 -604,-30l-13 -484zm-3210 879c-2,29 3,36 13,58 57,19 198,4 270,3l-2 42c-10,177 13,352 22,524 -28,-15 -81,-76 -102,-97 -30,-30 -45,-43 -80,-64 -11,-7 -22,-13 -29,-24 -22,-5 -12,-12 -31,-5 12,33 63,56 89,84 55,59 106,118 151,184 23,34 47,64 68,100 51,87 169,387 176,491 8,11 -2,-13 7,12 15,41 42,302 48,308 58,26 227,-23 274,9 68,-8 358,3 477,-4 79,-5 158,-1 237,-6 45,-2 201,-12 234,-5 9,-9 -8,-10 54,-11l186 -3c77,0 158,-5 239,-5 49,0 474,-7 481,-11 -34,-8 -205,-3 -253,-3 -88,-1 -467,-7 -525,4 -48,9 -690,-5 -786,-5 -63,0 -483,-14 -510,-24l-35 -193c-17,-62 -35,-117 -57,-177 -37,-104 -101,-226 -152,-314 -30,-52 -57,-96 -89,-138 -19,-25 -38,-38 -38,-76l4 -354c0,-81 -8,-152 -11,-226 7,-22 2,-17 32,-18l132 -3c166,-9 354,-10 509,-20 227,-14 461,-16 688,-25 229,-9 461,-20 688,-26 117,-3 233,-10 347,-12 91,-1 267,-19 348,-6l2 60c-2,141 60,1522 70,1538 22,-10 10,-54 9,-76 -8,-216 -10,-467 -14,-682 -2,-131 -6,-259 -8,-389 -2,-121 0,-270 -10,-390l0 -66 1189 -33 14 -7c76,1 166,5 240,1 38,-2 68,-6 114,-6 43,0 90,8 111,-16 1,-2 1,-6 2,-5 0,1 1,-4 1,-5 5,-49 -23,-43 -37,-80 -21,-17 -85,-83 -104,-102 -93,-94 -240,-200 -353,-275 -307,-205 -541,-286 -877,-381 -54,-15 -443,-90 -533,-93 -68,-2 -125,-13 -198,-13 -119,1 -290,-21 -410,-3 -34,5 -69,0 -103,4 -24,3 -60,8 -87,11 -311,35 -649,95 -934,223 -286,129 -465,222 -723,427 -25,20 -37,31 -60,48l-112 97c-11,10 -21,20 -28,26 -41,35 -213,194 -232,224z"/>
 </g>
</svg>
