<?xml version="1.0" encoding="UTF-8"?>
<!DOCTYPE svg PUBLIC "-//W3C//DTD SVG 1.1//EN" "http://www.w3.org/Graphics/SVG/1.1/DTD/svg11.dtd">
<!-- Creator: CorelDRAW X5 -->
<svg xmlns="http://www.w3.org/2000/svg" xml:space="preserve" style="shape-rendering:geometricPrecision; text-rendering:geometricPrecision; image-rendering:optimizeQuality; fill-rule:evenodd; clip-rule:evenodd"
viewBox="0 0 13914 8696" preserveAspectRatio="xMaxYMax meet"
 xmlns:xlink="http://www.w3.org/1999/xlink">
 <defs>
  <style type="text/css">
   <![CDATA[
    .fil10 {fill:#2B2A29}
    .fil6 {fill:#A7BCC0}
    .fil8 {fill:#EF7F1A}
    .fil9 {fill:#FEFEFE}
    .fil2 {fill:#F6FCFC}
    .fil3 {fill:#6A7273}
    .fil7 {fill:#9DB9BB}
    .fil4 {fill:#A9BABB}
    .fil5 {fill:#B8CDCE}
    .fil1 {fill:#D9E4E7}
    .fil0 {fill:url(#id2)}
   ]]>
  </style>
     <mask id="id0">
  <linearGradient id="id1" gradientUnits="userSpaceOnUse" x1="6936.14" y1="3302.38" x2="6936.14" y2="1220.86">
   <stop offset="0" style="stop-opacity:1; stop-color:white"/>
   <stop offset="1" style="stop-opacity:0; stop-color:white"/>
  </linearGradient>
      <rect style="fill:url(#id1)" x="692" y="892" width="12488" height="2739"/>
     </mask>
  <linearGradient id="id2" gradientUnits="userSpaceOnUse" x1="6935.27" y1="7832.83" x2="6935.27" y2="774.675">
   <stop offset="0" style="stop-color:#7F9191"/>
   <stop offset="0.501961" style="stop-color:#D2E5E7"/>
   <stop offset="1" style="stop-color:#7F9191"/>
  </linearGradient>
 </defs>
 <g id="Слой_x0020_1">
  <metadata id="CorelCorpID_0Corel-Layer"/>
  <g id="_205888616">
   <g>
    <path class="fil0" d="M12777 582c69,14 126,57 189,78l-7 -21 31 -63c62,25 196,106 222,158 52,66 96,102 143,181 44,73 79,158 99,241 42,168 24,471 24,654l0 5392c0,227 12,364 -97,573 -162,311 -487,506 -842,506 -3593,-6 -7190,0 -10783,0 -407,0 -750,50 -1075,-281 -97,-99 -236,-305 -237,-441 41,111 162,207 196,235 -119,-154 -127,-772 -127,-1000l0 -5253c0,-67 -2,-134 -1,-200 1,-70 14,-138 30,-203 -20,-4 -36,-12 -88,-6 17,-93 69,-201 124,-280l145 -155c12,-12 41,-38 58,-53 173,-144 405,-193 627,-192 1627,9 3276,1 4905,1l5722 0c166,0 653,-24 773,53 -12,41 -29,37 -32,77zm-12777 7294l0 -362 0 -6418 0 -259c4,-62 14,-118 35,-156 66,88 22,153 60,216 39,-30 42,-110 60,-160 56,-149 136,-287 256,-386 177,-146 388,-231 624,-236 570,-10 1151,0 1722,0l9896 0c69,0 389,13 427,-3 -4,-27 3,-1 -5,-20 -1,-2 -2,-8 -9,-16 -14,-17 -68,-45 -102,-75l6 0 6 0 5 0 5 0 5 0c101,0 133,2 235,36 70,23 135,57 199,96 70,43 283,212 311,294 134,203 110,313 84,463 2,58 -34,105 -34,163l0 6366c0,237 19,403 -91,622 -79,157 -163,301 -329,380 -64,30 -111,77 -233,122 -179,65 -798,40 -1019,40l-9896 0c-272,0 -1196,17 -1399,-19 -510,-44 -676,-444 -801,-604 -8,-21 -14,-50 -17,-83z"/>
    <path class="fil1" d="M2689 861c61,-17 460,-6 555,-6l7888 0c79,0 156,0 184,91 22,71 -10,158 -85,177 -67,17 -460,4 -560,4l-7888 0c-81,0 -159,2 -185,-90 -22,-78 13,-153 91,-175zm-2155 288c-3,61 -20,119 -21,190 -1,66 1,134 1,200l0 5253c0,228 -21,571 26,783 8,45 70,184 100,216 75,-1 204,101 287,124 57,16 73,8 167,36 64,19 106,31 176,32 274,5 552,1 827,1l9862 0c233,0 571,29 784,-42 116,-38 153,-74 245,-147 61,-49 50,-41 88,-104 21,-35 25,-2 45,-59 30,-86 14,32 58,-142l20 -3c-1,-43 27,-253 27,-381l0 -5348c0,-126 -9,-287 0,-409 13,-170 44,-279 52,-368 -14,-67 -94,-127 -129,-177 -11,-5 -173,-131 -182,-142 -63,-21 -121,-64 -189,-78 -37,-1 -132,-24 -177,-31 -55,-8 -140,-4 -198,-4 -3620,-4 -7242,6 -10862,0 -261,0 -439,-8 -663,147 -301,208 -295,418 -343,456z"/>
    <path class="fil2" style="mask:url(#id0)" d="M13162 3386c37,-120 5,-2332 3,-2494l-12437 1c61,386 -218,2609 195,2729 57,17 2040,6 2198,6l9418 0c92,0 339,13 412,-14 93,-35 208,-120 211,-227z"/>
    <path class="fil3" d="M17 7959c25,148 153,347 259,452 200,199 382,266 586,285l573 0 11553 0c201,-1 364,-65 527,-191 136,-106 250,-246 317,-405 62,-148 79,-257 83,-378l0 -260 0 -5774 0 -11c0,-236 -2,-474 0,-711 1,-131 -80,-459 -186,-539 37,42 76,270 54,452 2,58 4,116 4,174l0 6366c0,237 19,403 -91,622 -79,157 -163,301 -329,380 -64,30 -111,77 -233,122 -179,65 -798,40 -1019,40l-9896 0c-272,0 -1196,17 -1399,-19 -550,-94 -770,-607 -801,-604z"/>
    <path class="fil3" d="M2689 861c-78,22 -113,97 -91,175 26,93 104,90 185,90l7888 0c99,0 493,13 560,-4 75,-19 107,-107 85,-177 -28,-91 -105,-91 -184,-91l-7888 0c-95,0 -494,-12 -555,6z"/>
    <path class="fil4" d="M793 7960c50,94 306,189 410,210 146,29 444,12 605,12l10514 0c218,0 342,17 550,-67 280,-113 508,-416 511,-723 4,-414 0,-830 0,-1244l0 -4331c0,-107 22,-566 -17,-632l-22 50c-22,202 -20,160 -20,373 -5,1863 5,3729 0,5592 -1,249 -1,118 -58,342l-9 -24c-21,167 -220,373 -368,440 -238,108 -474,90 -732,90l-10627 0c-92,0 -412,5 -482,-26l-163 -45c-35,-12 -57,-9 -92,-17z"/>
    <path class="fil3" d="M12956 661c503,345 428,567 428,1156l0 4331c0,414 4,830 0,1244 -3,307 -231,611 -511,723 -208,84 -332,67 -550,67l-10514 0c-162,0 -459,17 -605,-12 -104,-21 -360,-116 -410,-210 -36,-17 -134,-125 -153,-169 -61,-63 -152,-163 -195,-234 1,137 140,342 237,441 325,332 669,281 1075,281 3594,0 7190,-6 10783,0 356,1 681,-194 842,-506 109,-209 97,-346 97,-573l0 -5392c0,-183 19,-486 -24,-654 -21,-82 -55,-168 -99,-241 -67,-159 -328,-351 -363,-349 -49,2 -22,54 -37,96z"/>
    <path class="fil5" d="M35 681c66,88 22,153 60,216 39,-30 42,-110 60,-160 56,-149 136,-287 256,-386 177,-146 388,-231 624,-236 570,-10 1151,0 1722,0l9896 0c69,0 389,13 427,-3 -4,-27 3,-1 -5,-20 -1,-2 -2,-8 -9,-16 -14,-17 -68,-45 -102,-75l-11902 0 -207 0c-56,3 -113,13 -183,36 -274,91 -580,379 -636,645z"/>
    <path class="fil5" d="M640 7791c20,44 117,153 153,169 35,8 57,5 92,17l163 45c70,30 390,26 482,26l10627 0c257,0 493,18 732,-90 148,-67 347,-273 368,-440l9 24c57,-224 57,-94 58,-342 5,-1863 -5,-3729 0,-5592 1,-213 -2,-171 20,-373l22 -44c5,-48 -65,-212 -101,-244 -8,89 -28,230 -41,400 -9,122 0,283 0,409l0 5348c0,128 -27,339 -27,381l-20 3c-44,175 -28,57 -58,142 -20,57 -24,25 -45,59 -38,63 -27,55 -88,104 -91,73 -129,109 -245,147 -214,70 -552,42 -784,42l-9862 0c-275,0 -552,4 -827,-1 -70,-1 -112,-13 -176,-32 -94,-28 -110,-20 -167,-36 -83,-23 -211,-125 -287,-124z"/>
    <path class="fil5" d="M539 1151c8,-30 36,-250 337,-458 224,-155 402,-147 663,-147 3619,7 7242,-4 10862,0 58,0 144,0 198,8 235,21 331,94 357,107 9,-36 26,-50 35,-92 -273,-187 -790,-118 -956,-118l-5722 0c-1629,0 -3277,9 -4905,-1 -222,-1 -454,48 -627,192 -87,73 -127,121 -203,207 -55,79 -107,186 -124,280 41,6 61,7 84,22z"/>
    <ellipse class="fil6" cx="6901" cy="7746" rx="5500" ry="163"/>
   </g>
   <g>
    <path class="fil7" d="M8512 1626c-62,79 -171,308 -209,408 -179,468 591,476 420,3 -25,-69 -168,-368 -212,-411z"/>
    <path class="fil7" d="M3777 1626c-41,40 -183,336 -208,404 -34,90 -48,157 3,244 139,241 540,92 417,-234 -33,-86 -156,-349 -212,-414z"/>
    <path class="fil7" d="M5342 1625c-51,52 -179,321 -210,403 -35,90 -49,161 3,248 143,239 535,89 417,-234 -47,-128 -137,-299 -210,-417z"/>
    <path class="fil7" d="M6951 1626c-59,76 -172,305 -209,403 -180,480 588,473 420,12 -37,-101 -148,-330 -211,-415z"/>
    <path class="fil7" d="M7601 1464c-5,41 -58,137 -76,184 -113,298 163,418 329,328 270,-146 -6,-533 -103,-715l-15 -19c-60,57 -73,172 -135,221z"/>
    <path class="fil7" d="M9271 1267c-8,56 -219,366 -213,513 6,153 158,264 311,216 40,-12 103,-67 114,-68 64,-149 85,-147 -15,-367 -44,-97 -110,-231 -170,-318l-28 25z"/>
    <path class="fil7" d="M4428 1466c-9,87 -118,201 -103,332 32,272 432,280 474,9 21,-138 -93,-249 -102,-340 -55,-45 -80,-167 -134,-222 -56,56 -76,175 -134,222z"/>
    <path class="fil7" d="M5994 1460c-5,71 -117,203 -108,327 8,122 111,217 233,220 122,3 231,-89 244,-210 15,-135 -102,-259 -108,-343 -34,-27 -101,-166 -125,-214 -57,46 -79,175 -135,220z"/>
    <path class="fil7" d="M9872 1926c-2,40 -49,126 -61,180 -54,235 249,380 399,217 189,-206 -77,-495 -161,-697 -54,33 -127,257 -177,299z"/>
    <path class="fil7" d="M2737 1767c6,211 255,320 395,182 72,-71 102,-141 72,-246 -18,-62 -94,-210 -98,-248 -45,-34 -89,-158 -127,-213l-18 21 -119 221c-42,86 -93,186 -104,282z"/>
    <path class="fil7" d="M10620 1626c0,42 -96,211 59,332 109,85 240,57 330,-35 180,-186 -146,-551 -156,-657l-27 -24c-45,69 -183,361 -207,384z"/>
   </g>
  </g>
  <g id="_205889096">
   <path id="cvet" fill="#EF7F1A" d="M3519 5637c0,0 310,-159 754,-32 0,0 221,105 261,137l-9 33 -53 89 -42 36c0,0 -197,-136 -794,-198l-84 -34 -34 -31zm6151 443c387,0 700,313 700,700 0,387 -313,700 -700,700 -387,0 -700,-313 -700,-700 0,-387 313,-700 700,-700zm-5795 -32c387,0 700,313 700,700 0,387 -313,700 -700,700 -387,0 -700,-313 -700,-700 0,-387 313,-700 700,-700zm2062 -1467l24 -113 34 -19 43 8 30 0 13 -54 -13 -70 -19 -66 8 -63 9 -34 27 3 1 -51 -149 -226 48 -28 35 -9 8 -48 39 -58 34 -38 28 30 0 145 -8 106 -20 24 -39 -88 -40 -59 -66 23 164 272 63 0 104 -18 16 27 67 -5 79 -8 70 67 -11 108 -23 51 -51 24 -11 47 -209 53 -35 51c0,0 -36,69 -230,66l-19 -30 -3 -20zm1732 2080c0,0 -22,-127 218,-137 240,-11 444,-22 444,-22l3 -102 229 -180 318 -40 35 264 -280 194 -259 40 -202 -8 -232 22 -183 40 -78 -8 -13 -62zm-1150 -113c0,0 54,-40 310,-108 256,-67 296,-102 412,-81 116,22 294,105 294,105l100 224 -65 59 -318 127 -170 38 -501 16 -162 -51c0,0 -132,-116 27,-291l40 -22 32 -16zm2399 -789l81 5 172 113 711 -83 633 -43 199 -38 -27 -65 -194 -148 -253 -127 -396 -92 -407 35 -364 256 -172 137 16 48zm-2857 1478l143 -35 329 46 902 22 218 -16 86 22 -97 38 -83 48 -221 16 -848 3 -205 -8 -83 -32 -113 -70c0,0 -30,-38 -27,-32zm-640 -1372l283 611 137 191 221 213 35 124 -59 197 5 137 -159 16 -355 -62 -59 -127 -110 -560 -38 -530 54 -191 46 -19zm333 -895c0,0 162,-237 633,-205 471,32 749,118 1206,555 0,0 132,159 129,215l-159 -86 -127 -81 -83 -48 -100 -19 -539 -11 -364 -5c0,0 -337,-92 -525,-248l-49 -44 -24 -23zm-412 330l170 357 121 -44 329 -178 98 -90 -522 -291 -75 50 -108 152 -12 44zm-164 124l-78 -30 -3 -46 175 -197 199 -242 86 30 -224 261 -105 180 -51 43zm-333 -166c0,0 47,-284 236,-497 0,0 219,23 276,4l-15 55 -50 46 -61 -11 -75 61 -110 0 -74 149 114 13 -11 35 -168 133 -62 11zm-230 802l19 -67 62 -48 94 81c0,0 224,442 242,606l-34 28 -57 -31 -213 -45 -20 -26 22 -33 86 -153 -145 -252 -55 -60z"/>
   <path id="belyi" class="fil9" d="M3732 6764l59 -57 28 -36 53 -49 44 -44 34 -36 474 -605 108 -170 46 8 75 -97 229 -275 22 -54 57 -54 439 -555 24 -57 35 -3 46 -59 67 -94 116 -116 229 -180 92 8 32 78 -167 102 70 40 -11 135 -4 28 -193 75 -108 57 19 69 -34 48 -65 22 -43 -15 -415 491 5 46 30 43 -22 54 -86 -22 -307 369 -19 59 -110 135 -159 167 -369 490 -110 124 -54 73 -86 13 6 -34c0,0 -63,-1 -77,-118l0 -2 2 -2zm2229 -1846c0,0 775,-236 1451,315 0,0 -557,-435 -1372,-274 0,0 -56,-1 -73,-28l-6 -8 1 -5zm-714 542l549 1142 242 264 89 19c0,0 116,366 487,369 372,3 1198,8 1198,8 0,0 1115,-54 1268,-32l549 24c0,0 73,11 173,-107 100,-118 121,-147 39,-147 -82,0 -1236,7 -1503,54l-15 -43 23 -22 1443 -78 166 -7 121 -92 109 -132 100 -145 -567 -8c0,0 -1138,106 -1372,139 0,0 -501,35 -668,83 -167,48 -627,194 -778,186 -151,-8 -469,54 -533,-143 -65,-197 296,-302 296,-302l294 -91 178 -55 158 -3 121 23 93 16 159 118 149 -1 100 24 145 -8 267 -225 603 -292 47 4 436 525c0,0 240,19 264,-16l-455 -560 -59 -79 -140 -88 -43 -26 -97 11 -945 -3 -240 -248 -372 -213 -172 -5 -808 -16 -205 -65 -296 -167 -224 -135 -113 89 148 105 269 143 108 67 -3 46 -67 40 -450 245 -175 -337 -124 67 29 76zm-429 -175l-32 -7 -13 -43c0,0 27,-291 226,-466l30 4 8 22 -13 34c0,0 -70,53 -201,439l-4 5c0,0 -1,12 0,12z"/>
   <path id="kontur" class="fil10" d="M6848 7356c-138,0 -519,18 -597,-9 -35,-12 -129,-69 -137,-89 30,-46 197,6 226,7 87,4 162,11 252,11 167,0 346,8 519,8l375 -1c44,-2 45,-12 92,-12 36,0 58,-5 94,-5 -8,17 5,6 -17,17l-56 27c-105,59 -112,47 -273,52 -71,2 -142,-7 -211,-8l-267 1zm2147 -1470c-80,-8 -8,-108 30,-36 -4,21 -13,28 -30,36zm-41 3c22,22 46,33 74,6 27,-26 15,-52 -6,-73 -48,-37 -108,20 -68,68zm127 62l5 0c1,-1 2,-3 3,-3 1,-1 2,-2 3,-3 1,-1 2,-2 3,-3l12 -10c9,-8 7,-4 9,-18 -25,-15 -75,29 -83,53 28,-3 24,-7 48,-16zm-3048 -1723c-61,-58 -42,-116 -135,-56 -85,55 -71,54 -128,103 -20,18 -16,0 -22,28 -11,-4 -2,-9 -40,34l-16 19c-7,9 -10,15 -17,24 -6,8 -9,12 -15,21l-72 87c-28,33 -67,79 -85,115 -8,15 -22,34 -36,45l-5 15 -21 2c-14,3 -12,7 -30,25 -10,10 -18,20 -22,35 -25,0 -58,2 -82,0l-150 -14c-16,-1 -18,4 -29,11 -26,17 -11,5 -32,4 -38,0 17,11 -72,10 -30,0 -51,0 -65,17 -46,58 -111,162 -145,230 -6,12 -7,15 -14,27 -11,21 -17,41 -24,63l-23 100c-5,27 -8,86 6,108 49,76 69,28 146,28 -63,94 -5,35 -60,99 -14,17 -64,101 -108,144l-39 48c-19,26 -76,82 -81,89 -46,0 -22,19 -59,36l-6 6c-104,-57 -203,-139 -321,-169 -115,-30 -207,-39 -333,-37 -32,1 -126,12 -158,17 -7,1 -26,7 -33,8 -47,7 -198,44 -225,83 10,11 21,12 35,22 12,9 23,15 27,29 -67,1 -276,128 -335,173 -57,44 -158,129 -195,185l-55 73c-7,9 -10,13 -17,24 -4,7 -3,6 -8,13 -6,9 -2,0 -9,12l-32 56c-11,21 -17,39 -28,59 -6,10 -7,17 -11,30l-27 70c-3,7 0,1 -2,8 -25,74 -40,149 -51,227 -5,34 -10,16 -10,72l0 129c1,33 6,11 10,36 16,98 -2,55 34,177 5,16 3,21 9,37l17 44c3,9 2,7 6,15 5,10 0,-2 7,14l18 49 94 163c7,10 10,12 18,24l52 66c10,12 -5,-6 5,6l72 77c20,22 55,50 65,58 79,67 171,126 268,163 9,3 7,2 15,6l31 15c22,10 40,13 61,21 9,3 19,8 29,12 59,24 44,13 102,26 79,18 242,14 326,8 19,-1 14,-4 36,-5 40,-2 208,-40 245,-53l26 -15c14,-6 16,-9 31,-15 59,-26 115,-53 170,-87l51 -37c8,-6 15,-10 24,-17l17 -14c49,-41 162,-147 196,-200 3,-5 4,-6 8,-13 6,-11 5,-5 6,-18 10,-23 30,-48 44,-71 78,-128 120,-271 143,-422 9,-57 10,-151 3,-211 -2,-5 -45,-35 -67,-60 -17,-19 -35,-56 -45,-83 -29,-87 -41,-98 7,-133 17,-12 14,-23 34,-26 7,11 68,216 80,267 13,56 27,39 69,35l10 -6c1,-47 -11,-131 -25,-175 -24,-79 -54,-165 -91,-238 -12,-24 8,22 -4,-7 -8,-19 9,-89 14,-112l37 -163c4,-13 4,-12 7,-24l39 -110c0,-1 1,-2 2,-3 4,-12 4,0 1,-15 14,-6 15,-1 22,-20 10,-28 -13,-11 8,-53l57 -127c16,10 28,24 51,26 28,-7 16,-14 30,-32l37 -30c21,44 46,118 77,180 34,68 27,55 12,89 -6,14 -7,16 -13,28 -28,56 -49,141 -60,202 -14,78 8,202 9,251 1,55 54,372 66,453l29 146c3,14 13,58 8,67 14,6 7,-5 10,12 3,18 -2,7 -5,11 9,18 23,135 62,231 6,16 13,35 23,49 50,73 62,53 83,55 24,3 46,11 64,13 67,7 21,3 62,10 95,16 252,35 343,32 34,-1 45,-11 59,-29 14,-18 19,-21 8,-43 22,5 38,18 57,25 74,27 133,47 215,47 107,0 215,10 334,10 115,0 230,0 344,0l162 -7c29,-5 54,-2 84,-3 25,-1 52,-10 77,-11 50,-2 113,-2 158,-12 19,-4 38,-18 58,-29 11,-6 14,-10 28,-7 2,0 15,5 16,5 37,10 142,18 178,18 39,0 112,10 118,10 22,-2 8,-7 39,-2 39,6 -4,-7 70,2l174 0c30,0 46,5 82,5 26,0 298,12 318,5 12,-4 4,-1 9,-5l-4 -73 78 -3 15 -1c5,22 59,99 78,122l62 72c32,32 63,70 104,101 71,53 114,94 200,134 70,33 62,35 140,66l101 32c15,4 43,3 60,7 25,5 34,3 61,6 54,6 211,0 257,-6 48,-7 31,3 86,-12l88 -14c9,-2 13,-6 23,-8 53,-12 17,-6 49,-17 9,-3 17,-5 26,-9l92 -42c10,-4 1,0 10,-5l37 -20c92,-55 97,-59 174,-124l151 -158c61,-76 112,-163 147,-253 8,-20 15,-30 22,-50 6,-16 9,-34 15,-52 38,-118 65,-314 42,-423l-18 -116c-7,-34 -16,-72 -28,-106l-57 -143c-8,-19 -21,-31 -22,-50 -8,-7 -2,-1 -15,0 6,-17 2,-19 -17,-50l-24 -33c-39,-68 -100,-128 -156,-184l-81 -73c54,5 162,61 213,96 28,19 36,28 80,28 16,24 29,34 35,68 13,76 8,66 72,87 40,13 91,30 134,30l0 -16 0 -92c-24,-6 -12,-8 -23,-28 -5,-10 -4,-5 -11,-15 -5,-8 -7,-12 -11,-20 -1,-2 -48,-47 -42,-71 16,-24 35,-23 36,-61 2,-57 -5,-66 -5,-90l-12 -4c-7,-50 -46,-57 -96,-52 -8,1 -18,4 -26,3 -24,-1 -10,-2 -16,-6 6,-21 11,-11 88,-10l16 -20c-4,-35 -55,-84 -79,-107 -47,-47 -45,-38 -87,-72 -1,-1 -4,-4 -5,-5 -8,-5 -1,-2 -9,-4 -18,-10 -19,-22 -30,-39 -84,-141 -84,-124 -186,-131 -104,-7 -116,0 -218,-35 -83,-29 -168,-47 -253,-64 -27,-5 -22,-6 -37,-25 13,-35 23,-29 -14,-57 -34,-25 -45,-13 -61,-36 -2,-5 2,-3 -8,-9 -7,-4 -12,-5 -19,-7 -48,-13 -147,-44 -195,-52l-88 -15c-19,-2 -13,-8 -36,-10 -74,-5 -156,-25 -226,-25 -51,0 4,-7 -82,-21 -16,-3 -37,-14 -62,-10 -24,4 2,1 -18,8 -45,15 -94,-6 -199,53 -10,6 -8,3 -17,8 -36,18 -89,79 -113,113l-118 154c-21,28 -35,38 -64,60 -47,35 -6,9 -60,38 -110,59 -174,42 -294,34 -32,-2 -123,-25 -158,-42l-104 -50c-41,-21 -57,-44 -86,-63l-149 -103c-31,-13 -84,-26 -116,4 -9,9 -15,20 -18,33 -14,-9 -20,-23 -32,-35 -21,-21 -51,-53 -74,-70 -15,-11 -24,-23 -38,-34l-37 -30c-11,-7 -14,-6 -25,-11l-84 -60c-19,-13 -10,-11 -24,-7 -10,-24 -18,-21 -61,-47 -56,-34 -155,-88 -206,-108 -13,-5 -21,-10 -36,-15l-94 -34c-36,-11 -154,-42 -189,-47l-87 -15c-18,-1 -26,-3 -45,-6 -13,-2 -29,-2 -46,-5 -68,-10 -60,0 -94,1 -23,1 -42,-6 -93,5l-257 51 -75 32c-29,6 -100,45 -123,58 -20,12 -78,60 -99,81l-10 -9 -8 -6c3,-15 9,-18 15,-30 12,-23 20,-34 27,-57 -40,-51 -89,-55 -94,-87 21,-16 115,-57 142,-68 60,-23 123,-68 144,-35 9,5 -10,3 15,5 4,0 16,0 21,0 13,0 25,0 38,0 15,-13 19,-12 38,-17 15,-4 24,-6 42,-10 6,-1 66,-18 74,-24 23,-16 24,-43 53,-50 31,-8 48,-14 79,-20 20,-12 -21,-18 82,-45 99,-26 34,-31 67,-64 27,-7 29,-5 54,-21 15,-10 10,-6 21,-21 9,-14 10,-11 12,-28 5,-14 -4,-11 22,-11 23,-1 55,11 76,4 25,-8 40,-38 36,-70 -9,-80 -108,-24 -137,-77 -7,-10 -12,-21 -22,-30 -6,-5 -24,-17 -32,-20 -26,-10 -60,-7 -94,-7 -10,17 -36,27 -58,24l-15 -24c-27,-21 -22,-6 -88,4 -26,4 -58,10 -81,11 -3,-12 -10,-22 -18,-34l-64 -95c-17,-22 -27,-44 -42,-66 -11,-16 -37,-51 -41,-67 14,-8 23,-11 41,-15 14,60 32,122 88,149l40 -22c14,-54 11,-112 10,-179 0,-26 -6,-57 -12,-81 -8,-36 -16,-38 -35,-62 -13,8 -27,17 -36,29 -11,15 -10,24 -30,33 -3,10 -16,29 -22,42 -11,23 -14,21 -14,53 -26,6 -44,23 -77,26 -4,50 -9,36 34,110l95 158c18,7 18,4 20,24 -23,-1 -20,-2 -27,-20 -19,5 -23,8 -25,31 -1,9 -1,19 -1,28 -1,12 1,6 -1,23zm-246 1101c18,-9 19,-8 23,-28 -9,0 -10,-2 -20,2 -22,8 -5,2 -12,12 -45,3 -123,59 -162,74 -13,16 -31,18 -49,31 -24,17 -41,15 -35,45 27,0 26,-9 48,-15 37,-20 73,-33 111,-56 36,-22 60,-41 96,-65zm-334 -82c30,9 61,-17 81,-31 21,-15 60,-33 63,-57 -31,2 -150,44 -144,88zm22 80c31,3 163,-77 171,-114 -44,4 -175,60 -171,114zm181 -48c-9,10 -108,55 -122,78 -12,20 0,18 3,22 19,11 48,-16 73,-23 29,-24 129,-69 141,-99 -35,-1 -66,19 -95,23zm-101 243c-12,15 -14,8 -15,22 19,6 32,-3 51,-6 36,-10 99,-49 134,-67 26,-14 109,-62 119,-82 -15,-7 -14,-5 -42,5 -99,33 -159,76 -248,129zm-1724 1147c24,-11 6,0 28,-24 26,-28 61,-44 75,-78 34,-20 492,-600 546,-683 9,-14 23,-31 30,-44 30,-58 2,-24 27,-63 36,5 62,45 90,68 16,13 13,4 25,24l24 18c-2,13 -30,50 -40,61 -77,96 -38,42 -76,73l-245 304c-19,23 -27,41 -42,61l-218 280c-41,43 -70,97 -97,103l-18 -38 -20 -20c-9,-8 -11,-9 -22,-8 -1,-1 -3,-4 -4,-3l-8 -6c-1,-1 -3,-2 -4,-3 -1,-1 -3,-2 -4,-3l-52 -2 4 -18zm94 -111c-38,21 -31,45 -53,52 -12,-32 10,-40 -23,-57 -45,-24 -208,55 -132,110 17,12 50,21 68,36 -1,1 -10,13 -10,13 -16,3 -19,3 -22,23l21 -1c44,-11 80,-22 118,15 42,41 16,71 12,118 -14,9 -18,12 -29,26l-47 1 -25 -6c-15,9 -29,23 -39,32 -8,57 28,69 80,73 55,4 95,-2 99,-52 -8,-20 -20,-26 -28,-51 8,-12 25,-26 38,-32 42,33 19,69 84,64 28,-13 62,-103 63,-111 0,-2 1,-3 2,-4 105,1 202,13 295,27 50,8 95,2 123,-29 32,-35 15,-94 16,-134l45 -5c26,-1 63,-14 83,-25 43,-23 47,-37 70,-40 38,55 13,273 3,340 -2,12 -16,63 -21,75 -10,24 -16,46 -24,69 -45,123 -148,243 -237,323 -51,46 -107,85 -170,113 -24,10 -32,21 -62,30 -28,9 -47,16 -72,26 -110,45 -306,53 -417,34 -139,-24 -285,-82 -393,-166 -290,-224 -407,-544 -316,-930 29,-124 120,-265 208,-351 18,-17 30,-32 49,-48 53,-45 104,-81 164,-114 184,-100 428,-135 629,-86 47,11 91,28 137,46 24,9 102,48 120,64 -4,21 -69,90 -85,112 -12,23 -67,85 -85,108 -24,31 -225,289 -239,312zm1693 686c3,15 -1,7 5,21l-34 -7c-60,-35 -83,-58 -104,-139 -10,-7 -4,5 -14,-16 -8,-17 -19,-104 -23,-122 -13,-68 -66,-374 -66,-426 24,32 49,193 66,253 11,42 25,83 38,119l42 117c5,25 76,181 90,200zm37 39l-17 -37c-6,-10 -4,-7 -12,-13 -1,-18 -21,-55 -29,-80 -7,-21 -25,-63 -24,-83 -21,-16 -3,-8 -24,-58 -18,-44 -52,-168 -68,-225 -23,-77 -55,-216 -70,-294 -29,-148 -34,-233 -57,-382 2,-47 8,-81 12,-125 3,-46 5,-84 55,-83l108 257c39,85 71,177 104,255 44,102 42,65 80,104 75,77 -10,10 58,91l260 274c17,19 39,24 30,55 -29,0 -30,-25 -71,-20 -54,8 -53,82 -23,112 22,22 43,10 64,23 -18,41 -93,5 -108,-14 -28,-35 -23,-73 -10,-119 0,-8 -72,-122 -81,-134 -8,-11 -15,-21 -24,-32 -4,-5 -8,-9 -12,-14 -15,-21 -41,-63 -66,-66 1,18 31,66 40,82 31,59 1,52 -7,86 -2,57 -21,74 -4,142 13,48 46,66 62,81 8,7 3,3 9,11 92,18 68,39 107,110 17,31 82,127 83,132l-185 -16c-29,-4 -67,-6 -95,-8 -33,-2 -60,-13 -82,-11zm2419 -578c33,0 58,-2 91,1l-1 44c-3,1 -5,0 -5,2l-12 4c-18,8 -5,-11 -16,10 -41,-10 -190,16 -235,20 -109,10 -95,16 -165,30 -18,4 -35,7 -52,10 -293,56 -454,175 -857,182 -146,3 -370,23 -432,-79 -35,-21 -49,-105 -77,-126 -6,8 -7,3 -7,18 0,1 3,13 4,17 29,116 66,180 189,216 44,13 98,3 140,-3l284 -15c128,-4 367,-61 491,-100 47,-15 190,-53 235,-60 42,-7 225,-45 250,-46 50,-3 91,-10 135,-16 29,-4 99,-16 130,-10l10 214c-150,3 -312,20 -454,44l-221 32c-27,9 -181,30 -217,34 -35,-2 -114,11 -148,16 -134,19 -509,22 -639,-8 -16,-4 -43,-14 -61,-20 -20,-7 -42,-13 -62,-20 -54,-18 -134,-120 -148,-178 -4,-5 -4,-1 -8,-11 -2,-4 -2,-8 -3,-13 -1,-8 -2,-23 -3,-31 -3,-56 -7,-114 3,-169 10,-52 45,-136 75,-159l0 -39 61 -52c47,-40 176,-78 240,-99l171 -56c189,-55 360,-150 548,-118 262,45 284,165 227,178 -30,28 -98,-6 -151,-16 -73,-13 -22,-6 -92,-10 -117,-7 -153,1 -260,37 -26,9 -44,18 -72,27l-69 27c-50,17 -110,23 -160,43 -55,21 -118,39 -145,49 -102,40 -192,64 -222,170 -3,22 -13,73 -11,87 2,15 5,30 8,44 4,19 8,18 14,37 17,31 29,52 57,73 80,59 232,39 352,38 25,0 37,5 61,5 24,0 39,-4 62,-6 21,-1 47,0 66,-2 18,-2 26,-6 52,-7 110,-2 377,-105 502,-144 36,-11 69,-16 104,-26 76,-22 362,-76 442,-71zm-3339 -814c11,-18 21,-29 31,-44l0 -16c12,-22 15,-19 29,-38l62 -76c36,-36 90,-109 126,-151 12,-15 24,-21 35,-37l92 62c-35,67 -95,206 -117,278 -4,13 -8,21 -13,34 -11,29 -49,201 -50,218 7,12 8,20 0,35 -21,-3 -20,-12 -29,-32l-44 -69c-13,-23 -16,-2 -27,-33 0,-1 -1,-4 -1,-3 0,1 -1,-2 -1,-3l-71 -88c-11,-11 -17,-21 -22,-37zm3242 121c-10,-72 59,-77 78,-43 14,25 -3,49 -19,56 -28,12 -45,-2 -59,-13zm-80 194c48,-17 99,-45 150,-62 46,-15 101,-39 152,-60 42,-17 284,-112 304,-110l3 -29c31,-12 46,8 35,-36 -49,-2 -28,-13 -149,-13 -54,0 -96,-4 -149,-4 -410,-5 -291,-21 -333,79 -24,59 -60,73 -71,141 -21,132 19,99 57,93zm-1436 532l2 3c23,-16 147,-8 184,-8 21,0 159,-3 167,-7 -11,-24 -173,-47 -209,-56 -66,-16 -194,-4 -182,70l39 -2zm-2705 115c-1,-27 -14,-44 -18,-65l11 -16c-2,-78 -163,-98 -91,77 13,32 19,47 65,40 6,-3 19,-25 33,-35zm165 -200l-2 16 60 5c25,-9 130,-144 151,-169 50,-61 98,-119 145,-175l4 -20c-20,-13 -37,-18 -67,-13 -25,25 -46,58 -70,86 -27,32 -47,55 -75,89 -49,58 -99,130 -145,181zm429 -135l-31 -1c-63,78 93,72 31,1zm-24 118l0 2c17,10 17,17 39,18 29,2 45,-6 50,-29 4,-21 -1,-33 -8,-49 -25,-3 -37,-12 -59,6 -18,14 -23,20 -23,51zm63 36c-43,20 -16,61 18,56 37,-5 29,-77 -18,-56zm1928 -161c17,0 100,-37 115,-45 27,-13 91,-28 121,-40l231 -80c78,-24 291,-100 370,-108 80,-9 169,-5 251,-2 -6,-27 -35,-17 -66,-25 -79,-21 -170,-7 -241,5 -57,9 -222,62 -279,83 -119,43 -280,90 -399,139 -28,11 -93,43 -102,74zm2313 730c33,-6 68,-10 71,20 -12,6 -31,8 -47,7 -21,-2 -25,-6 -24,-26zm-346 -129l-1 61c-13,12 -31,12 -51,10l1 -102c18,-2 38,-7 50,-1l0 31zm-97 40l-2 5c6,7 4,0 7,12 2,12 0,-1 0,10 0,3 -2,21 -3,26 -2,23 -2,24 -10,38 -75,7 -162,1 -240,2 -216,4 -485,14 -693,0 -155,-11 -300,-20 -462,-17 -83,1 -148,6 -226,-9 -41,-8 -155,-37 -165,-71 2,-1 -4,-12 24,2 5,3 14,8 20,10 16,6 28,12 44,17 116,36 461,33 591,26l213 -31c67,-16 156,-17 226,-29 67,-11 134,-27 206,-37l223 -28c40,-2 80,-5 118,-4 113,0 131,-33 129,78zm1551 -66c-12,33 -84,71 -117,151 -101,6 -217,-10 -320,-12 -109,-3 -216,-7 -324,-7 -107,1 -221,7 -324,6 -33,0 -134,0 -162,6 -36,7 -39,-5 -73,-2 -25,3 -41,5 -72,5 -6,-6 -7,0 -8,-23l2 -138c0,-1 2,-2 2,-4 1,-15 317,-29 352,-29 57,0 123,-10 180,-9 133,1 245,-5 370,-6 62,0 123,0 185,0 125,0 241,2 365,4 -4,19 -38,47 -57,57zm-76 154c7,-22 130,-138 159,-169 17,-18 30,-48 55,-51 -6,34 -75,108 -94,126 -22,21 -90,92 -120,95zm-1460 -400c0,-36 15,-24 46,-28 15,-2 33,-13 37,4 4,15 4,107 0,122l-70 11c-16,-28 -14,-75 -14,-109zm-3998 -273l30 -45c7,-15 76,-99 90,-104 16,9 89,130 90,149 32,19 40,192 30,228 -20,4 -38,-3 -60,-6 -25,-3 -44,0 -61,-13l-36 -3 -148 -13c-30,1 -16,10 -36,19 -14,-7 -15,-12 -24,-17 -13,-7 -14,-3 -26,-9 7,-16 87,-108 111,-139l26 -35c10,-10 3,-4 14,-11zm3222 201c1,-13 5,-23 12,-34 10,-16 7,-14 28,-11 0,26 -19,42 -40,45zm859 -53c-2,36 -19,26 -53,33 -27,5 -44,9 -33,-28l86 -5zm1690 16c-8,19 -32,43 -46,65 -15,22 -29,47 -42,66l-804 24c-5,4 -3,4 -13,7 -1,0 -12,2 -14,3 -6,1 -15,1 -22,1l-144 12c-138,9 -446,67 -554,70 -13,-46 -13,-130 -6,-185l150 -24c18,-3 36,-2 53,-5l307 -42c99,-8 219,-30 308,-34 72,-3 147,-11 221,-14 39,-2 68,-7 108,-7 59,0 140,-10 164,-10 103,0 314,-8 394,-1 -2,11 -45,66 -59,74zm-1786 -79c5,-31 144,-55 180,-65 74,-21 54,-14 73,-4l99 23c4,1 10,2 13,3 19,6 3,0 12,6 -6,6 -4,8 -21,11 -27,4 -34,-2 -78,11 -48,14 -62,2 -107,4l-171 13zm1766 216c-12,-62 230,-297 290,-300 0,26 -12,31 -27,49 -11,14 -20,27 -30,42 -92,131 -99,110 -189,186 -16,14 -21,24 -44,22zm-1627 -178c46,-2 80,-1 124,-7 96,-13 233,-38 324,-45l115 -14c71,-12 485,-57 563,-56 159,2 320,-12 478,-18 45,-1 79,5 118,5 42,0 84,0 126,-1 -5,18 3,12 -17,24 -74,45 -46,22 -191,22 -43,0 -86,0 -128,0 -79,0 -93,7 -118,7 -86,0 -171,3 -252,8 -76,4 -163,6 -233,18 -21,4 -40,1 -59,6 -57,15 -329,29 -402,42 -53,10 -417,65 -448,61l1 -52zm-1184 -117c10,-13 6,-12 35,-21 35,-12 95,-18 123,6 -25,20 -53,11 -83,12 -47,2 -41,16 -66,9l-9 -6zm-64 185c2,23 27,55 39,69 9,10 20,20 30,27 15,10 20,5 27,21 -61,15 -114,-3 -158,-33 -101,-68 -53,-44 -130,-3 -74,40 -147,41 -229,54 -90,13 -245,24 -266,-95 -3,-3 -12,4 -10,-33 0,-4 4,-26 4,-31 2,-11 13,-36 20,-47 16,-26 74,-53 78,-54 45,-12 263,11 328,25 20,4 68,19 90,17l3 -70c22,2 12,-2 25,13 13,16 4,11 22,17 12,-16 43,-93 89,-92 8,36 -36,72 -41,123 20,-3 47,-17 61,0 19,16 -4,23 -8,48 9,26 16,17 26,46zm1429 -190c8,-18 53,-37 72,-50 21,-13 59,-41 81,-43 -2,35 7,53 6,73l-48 35c5,14 9,12 16,21 -14,8 -81,-19 -100,-24 -20,-5 -15,1 -27,-12zm-237 -45c48,0 104,-12 131,1 25,12 21,2 23,24 -21,8 -69,8 -93,11 -32,4 -52,7 -79,17 -53,19 -104,32 -121,80 -42,6 -80,13 -120,19 -29,4 -100,12 -127,12 5,-34 23,-50 -11,-82 -18,-17 -50,-29 -82,-27 4,33 34,20 59,50 34,41 -15,119 -88,52 -29,-27 -11,-48 -10,-83 -28,5 -36,29 -34,59 2,43 25,32 33,57 -57,33 -72,-84 -26,-133 38,-40 72,-28 102,-37 25,-8 380,-19 442,-19zm442 -76c71,-11 106,56 53,82 -54,26 -100,-23 -53,-82zm-1960 60c-7,-34 11,-36 42,-44 34,-9 47,-8 42,33 -22,21 -47,36 -83,11zm2455 14c7,-39 59,-107 80,-116 16,11 93,90 99,114 -34,1 -19,-1 -36,-18 -28,-27 -51,8 -60,18l-83 2zm-1414 -34c-71,7 -73,-64 -30,-77 51,-15 82,47 30,77zm-1140 60c101,7 185,-23 265,-79 75,-52 153,-99 253,-99 -8,16 11,8 -21,19 -85,29 -185,84 -242,149 1,1 2,3 3,4 6,5 17,17 30,14 15,-4 100,-139 313,-140 64,0 159,11 203,32 -6,32 -10,10 -19,39 19,33 33,33 50,76 16,42 3,74 12,111l84 2c19,5 13,3 17,17 -1,1 -3,2 -4,2l-13 4c0,0 -14,0 -15,0 -61,0 -214,-11 -235,4 4,11 2,12 19,14 10,1 25,1 36,2 -2,64 -69,114 -127,123 -70,11 -132,-43 -147,-98 13,-31 12,-10 17,-51 6,-48 100,-77 114,-73 33,27 43,45 88,0l-5 -40c27,7 46,30 57,53 19,39 -12,50 65,39 2,-53 -29,-123 -60,-152 -86,-80 -228,-56 -326,-17 -23,9 -47,23 -67,39 -48,39 -24,22 -51,51 -57,-13 41,-25 -103,1 -52,9 -63,-2 -76,16 9,12 -3,2 15,8l13 5c1,-1 3,2 4,2 -9,8 16,8 -22,9l-137 -26c4,-21 -1,0 5,-13 0,-1 4,-7 4,-9 0,-3 2,-3 2,-5 -15,0 -50,2 -62,-2 -12,-4 -32,-17 -30,-31 10,-19 34,-29 59,-26l14 24 21 1zm1788 -102c-5,10 -8,14 -15,21 -18,18 1,7 -25,12l-4 -13 -13 -12c-12,-15 -10,19 -9,-18l11 -11c-11,-16 -12,-8 -7,-31 22,-11 35,-6 62,-10 28,-4 29,-16 56,-17l-2 11c-5,22 -46,28 -54,67zm-4028 -157c9,-23 75,-89 92,-99 63,30 184,225 192,293 11,9 1,-9 11,13 6,14 -1,19 13,41 43,-13 83,-103 101,-138 16,4 16,3 27,12 -3,18 -42,87 -54,105 -14,20 -23,25 -41,41 -27,24 -19,22 -49,5 -4,3 -10,5 -17,10 -16,13 -68,48 -92,49 -6,8 9,8 -36,14 -4,0 -18,2 -20,3 -32,1 25,2 -10,-1l-8 -3c-18,-19 -13,-64 -21,-89l-30 -76c-10,-21 -25,-48 -40,-68 -32,-44 -30,-31 -48,-50l-5 -8c3,-11 26,-46 34,-54zm4116 203c-1,-23 19,-36 36,-55 29,-30 18,-3 34,-53 10,-32 21,-96 87,-87 2,22 -13,49 -21,70 -8,19 -16,51 -25,67 -5,9 -79,68 -111,58zm-2386 -175c23,13 17,17 34,35 13,13 22,24 33,38 9,10 6,11 14,22 5,8 11,12 17,19 14,14 24,22 37,40 -2,13 -6,13 -12,24 -53,1 -35,11 -70,15 -26,-12 -25,-22 -46,-34l-44 12c-9,-12 -59,-90 -61,-115 9,-14 16,-17 17,-36 -18,-10 -44,-9 -30,-40 8,-18 17,-34 36,-44l75 50 0 14zm3034 -41l15 11c-3,21 -28,41 -43,44 -9,-13 -5,-7 -4,-25l-14 2c-16,32 -85,111 -117,187 -13,31 -13,51 -55,49 4,-97 135,-278 181,-304 17,8 29,23 38,36zm-2581 36c-47,26 -33,-98 -29,-117 19,-94 102,-130 107,-46 13,18 23,103 14,120 -7,17 -23,20 -41,27 -17,7 -34,13 -51,15zm-603 285c-9,-61 -44,-140 -66,-191 -27,-59 -46,-115 -17,-183l13 -22c11,14 11,-22 7,23 -1,8 -10,25 -1,52 29,4 37,-4 63,-6 -3,44 -68,57 -28,120 27,43 111,159 141,188 22,22 72,61 69,93 -25,2 -59,-32 -81,-44 -38,-23 -59,-16 -99,-29zm732 -336c-2,-47 -11,-209 -1,-247l77 1c3,47 0,114 0,164 0,53 -18,93 -75,82zm236 -75c-6,10 0,7 -14,16 -1,1 -13,6 -13,7 -18,6 -89,26 -106,26 -3,-20 28,-114 38,-119 0,-25 13,-40 38,-47 37,11 100,68 57,118zm2383 -38c-4,16 -24,29 -39,40 -9,11 -89,58 -89,58 -15,-7 -22,-16 -28,-31 5,-3 4,-3 12,-6 98,-28 57,-31 111,-67l11 -22c6,-27 7,-32 32,-42 12,-11 78,-35 100,-45 17,-8 38,-9 57,-15 96,-29 218,-36 324,-22 167,22 274,89 400,180 74,53 204,224 236,343 12,46 22,66 28,123 14,127 21,264 -25,387 -53,144 -113,252 -225,355 -47,43 -107,90 -172,122 -150,73 -301,117 -478,92 -82,-12 -160,-33 -226,-63 -100,-44 -284,-172 -308,-263 -10,-8 -5,10 -11,-14 9,-7 -11,-4 16,-6 2,0 17,1 21,2 121,8 427,22 519,20 84,-2 135,-51 187,-106 24,-26 43,-52 65,-79 21,-26 51,-62 15,-98 -7,-3 -401,1 -447,1 -39,0 -68,7 -103,7 -36,0 -72,0 -108,1 -72,2 -148,1 -217,9 -117,-6 -453,25 -610,31 -39,2 -63,14 -60,-27 11,-3 292,-21 306,-20 8,-8 -6,-4 15,-8l113 -8c104,-2 138,-11 252,-11 56,0 101,-6 128,-6 180,0 357,1 535,-4 41,-1 86,-5 133,-5 167,0 97,5 162,-40 116,-80 91,-71 169,-165 39,-48 164,-184 158,-235l-173 -11c-57,-6 -393,-8 -442,6 -24,7 -52,11 -82,7 2,-28 1,-11 7,-17 6,-24 13,-18 9,-46 -14,0 -14,0 -25,5 -2,14 -15,26 -25,34 -6,9 -1,4 -8,11 -1,1 -9,6 -10,7 -23,14 -40,12 -67,12 10,-26 13,-11 34,-35 13,-15 14,-24 29,-40l5 -19c0,-26 3,-39 -25,-32 -11,14 -16,26 -30,42 -1,1 -2,3 -3,4 -1,1 -2,3 -3,4l-16 16c-7,5 -17,12 -25,16 -16,10 -33,25 -56,21l0 -18c28,-11 26,-4 52,-23 6,-5 13,-10 19,-16 13,-13 4,-8 21,-18 9,-15 19,-27 20,-48 4,-28 13,-38 -11,-52 -27,9 -15,23 -34,38l-10 22c-9,14 -24,24 -39,36 -14,12 -27,23 -46,27 -13,-9 -16,-7 -18,-25 13,-6 38,-10 52,-19 20,-14 22,-22 41,-35 3,-9 5,-10 12,-17 13,-36 36,-53 16,-94 -17,2 -9,-6 -19,11 -5,8 0,8 -11,23 -7,15 -19,31 -30,40 -9,14 -2,6 -20,20 -7,6 -10,9 -20,15 -20,14 -27,23 -51,26 -8,-14 -14,-16 -20,-33 26,-17 23,1 64,-30 25,-18 23,-21 40,-38l7 -5 9 -26c9,-25 20,-49 -16,-58 -13,18 -3,13 -18,25 -3,17 -16,28 -26,38 -8,11 -82,57 -89,59 -17,-12 -24,-21 -29,-37 4,-3 4,-4 11,-8l26 -9c15,-5 25,-10 34,-18 21,-17 35,-39 55,-51l-3 -1c10,-23 21,-20 17,-55l-9 -7 -15 1c-2,2 -7,5 -8,7 -7,5 -2,2 -12,8zm-84 -19c-7,11 -81,60 -95,63 -17,-11 -30,-22 -31,-43 78,-1 80,-25 110,-43 6,-9 21,-34 29,-43 15,4 21,14 26,29 -10,17 -24,30 -38,37zm-4603 -126c7,-10 8,-11 20,-17 10,-6 16,-7 29,-8 45,25 107,130 131,173 68,123 60,115 22,186 -8,14 -6,13 -16,22l-8 14c-11,-13 -34,-71 -43,-90 -42,-86 -49,-84 -102,-155 -16,-21 -44,-51 -57,-73 2,-23 11,-44 24,-52zm2178 19c33,-27 65,29 28,50 -17,10 -34,2 -41,-10 -13,-21 4,-31 13,-39zm-185 46c-9,-23 -7,-25 6,-44 28,-9 22,-3 44,5 2,19 2,30 -10,38 -4,3 -14,7 -21,7 -35,1 -6,1 -18,-5zm-566 -12c11,-7 34,-17 48,-24 62,-30 291,-167 316,-170 15,22 86,155 86,183 -28,26 -136,79 -172,100 -25,15 -147,89 -177,90 -9,-16 -100,-168 -101,-180zm1499 46c0,19 3,10 5,31 -12,-4 -18,-12 -32,-30 -6,-8 -6,-9 -13,-17 -11,-12 -10,-5 -11,-25 45,-11 62,-43 98,-62 -4,16 -5,13 -11,25 -15,28 -35,54 -35,78zm-136 -6c-2,22 -17,42 -25,60 -102,0 -139,-33 -263,-15 -29,4 -27,2 -53,-14l-129 -87c1,-22 60,-187 73,-205 12,2 312,188 349,212 29,6 23,12 61,13 -9,-26 11,-4 -34,-36 -8,-6 -12,-7 -18,-12 -17,-12 -7,-1 -16,-18 5,-9 27,-35 38,-36l102 51 7 6c-17,31 -41,34 -50,38 -9,4 -15,11 -22,20 -5,7 -2,5 -8,12 -8,10 -6,6 -11,11zm-728 -143l96 0 -2 46 -94 0 0 -46zm-600 10c18,-2 18,6 27,20l-5 9 -51 33c-26,13 -47,4 -57,-17 9,-7 71,-39 86,-46zm478 102c-12,-19 -3,-135 -2,-159 1,-27 -7,-58 18,-61 22,-3 55,4 69,13 3,23 1,51 1,74 0,33 2,35 -19,50 -34,25 -53,74 -66,83zm878 -154c21,6 106,50 117,66 -11,14 -23,23 -40,28 -7,0 -88,-55 -99,-69 6,-18 7,-17 22,-25zm-1421 -1c18,-6 7,-7 29,-10 9,8 28,21 19,37l-14 11c0,0 -11,5 -14,6 -13,6 -15,8 -26,15 -13,9 -33,23 -48,27 -13,-9 -26,-18 -44,-25 9,-19 1,-12 25,-23l60 -33c10,-5 -2,0 13,-5zm812 58c-4,-31 -5,-92 5,-116 101,-13 71,16 68,96 -1,31 2,70 -2,99 -11,-7 -24,-29 -33,-41 -11,-14 -24,-27 -38,-37zm362 -115c9,3 147,74 160,85 -2,17 -4,22 -32,40 -21,-7 -140,-77 -149,-86 5,-32 16,-32 17,-35 1,-2 2,-2 3,-3zm-1074 95c11,-11 141,-86 159,-89 11,9 17,18 20,33l-163 84c-9,-9 -13,-11 -16,-28zm1505 -24c1,-1 2,2 3,3 -9,13 -43,35 -48,35 -3,-1 -115,-74 -118,-76 3,-14 8,-22 20,-31 5,-1 112,49 131,59l13 10zm-1632 -36c-9,10 1,2 -14,12 -3,2 -8,4 -13,7 -10,6 -17,10 -26,16 -31,18 -63,48 -91,-5 4,-8 116,-67 119,-68l34 -13c14,13 19,17 23,38 -8,4 -22,12 -32,14zm358 -18c-14,6 -9,10 -31,11l-8 -45 12 -6 81 -43 9 55 -62 28zm-273 17c9,-9 5,-7 22,-16 28,-14 142,-78 154,-79 9,12 10,19 12,33 -16,16 -164,92 -166,93 -13,-8 -18,-13 -22,-31zm1321 1c7,6 3,3 10,11l-17 20c-20,-2 -169,-86 -190,-101l7 -25c23,-2 118,58 150,75 14,7 30,13 41,21zm-240 -58c0,19 2,11 -5,26l-8 14c0,-1 -2,3 -3,4 -25,-2 -107,-54 -127,-69l9 -44c20,1 109,57 134,70zm-844 -23l-21 1 -9 -36 22 -9c7,-9 3,-5 13,-12 18,-12 67,-38 83,-38l-2 55 -86 39zm973 -60c32,20 153,79 167,94 -4,14 -11,20 -25,26l-207 -109 5 -37c21,-6 41,15 59,26zm-1260 79c9,-13 -1,-4 13,-13 30,-19 172,-94 186,-94l11 42c-49,19 -149,91 -193,93l-18 -28zm1005 -131c20,-5 132,65 151,80l-7 24c-21,1 -121,-55 -146,-70l2 -33zm-771 37c-4,-13 -8,-18 -6,-35l22 -9c13,-14 12,-11 30,-18 30,-13 65,-40 90,-43l-1 55 -128 63 -5 -14zm786 -70c1,-16 4,-39 12,-52 14,1 129,78 151,92l-13 37c-25,2 -90,-39 -116,-53l-34 -24zm-375 -141c9,-49 101,-47 118,-13 0,0 12,151 -8,152 -15,15 -89,8 -108,-4l-3 -135zm-2224 296c-8,18 -41,59 -55,71 -20,-2 -68,-35 -88,-45 -92,-46 -189,-76 -289,-95 -90,-17 -321,-34 -400,-60 -11,-4 -30,-12 -45,-13 -13,-3 -24,-7 -36,-13 -17,-9 -16,-6 -19,-21 45,-24 192,-41 251,-47 132,-14 276,-7 404,28 21,6 41,15 58,18 83,15 186,70 253,113 0,2 -1,3 -2,5 -13,30 -13,45 -32,60zm1832 -160l-60 26c-10,11 -94,49 -113,60 -28,16 -78,49 -108,59l-68 38 -26 18c-21,14 -47,36 -73,37 -9,-15 -6,-23 -26,-58 -32,-57 -27,-58 20,-83l47 -23 50 -25c11,-14 48,-35 68,-38 21,24 19,40 46,62 30,-6 71,-30 99,-43 9,-49 -30,-53 -20,-92 18,-8 20,-11 36,-17l57 -29c11,-12 7,-9 29,-16 45,-15 70,-39 92,-31 8,3 60,77 62,104 -39,17 -70,31 -112,51zm808 -67c4,-20 10,-21 24,-40 49,-69 52,-81 98,-55 37,22 133,63 151,90 -7,21 -36,55 -39,77 13,17 103,69 134,73l50 -64c25,0 36,12 54,25 20,14 123,78 129,90 9,16 -29,111 -35,122 0,0 -554,-304 -566,-317zm-2478 224c-14,-8 -36,-27 -44,-39 10,-30 50,-67 72,-91 35,-40 182,-214 203,-261 21,-1 24,9 48,30l11 11c0,-1 2,2 3,4 6,3 30,21 35,29 -4,22 -128,155 -145,173 -48,52 -90,125 -142,175 -20,-6 -30,-21 -41,-33zm1069 -631c18,3 138,70 164,83 110,57 133,42 128,118 -22,10 -38,12 -62,25l-171 92c-40,22 -74,38 -115,59 -21,11 -92,60 -109,61 -34,49 -51,-4 -60,-22l-65 -151c-13,-28 -31,-80 -45,-105 -11,-18 -25,-20 -19,-50 11,-56 124,-189 161,-203 33,-13 83,24 102,35 14,9 82,47 91,58zm-525 176l-41 42c-19,-3 -30,-12 -42,-21 2,-19 41,-62 57,-75l41 8c13,-20 23,-54 42,-71l24 11c4,30 -41,84 -81,107zm92 -183c6,-4 1,4 7,-5 9,-12 0,5 3,-7l10 -14c32,-2 44,27 5,60 -13,-2 -19,-3 -26,-11 -18,-22 0,-23 0,-23zm520 -101c23,2 169,92 204,110 36,19 71,34 108,52 25,12 39,12 61,21 117,49 207,52 346,52 204,0 412,11 627,8 90,-2 138,3 214,27 18,6 130,75 150,87l95 64c63,36 138,83 166,150 47,38 39,17 85,63 33,34 37,42 52,92 39,7 99,18 137,19l463 3c70,0 38,9 71,-5 34,-14 178,-9 221,-9 104,0 77,-11 131,-24 83,-20 62,26 105,32l-1 -16c-53,-69 -43,-46 -100,-46 0,-29 64,-75 98,-105 19,-16 211,-135 247,-159 28,-20 91,-75 126,-80 15,-4 23,-10 34,-17 14,-8 25,-11 42,-17 61,-20 95,-78 273,-53 68,10 135,14 203,23 36,5 61,12 97,16 29,3 61,16 88,17 63,17 112,28 175,51 25,9 48,23 72,34 80,34 130,71 201,129 22,18 98,88 100,115 -67,1 -138,7 -211,7 -209,0 -429,-2 -637,-7 -171,-4 -235,-4 -390,36 -78,20 -238,85 -293,134 4,27 28,57 42,77 15,22 81,78 9,117 -13,10 -3,10 -20,12 -18,28 -8,10 -39,28 -16,10 -20,19 -39,25 -7,-1 -113,-113 -121,-132 -13,-28 2,-8 -18,-28 -18,-18 -6,-18 -13,-39 -3,-10 -12,-18 -20,-29 -8,-10 -8,-12 -24,-13l9 30c-12,10 -149,69 -182,83 -6,3 -13,4 -19,7 -96,47 -78,13 -100,20 -29,24 -120,59 -168,77 -61,24 -119,47 -175,71 -46,19 -177,72 -223,86 -27,8 -85,41 -133,54 -12,12 -22,22 -7,46 15,23 23,11 38,29 7,8 43,78 45,86 9,7 2,-9 12,13 7,14 2,9 3,24l-107 -4c-27,-37 -66,-86 -91,-108 -18,-15 -9,-10 -21,-31 -6,-10 -16,-21 -22,-29 -49,-63 -64,-149 -54,-233 4,-34 31,-125 60,-144 0,-7 13,-38 17,-54 8,-28 8,-33 7,-68 -1,-53 -26,-74 -39,-111 -18,-12 -20,-16 -35,-30 -12,-11 -23,-15 -34,-22 -22,-14 -48,-27 -72,-41l-214 -125c-132,-75 -92,-76 -262,-76 -75,0 -151,-2 -226,-3 -73,0 -140,-8 -216,-9 -111,-2 -286,5 -390,-8 -18,-2 -24,-9 -42,-14l-15 18c-36,1 -68,23 -96,40l-258 143c-106,52 -244,114 -345,185 3,17 223,492 237,523 10,22 235,503 238,527 -18,-8 -59,-57 -74,-75 -21,-24 -43,-46 -68,-71 -13,-13 -22,-24 -36,-36 -58,-55 -27,-4 -84,-121 -62,-127 -124,-253 -186,-376 -27,-54 -91,-181 -116,-238l-185 -438c-18,-39 -35,-54 -33,-110 22,-17 31,-31 71,-30 22,35 74,118 83,156 2,10 27,53 34,66 10,21 27,49 29,69 16,12 14,19 24,40 6,13 1,5 8,14 1,-1 8,-7 8,-7l7 -5c106,-50 257,-151 368,-195l78 -35c103,-54 64,-40 98,-71l24 -18c1,-1 2,-1 3,-3 1,-2 2,-2 3,-3 -6,-37 -37,-36 -87,-64 -42,-23 -266,-146 -283,-161 -20,-7 -155,-86 -165,-99 5,-24 47,-59 66,-72 12,3 70,45 88,56 27,17 74,39 87,56zm-355 -81c-5,20 -31,50 -44,69 -10,14 -14,19 -24,33 -11,17 -20,27 -35,6 17,-4 40,-36 51,-51 8,-11 42,-50 51,-57zm0 0c5,-18 2,-12 15,-21 -5,18 -2,12 -15,21zm1066 -184c75,-1 138,19 204,33 35,7 66,16 97,24 29,8 56,22 82,30 103,14 365,175 457,247 74,58 223,179 271,253 12,19 57,87 60,104 -26,-10 -126,-70 -156,-90 -28,-18 -34,-17 -40,-21 -12,-8 -6,-1 -13,-14 -13,-1 -74,-36 -82,-41 -98,-64 -199,-48 -323,-48 -166,0 -332,-3 -498,-2 -130,0 -307,-6 -418,-77 -51,-33 -67,-26 -89,-39 -30,-18 -49,-25 -80,-43 -104,-60 -87,-61 -144,-98 -15,-14 -44,-40 -53,-58 15,-34 91,-76 129,-95 80,-40 169,-79 265,-76 88,3 225,-5 308,4 11,1 15,2 23,8zm-1045 159l-5 5 5 -5zm0 0l0 -5 6 4 -6 1zm-673 306c-15,-8 -9,10 -14,-18 0,-1 1,-19 1,-21 2,-24 17,-88 23,-108 29,-98 119,-282 186,-341l33 6c-4,22 -3,15 -17,32 -75,89 -149,270 -187,383 -4,12 -9,25 -11,35 -5,24 3,20 -12,32zm252 -371l-20 20c-25,28 -47,79 -63,111 -6,13 -13,30 -13,42 1,25 0,4 5,13 12,10 75,-5 117,6 -6,44 -152,132 -211,134 1,-27 52,-155 65,-182 15,-30 24,-54 40,-83 14,-26 32,-69 43,-78 13,-29 48,-74 68,-96 23,0 39,5 67,5 67,0 136,-4 199,-12 -5,22 -29,54 -45,69 -9,-11 -7,-18 -26,-20 -26,-3 -65,32 -81,48 -40,40 -49,12 -145,21zm914 -292c-17,-20 -1,-79 -2,-104 9,-66 81,-36 122,-17 44,21 92,22 90,83 -36,26 -46,26 -95,38 -21,5 -64,11 -89,10 -28,-1 -23,-4 -26,-9zm-12 -162c10,-11 94,-65 111,-69l-1 67c-2,1 -3,2 -5,2 -1,0 -3,1 -5,1 -24,3 12,2 -10,0 -3,0 -12,-3 -13,-4 -55,-15 -51,15 -77,1zm167 -41l41 0c50,0 85,-15 134,-15l38 29c17,16 5,7 43,18 12,3 25,4 37,10 -10,14 -20,10 -67,25 -54,17 -191,38 -219,-32 -7,-18 -6,-11 -6,-35zm-207 185l2 31c-39,12 -147,61 -189,78 -25,10 -28,0 -45,7 -27,11 -32,38 -72,33l-5 -12 -11 1c-1,11 -2,4 1,11 3,8 2,3 9,9 -6,18 -5,9 -9,27 17,11 37,24 44,45 -9,21 -32,40 -48,48 -17,2 -47,-26 -48,-26 -33,-22 -40,14 -44,6 -1,-1 -2,2 -4,3 -7,20 -189,225 -217,258l-211 258c-24,61 28,55 44,90 -3,17 -21,39 -39,45 -9,0 -107,-77 -125,-90 -15,-11 -27,-16 -39,-27 4,-22 16,-23 25,-46 42,-7 24,-1 48,-29l105 -121c53,-60 221,-277 260,-330 23,-32 42,-59 62,-87 12,-16 15,-37 24,-54 12,-25 14,-23 44,-28l71 -100c30,-58 141,-146 190,-189 44,-39 157,-134 231,-147l23 32 30 12c-4,19 -8,15 -25,24 -34,18 -202,121 -209,136 -4,37 1,47 21,64 52,1 70,-48 119,-56 -9,50 -24,58 -12,126zm458 -329c-8,33 10,63 31,78 28,20 73,-1 99,14 -17,31 -79,36 -107,24 -28,-12 -59,-44 -67,-76 -4,-25 -19,-42 -1,-66 50,-65 167,-71 177,-14 -25,0 -65,-8 -88,0 -26,9 -27,27 -44,39zm-77 -31c-35,62 -22,52 -33,105 -99,20 -71,16 -170,6 -16,-66 -9,-22 -22,-54 31,-49 8,-30 10,-97 33,-7 47,15 83,66 -3,13 -7,17 -4,33 29,6 43,-10 53,-28 5,-22 -36,-43 -43,-72 13,-8 109,-25 121,-24l21 34c-4,14 -11,21 -17,30zm-174 -232c-18,-4 -15,-12 -36,-61 -41,-95 -40,-93 -16,-140 17,-32 24,-52 41,-57 7,11 3,1 6,17l6 45c6,33 11,177 -2,196z"/>
  </g>
 </g>
</svg>
